M48
;Layer_Color=9474304
;FILE_FORMAT=4:4
METRIC,LZ
;TYPE=PLATED
T01F00S00C0.2540
T02F00S00C0.6000
T03F00S00C0.8000
T04F00S00C1.0000
T05F00S00C1.0200
T06F00S00C1.1000
T07F00S00C1.5000
;TYPE=NON_PLATED
T08F00S00C2.2500
T09F00S00C3.2000
%
T01
X0004457Y0003723
X0005707Y0006223
X0003207
X0004457Y0008723
X0005707Y0011223
X0008207
X0010707
X0013207
X00153964Y00108887
Y00117563
Y00126239
Y00134915
Y0014359
Y00152266
Y00160942
X00173741Y00160126
Y00152253
Y00144381
Y00136509
Y00128637
Y00120764
Y00112892
Y0010502
X00170329Y00097906
X00177121Y00094452
X00175119Y00081673
X00153964Y0008286
Y00091536
Y00100212
X0014457Y0008723
X0011957
X0013207Y0006223
X0015707
X0016394Y00063617
X0018207Y0006223
X0019457Y0003723
X0016957
X0014457
X0015707Y0001223
X0018207
Y0011223
X0019457Y0013723
X0018207Y0016223
X00173741Y00167998
Y0017587
Y00183742
Y00191614
Y00199487
Y00207359
Y00215231
Y00223104
Y00230976
Y00238848
Y00245061
X00181772
X00189804
X00197835
X0019457Y0023723
X00192281Y00264249
X00200769
X00183792
X00175304
X00166815
X0014894Y00263226
X0013207Y0026223
X00139994Y0025428
X0014457Y0023723
X00153964Y00236179
Y00245091
Y00227267
Y00218354
Y00209442
Y00200529
Y00191617
Y00182704
X0014457Y0018723
X00139994Y0017278
X0013207Y0016223
X0010707
X0008207
X0005707
X0006957Y0018723
X0009457
X0011957
X0013207Y0021223
X0010707
X0008207
X0005707
X0006957Y0023723
X0009457
X0011957
X0010707Y0026223
X0008207
X0005707
X0006957Y0028723
X0009457
X0011957
X0014457
X00144819Y003005
X0015707Y0031223
X0018207
X0019457Y0028723
X0016957
X00131569Y0031375
X0010707Y0031223
X0008207
X0005707
X0004457Y0028723
Y0023723
Y0018723
Y0013723
X0006957
X0009457
X0011957
X0014457
X0019457Y0018723
X0018207Y0021223
X0010707Y0006223
X0020707
Y0011223
Y0016223
X0021957Y0018723
X0024457
X0026957
X0029457
X0031957
X0034457
X0036957
X0039457
X0041957
X0040707Y0021223
X0038207
X0035707
X0033207
X0030707
X0030994Y00230334
X0029457Y0023723
X00290576Y00245089
X00300155
X00280998
X00271419
X0026184
X00252261
X002517Y00264249
X00260189
X00268677
X00277166
X00285654
X00294142
X00302631
X00311119
X00319608
X00328096
X00336585
X00345073
X00353562
X0036205
X00370539
X00379027
X00387516
X00396004
X00404493
X00412981
X0042147
X00429958
X00438447
X00446935
X00455424
X00463912
X00472401
X00474589Y00244304
X00466906
X00459222
X00451539
X00443856
X00436173
X0042849
X00420806
X00413123
X0040544
X0041957Y0023723
X0044457
X0046957
X00482272Y00244304
X00489955
X00496776Y00247891
X00502762Y00243175
X00509495Y00239607
X00517114Y00239507
X00524734
X00532352Y00239687
X00538904Y00243577
X00540963Y00250913
Y00258533
X00538322Y00265681
X0053144Y00268953
X00522631Y00269053
X00515011
X0050741Y00268515
X00501591Y00263596
X00494269Y00261486
X0049457Y0023723
X0050707Y0021223
X0051957Y0018723
X0054457
X0056957
X0059457
X00569612Y0021778
X0055707Y0021223
X0054457Y0023723
X0055707Y0026223
X0054457Y0028723
X0055707Y0031223
X0050707
X0048207
X0045707
X0046957Y0028723
X0049457
X00486115Y00278226
X0044457Y0028723
X0041957
X0039457
X0036957
X0034457
X0031957
X0029457
X0026957
X0024457
X00243212Y00264249
X00234723
X00226235
X00217746
X00209258
X00205866Y00245061
X00213897
X00221928
X00229959
X0021957Y0023723
X00237793Y00229834
X0023207Y0021223
X0025707
X0028207
X0026957Y0023723
X0032188Y00244304
X00330738
X00339596
X00348454
X00357313
X00366171
X00375029
X00383887
X0036957Y0023723
X0034457
X0039444Y00229834
X0049457Y0018723
X0020707Y0021223
X0021957Y0028723
X0023207Y0031223
X0020707
Y0001223
X0061957Y0018723
X0064457
X0066957
X0069457
X0071957
X00729419Y00199834
Y0022643
X0071957Y0023723
X0069457
X0066957
X0065707Y0026223
X0066957Y0028723
X00662371Y00298839
X00653008Y0031
X0071957Y0028723
X00741488Y0028378
X0076957Y0023723
X0079457
X0081957
X0080707Y0026223
X0081957Y0028723
X0080707Y0031223
Y0021223
X0078207
X0079457Y0018723
X0081957
X0080707Y0016223
X0078207
X0075707
X0073207
X0070707
X0071957Y0013723
X0074457
X0076957
X0081957
Y0008723
X0079457
X0080707Y0006223
X0078207
X0079457Y0003723
X0080707Y0001223
X0084457Y0003723
X0076957Y0018723
X0074457
X0065707Y0021223
X00644768Y0021778
X00615612
X0060707Y0021223
X00598768Y0021778
X0064457Y0033723
X00644508Y00353128
X00653447Y0035345
X00674008Y00324764
X00697464Y00317
X00711387Y0032472
X0071519Y00354574
X0070707Y0036223
X00726661Y0037753
X00721679Y00402391
X00731019Y0040615
X00732409Y00430756
X00771233Y00423932
X0078207Y0041223
X00789733Y0040615
X0080707Y0041223
X0081957Y0043723
X0079457
X00788524Y00444311
X00789733Y00464807
X0078207Y0046223
X0080707
X0081957Y0048723
X0079457
X0080707Y0051223
X0078207
X0075707
X00754834Y00499546
X00742062Y00494007
X0073207Y0051223
X0074457Y0053723
X0076957
Y0056223
X0079457
Y0053723
X0080707Y0058723
X0078207
X0079457Y0061223
X0081957
X0080707Y0063723
X0081957Y0066223
X0079457
X0080707Y0068723
X0073207
X00703078Y00690236
X0067869Y00704793
X00639783Y00662193
Y00636793
X00703078Y00628043
X00715915Y00611393
X00715965Y00602393
X00698522Y00596393
X00677006Y00598693
X0073207Y0058723
X0071957Y0053723
X0069457
X00655808Y00537686
X00646808Y00538051
X00612Y00546717
X0061957Y0048723
X0063019Y00478563
X00629539Y0047059
X0063207Y0046223
X0060707
X0061957Y0043723
X00646571Y0044578
X0064457Y0048723
X00692531Y00499095
X0071957Y0048723
X00764855Y00389195
X0081957Y0038723
X0080707Y0036223
X0081957Y0033723
X0063207Y0041223
X0060707
X0075707Y0063723
X0058207Y0061223
X005444Y00611393
Y00598693
X0053207Y0061223
X0050707
Y0066223
X00520554Y00662193
Y00649493
X00546693
Y00662193
X00545901Y00674893
X0054599Y00687593
X0051957Y0068723
X0046957
X0048207Y0066223
X00545901Y00636793
X0054457Y0053723
X0056957
X0059457
Y0048723
X00576081Y0047228
X0058207Y0046223
X0059457Y0043723
X0058207Y0041223
X00571008Y0039867
X0056957Y0038723
X00568608Y00363628
X0056957Y0033723
X00593932Y00337469
X0054457Y0033723
Y0038723
X0053207Y0041223
X00542556Y0043228
X0054124Y00445311
X00536Y00498619
X0052122Y00496439
X00499021Y0050611
X0049457Y0048723
Y0053723
X0051957
X0043207
X0041957Y0056223
Y0051223
X0043207Y0048723
X0041957Y0046223
X0043207Y0043723
X0040707
X0041957Y0041223
X0043207Y0038723
X0041957Y0036223
X0040707Y0033723
X0044457
X0045707Y0036223
Y0041223
X0046957Y0043723
X00483989Y00440809
X00457815Y00451811
X0045707Y0046223
X00458315Y00469349
X0034457Y0046223
Y0051223
Y0056223
X0033207Y0058723
X00331596Y00609173
X0031957Y0061223
X00322783Y00617986
X00340409
X0034457Y0061223
X00352664Y00613378
X00360977Y00605065
X00361477Y00622691
X0035707Y0063723
X0034612Y00636548
X00328548Y00647986
Y00660986
X00361245Y00660423
X0036957Y0066223
X00292995Y00664236
X00280995
X00286995Y00670236
X00292995Y00676236
X00286995Y00682236
X00280995Y00676236
X00274995Y00682236
Y00670236
X00268995Y00676236
Y00664236
X00274995Y00658236
X00286995
X00292995Y00652236
X00286995Y00646236
X00280995Y00652236
X00274995Y00646236
X00268995Y00652236
X00278098Y00613486
X00286032Y00615986
X00294345Y00624799
X00294845Y00607173
X00220995Y00604173
X0023207Y0056223
X0021957Y0053723
X0023207Y0051223
X0020707
X0021957Y0048723
X0023207Y0046223
X0020707
X0021957Y0043723
X0023207Y0041223
X0020707
X0021957Y0038723
X0023207Y0036223
X0020707
X0021957Y0033723
X0035707
X0036957Y0036223
X0034457
X0035707Y0038723
X0034457Y0041223
X0049457Y0033723
X0019457
X0016957
X0015494Y00346634
X00145994Y0035558
X00163886Y0035608
X0014457Y0033723
X0011957
X0009457
X0006957
X0004457
X0005707Y0036223
X0004457Y0038723
X0005707Y0041223
X0006957Y0043723
X0004457
X0005707Y0046223
X0004457Y0048723
X00074664Y0048999
X00085665Y0050543
X00095Y0050525
X0009769Y00518834
X00088744Y0052778
X0009769Y00536726
X0011957Y0053723
X00143401Y00540469
X00157679
X0016957Y0053723
X0018207Y0056223
X0015707
X0016957Y0061223
X0019457
X0014457
X0016957Y0066223
X0006957
X0008207Y0068723
X0005707
Y0063723
X0006957Y0061223
Y0053723
X0008207Y0051223
X0005707
X0010869Y0049553
Y0048503
X0011769Y0049028
X0012669Y0048503
Y0049553
X00138509Y0049024
X00147455Y00500084
X0016957Y0048723
X0015819Y00461976
X00166636Y0045303
X0015769Y00444084
X0016957Y0043723
X0018207Y0046223
Y0051223
Y0041223
X0015707
X0012769Y00463971
X0010707Y0046223
X0009457Y0071223
X0006957
X0005707Y0073723
X0006957Y0076223
X0011957
X0013207Y0078723
X0010707
X0009457Y0081223
X0010707Y0083723
X0013207
X0015707
X0018207
X0008207
X0005707
X0009457Y0086223
X0010707Y0073723
X00254286Y00739956
Y0074678
Y00754876
X0028207Y0073723
X0030707
X0033207
X00322432Y00750876
X0035707Y0073723
X0038207
X0040253Y00749216
X0039457Y0076223
X0041957
X0043207Y0078723
X0045707
X0048207
X0050707
X0051957Y0081223
X0054457
X0056957
X0059457
X0058207Y0078723
X0059457Y0076223
X0056957
X0054457
X0051957
X0049457
X0046957
X0043207Y0073723
X0048207Y0071223
X0050707
X0052317Y00724738
X00539Y00718238
X0058207Y0071223
X0050707Y0083723
X0048207
X0045707
X0043207
X0040707
X0038207
X0035707
X0033207
X0030707
X0028207
X0025707
X0023207
X0020707
X0024457Y0071223
X0026957
X0029457
X00658548Y00722262
X0065707Y0073723
X0068207
X0070707
X0073207
X0075707
X0076957Y0071223
X0079457
X0081957
X0080707Y0073723
X0081957Y0076223
X0079457
X0074457
X0071957
X0069457
X0066957
X0064457
X0065707Y0078723
X0068207
X0069457Y0081223
X0066957
X0064457
X0061957
X0063207Y0083723
X0065707
X0068207
X0070707
X0073207
X0075707
X0078207
X0080707
X0081957Y0086223
X0076957
Y0081223
X0075707Y0078723
X0074457Y0071223
X0071957
X0069457
X0063207Y0078723
T02
X0076839Y0062159
Y0063409
X0078089
Y0064659
X0076839
X0078089Y0062159
X0009725Y0062152
Y0063402
Y0064652
X0008475
Y0063402
Y0062152
T03
X001865Y00074812
Y00101313
X0019975Y00088062
X00213Y00101313
Y00074812
X00785132Y003105
Y003305
Y003505
Y003705
X0047747Y0056175
Y0058175
Y0060175
Y0062175
T04
X00412095Y0037858
Y0048018
Y0053098
X00183495
Y0048018
Y0042938
Y0037858
T05
X0011677Y0080135
Y0082675
X0014217
X0016757
Y0080135
X0019297
Y0082675
X0019424Y0085596
X0016884
Y0088136
X0019424
X0014344
X0011804
Y0085596
X0014344
X0014217Y0080135
X0021837
Y0082675
X0024377
Y0080135
X0026917
Y0082675
X0029457
X0031997
Y0080135
X0034537
X0037077
X0039617
Y0082675
X0037077
X0034537
X0034664Y0085596
X0032124
Y0088136
X0034664
X0037204
Y0085596
X0039744
Y0088136
X0042284
Y0085596
X0044824
X0047364
Y0088136
X0049904
Y0085596
X0052444
Y0088136
X0054984
Y0085596
X0057524
Y0088136
X0057397Y0082675
X0054857
X0052317
X0049777
X0047237
Y0080135
X0049777
X0052317
X0054857
X0057397
X0044697
X0042157
Y0082675
X0044697
X0044824Y0088136
X0029584
X0027044
X0024504
X0021964
Y0085596
X0024504
X0027044
X0029584
X0029457Y0080135
X0059937
X0062477
Y0082675
X0065017
Y0080135
X0067557
Y0082675
X0070097
Y0080135
X0072637
Y0082675
X0075177
Y0080135
X0075304Y0085596
X0072764
Y0088136
X0070224
X0067684
X0065144
X0062604
Y0085596
X0065144
X0067684
X0070224
X0075304Y0088136
X0060064
Y0085596
X0059937Y0082675
T06
X00785132Y0025619
Y0028159
T07
X00386695Y0035228
X00208895Y0055728
T08
X0076639Y0058259
Y0068559
X0009925Y0068552
Y0058252
T09
X0002635Y0002072
X0008775Y0008
X00788307Y00119988
X0082642Y0002071
X0008775Y00749975
X0006445Y0087797
X0080105
X00777815Y00749975
M30
