%TF.GenerationSoftware,Altium Limited,Altium Designer,25.8.1 (18)*%
G04 Layer_Color=0*
%FSLAX45Y45*%
%MOMM*%
%TF.SameCoordinates,E40C52F6-B12D-486C-AAC2-1DB2447C0C70*%
%TF.FilePolarity,Positive*%
%TF.FileFunction,Plated,1,4,PTH,Drill*%
%TF.Part,Single*%
G01*
G75*
%TA.AperFunction,ComponentDrill*%
%ADD121C,0.80000*%
%ADD122C,0.80000*%
%ADD123C,1.00000*%
%ADD124C,1.50000*%
%ADD125C,0.60000*%
%ADD126C,1.10000*%
%ADD127C,1.02000*%
%TA.AperFunction,ViaDrill,NotFilled*%
%ADD128C,0.25400*%
D121*
X4774701Y6217500D02*
D03*
X1865000Y748124D02*
D03*
X2130000Y1013125D02*
D03*
X7851319Y3505001D02*
D03*
Y3705001D02*
D03*
Y3305001D02*
D03*
Y3105000D02*
D03*
X4774701Y5617500D02*
D03*
Y5817500D02*
D03*
Y6017500D02*
D03*
D122*
X2130000Y748124D02*
D03*
X1865000Y1013125D02*
D03*
X1997500Y880625D02*
D03*
D123*
X1834949Y4801800D02*
D03*
X4120949Y5309800D02*
D03*
Y3785800D02*
D03*
Y4801800D02*
D03*
X1834949Y5309800D02*
D03*
Y4293800D02*
D03*
Y3785800D02*
D03*
D124*
X3866949Y3522800D02*
D03*
X2088949Y5572800D02*
D03*
D125*
X972500Y6340204D02*
D03*
X847500Y6465204D02*
D03*
X972500D02*
D03*
X847500Y6215204D02*
D03*
X972500D02*
D03*
X847500Y6340204D02*
D03*
X7683902Y6340900D02*
D03*
X7808902D02*
D03*
X7683902Y6465900D02*
D03*
Y6215900D02*
D03*
X7808902Y6465900D02*
D03*
Y6215900D02*
D03*
D126*
X7851319Y2561901D02*
D03*
Y2815901D02*
D03*
D127*
X7276401Y8813600D02*
D03*
X3707701Y8013500D02*
D03*
X3961701D02*
D03*
X1688401Y8813600D02*
D03*
Y8559600D02*
D03*
X1942401Y8813600D02*
D03*
Y8559600D02*
D03*
X3212401Y8813600D02*
D03*
Y8559600D02*
D03*
X3466401Y8813600D02*
D03*
Y8559600D02*
D03*
X4736401Y8813600D02*
D03*
Y8559600D02*
D03*
X4990401Y8813600D02*
D03*
Y8559600D02*
D03*
X6260401Y8813600D02*
D03*
Y8559600D02*
D03*
X6514401Y8813600D02*
D03*
Y8559600D02*
D03*
X1675701Y8267500D02*
D03*
Y8013500D02*
D03*
X1929701Y8267500D02*
D03*
Y8013500D02*
D03*
X3199701Y8267500D02*
D03*
Y8013500D02*
D03*
X3453701Y8267500D02*
D03*
Y8013500D02*
D03*
X4723701Y8267500D02*
D03*
Y8013500D02*
D03*
X4977701Y8267500D02*
D03*
Y8013500D02*
D03*
X6247701Y8267500D02*
D03*
Y8013500D02*
D03*
X6501701Y8267500D02*
D03*
Y8013500D02*
D03*
X1180401Y8813600D02*
D03*
Y8559600D02*
D03*
X1434401Y8813600D02*
D03*
Y8559600D02*
D03*
X2196401Y8813600D02*
D03*
Y8559600D02*
D03*
X2450401Y8813600D02*
D03*
Y8559600D02*
D03*
X2704401Y8813600D02*
D03*
Y8559600D02*
D03*
X2958401Y8813600D02*
D03*
Y8559600D02*
D03*
X3720401Y8813600D02*
D03*
Y8559600D02*
D03*
X3974401Y8813600D02*
D03*
Y8559600D02*
D03*
X4228401Y8813600D02*
D03*
Y8559600D02*
D03*
X4482401Y8813600D02*
D03*
Y8559600D02*
D03*
X5244401Y8813600D02*
D03*
Y8559600D02*
D03*
X5498401Y8813600D02*
D03*
Y8559600D02*
D03*
X5752401Y8813600D02*
D03*
Y8559600D02*
D03*
X6006401Y8813600D02*
D03*
Y8559600D02*
D03*
X6768401Y8813600D02*
D03*
Y8559600D02*
D03*
X7022401Y8813600D02*
D03*
Y8559600D02*
D03*
X7276401D02*
D03*
X7530401Y8813600D02*
D03*
Y8559600D02*
D03*
X1167701Y8267500D02*
D03*
Y8013500D02*
D03*
X1421701Y8267500D02*
D03*
Y8013500D02*
D03*
X2183701Y8267500D02*
D03*
Y8013500D02*
D03*
X2437701Y8267500D02*
D03*
Y8013500D02*
D03*
X2691701Y8267500D02*
D03*
Y8013500D02*
D03*
X2945701Y8267500D02*
D03*
Y8013500D02*
D03*
X3707701Y8267500D02*
D03*
X3961701D02*
D03*
X4215701D02*
D03*
Y8013500D02*
D03*
X4469701Y8267500D02*
D03*
Y8013500D02*
D03*
X5231701Y8267500D02*
D03*
Y8013500D02*
D03*
X5485701Y8267500D02*
D03*
Y8013500D02*
D03*
X5739701Y8267500D02*
D03*
Y8013500D02*
D03*
X5993701Y8267500D02*
D03*
Y8013500D02*
D03*
X6755701Y8267500D02*
D03*
Y8013500D02*
D03*
X7009701Y8267500D02*
D03*
Y8013500D02*
D03*
X7263701Y8267500D02*
D03*
Y8013500D02*
D03*
X7517701Y8267500D02*
D03*
Y8013500D02*
D03*
D128*
X6623754Y3377868D02*
D03*
X6534473Y3534500D02*
D03*
X7047540Y3625280D02*
D03*
X445702Y872301D02*
D03*
X570702Y4622301D02*
D03*
X8070702Y4122301D02*
D03*
X4195702Y2372301D02*
D03*
X945702Y3372301D02*
D03*
X3695702Y2372301D02*
D03*
X8070702Y2622301D02*
D03*
X7695702Y1372301D02*
D03*
X2070702Y3122301D02*
D03*
X1445702Y372301D02*
D03*
X6070702Y4122301D02*
D03*
X1195702Y1872301D02*
D03*
X320702Y622301D02*
D03*
X5445702Y1872301D02*
D03*
X6070702Y4622301D02*
D03*
X2320702Y5122301D02*
D03*
X2195702Y4372301D02*
D03*
X5570702Y2622301D02*
D03*
X570702Y3122301D02*
D03*
X5695702Y3872301D02*
D03*
X1570702Y122301D02*
D03*
X5695702Y3372301D02*
D03*
X5445702Y2372301D02*
D03*
X1070702Y2122301D02*
D03*
X8195702Y3872301D02*
D03*
X7945702Y1872301D02*
D03*
X8195702D02*
D03*
X7195702Y5372301D02*
D03*
X1945702Y3372301D02*
D03*
X2070702Y622301D02*
D03*
X3445702Y1872301D02*
D03*
X6195702Y4372301D02*
D03*
X2195702Y1872301D02*
D03*
X5945702D02*
D03*
X1570702Y3122301D02*
D03*
X1820702Y2122301D02*
D03*
X7195702Y2372301D02*
D03*
X5820702Y6122301D02*
D03*
X1570702Y622301D02*
D03*
X1445702Y3372301D02*
D03*
X7195702Y1872301D02*
D03*
X1195702Y2372301D02*
D03*
X5820702Y4622301D02*
D03*
X5195702Y1872301D02*
D03*
X2820702Y2122301D02*
D03*
X1070702Y2622301D02*
D03*
X695702Y3372301D02*
D03*
X8445702Y372301D02*
D03*
X695702Y2372301D02*
D03*
X1195702Y872301D02*
D03*
X4570702Y3122301D02*
D03*
X820702Y2122301D02*
D03*
X5070702Y6622301D02*
D03*
X1820702Y5622301D02*
D03*
X570702Y5122301D02*
D03*
X1695702Y3372301D02*
D03*
X4070702Y2122301D02*
D03*
X7695702Y1872301D02*
D03*
X6695702D02*
D03*
X7070702Y1622301D02*
D03*
X8070702Y622301D02*
D03*
X3320702Y2122301D02*
D03*
X2570702D02*
D03*
X5445702Y3872301D02*
D03*
Y2872301D02*
D03*
X1195702Y1372301D02*
D03*
X820702Y3122301D02*
D03*
X2695702Y2372301D02*
D03*
X6570702Y2122301D02*
D03*
X3695702Y2872301D02*
D03*
X4820702Y3122301D02*
D03*
X7320702Y1622301D02*
D03*
X1945702Y1872301D02*
D03*
X8070702Y5122301D02*
D03*
X6070702Y2122301D02*
D03*
X2945702Y1872301D02*
D03*
X2320702Y3622301D02*
D03*
X7820702Y5122301D02*
D03*
X4195702Y1872301D02*
D03*
X1820702Y622301D02*
D03*
X945702Y1872301D02*
D03*
X570702Y622301D02*
D03*
X2320702Y4122301D02*
D03*
X8195702Y872301D02*
D03*
X2945702Y2872301D02*
D03*
X945702D02*
D03*
X7945702Y872301D02*
D03*
X7695702Y5372301D02*
D03*
Y2372301D02*
D03*
X445702Y4872301D02*
D03*
X6320702Y4622301D02*
D03*
X6695702Y2872301D02*
D03*
X1445702D02*
D03*
X570702Y2122301D02*
D03*
X3695702Y1872301D02*
D03*
X1070702Y1122301D02*
D03*
X570702Y3622301D02*
D03*
X7820702Y4622301D02*
D03*
X945702Y2372301D02*
D03*
Y1372301D02*
D03*
X4445702Y3372301D02*
D03*
X1070702Y3122301D02*
D03*
X2195702Y5372301D02*
D03*
X5945702D02*
D03*
X820702Y5122301D02*
D03*
X1820702Y122301D02*
D03*
X7195702Y2872301D02*
D03*
X8195702D02*
D03*
X1195702D02*
D03*
X2320702Y2122301D02*
D03*
X4945702Y2872301D02*
D03*
X7820702Y4122301D02*
D03*
X7945702Y4372301D02*
D03*
X4695702D02*
D03*
X445702D02*
D03*
X4945702Y5372301D02*
D03*
X2320702Y5622301D02*
D03*
X3070702Y2122301D02*
D03*
X7820702Y1622301D02*
D03*
X8195702Y2372301D02*
D03*
X1445702Y1872301D02*
D03*
X445702Y1372301D02*
D03*
X8070702Y3622301D02*
D03*
X1695702Y372301D02*
D03*
X5945702Y4372301D02*
D03*
X3945702Y2872301D02*
D03*
X4695702Y6872301D02*
D03*
X2070702Y5122301D02*
D03*
X1320702Y1122301D02*
D03*
X5070702Y3122301D02*
D03*
X8070702Y2122301D02*
D03*
X2195702Y3372301D02*
D03*
X1320702Y1622301D02*
D03*
X2445702Y1872301D02*
D03*
X570702Y2622301D02*
D03*
X4820702Y7122301D02*
D03*
X445702Y372301D02*
D03*
X2320702Y4622301D02*
D03*
X7820702Y2122301D02*
D03*
X3195702Y1872301D02*
D03*
X7195702Y1372301D02*
D03*
X1320702Y622301D02*
D03*
X6320702Y4122301D02*
D03*
X820702Y2622301D02*
D03*
X695702Y5372301D02*
D03*
Y4372301D02*
D03*
X4945702Y2372301D02*
D03*
X1195702Y3372301D02*
D03*
X4945702D02*
D03*
X3445702Y2372301D02*
D03*
X2070702Y122301D02*
D03*
X5320702Y6122301D02*
D03*
X6445702Y4872301D02*
D03*
X5320702Y4122301D02*
D03*
X4570702Y4622301D02*
D03*
X2945702Y2372301D02*
D03*
X1820702Y1622301D02*
D03*
X570702Y4122301D02*
D03*
X1320702Y2622301D02*
D03*
X7945702Y372301D02*
D03*
X4945702Y1872301D02*
D03*
X2070702Y2122301D02*
D03*
X8195702Y4372301D02*
D03*
X1570702Y5622301D02*
D03*
X7195702Y4872301D02*
D03*
X5570702Y3122301D02*
D03*
X6195702Y1872301D02*
D03*
X2070702Y4622301D02*
D03*
Y1622301D02*
D03*
X1945702Y372301D02*
D03*
X570702Y1122301D02*
D03*
X7945702Y4872301D02*
D03*
X1070702Y4622301D02*
D03*
X5820702Y4122301D02*
D03*
X5070702Y7122301D02*
D03*
X2195702Y2372301D02*
D03*
X5070702Y6122301D02*
D03*
Y2122301D02*
D03*
X1070702Y622301D02*
D03*
X1695702Y4372301D02*
D03*
X2445702Y2872301D02*
D03*
X5195702Y5372301D02*
D03*
X6945702D02*
D03*
X1320702Y2122301D02*
D03*
X8070702Y3122301D02*
D03*
X1945702Y2872301D02*
D03*
X3945702Y1872301D02*
D03*
X2195702Y2872301D02*
D03*
X1820702Y4122301D02*
D03*
X1945702Y2372301D02*
D03*
X1445702Y1372301D02*
D03*
X2070702Y1122301D02*
D03*
X1445702Y872301D02*
D03*
X1695702Y2872301D02*
D03*
X4570702Y4122301D02*
D03*
X445702Y2872301D02*
D03*
Y2372301D02*
D03*
X4820702Y6622301D02*
D03*
X4695702Y2872301D02*
D03*
X2070702Y4122301D02*
D03*
X7445702Y1372301D02*
D03*
X7945702Y2372301D02*
D03*
X1695702Y4872301D02*
D03*
X4195702Y2872301D02*
D03*
X7570702Y5122301D02*
D03*
X820702Y1622301D02*
D03*
X7320702Y5122301D02*
D03*
X3570702Y2122301D02*
D03*
X1820702Y5122301D02*
D03*
X4570702Y3622301D02*
D03*
X6195702Y4872301D02*
D03*
X5695702Y5372301D02*
D03*
X1820702Y3122301D02*
D03*
X5695702Y1872301D02*
D03*
X5195702Y6872301D02*
D03*
X6445702Y1872301D02*
D03*
Y3372301D02*
D03*
X8070702Y122301D02*
D03*
X5820702Y7122301D02*
D03*
X5445702Y3372301D02*
D03*
X6695702Y2372301D02*
D03*
X8195702Y1372301D02*
D03*
X1070702Y1622301D02*
D03*
X7570702D02*
D03*
X2195702Y4872301D02*
D03*
X1445702Y2372301D02*
D03*
X6945702D02*
D03*
Y1872301D02*
D03*
X695702Y2872301D02*
D03*
X3820702Y2122301D02*
D03*
X8195702Y4872301D02*
D03*
X2320702Y3122301D02*
D03*
X570702Y1622301D02*
D03*
X6570702Y2622301D02*
D03*
X8070702Y1622301D02*
D03*
X2070702Y3622301D02*
D03*
X7445702Y5372301D02*
D03*
X2195702Y3872301D02*
D03*
X1570702Y4122301D02*
D03*
X7445702Y1872301D02*
D03*
X7945702Y5372301D02*
D03*
X1820702Y1122301D02*
D03*
X1195702Y5372301D02*
D03*
X445702Y3372301D02*
D03*
X5445702Y5372301D02*
D03*
X4445702Y2872301D02*
D03*
X1945702Y1372301D02*
D03*
X4695702Y2372301D02*
D03*
X445702Y1872301D02*
D03*
X820702Y1122301D02*
D03*
X3195702Y2872301D02*
D03*
X2695702D02*
D03*
Y1872301D02*
D03*
X8070702Y4622301D02*
D03*
X1695702Y5372301D02*
D03*
X4445702Y2372301D02*
D03*
X5570702Y2122301D02*
D03*
X445702Y3872301D02*
D03*
X1820702Y4622301D02*
D03*
X7820702Y622301D02*
D03*
X5945702Y4872301D02*
D03*
X695702Y1372301D02*
D03*
X3445702Y2872301D02*
D03*
X8195702Y3372301D02*
D03*
X4945702Y4872301D02*
D03*
X695702Y1872301D02*
D03*
X6468079Y5380511D02*
D03*
X5212203Y4964387D02*
D03*
X7420619Y4940069D02*
D03*
X7548338Y4995464D02*
D03*
X7712330Y4239323D02*
D03*
X7266606Y3775301D02*
D03*
X4578150Y4518112D02*
D03*
X4583150Y4693494D02*
D03*
X4990213Y5061101D02*
D03*
X7885236Y4443112D02*
D03*
X5444000Y5986926D02*
D03*
Y6113926D02*
D03*
X5205543Y6494926D02*
D03*
Y6621926D02*
D03*
X5390000Y7182383D02*
D03*
X5231701Y7247383D02*
D03*
X5459901Y6875926D02*
D03*
X4861155Y2782257D02*
D03*
X3944401Y2298343D02*
D03*
X3099400Y2303343D02*
D03*
X2377929Y2298343D02*
D03*
X1399944Y1727800D02*
D03*
X1639400Y636167D02*
D03*
X1638857Y3560800D02*
D03*
X1459943Y3555800D02*
D03*
X1549400Y3466344D02*
D03*
X1576900Y4440844D02*
D03*
X1666357Y4530300D02*
D03*
X1581900Y4619757D02*
D03*
X1385093Y4902400D02*
D03*
X1474550Y5000844D02*
D03*
X976901Y5188344D02*
D03*
Y5367257D02*
D03*
X887444Y5277800D02*
D03*
X746639Y4899900D02*
D03*
X856651Y5054301D02*
D03*
X7294190Y1998343D02*
D03*
X6447679Y2177800D02*
D03*
X6156121D02*
D03*
X5696121D02*
D03*
X5987679D02*
D03*
X7897330Y4648068D02*
D03*
Y4061499D02*
D03*
X7151900Y3545735D02*
D03*
X1737415Y1128920D02*
D03*
Y1050198D02*
D03*
X1703292Y979056D02*
D03*
X1771214Y944516D02*
D03*
X1751190Y816732D02*
D03*
X1539640Y828601D02*
D03*
Y915359D02*
D03*
Y1002116D02*
D03*
Y1088873D02*
D03*
Y1175630D02*
D03*
X1737415Y1443810D02*
D03*
Y1365087D02*
D03*
Y1286365D02*
D03*
Y1207642D02*
D03*
X1539640Y1262388D02*
D03*
Y1349145D02*
D03*
Y1435902D02*
D03*
X1737415Y1994867D02*
D03*
Y1916145D02*
D03*
Y1837422D02*
D03*
Y1758700D02*
D03*
Y1679977D02*
D03*
Y1601255D02*
D03*
Y1522532D02*
D03*
X1539640Y1522659D02*
D03*
Y1609417D02*
D03*
Y1827041D02*
D03*
Y1916166D02*
D03*
Y2005290D02*
D03*
X1737415Y2309757D02*
D03*
Y2231035D02*
D03*
Y2152312D02*
D03*
Y2073590D02*
D03*
X1539640Y2094415D02*
D03*
Y2183540D02*
D03*
Y2272665D02*
D03*
X1668153Y2642488D02*
D03*
X1753038D02*
D03*
X1837923D02*
D03*
X1922808D02*
D03*
X1817725Y2450613D02*
D03*
X1737415D02*
D03*
Y2388480D02*
D03*
X1539640Y2361790D02*
D03*
Y2450914D02*
D03*
X2007692Y2642488D02*
D03*
X2092577D02*
D03*
X2177462D02*
D03*
X2138967Y2450613D02*
D03*
X2058657D02*
D03*
X1978346D02*
D03*
X1898036D02*
D03*
X2432116Y2642488D02*
D03*
X2517001D02*
D03*
X2601886D02*
D03*
X2686771D02*
D03*
X2618401Y2450886D02*
D03*
X2522614D02*
D03*
X2299588Y2450613D02*
D03*
X2219278D02*
D03*
X2262347Y2642488D02*
D03*
X2347232D02*
D03*
X2771655D02*
D03*
X2856540D02*
D03*
X2941425D02*
D03*
X2809976Y2450886D02*
D03*
X2714189D02*
D03*
X3111194Y2642488D02*
D03*
X3196079D02*
D03*
X3280964D02*
D03*
X3365849D02*
D03*
X3307377Y2443040D02*
D03*
X3218795D02*
D03*
X3001551Y2450886D02*
D03*
X2905764D02*
D03*
X3026310Y2642488D02*
D03*
X3620503D02*
D03*
X3661707Y2443040D02*
D03*
X3573125D02*
D03*
X3484542D02*
D03*
X3395960D02*
D03*
X3450734Y2642488D02*
D03*
X3535618D02*
D03*
X3960042D02*
D03*
X4044927D02*
D03*
X4129812D02*
D03*
X4214696D02*
D03*
X4131233Y2443040D02*
D03*
X4054401D02*
D03*
X3838872D02*
D03*
X3750290D02*
D03*
X3705388Y2642488D02*
D03*
X3790273D02*
D03*
X3875157D02*
D03*
X4469351D02*
D03*
X4515391Y2443040D02*
D03*
X4438560D02*
D03*
X4361728D02*
D03*
X4284896D02*
D03*
X4208064D02*
D03*
X4299581Y2642488D02*
D03*
X4384466D02*
D03*
X5314403Y2689531D02*
D03*
X5383221Y2656812D02*
D03*
X5409626Y2585333D02*
D03*
Y2509133D02*
D03*
X5389042Y2435766D02*
D03*
X5323518Y2396868D02*
D03*
X5247339Y2395074D02*
D03*
X5171139D02*
D03*
X5094946Y2396070D02*
D03*
X5027616Y2431751D02*
D03*
X4967761Y2478908D02*
D03*
X4899550Y2443040D02*
D03*
X4822718D02*
D03*
X4745886D02*
D03*
X4669055D02*
D03*
X4592223D02*
D03*
X4554235Y2642488D02*
D03*
X4639120D02*
D03*
X4724005D02*
D03*
X4942686Y2614857D02*
D03*
X5015906Y2635957D02*
D03*
X5074096Y2685154D02*
D03*
X5150107Y2690526D02*
D03*
X5226307D02*
D03*
X1399944Y2542800D02*
D03*
X1489400Y2632257D02*
D03*
X1266901Y4955300D02*
D03*
Y4850301D02*
D03*
X1086901D02*
D03*
X1176901Y4902800D02*
D03*
X1086901Y4955300D02*
D03*
X7324089Y4307558D02*
D03*
X5939317Y3374686D02*
D03*
X6530079Y3099999D02*
D03*
X6974640Y3170001D02*
D03*
X5412400Y4453112D02*
D03*
X5710079Y3986697D02*
D03*
X6740079Y3247637D02*
D03*
X6295390Y4705897D02*
D03*
X6301900Y4785628D02*
D03*
X5425563Y4322801D02*
D03*
X7648546Y3891948D02*
D03*
X6925307Y4990945D02*
D03*
X7310190Y4061499D02*
D03*
X7216790Y4023907D02*
D03*
X2809948Y6642357D02*
D03*
X2869948Y6702357D02*
D03*
X2929948Y6762357D02*
D03*
X2869948Y6822357D02*
D03*
X2809948Y6762357D02*
D03*
X2749948Y6822357D02*
D03*
Y6702357D02*
D03*
X2689948Y6762357D02*
D03*
X2929948Y6642357D02*
D03*
X2869948Y6582357D02*
D03*
X2929948Y6522358D02*
D03*
X2869948Y6462358D02*
D03*
X2809948Y6522358D02*
D03*
X2749948Y6462358D02*
D03*
Y6582357D02*
D03*
X2689948Y6522358D02*
D03*
Y6642357D02*
D03*
X8195702Y8622301D02*
D03*
X8070702Y8372301D02*
D03*
X8195702Y7622301D02*
D03*
X8070702Y7372301D02*
D03*
X8195702Y7122301D02*
D03*
X8070702Y6872301D02*
D03*
X8195702Y6622301D02*
D03*
X8070702Y6372301D02*
D03*
X8195702Y6122301D02*
D03*
X8070702Y5872301D02*
D03*
X7820702Y8372301D02*
D03*
X7945702Y7622301D02*
D03*
Y7122301D02*
D03*
Y6622301D02*
D03*
Y6122301D02*
D03*
X7820702Y5872301D02*
D03*
X7945702Y5622301D02*
D03*
X7695702Y8622301D02*
D03*
X7570702Y8372301D02*
D03*
X7695702Y8122301D02*
D03*
X7570702Y7872301D02*
D03*
Y7372301D02*
D03*
X7695702Y7122301D02*
D03*
X7570702Y6372301D02*
D03*
X7695702Y5622301D02*
D03*
X7320702Y8372301D02*
D03*
X7445702Y7622301D02*
D03*
X7320702Y7372301D02*
D03*
X7445702Y7122301D02*
D03*
X7320702Y6872301D02*
D03*
Y5872301D02*
D03*
X7070702Y8372301D02*
D03*
X7195702Y7622301D02*
D03*
X7070702Y7372301D02*
D03*
X7195702Y7122301D02*
D03*
X6820702Y8372301D02*
D03*
X6945702Y8122301D02*
D03*
X6820702Y7872301D02*
D03*
X6945702Y7622301D02*
D03*
X6820702Y7372301D02*
D03*
X6945702Y7122301D02*
D03*
X6570702Y8372301D02*
D03*
X6695702Y8122301D02*
D03*
X6570702Y7872301D02*
D03*
X6695702Y7622301D02*
D03*
X6570702Y7372301D02*
D03*
X6320702Y8372301D02*
D03*
X6445702Y8122301D02*
D03*
X6320702Y7872301D02*
D03*
X6445702Y7622301D02*
D03*
X6195702Y8122301D02*
D03*
X5945702D02*
D03*
X5820702Y7872301D02*
D03*
X5945702Y7622301D02*
D03*
X5695702Y8122301D02*
D03*
Y7622301D02*
D03*
X5445702Y8122301D02*
D03*
Y7622301D02*
D03*
X5070702Y8372301D02*
D03*
X5195702Y8122301D02*
D03*
X5070702Y7872301D02*
D03*
X5195702Y7622301D02*
D03*
X4820702Y8372301D02*
D03*
Y7872301D02*
D03*
X4945702Y7622301D02*
D03*
X4570702Y8372301D02*
D03*
Y7872301D02*
D03*
X4695702Y7622301D02*
D03*
X4320702Y8372301D02*
D03*
Y7872301D02*
D03*
Y7372301D02*
D03*
Y5372301D02*
D03*
Y4872301D02*
D03*
Y4372301D02*
D03*
Y3872301D02*
D03*
X4070702Y8372301D02*
D03*
X4195702Y7622301D02*
D03*
Y5622301D02*
D03*
Y5122301D02*
D03*
Y4622301D02*
D03*
X4070702Y4372301D02*
D03*
X4195702Y4122301D02*
D03*
Y3622301D02*
D03*
X4070702Y3372301D02*
D03*
X3820702Y8372301D02*
D03*
X3945702Y7622301D02*
D03*
X3820702Y7372301D02*
D03*
X3570702Y8372301D02*
D03*
Y7372301D02*
D03*
X3695702Y6622301D02*
D03*
X3570702Y6372301D02*
D03*
Y3872301D02*
D03*
X3695702Y3622301D02*
D03*
X3570702Y3372301D02*
D03*
X3320702Y8372301D02*
D03*
Y7372301D02*
D03*
X3445702Y6122301D02*
D03*
X3320702Y5872301D02*
D03*
X3445702Y5622301D02*
D03*
Y5122301D02*
D03*
Y4622301D02*
D03*
Y4122301D02*
D03*
Y3622301D02*
D03*
X3070702Y8372301D02*
D03*
Y7372301D02*
D03*
X3195702Y6122301D02*
D03*
X2820702Y8372301D02*
D03*
Y7372301D02*
D03*
X2945702Y7122301D02*
D03*
X2570702Y8372301D02*
D03*
X2695702Y7122301D02*
D03*
X2320702Y8372301D02*
D03*
X2445702Y7122301D02*
D03*
X2070702Y8372301D02*
D03*
X1820702D02*
D03*
X1945702Y6122301D02*
D03*
X1570702Y8372301D02*
D03*
X1695702Y6622301D02*
D03*
Y6122301D02*
D03*
X1320702Y8372301D02*
D03*
Y7872301D02*
D03*
X1445702Y6122301D02*
D03*
X1070702Y8372301D02*
D03*
Y7872301D02*
D03*
X1195702Y7622301D02*
D03*
X1070702Y7372301D02*
D03*
X945702Y8622301D02*
D03*
X820702Y8372301D02*
D03*
X945702Y8122301D02*
D03*
Y7122301D02*
D03*
X820702Y6872301D02*
D03*
X570702Y8372301D02*
D03*
X695702Y7622301D02*
D03*
X570702Y7372301D02*
D03*
X695702Y7122301D02*
D03*
X570702Y6872301D02*
D03*
X695702Y6622301D02*
D03*
X570702Y6372301D02*
D03*
X695702Y6122301D02*
D03*
X7414876Y2837800D02*
D03*
X6585479Y7222625D02*
D03*
X6397834Y6621926D02*
D03*
Y6367926D02*
D03*
X7159652Y6023926D02*
D03*
X6985224Y5963926D02*
D03*
X6770057Y5986926D02*
D03*
X4025296Y7492156D02*
D03*
X2943448Y6247987D02*
D03*
X3404093Y6179858D02*
D03*
X3315963Y6091728D02*
D03*
X3227834Y6179858D02*
D03*
X3526636Y6133781D02*
D03*
X3614766Y6226911D02*
D03*
X3609766Y6050652D02*
D03*
X3461198Y6365478D02*
D03*
X3612448Y6604228D02*
D03*
X3224319Y7508762D02*
D03*
X2542858Y7399556D02*
D03*
Y7467798D02*
D03*
Y7548762D02*
D03*
X2948448Y6071728D02*
D03*
X2860319Y6159858D02*
D03*
X2780978Y6134857D02*
D03*
X2209948Y6041728D02*
D03*
X3285478Y6479857D02*
D03*
X1315687Y3137500D02*
D03*
X1448187Y3005000D02*
D03*
X1576788Y5404688D02*
D03*
X1434007D02*
D03*
X4839890Y4408093D02*
D03*
X5760812Y4722801D02*
D03*
X6465708Y4457801D02*
D03*
X7113870Y3247199D02*
D03*
X7294190Y2264300D02*
D03*
X5459008Y6748926D02*
D03*
Y6367926D02*
D03*
X5466931Y6621926D02*
D03*
Y6494926D02*
D03*
X6786900Y7047926D02*
D03*
X7030782Y6280426D02*
D03*
X7030782Y6902358D02*
D03*
X7159151Y6113926D02*
D03*
X6445079Y3531278D02*
D03*
X5686079Y3636279D02*
D03*
X5360000Y4986195D02*
D03*
X6558079Y5376861D02*
D03*
X1276901Y4639710D02*
D03*
X950000Y5052500D02*
D03*
X3285478Y6609857D02*
D03*
%TF.MD5,ec389448ab7e8f91eab511a843dbbdaa*%
M02*
