%TF.GenerationSoftware,Altium Limited,Altium Designer,25.8.1 (18)*%
G04 Layer_Color=16711935*
%FSLAX45Y45*%
%MOMM*%
%TF.SameCoordinates,E40C52F6-B12D-486C-AAC2-1DB2447C0C70*%
%TF.FilePolarity,Positive*%
%TF.FileFunction,Other,Top_Courtyard*%
%TF.Part,Single*%
G01*
G75*
%TA.AperFunction,NonConductor*%
%ADD64C,0.10000*%
%ADD109C,0.05000*%
D64*
X5231701Y7037926D02*
Y7117926D01*
X5191701Y7077926D02*
X5271701D01*
X4934500Y7055326D02*
X5119300D01*
Y6950526D02*
Y7055326D01*
X4934500Y6950526D02*
Y7055326D01*
Y6950526D02*
X5119300D01*
X5026900Y6952926D02*
Y7052926D01*
X4976900Y7002926D02*
X5076900D01*
X4883473Y5096101D02*
Y5176101D01*
X4843473Y5136101D02*
X4923473D01*
X4689890Y5096101D02*
Y5176101D01*
X4649890Y5136101D02*
X4729890D01*
X1524400Y2542800D02*
X1604400D01*
X1564400Y2502800D02*
Y2582800D01*
X4486900Y2542800D02*
X4566900D01*
X4526900Y2502800D02*
Y2582800D01*
X3099400Y2427800D02*
Y2507800D01*
X3059401Y2467800D02*
X3139400D01*
X2077100Y2595200D02*
X2261899D01*
Y2490400D02*
Y2595200D01*
X2077100Y2490400D02*
Y2595200D01*
Y2490400D02*
X2261899D01*
X2119499Y2542800D02*
X2219499D01*
X2169500Y2492800D02*
Y2592800D01*
X4051573Y7212732D02*
Y7292732D01*
X4011573Y7252732D02*
X4091572D01*
X7063401Y6591926D02*
X7143401D01*
X7103401Y6551926D02*
Y6631926D01*
X816651Y4824900D02*
X896650D01*
X856651Y4784900D02*
Y4864900D01*
X1434550Y4827400D02*
X1514550D01*
X1474550Y4787400D02*
Y4867400D01*
X1434550Y5170300D02*
X1514550D01*
X1474550Y5130300D02*
Y5210300D01*
X1051901Y5237801D02*
Y5317800D01*
X1011901Y5277800D02*
X1091901D01*
X1549400Y3595800D02*
Y3675800D01*
X1509400Y3635800D02*
X1589400D01*
X1501900Y4490300D02*
Y4570300D01*
X1461900Y4530300D02*
X1541900D01*
X4724890Y4518112D02*
X4804890D01*
X4764890Y4478112D02*
Y4558112D01*
X4724890Y4693494D02*
X4804890D01*
X4764890Y4653494D02*
Y4733494D01*
X4724890Y4871823D02*
X4804890D01*
X4764890Y4831823D02*
Y4911823D01*
X7021001Y5976526D02*
Y6161326D01*
X7125801D01*
X7021001Y5976526D02*
X7125801D01*
Y6161326D01*
X7073401Y6018926D02*
Y6118926D01*
X7023401Y6068926D02*
X7123401D01*
X6891887Y5998926D02*
Y6078926D01*
X6851887Y6038926D02*
X6931887D01*
X5442400Y6955526D02*
Y7140326D01*
X5337600Y6955526D02*
X5442400D01*
X5337600Y7140326D02*
X5442400D01*
X5337600Y6955526D02*
Y7140326D01*
X5390000Y6997926D02*
Y7097926D01*
X5340000Y7047926D02*
X5440000D01*
X5340000Y6571926D02*
Y6671926D01*
X5290000Y6621926D02*
X5390000D01*
X5247600Y6674326D02*
X5432400D01*
Y6569526D02*
Y6674326D01*
X5247600Y6569526D02*
Y6674326D01*
Y6569526D02*
X5432400D01*
X5340000Y6444926D02*
Y6544926D01*
X5290000Y6494926D02*
X5390000D01*
X5247600Y6547326D02*
X5432400D01*
Y6442526D02*
Y6547326D01*
X5247600Y6442526D02*
Y6547326D01*
Y6442526D02*
X5432400D01*
X6892379Y6764858D02*
Y6864858D01*
X6842379Y6814858D02*
X6942379D01*
X6892379Y6317926D02*
Y6417926D01*
X6842379Y6367926D02*
X6942379D01*
X3649766Y6138781D02*
X3729766D01*
X3689766Y6098782D02*
Y6178781D01*
X3462448Y7211656D02*
Y7291656D01*
X3422448Y7251656D02*
X3502448D01*
X3497448Y6692357D02*
X3577448D01*
X3537448Y6652358D02*
Y6732357D01*
X2209948Y6169857D02*
Y6249857D01*
X2169948Y6209858D02*
X2249948D01*
X2605348Y6084857D02*
Y6184857D01*
X2555348Y6134857D02*
X2655348D01*
X2047448Y6319857D02*
Y6399857D01*
X2007448Y6359857D02*
X2087448D01*
X1884948Y6469857D02*
Y6549857D01*
X1844948Y6509857D02*
X1924948D01*
X2983448Y6159858D02*
X3063448D01*
X3023448Y6119858D02*
Y6199858D01*
X2292448Y7416577D02*
Y7516578D01*
X2242448Y7466578D02*
X2342448D01*
X3411198Y6498608D02*
X3511198D01*
X3461198Y6448608D02*
Y6548608D01*
X3408798Y6406208D02*
Y6591007D01*
X3513598D01*
X3408798Y6406208D02*
X3513598D01*
Y6591007D01*
X3315963Y6219858D02*
Y6299858D01*
X3275963Y6259858D02*
X3355963D01*
X3462448Y6872357D02*
Y6952357D01*
X3422448Y6912358D02*
X3502448D01*
X7346590Y2040400D02*
Y2225200D01*
X7241790Y2040400D02*
X7346590D01*
X7241790Y2225200D02*
X7346590D01*
X7241790Y2040400D02*
Y2225200D01*
X7294190Y2082800D02*
Y2182800D01*
X7244190Y2132800D02*
X7344190D01*
X7294190Y3317800D02*
Y3397800D01*
X7254190Y3357800D02*
X7334190D01*
X7294190Y2872800D02*
Y2952800D01*
X7254190Y2912800D02*
X7334190D01*
X4861155Y2577800D02*
Y2657800D01*
X4821155Y2617800D02*
X4901155D01*
X4144401Y2542800D02*
X4224401D01*
X4184401Y2502800D02*
Y2582800D01*
X3944401Y2427800D02*
Y2507800D01*
X3904401Y2467800D02*
X3984400D01*
X3629381Y2542800D02*
X3709381D01*
X3669381Y2502800D02*
Y2582800D01*
X3304401Y2542800D02*
X3384401D01*
X3344400Y2502800D02*
Y2582800D01*
X2789500Y2595200D02*
X2974300D01*
Y2490400D02*
Y2595200D01*
X2789500Y2490400D02*
Y2595200D01*
Y2490400D02*
X2974300D01*
X2831900Y2542800D02*
X2931900D01*
X2881900Y2492800D02*
Y2592800D01*
X2596901Y2542800D02*
X2676901D01*
X2636901Y2502800D02*
Y2582800D01*
X2377929Y2427800D02*
Y2507800D01*
X2337929Y2467800D02*
X2417929D01*
X1845000Y2542800D02*
X1925000D01*
X1885000Y2502800D02*
Y2582800D01*
X1639400Y2245300D02*
Y2325300D01*
X1599400Y2285300D02*
X1679400D01*
X1639400Y1932800D02*
Y2012800D01*
X1599400Y1972800D02*
X1679400D01*
X1524400Y1727800D02*
X1604400D01*
X1564400Y1687800D02*
Y1767800D01*
X1639400Y1417800D02*
Y1497800D01*
X1599400Y1457800D02*
X1679400D01*
X1639400Y1100300D02*
Y1180300D01*
X1599400Y1140300D02*
X1679400D01*
X1639400Y765623D02*
Y845623D01*
X1599400Y805623D02*
X1679400D01*
D109*
X5158801Y6930026D02*
X5304601D01*
Y7225826D01*
X5158801D02*
X5304601D01*
X5158801Y6930026D02*
Y7225826D01*
X4810573Y5284001D02*
X4956373D01*
X4810573Y4988201D02*
Y5284001D01*
Y4988201D02*
X4956373D01*
Y5284001D01*
X4616990Y4988201D02*
X4762790D01*
Y5284001D01*
X4616990D02*
X4762790D01*
X4616990Y4988201D02*
Y5284001D01*
X1416500Y2469900D02*
Y2615700D01*
Y2469900D02*
X1712300D01*
Y2615700D01*
X1416500D02*
X1712300D01*
X4674800Y2469900D02*
Y2615700D01*
X4379000D02*
X4674800D01*
X4379000Y2469900D02*
Y2615700D01*
Y2469900D02*
X4674800D01*
X3026500Y2319900D02*
X3172300D01*
Y2615700D01*
X3026500D02*
X3172300D01*
X3026500Y2319900D02*
Y2615700D01*
X3978673Y7104832D02*
X4124473D01*
Y7400632D01*
X3978673D02*
X4124473D01*
X3978673Y7104832D02*
Y7400632D01*
X7030501Y6444026D02*
Y6739826D01*
X7176301D01*
Y6444026D02*
Y6739826D01*
X7030501Y6444026D02*
X7176301D01*
X783751Y4677000D02*
Y4972800D01*
X929551D01*
Y4677000D02*
Y4972800D01*
X783751Y4677000D02*
X929551D01*
X703595Y4380800D02*
X1373595D01*
X703595Y3700800D02*
Y4380800D01*
Y3700800D02*
X1373595D01*
Y4380800D01*
X988595Y4040800D02*
X1088595D01*
X1038595Y3990800D02*
Y4090800D01*
X1401650Y4679500D02*
Y4975300D01*
X1547450D01*
Y4679500D02*
Y4975300D01*
X1401650Y4679500D02*
X1547450D01*
Y5022400D02*
Y5318200D01*
X1401650Y5022400D02*
X1547450D01*
X1401650D02*
Y5318200D01*
X1547450D01*
X904001Y5204900D02*
X1199801D01*
X904001D02*
Y5350700D01*
X1199801D01*
Y5204900D02*
Y5350700D01*
X1476500Y3783700D02*
X1622300D01*
X1476500Y3487900D02*
Y3783700D01*
Y3487900D02*
X1622300D01*
Y3783700D01*
X1354000Y4603200D02*
X1649800D01*
Y4457400D02*
Y4603200D01*
X1354000Y4457400D02*
X1649800D01*
X1354000D02*
Y4603200D01*
X7851319Y2638901D02*
Y2738901D01*
X7801319Y2688901D02*
X7901318D01*
X7696818Y2399901D02*
X8005819D01*
Y2977901D01*
X7696818D02*
X8005819D01*
X7696818Y2399901D02*
Y2977901D01*
X4912790Y4445212D02*
Y4591012D01*
X4616990D02*
X4912790D01*
X4616990Y4445212D02*
Y4591012D01*
Y4445212D02*
X4912790D01*
Y4620594D02*
Y4766394D01*
X4616990D02*
X4912790D01*
X4616990Y4620594D02*
Y4766394D01*
Y4620594D02*
X4912790D01*
Y4798923D02*
Y4944723D01*
X4616990D02*
X4912790D01*
X4616990Y4798923D02*
Y4944723D01*
Y4798923D02*
X4912790D01*
X6818987Y6186826D02*
X6964787D01*
X6818987Y5891026D02*
Y6186826D01*
Y5891026D02*
X6964787D01*
Y6186826D01*
X6987779Y6644458D02*
Y6985258D01*
X6796979D02*
X6987779D01*
X6796979Y6644458D02*
Y6985258D01*
Y6644458D02*
X6987779D01*
X6796979Y6197526D02*
Y6538326D01*
Y6197526D02*
X6987779D01*
Y6538326D01*
X6796979D02*
X6987779D01*
X3837666Y6065881D02*
Y6211682D01*
X3541866D02*
X3837666D01*
X3541866Y6065881D02*
Y6211682D01*
Y6065881D02*
X3837666D01*
X3389548Y7103756D02*
X3535348D01*
Y7399556D01*
X3389548D02*
X3535348D01*
X3389548Y7103756D02*
Y7399556D01*
X3685348Y6619457D02*
Y6765257D01*
X3389548D02*
X3685348D01*
X3389548Y6619457D02*
Y6765257D01*
Y6619457D02*
X3685348D01*
X2137048Y6061957D02*
X2282848D01*
Y6357757D01*
X2137048D02*
X2282848D01*
X2137048Y6061957D02*
Y6357757D01*
X2775748Y6039457D02*
Y6230258D01*
X2434948Y6039457D02*
X2775748D01*
X2434948D02*
Y6230258D01*
X2775748D01*
X1974548Y6211957D02*
X2120348D01*
Y6507757D01*
X1974548D02*
X2120348D01*
X1974548Y6211957D02*
Y6507757D01*
X1812048Y6361957D02*
X1957848D01*
Y6657757D01*
X1812048D02*
X1957848D01*
X1812048Y6361957D02*
Y6657757D01*
X2307448Y6784357D02*
Y7214357D01*
X1942448Y6784357D02*
X2307448D01*
X1942448D02*
Y7214357D01*
X2307448D01*
X2875548Y6086958D02*
Y6232758D01*
Y6086958D02*
X3171348D01*
Y6232758D01*
X2875548D02*
X3171348D01*
X3243063Y6111958D02*
X3388863D01*
Y6407758D01*
X3243063D02*
X3388863D01*
X3243063Y6111958D02*
Y6407758D01*
X3389548Y6764457D02*
X3535348D01*
Y7060257D01*
X3389548D02*
X3535348D01*
X3389548Y6764457D02*
Y7060257D01*
X7221290Y3209900D02*
X7367090D01*
Y3505700D01*
X7221290D02*
X7367090D01*
X7221290Y3209900D02*
Y3505700D01*
Y2764900D02*
X7367090D01*
Y3060700D01*
X7221290D02*
X7367090D01*
X7221290Y2764900D02*
Y3060700D01*
X4788255Y2765700D02*
X4934055D01*
X4788255Y2469900D02*
Y2765700D01*
Y2469900D02*
X4934055D01*
Y2765700D01*
X4059001Y2607800D02*
X4309801D01*
X4059001Y2477800D02*
Y2607800D01*
X4309801Y2477800D02*
Y2607800D01*
X4059001Y2477800D02*
X4309801D01*
X3871501Y2319900D02*
X4017301D01*
Y2615700D01*
X3871501D02*
X4017301D01*
X3871501Y2319900D02*
Y2615700D01*
X3817281Y2469900D02*
Y2615700D01*
X3521481D02*
X3817281D01*
X3521481Y2469900D02*
Y2615700D01*
Y2469900D02*
X3817281D01*
X3219001Y2607800D02*
X3469801D01*
X3219001Y2477800D02*
Y2607800D01*
X3469801Y2477800D02*
Y2607800D01*
X3219001Y2477800D02*
X3469801D01*
X2511501Y2607800D02*
X2762301D01*
X2511501Y2477800D02*
Y2607800D01*
X2762301Y2477800D02*
Y2607800D01*
X2511501Y2477800D02*
X2762301D01*
X2305029Y2319900D02*
X2450829D01*
Y2615700D01*
X2305029D02*
X2450829D01*
X2305029Y2319900D02*
Y2615700D01*
X1759600Y2607800D02*
X2010400D01*
X1759600Y2477800D02*
Y2607800D01*
X2010400Y2477800D02*
Y2607800D01*
X1759600Y2477800D02*
X2010400D01*
X1566500Y2433200D02*
X1712300D01*
X1566500Y2137400D02*
Y2433200D01*
Y2137400D02*
X1712300D01*
Y2433200D01*
X1574400Y1847400D02*
Y2098200D01*
Y1847400D02*
X1704400D01*
X1574400Y2098200D02*
X1704400D01*
Y1847400D02*
Y2098200D01*
X1416500Y1654900D02*
Y1800700D01*
Y1654900D02*
X1712300D01*
Y1800700D01*
X1416500D02*
X1712300D01*
X1566500Y1605700D02*
X1712300D01*
X1566500Y1309900D02*
Y1605700D01*
Y1309900D02*
X1712300D01*
Y1605700D01*
X1574400Y1014900D02*
Y1265700D01*
Y1014900D02*
X1704400D01*
X1574400Y1265700D02*
X1704400D01*
Y1014900D02*
Y1265700D01*
X1566500Y657723D02*
X1712300D01*
Y953523D01*
X1566500D02*
X1712300D01*
X1566500Y657723D02*
Y953523D01*
X3716572Y6324857D02*
X4386573D01*
Y7004857D01*
X3716572D02*
X4386573D01*
X3716572Y6324857D02*
Y7004857D01*
X4001573Y6664857D02*
X4101572D01*
X4051573Y6614857D02*
Y6714857D01*
X4647201Y5477500D02*
X4902201D01*
Y6357500D01*
X4647201D02*
X4902201D01*
X4647201Y5477500D02*
Y6357500D01*
X4774701Y5867500D02*
Y5967500D01*
X4724701Y5917500D02*
X4824701D01*
%TF.MD5,91e049fe4e46c1c5ac59c440d212d006*%
M02*
