%TF.GenerationSoftware,Altium Limited,Altium Designer,25.8.1 (18)*%
G04 Layer_Color=32896*
%FSLAX45Y45*%
%MOMM*%
%TF.SameCoordinates,E40C52F6-B12D-486C-AAC2-1DB2447C0C70*%
%TF.FilePolarity,Positive*%
%TF.FileFunction,Other,Bottom_Component_Outline*%
%TF.Part,Single*%
G01*
G75*
%TA.AperFunction,NonConductor*%
%ADD64C,0.10000*%
D64*
X4995941Y4317802D02*
X5155941D01*
Y4397801D01*
X4995941Y4317802D02*
Y4397801D01*
X5155941D01*
X6090079Y5370945D02*
X6250079D01*
X6090079Y5290945D02*
Y5370945D01*
X6250079Y5290945D02*
Y5370945D01*
X6090079Y5290945D02*
X6250079D01*
X5979316Y3486280D02*
Y3636279D01*
X5899541D02*
X5979316D01*
X5899541Y3588779D02*
Y3636279D01*
Y3486280D02*
X5979316D01*
X5899541D02*
Y3588779D01*
X7047540Y5030945D02*
X7197540D01*
X7047540Y4951169D02*
Y5030945D01*
Y4951169D02*
X7095040D01*
X7197540D02*
Y5030945D01*
X7095040Y4951169D02*
X7197540D01*
X7181290Y4200300D02*
Y4350300D01*
Y4200300D02*
X7261066D01*
Y4247800D01*
X7181290Y4350300D02*
X7261066D01*
Y4247800D02*
Y4350300D01*
X7017401Y4200300D02*
Y4350300D01*
Y4200300D02*
X7097177D01*
Y4247800D01*
X7017401Y4350300D02*
X7097177D01*
Y4247800D02*
Y4350300D01*
X5330000Y4817801D02*
X5390000D01*
Y4917801D01*
X5330000D02*
X5390000D01*
X5330000Y4817801D02*
Y4917801D01*
X6563079Y5247054D02*
Y5307054D01*
X6463079D02*
X6563079D01*
X6463079Y5247054D02*
Y5307054D01*
Y5247054D02*
X6563079D01*
X7084747Y3340000D02*
Y3440000D01*
X7144747D01*
Y3340000D02*
Y3440000D01*
X7084747Y3340000D02*
X7144747D01*
X6440079Y3666279D02*
X6540079D01*
Y3606279D02*
Y3666279D01*
X6440079Y3606279D02*
X6540079D01*
X6440079D02*
Y3666279D01*
X5765080Y3541280D02*
Y3641279D01*
X5825080D01*
Y3541280D02*
Y3641279D01*
X5765080Y3541280D02*
X5825080D01*
X7372577Y3735301D02*
X7532577D01*
Y3815300D01*
X7372577D02*
X7532577D01*
X7372577Y3735301D02*
Y3815300D01*
%TF.MD5,f30c5c89683ff5e54152e44d3c84ccfc*%
M02*
