%TF.GenerationSoftware,Altium Limited,Altium Designer,25.8.1 (18)*%
G04 Layer_Color=8388736*
%FSLAX45Y45*%
%MOMM*%
%TF.SameCoordinates,E40C52F6-B12D-486C-AAC2-1DB2447C0C70*%
%TF.FilePolarity,Positive*%
%TF.FileFunction,Other,Bottom_Courtyard*%
%TF.Part,Single*%
G01*
G75*
%TA.AperFunction,NonConductor*%
%ADD64C,0.10000*%
%ADD109C,0.05000*%
D64*
X6543079Y3209999D02*
Y3289999D01*
X6503079Y3249999D02*
X6583079D01*
X6990630Y6558432D02*
X7070630D01*
X7030630Y6518432D02*
Y6598433D01*
X5310000Y4867801D02*
X5410000D01*
X5360000Y4817801D02*
Y4917801D01*
X5412400Y4775401D02*
Y4960201D01*
X5307600D02*
X5412400D01*
X5307600Y4775401D02*
X5412400D01*
X5307600D02*
Y4960201D01*
X6513079Y5227054D02*
Y5327054D01*
X6463079Y5277053D02*
X6563079D01*
X6420679Y5329453D02*
X6605479D01*
X6420679Y5224654D02*
Y5329453D01*
X6605479Y5224654D02*
Y5329453D01*
X6420679Y5224654D02*
X6605479D01*
X7229414Y4685770D02*
Y4765769D01*
X7189414Y4725770D02*
X7269414D01*
X7475177Y3489711D02*
Y3674511D01*
Y3489711D02*
X7579977D01*
X7475177Y3674511D02*
X7579977D01*
Y3489711D02*
Y3674511D01*
X7527577Y3532111D02*
Y3632111D01*
X7477577Y3582111D02*
X7577577D01*
X851901Y4788801D02*
X951901D01*
X901901Y4738801D02*
Y4838801D01*
X7062347Y3297600D02*
Y3482400D01*
Y3297600D02*
X7167147D01*
X7062347Y3482400D02*
X7167147D01*
Y3297600D02*
Y3482400D01*
X7114747Y3340000D02*
Y3440000D01*
X7064747Y3390000D02*
X7164747D01*
X6120079Y3471029D02*
Y3551029D01*
X6080079Y3511029D02*
X6160079D01*
X6295079Y3471279D02*
Y3551279D01*
X6255079Y3511279D02*
X6335079D01*
X6294954Y3134999D02*
Y3214999D01*
X6254954Y3174999D02*
X6334954D01*
X6397679Y3688679D02*
X6582479D01*
X6397679Y3583879D02*
Y3688679D01*
X6582479Y3583879D02*
Y3688679D01*
X6397679Y3583879D02*
X6582479D01*
X6440079Y3636279D02*
X6540079D01*
X6490079Y3586279D02*
Y3686279D01*
X5742679Y3498880D02*
Y3683679D01*
Y3498880D02*
X5847479D01*
X5742679Y3683679D02*
X5847479D01*
Y3498880D02*
Y3683679D01*
X5795079Y3541280D02*
Y3641280D01*
X5745079Y3591280D02*
X5845079D01*
X7412577Y3775301D02*
X7492577D01*
X7452577Y3735301D02*
Y3815300D01*
X7186900Y4550612D02*
X7266900D01*
X7226900Y4510612D02*
Y4590612D01*
X6120079Y4497802D02*
X6220079D01*
X6170079Y4447801D02*
Y4547801D01*
X3849401Y4751800D02*
Y4851800D01*
X3799401Y4801800D02*
X3899401D01*
X3757001Y4749400D02*
X3941801D01*
Y4854200D01*
X3757001Y4749400D02*
Y4854200D01*
X3941801D01*
D109*
X6395179Y3322899D02*
X6690979D01*
X6395179Y3177099D02*
Y3322899D01*
Y3177099D02*
X6690979D01*
Y3322899D01*
X6957730Y6410533D02*
Y6706333D01*
Y6410533D02*
X7103530D01*
Y6706333D01*
X6957730D02*
X7103530D01*
X7081514Y4652870D02*
X7377314D01*
Y4798670D01*
X7081514D02*
X7377314D01*
X7081514Y4652870D02*
Y4798670D01*
X806501Y4618401D02*
X997301D01*
Y4959201D01*
X806501D02*
X997301D01*
X806501Y4618401D02*
Y4959201D01*
X6047179Y3658929D02*
X6192979D01*
Y3363129D02*
Y3658929D01*
X6047179Y3363129D02*
X6192979D01*
X6047179D02*
Y3658929D01*
X6222179Y3659179D02*
X6367979D01*
Y3363379D02*
Y3659179D01*
X6222179Y3363379D02*
X6367979D01*
X6222179D02*
Y3659179D01*
X6222054Y3027099D02*
X6367854D01*
X6222054D02*
Y3322899D01*
X6367854D01*
Y3027099D02*
Y3322899D01*
X7600477Y3702401D02*
Y3848201D01*
X7304677Y3702401D02*
X7600477D01*
X7304677D02*
Y3848201D01*
X7600477D01*
X7079000Y4477712D02*
Y4623512D01*
X7374800D01*
Y4477712D02*
Y4623512D01*
X7079000Y4477712D02*
X7374800D01*
X6835079Y3832801D02*
Y5162801D01*
X5505079Y3832801D02*
Y5162801D01*
X6835079D01*
X5505079Y3832801D02*
X6835079D01*
%TF.MD5,55c357afc0f9574ed97ef6b4fa487e67*%
M02*
