%TF.GenerationSoftware,Altium Limited,Altium Designer,25.8.1 (18)*%
G04 Layer_Color=0*
%FSLAX45Y45*%
%MOMM*%
%TF.SameCoordinates,E40C52F6-B12D-486C-AAC2-1DB2447C0C70*%
%TF.FilePolarity,Positive*%
%TF.FileFunction,Profile,NP*%
%TF.Part,Single*%
G01*
G75*
%TA.AperFunction,Profile*%
%ADD111C,0.02540*%
D111*
X0Y200000D02*
G03*
X200000Y0I200000J0D01*
G01*
X450000D01*
D02*
G03*
X650000Y200001I-0J200000D01*
G01*
D02*
G02*
X1250000Y200001I300000J0D01*
G01*
D02*
G03*
X1450000Y0I200000J-1D01*
G01*
X2017500D01*
D02*
G03*
X2217500Y200000I-1J200000D01*
G01*
Y1591238D01*
D02*
G02*
X2417500Y1791238I200000J-0D01*
G01*
X4211155Y1791238D01*
D02*
G03*
X4261155Y1841238I-1J50000D01*
G01*
Y1961238D01*
D02*
G02*
X4861155Y1961238I300000J0D01*
G01*
X4861155Y1841238D01*
D02*
G03*
X4911155Y1791238I50000J-1D01*
G01*
X6883599D01*
D02*
G02*
X6983599Y1691238I0J-100000D01*
G01*
Y1339500D01*
D02*
G03*
X7183600Y1139500I200000J0D01*
G01*
X7333599Y1139500D01*
D02*
G02*
X7658599Y814500I0J-325000D01*
G01*
Y590972D01*
D02*
G03*
X7757993Y449767I150000J0D01*
G01*
D02*
G02*
X7924500Y213224I-84778J-236552D01*
G01*
Y200000D01*
D02*
G03*
X8124500Y0I200000J0D01*
G01*
X8322000D01*
D02*
G03*
X8522000Y200000I0J200000D01*
G01*
Y382361D01*
D02*
G03*
X8453767Y477181I-100000J0D01*
G01*
D02*
G02*
X8283186Y714045I79418J237050D01*
G01*
X8278075Y7575134D01*
D02*
G03*
X8109404Y7720076I-148670J-2396D01*
G01*
D02*
G02*
X8109033Y8218158I-33805J249016D01*
G01*
D02*
G03*
X8277488Y8363351I19782J147367D01*
G01*
X8277077Y8915813D01*
D02*
G03*
X8188803Y9015049I-100000J-74D01*
G01*
X477500D01*
D02*
G03*
X377500Y8915049I0J-100000D01*
G01*
Y8362694D01*
D02*
G03*
X546081Y8215341I148690J0D01*
G01*
D02*
G02*
X546081Y7717259I33619J-249041D01*
G01*
D02*
G03*
X377500Y7569906I-19892J-147352D01*
G01*
Y713165D01*
X200334Y713461D01*
D02*
G03*
X0Y513462I-334J-200000D01*
G01*
Y200000D01*
%TF.MD5,6d26ef442b9623a73b5637335f8f70c2*%
M02*
