%TF.GenerationSoftware,Altium Limited,Altium Designer,25.8.1 (18)*%
G04 Layer_Color=255*
%FSLAX45Y45*%
%MOMM*%
%TF.SameCoordinates,E40C52F6-B12D-486C-AAC2-1DB2447C0C70*%
%TF.FilePolarity,Positive*%
%TF.FileFunction,Pads,Bot*%
%TF.Part,Single*%
G01*
G75*
%TA.AperFunction,SMDPad,CuDef*%
G04:AMPARAMS|DCode=13|XSize=0.95mm|YSize=0.95mm|CornerRadius=0.2375mm|HoleSize=0mm|Usage=FLASHONLY|Rotation=180.000|XOffset=0mm|YOffset=0mm|HoleType=Round|Shape=RoundedRectangle|*
%AMROUNDEDRECTD13*
21,1,0.95000,0.47500,0,0,180.0*
21,1,0.47500,0.95000,0,0,180.0*
1,1,0.47500,-0.23750,0.23750*
1,1,0.47500,0.23750,0.23750*
1,1,0.47500,0.23750,-0.23750*
1,1,0.47500,-0.23750,-0.23750*
%
%ADD13ROUNDEDRECTD13*%
G04:AMPARAMS|DCode=14|XSize=0.95mm|YSize=0.95mm|CornerRadius=0.2375mm|HoleSize=0mm|Usage=FLASHONLY|Rotation=90.000|XOffset=0mm|YOffset=0mm|HoleType=Round|Shape=RoundedRectangle|*
%AMROUNDEDRECTD14*
21,1,0.95000,0.47500,0,0,90.0*
21,1,0.47500,0.95000,0,0,90.0*
1,1,0.47500,0.23750,0.23750*
1,1,0.47500,0.23750,-0.23750*
1,1,0.47500,-0.23750,-0.23750*
1,1,0.47500,-0.23750,0.23750*
%
%ADD14ROUNDEDRECTD14*%
G04:AMPARAMS|DCode=15|XSize=0.44mm|YSize=0.54mm|CornerRadius=0.11mm|HoleSize=0mm|Usage=FLASHONLY|Rotation=90.000|XOffset=0mm|YOffset=0mm|HoleType=Round|Shape=RoundedRectangle|*
%AMROUNDEDRECTD15*
21,1,0.44000,0.32000,0,0,90.0*
21,1,0.22000,0.54000,0,0,90.0*
1,1,0.22000,0.16000,0.11000*
1,1,0.22000,0.16000,-0.11000*
1,1,0.22000,-0.16000,-0.11000*
1,1,0.22000,-0.16000,0.11000*
%
%ADD15ROUNDEDRECTD15*%
G04:AMPARAMS|DCode=16|XSize=0.44mm|YSize=0.54mm|CornerRadius=0.11mm|HoleSize=0mm|Usage=FLASHONLY|Rotation=0.000|XOffset=0mm|YOffset=0mm|HoleType=Round|Shape=RoundedRectangle|*
%AMROUNDEDRECTD16*
21,1,0.44000,0.32000,0,0,0.0*
21,1,0.22000,0.54000,0,0,0.0*
1,1,0.22000,0.11000,-0.16000*
1,1,0.22000,-0.11000,-0.16000*
1,1,0.22000,-0.11000,0.16000*
1,1,0.22000,0.11000,0.16000*
%
%ADD16ROUNDEDRECTD16*%
G04:AMPARAMS|DCode=22|XSize=1.4mm|YSize=1.15mm|CornerRadius=0.2875mm|HoleSize=0mm|Usage=FLASHONLY|Rotation=180.000|XOffset=0mm|YOffset=0mm|HoleType=Round|Shape=RoundedRectangle|*
%AMROUNDEDRECTD22*
21,1,1.40000,0.57500,0,0,180.0*
21,1,0.82500,1.15000,0,0,180.0*
1,1,0.57500,-0.41250,0.28750*
1,1,0.57500,0.41250,0.28750*
1,1,0.57500,0.41250,-0.28750*
1,1,0.57500,-0.41250,-0.28750*
%
%ADD22ROUNDEDRECTD22*%
G04:AMPARAMS|DCode=25|XSize=0.85mm|YSize=1.1mm|CornerRadius=0.2125mm|HoleSize=0mm|Usage=FLASHONLY|Rotation=180.000|XOffset=0mm|YOffset=0mm|HoleType=Round|Shape=RoundedRectangle|*
%AMROUNDEDRECTD25*
21,1,0.85000,0.67500,0,0,180.0*
21,1,0.42500,1.10000,0,0,180.0*
1,1,0.42500,-0.21250,0.33750*
1,1,0.42500,0.21250,0.33750*
1,1,0.42500,0.21250,-0.33750*
1,1,0.42500,-0.21250,-0.33750*
%
%ADD25ROUNDEDRECTD25*%
%TA.AperFunction,ComponentPad*%
%ADD37C,1.30000*%
%ADD38C,1.29500*%
%ADD39C,2.00000*%
G04:AMPARAMS|DCode=40|XSize=1.3mm|YSize=1.3mm|CornerRadius=0.325mm|HoleSize=0mm|Usage=FLASHONLY|Rotation=270.000|XOffset=0mm|YOffset=0mm|HoleType=Round|Shape=RoundedRectangle|*
%AMROUNDEDRECTD40*
21,1,1.30000,0.65000,0,0,270.0*
21,1,0.65000,1.30000,0,0,270.0*
1,1,0.65000,-0.32500,-0.32500*
1,1,0.65000,-0.32500,0.32500*
1,1,0.65000,0.32500,0.32500*
1,1,0.65000,0.32500,-0.32500*
%
%ADD40ROUNDEDRECTD40*%
%ADD41R,2.00000X2.00000*%
%ADD42C,2.50000*%
%ADD43C,2.25000*%
%ADD44C,1.00000*%
G04:AMPARAMS|DCode=45|XSize=1mm|YSize=1mm|CornerRadius=0.25mm|HoleSize=0mm|Usage=FLASHONLY|Rotation=270.000|XOffset=0mm|YOffset=0mm|HoleType=Round|Shape=RoundedRectangle|*
%AMROUNDEDRECTD45*
21,1,1.00000,0.50000,0,0,270.0*
21,1,0.50000,1.00000,0,0,270.0*
1,1,0.50000,-0.25000,-0.25000*
1,1,0.50000,-0.25000,0.25000*
1,1,0.50000,0.25000,0.25000*
1,1,0.50000,0.25000,-0.25000*
%
%ADD45ROUNDEDRECTD45*%
%ADD46C,1.20000*%
G04:AMPARAMS|DCode=47|XSize=1.6mm|YSize=1.6mm|CornerRadius=0.4mm|HoleSize=0mm|Usage=FLASHONLY|Rotation=90.000|XOffset=0mm|YOffset=0mm|HoleType=Round|Shape=RoundedRectangle|*
%AMROUNDEDRECTD47*
21,1,1.60000,0.80000,0,0,90.0*
21,1,0.80000,1.60000,0,0,90.0*
1,1,0.80000,0.40000,0.40000*
1,1,0.80000,0.40000,-0.40000*
1,1,0.80000,-0.40000,-0.40000*
1,1,0.80000,-0.40000,0.40000*
%
%ADD47ROUNDEDRECTD47*%
%ADD48C,1.60000*%
%ADD49C,1.37000*%
%ADD50R,1.37000X1.37000*%
%TA.AperFunction,WasherPad*%
%ADD51C,3.20000*%
%TA.AperFunction,SMDPad,CuDef*%
%ADD53O,0.30000X1.40000*%
%ADD54O,1.40000X0.30000*%
%ADD55R,0.24994X0.35001*%
G04:AMPARAMS|DCode=56|XSize=1.6mm|YSize=1.4mm|CornerRadius=0.35mm|HoleSize=0mm|Usage=FLASHONLY|Rotation=270.000|XOffset=0mm|YOffset=0mm|HoleType=Round|Shape=RoundedRectangle|*
%AMROUNDEDRECTD56*
21,1,1.60000,0.70000,0,0,270.0*
21,1,0.90000,1.40000,0,0,270.0*
1,1,0.70000,-0.35000,-0.45000*
1,1,0.70000,-0.35000,0.45000*
1,1,0.70000,0.35000,0.45000*
1,1,0.70000,0.35000,-0.45000*
%
%ADD56ROUNDEDRECTD56*%
G04:AMPARAMS|DCode=57|XSize=0.55001mm|YSize=1.1mm|CornerRadius=0.1375mm|HoleSize=0mm|Usage=FLASHONLY|Rotation=270.000|XOffset=0mm|YOffset=0mm|HoleType=Round|Shape=RoundedRectangle|*
%AMROUNDEDRECTD57*
21,1,0.55001,0.82499,0,0,270.0*
21,1,0.27501,1.10000,0,0,270.0*
1,1,0.27501,-0.41250,-0.13750*
1,1,0.27501,-0.41250,0.13750*
1,1,0.27501,0.41250,0.13750*
1,1,0.27501,0.41250,-0.13750*
%
%ADD57ROUNDEDRECTD57*%
D13*
X7057401Y4350300D02*
D03*
X7221290D02*
D03*
X5939317Y3486280D02*
D03*
Y3636279D02*
D03*
X7221290Y4200300D02*
D03*
X7057401D02*
D03*
X7030630Y6633433D02*
D03*
Y6483433D02*
D03*
X6120079Y3436029D02*
D03*
Y3586029D02*
D03*
X6295079Y3436279D02*
D03*
Y3586279D02*
D03*
X6294954Y3249999D02*
D03*
Y3099999D02*
D03*
D14*
X6095079Y5330945D02*
D03*
X7377577Y3775301D02*
D03*
X7197540Y4990945D02*
D03*
X5150941Y4357802D02*
D03*
X5000941D02*
D03*
X6245079Y5330945D02*
D03*
X7047540Y4990945D02*
D03*
X6618079Y3249999D02*
D03*
X6468079D02*
D03*
X7154414Y4725770D02*
D03*
X7304414D02*
D03*
X7527577Y3775301D02*
D03*
X7301900Y4550612D02*
D03*
X7151900D02*
D03*
D15*
X5795079Y3546280D02*
D03*
X7114747Y3435000D02*
D03*
X5360000Y4822801D02*
D03*
Y4912801D02*
D03*
X7527577Y3627111D02*
D03*
Y3537111D02*
D03*
X7114747Y3345000D02*
D03*
X5795079Y3636279D02*
D03*
D16*
X6535079Y3636279D02*
D03*
X6468079Y5277053D02*
D03*
X6558079D02*
D03*
X6445079Y3636279D02*
D03*
X3804401Y4801800D02*
D03*
X3894401D02*
D03*
D22*
X901901Y4876301D02*
D03*
Y4701301D02*
D03*
D25*
X5190942Y4186697D02*
D03*
X5000941D02*
D03*
X5095941Y3986697D02*
D03*
D37*
X4774701Y6217500D02*
D03*
X7851319Y3505001D02*
D03*
Y3305001D02*
D03*
Y3105000D02*
D03*
X4774701Y5817500D02*
D03*
Y6017500D02*
D03*
D38*
X1865000Y748124D02*
D03*
X2130000D02*
D03*
Y1013125D02*
D03*
X1865000D02*
D03*
D39*
X1834949Y4801800D02*
D03*
X4120949Y5309800D02*
D03*
Y4801800D02*
D03*
X1834949Y5309800D02*
D03*
Y4293800D02*
D03*
Y3785800D02*
D03*
D40*
X7851319Y3705001D02*
D03*
X4774701Y5617500D02*
D03*
D41*
X4120949Y3785800D02*
D03*
D42*
X3866949Y3522800D02*
D03*
X2088949Y5572800D02*
D03*
D43*
X992500Y5825204D02*
D03*
Y6855204D02*
D03*
X7663902Y5825900D02*
D03*
Y6855900D02*
D03*
D44*
X972500Y6340204D02*
D03*
X847500Y6465204D02*
D03*
X972500D02*
D03*
X847500Y6215204D02*
D03*
Y6340204D02*
D03*
X7683902Y6340900D02*
D03*
X7808902D02*
D03*
X7683902Y6215900D02*
D03*
X7808902Y6465900D02*
D03*
Y6215900D02*
D03*
D45*
X972500Y6215204D02*
D03*
X7683902Y6465900D02*
D03*
D46*
X1997500Y880625D02*
D03*
D47*
X7851319Y2561901D02*
D03*
D48*
Y2815901D02*
D03*
D49*
X7276401Y8813600D02*
D03*
X3707701Y8013500D02*
D03*
X3961701D02*
D03*
X1688401Y8813600D02*
D03*
Y8559600D02*
D03*
X1942401Y8813600D02*
D03*
Y8559600D02*
D03*
X3212401Y8813600D02*
D03*
Y8559600D02*
D03*
X3466401Y8813600D02*
D03*
Y8559600D02*
D03*
X4736401Y8813600D02*
D03*
Y8559600D02*
D03*
X4990401Y8813600D02*
D03*
Y8559600D02*
D03*
X6260401Y8813600D02*
D03*
Y8559600D02*
D03*
X6514401Y8813600D02*
D03*
Y8559600D02*
D03*
X1675701Y8267500D02*
D03*
Y8013500D02*
D03*
X1929701Y8267500D02*
D03*
Y8013500D02*
D03*
X3199701Y8267500D02*
D03*
Y8013500D02*
D03*
X3453701Y8267500D02*
D03*
Y8013500D02*
D03*
X4723701Y8267500D02*
D03*
Y8013500D02*
D03*
X4977701Y8267500D02*
D03*
Y8013500D02*
D03*
X6247701Y8267500D02*
D03*
Y8013500D02*
D03*
X6501701Y8267500D02*
D03*
Y8013500D02*
D03*
X1180401Y8813600D02*
D03*
Y8559600D02*
D03*
X1434401Y8813600D02*
D03*
Y8559600D02*
D03*
X2196401Y8813600D02*
D03*
Y8559600D02*
D03*
X2450401Y8813600D02*
D03*
Y8559600D02*
D03*
X2704401Y8813600D02*
D03*
Y8559600D02*
D03*
X2958401Y8813600D02*
D03*
Y8559600D02*
D03*
X3720401Y8813600D02*
D03*
Y8559600D02*
D03*
X3974401Y8813600D02*
D03*
Y8559600D02*
D03*
X4228401Y8813600D02*
D03*
Y8559600D02*
D03*
X4482401Y8813600D02*
D03*
Y8559600D02*
D03*
X5244401Y8813600D02*
D03*
Y8559600D02*
D03*
X5498401Y8813600D02*
D03*
Y8559600D02*
D03*
X5752401Y8813600D02*
D03*
Y8559600D02*
D03*
X6006401Y8813600D02*
D03*
Y8559600D02*
D03*
X6768401Y8813600D02*
D03*
Y8559600D02*
D03*
X7022401Y8813600D02*
D03*
Y8559600D02*
D03*
X7276401D02*
D03*
X7530401Y8813600D02*
D03*
X1167701Y8267500D02*
D03*
Y8013500D02*
D03*
X1421701Y8267500D02*
D03*
Y8013500D02*
D03*
X2183701Y8267500D02*
D03*
Y8013500D02*
D03*
X2437701Y8267500D02*
D03*
Y8013500D02*
D03*
X2691701Y8267500D02*
D03*
Y8013500D02*
D03*
X2945701Y8267500D02*
D03*
Y8013500D02*
D03*
X3707701Y8267500D02*
D03*
X3961701D02*
D03*
X4215701D02*
D03*
Y8013500D02*
D03*
X4469701Y8267500D02*
D03*
Y8013500D02*
D03*
X5231701Y8267500D02*
D03*
Y8013500D02*
D03*
X5485701Y8267500D02*
D03*
Y8013500D02*
D03*
X5739701Y8267500D02*
D03*
Y8013500D02*
D03*
X5993701Y8267500D02*
D03*
Y8013500D02*
D03*
X6755701Y8267500D02*
D03*
Y8013500D02*
D03*
X7009701Y8267500D02*
D03*
Y8013500D02*
D03*
X7263701Y8267500D02*
D03*
Y8013500D02*
D03*
X7517701Y8267500D02*
D03*
D50*
X7530401Y8559600D02*
D03*
X7517701Y8013500D02*
D03*
D51*
X263501Y207200D02*
D03*
X877500Y7499748D02*
D03*
Y800000D02*
D03*
X644501Y8779700D02*
D03*
X7778149Y7499748D02*
D03*
X7883065Y1199878D02*
D03*
X8264200Y207100D02*
D03*
X8010501Y8779700D02*
D03*
D53*
X6495079Y5067801D02*
D03*
X5845079Y3927801D02*
D03*
X6495079D02*
D03*
X6545079D02*
D03*
X6445079D02*
D03*
X6395079D02*
D03*
X6345079D02*
D03*
X6295079D02*
D03*
X6245079D02*
D03*
X6195079D02*
D03*
X6145079D02*
D03*
X6095079D02*
D03*
X6045079D02*
D03*
X5995079D02*
D03*
X5945079D02*
D03*
X5895079D02*
D03*
X5795079D02*
D03*
Y5067801D02*
D03*
X5845079D02*
D03*
X5895079D02*
D03*
X5945079D02*
D03*
X5995079D02*
D03*
X6045079D02*
D03*
X6095079D02*
D03*
X6145079D02*
D03*
X6195079D02*
D03*
X6245079D02*
D03*
X6295079D02*
D03*
X6345079D02*
D03*
X6395079D02*
D03*
X6445079D02*
D03*
X6545079D02*
D03*
D54*
X5600079Y4822801D02*
D03*
X6740079Y4322801D02*
D03*
Y4872801D02*
D03*
Y4822801D02*
D03*
Y4772801D02*
D03*
Y4722801D02*
D03*
Y4672801D02*
D03*
Y4622801D02*
D03*
Y4572801D02*
D03*
Y4522801D02*
D03*
Y4472801D02*
D03*
Y4422801D02*
D03*
Y4372802D02*
D03*
Y4272801D02*
D03*
Y4222801D02*
D03*
Y4172801D02*
D03*
Y4122802D02*
D03*
X5600079D02*
D03*
Y4172801D02*
D03*
Y4222801D02*
D03*
Y4272801D02*
D03*
Y4322801D02*
D03*
Y4372802D02*
D03*
Y4422801D02*
D03*
Y4472801D02*
D03*
Y4522801D02*
D03*
Y4572801D02*
D03*
Y4622801D02*
D03*
Y4672801D02*
D03*
Y4722801D02*
D03*
Y4772801D02*
D03*
Y4872801D02*
D03*
D55*
X7642564Y4239323D02*
D03*
X7622583Y4995464D02*
D03*
X7672570D02*
D03*
X7592576Y4239323D02*
D03*
D56*
X7527576Y4823112D02*
D03*
X7757576Y4443112D02*
D03*
Y4823112D02*
D03*
X7527576Y4443112D02*
D03*
D57*
X7527577Y3249999D02*
D03*
Y3345000D02*
D03*
Y3155000D02*
D03*
X7287577D02*
D03*
Y3345000D02*
D03*
%TF.MD5,b36215d8b8e7a58982798b67274742e0*%
M02*
