%TF.GenerationSoftware,Altium Limited,Altium Designer,25.8.1 (18)*%
G04 Layer_Color=32768*
%FSLAX45Y45*%
%MOMM*%
%TF.SameCoordinates,E40C52F6-B12D-486C-AAC2-1DB2447C0C70*%
%TF.FilePolarity,Positive*%
%TF.FileFunction,Other,Top_Designator*%
%TF.Part,Single*%
G01*
G75*
%TA.AperFunction,NonConductor*%
%ADD64C,0.10000*%
G36*
X1086499Y4094328D02*
X1001730D01*
Y4046944D01*
X990378D01*
Y4107033D01*
X1086499D01*
Y4094328D01*
D02*
G37*
G36*
X992982Y4038093D02*
X994231Y4037988D01*
X995585Y4037676D01*
X997043Y4037364D01*
X998501Y4036843D01*
X998605D01*
X998814Y4036739D01*
X999126Y4036635D01*
X999647Y4036426D01*
X1000167Y4036114D01*
X1000896Y4035801D01*
X1002563Y4034968D01*
X1004541Y4033927D01*
X1006728Y4032573D01*
X1009019Y4031011D01*
X1011310Y4029136D01*
X1011415Y4029032D01*
X1011623Y4028928D01*
X1011935Y4028616D01*
X1012456Y4028095D01*
X1012977Y4027574D01*
X1013706Y4026845D01*
X1014539Y4026116D01*
X1015476Y4025179D01*
X1016517Y4024138D01*
X1017559Y4022992D01*
X1018808Y4021743D01*
X1020058Y4020285D01*
X1021412Y4018827D01*
X1022766Y4017160D01*
X1024224Y4015494D01*
X1025786Y4013620D01*
X1025890Y4013411D01*
X1026411Y4012891D01*
X1027036Y4012162D01*
X1027973Y4011120D01*
X1029014Y4009871D01*
X1030264Y4008413D01*
X1031618Y4006746D01*
X1033180Y4005080D01*
X1036408Y4001539D01*
X1039845Y3998103D01*
X1041511Y3996437D01*
X1043177Y3994874D01*
X1044739Y3993521D01*
X1046197Y3992375D01*
X1046301Y3992271D01*
X1046510Y3992167D01*
X1046926Y3991854D01*
X1047447Y3991542D01*
X1048176Y3991021D01*
X1048905Y3990605D01*
X1050779Y3989563D01*
X1052966Y3988522D01*
X1055362Y3987585D01*
X1057861Y3986960D01*
X1059111Y3986856D01*
X1060360Y3986751D01*
X1060464D01*
X1060673D01*
X1061089D01*
X1061506Y3986856D01*
X1062131D01*
X1062860Y3987064D01*
X1064422Y3987376D01*
X1066296Y3988001D01*
X1068275Y3988938D01*
X1069316Y3989459D01*
X1070254Y3990188D01*
X1071191Y3990917D01*
X1072128Y3991854D01*
X1072232Y3991958D01*
X1072336Y3992063D01*
X1072545Y3992375D01*
X1072857Y3992792D01*
X1073274Y3993312D01*
X1073690Y3993937D01*
X1074628Y3995395D01*
X1075461Y3997374D01*
X1076294Y3999561D01*
X1076814Y4002164D01*
X1077023Y4003622D01*
Y4005913D01*
X1076919Y4006538D01*
Y4007267D01*
X1076710Y4008100D01*
X1076398Y4009975D01*
X1075773Y4012162D01*
X1074836Y4014453D01*
X1074211Y4015598D01*
X1073586Y4016744D01*
X1072753Y4017785D01*
X1071816Y4018827D01*
X1071712Y4018931D01*
X1071607Y4019035D01*
X1071295Y4019243D01*
X1070878Y4019660D01*
X1070358Y4019972D01*
X1069733Y4020389D01*
X1069004Y4020909D01*
X1068171Y4021326D01*
X1067234Y4021847D01*
X1066192Y4022263D01*
X1063693Y4023096D01*
X1060985Y4023721D01*
X1059423Y4023825D01*
X1057757Y4023929D01*
X1059007Y4036010D01*
X1059215D01*
X1059631Y4035906D01*
X1060256Y4035801D01*
X1061193Y4035697D01*
X1062339Y4035489D01*
X1063693Y4035177D01*
X1065151Y4034864D01*
X1066713Y4034343D01*
X1068275Y4033823D01*
X1070045Y4033198D01*
X1071712Y4032365D01*
X1073378Y4031532D01*
X1075148Y4030490D01*
X1076710Y4029345D01*
X1078272Y4028095D01*
X1079626Y4026637D01*
X1079730Y4026533D01*
X1079939Y4026221D01*
X1080251Y4025804D01*
X1080772Y4025179D01*
X1081292Y4024346D01*
X1081917Y4023305D01*
X1082542Y4022159D01*
X1083271Y4020805D01*
X1083896Y4019347D01*
X1084521Y4017681D01*
X1085146Y4015911D01*
X1085666Y4013932D01*
X1086187Y4011849D01*
X1086499Y4009662D01*
X1086708Y4007267D01*
X1086812Y4004768D01*
Y4003414D01*
X1086708Y4002477D01*
X1086604Y4001331D01*
X1086395Y3999977D01*
X1086187Y3998415D01*
X1085875Y3996853D01*
X1085458Y3995083D01*
X1084937Y3993312D01*
X1084313Y3991438D01*
X1083584Y3989667D01*
X1082646Y3987793D01*
X1081605Y3986023D01*
X1080459Y3984356D01*
X1079106Y3982794D01*
X1079001Y3982690D01*
X1078793Y3982482D01*
X1078272Y3982065D01*
X1077752Y3981544D01*
X1077023Y3980920D01*
X1076085Y3980191D01*
X1075044Y3979462D01*
X1073794Y3978733D01*
X1072545Y3978004D01*
X1071087Y3977275D01*
X1069525Y3976546D01*
X1067858Y3975921D01*
X1065984Y3975400D01*
X1064109Y3974984D01*
X1062131Y3974775D01*
X1060048Y3974671D01*
X1059944D01*
X1059840D01*
X1059527D01*
X1059111D01*
X1057965Y3974775D01*
X1056507Y3974984D01*
X1054737Y3975296D01*
X1052862Y3975713D01*
X1050779Y3976233D01*
X1048697Y3977066D01*
X1048593D01*
X1048488Y3977171D01*
X1048176Y3977275D01*
X1047759Y3977483D01*
X1046614Y3978108D01*
X1045156Y3978941D01*
X1043386Y3980087D01*
X1041407Y3981440D01*
X1039324Y3983002D01*
X1037033Y3984981D01*
X1036929Y3985085D01*
X1036721Y3985189D01*
X1036408Y3985606D01*
X1035887Y3986023D01*
X1035263Y3986647D01*
X1034534Y3987376D01*
X1033596Y3988209D01*
X1032659Y3989251D01*
X1031514Y3990501D01*
X1030264Y3991854D01*
X1028806Y3993312D01*
X1027348Y3994979D01*
X1025682Y3996749D01*
X1024015Y3998728D01*
X1022141Y4000915D01*
X1020162Y4003206D01*
X1020058Y4003310D01*
X1019746Y4003622D01*
X1019329Y4004247D01*
X1018704Y4004872D01*
X1017975Y4005809D01*
X1017142Y4006746D01*
X1015268Y4008933D01*
X1013289Y4011224D01*
X1011206Y4013411D01*
X1010269Y4014453D01*
X1009436Y4015390D01*
X1008603Y4016223D01*
X1007978Y4016848D01*
X1007874Y4016952D01*
X1007457Y4017369D01*
X1006832Y4017889D01*
X1005999Y4018618D01*
X1005062Y4019451D01*
X1004021Y4020285D01*
X1001730Y4021951D01*
Y3974567D01*
X990378D01*
Y4038197D01*
X990587D01*
X991107D01*
X991940D01*
X992982Y4038093D01*
D02*
G37*
G36*
X7871626Y2754718D02*
X7872459D01*
X7873604Y2754510D01*
X7874854Y2754301D01*
X7876208Y2754093D01*
X7877770Y2753676D01*
X7879436Y2753156D01*
X7881102Y2752531D01*
X7882873Y2751802D01*
X7884643Y2750865D01*
X7886518Y2749823D01*
X7888288Y2748574D01*
X7890058Y2747220D01*
X7891725Y2745554D01*
X7891829Y2745449D01*
X7892141Y2745137D01*
X7892558Y2744616D01*
X7893078Y2743887D01*
X7893703Y2743054D01*
X7894432Y2741909D01*
X7895265Y2740659D01*
X7895994Y2739201D01*
X7896827Y2737639D01*
X7897661Y2735869D01*
X7898390Y2733994D01*
X7899014Y2731911D01*
X7899535Y2729724D01*
X7899952Y2727433D01*
X7900264Y2725038D01*
X7900368Y2722434D01*
Y2721914D01*
X7900264Y2721185D01*
Y2720352D01*
X7900160Y2719206D01*
X7899952Y2717956D01*
X7899743Y2716603D01*
X7899431Y2715041D01*
X7899014Y2713374D01*
X7898494Y2711708D01*
X7897973Y2709938D01*
X7897244Y2708167D01*
X7896307Y2706397D01*
X7895370Y2704731D01*
X7894224Y2702960D01*
X7892870Y2701398D01*
X7892766Y2701294D01*
X7892558Y2701086D01*
X7892141Y2700669D01*
X7891516Y2700044D01*
X7890787Y2699420D01*
X7889850Y2698691D01*
X7888809Y2697962D01*
X7887559Y2697128D01*
X7886309Y2696295D01*
X7884747Y2695462D01*
X7883185Y2694629D01*
X7881415Y2693900D01*
X7879540Y2693275D01*
X7877562Y2692650D01*
X7875479Y2692234D01*
X7873292Y2691921D01*
X7871730Y2703689D01*
X7871834D01*
X7872146Y2703793D01*
X7872667Y2703898D01*
X7873396Y2704106D01*
X7874229Y2704314D01*
X7875166Y2704522D01*
X7877353Y2705251D01*
X7879749Y2706189D01*
X7882144Y2707334D01*
X7884331Y2708792D01*
X7885268Y2709625D01*
X7886205Y2710458D01*
Y2710563D01*
X7886413Y2710667D01*
X7886622Y2710979D01*
X7886934Y2711292D01*
X7887559Y2712333D01*
X7888392Y2713791D01*
X7889225Y2715561D01*
X7889850Y2717540D01*
X7890371Y2719935D01*
X7890579Y2722434D01*
Y2723268D01*
X7890475Y2723892D01*
X7890371Y2724517D01*
X7890267Y2725455D01*
X7889850Y2727329D01*
X7889225Y2729620D01*
X7888184Y2732015D01*
X7887455Y2733161D01*
X7886726Y2734306D01*
X7885893Y2735452D01*
X7884851Y2736598D01*
X7884747Y2736702D01*
X7884539Y2736806D01*
X7884227Y2737118D01*
X7883810Y2737535D01*
X7883289Y2737951D01*
X7882560Y2738368D01*
X7881831Y2738889D01*
X7880894Y2739513D01*
X7878811Y2740555D01*
X7876416Y2741388D01*
X7873604Y2742117D01*
X7872146Y2742221D01*
X7870584Y2742325D01*
X7870480D01*
X7870272D01*
X7869751D01*
X7869230Y2742221D01*
X7868501Y2742117D01*
X7867772Y2742013D01*
X7865898Y2741700D01*
X7863711Y2740971D01*
X7861524Y2740034D01*
X7860378Y2739409D01*
X7859337Y2738680D01*
X7858296Y2737847D01*
X7857254Y2736910D01*
X7857150Y2736806D01*
X7857046Y2736702D01*
X7856734Y2736389D01*
X7856421Y2735973D01*
X7856005Y2735452D01*
X7855588Y2734827D01*
X7854547Y2733265D01*
X7853609Y2731286D01*
X7852776Y2728995D01*
X7852151Y2726392D01*
X7852047Y2724934D01*
X7851943Y2723476D01*
Y2722851D01*
X7852047Y2722122D01*
Y2721185D01*
X7852256Y2719935D01*
X7852464Y2718581D01*
X7852776Y2716915D01*
X7853193Y2715145D01*
X7842883Y2716394D01*
Y2716603D01*
X7842987Y2717123D01*
X7843091Y2717748D01*
Y2719102D01*
X7842987Y2719623D01*
Y2720352D01*
X7842883Y2721081D01*
X7842571Y2722851D01*
X7842154Y2724934D01*
X7841425Y2727225D01*
X7840488Y2729620D01*
X7839134Y2731911D01*
Y2732015D01*
X7838926Y2732224D01*
X7838717Y2732432D01*
X7838405Y2732848D01*
X7837468Y2733890D01*
X7836114Y2735035D01*
X7834448Y2736077D01*
X7832365Y2737118D01*
X7831219Y2737535D01*
X7829865Y2737743D01*
X7828512Y2737951D01*
X7827054Y2738055D01*
X7826950D01*
X7826741D01*
X7826429D01*
X7825908Y2737951D01*
X7824763Y2737847D01*
X7823201Y2737535D01*
X7821534Y2737014D01*
X7819764Y2736181D01*
X7817889Y2735035D01*
X7817056Y2734411D01*
X7816223Y2733577D01*
X7816015Y2733369D01*
X7815598Y2732744D01*
X7814869Y2731807D01*
X7814036Y2730557D01*
X7813307Y2728891D01*
X7812578Y2726913D01*
X7812162Y2724726D01*
X7811953Y2722226D01*
Y2721601D01*
X7812058Y2721081D01*
Y2720456D01*
X7812162Y2719831D01*
X7812474Y2718165D01*
X7812995Y2716394D01*
X7813828Y2714416D01*
X7814869Y2712541D01*
X7816327Y2710667D01*
X7816536Y2710458D01*
X7817160Y2709938D01*
X7818098Y2709105D01*
X7819556Y2708271D01*
X7821326Y2707230D01*
X7823617Y2706293D01*
X7826221Y2705460D01*
X7829241Y2704835D01*
X7827158Y2693067D01*
X7827054D01*
X7826637Y2693171D01*
X7826012Y2693275D01*
X7825179Y2693484D01*
X7824242Y2693796D01*
X7823096Y2694108D01*
X7821847Y2694525D01*
X7820493Y2695046D01*
X7817473Y2696399D01*
X7816015Y2697128D01*
X7814453Y2698066D01*
X7812995Y2699107D01*
X7811537Y2700253D01*
X7810079Y2701502D01*
X7808829Y2702856D01*
X7808725Y2702960D01*
X7808517Y2703169D01*
X7808204Y2703689D01*
X7807788Y2704210D01*
X7807267Y2705043D01*
X7806746Y2705876D01*
X7806122Y2706918D01*
X7805497Y2708167D01*
X7804976Y2709417D01*
X7804351Y2710875D01*
X7803830Y2712437D01*
X7803310Y2714103D01*
X7802893Y2715978D01*
X7802581Y2717852D01*
X7802373Y2719831D01*
X7802268Y2721914D01*
Y2723268D01*
X7802373Y2723997D01*
X7802477Y2724726D01*
X7802685Y2726704D01*
X7803101Y2728891D01*
X7803726Y2731391D01*
X7804559Y2733890D01*
X7805705Y2736389D01*
Y2736493D01*
X7805809Y2736702D01*
X7806017Y2737014D01*
X7806330Y2737535D01*
X7807059Y2738680D01*
X7808100Y2740138D01*
X7809454Y2741805D01*
X7811016Y2743471D01*
X7812787Y2745137D01*
X7814869Y2746595D01*
X7814973D01*
X7815078Y2746699D01*
X7815494Y2746907D01*
X7815911Y2747116D01*
X7816431Y2747428D01*
X7817056Y2747741D01*
X7818618Y2748365D01*
X7820493Y2748990D01*
X7822576Y2749615D01*
X7824867Y2750032D01*
X7827262Y2750136D01*
X7827366D01*
X7827574D01*
X7827887D01*
X7828303D01*
X7829553Y2749927D01*
X7831011Y2749719D01*
X7832781Y2749303D01*
X7834656Y2748678D01*
X7836635Y2747845D01*
X7838613Y2746699D01*
X7838717D01*
X7838822Y2746595D01*
X7839446Y2746074D01*
X7840384Y2745345D01*
X7841529Y2744200D01*
X7842883Y2742846D01*
X7844237Y2741076D01*
X7845486Y2739097D01*
X7846736Y2736806D01*
Y2736910D01*
X7846840Y2737222D01*
X7846944Y2737639D01*
X7847153Y2738264D01*
X7847361Y2738889D01*
X7847673Y2739722D01*
X7848507Y2741700D01*
X7849652Y2743783D01*
X7851006Y2745970D01*
X7852776Y2748157D01*
X7854963Y2750032D01*
X7855067Y2750136D01*
X7855276Y2750240D01*
X7855588Y2750448D01*
X7856109Y2750761D01*
X7856629Y2751177D01*
X7857358Y2751594D01*
X7858192Y2752010D01*
X7859233Y2752427D01*
X7860274Y2752843D01*
X7861420Y2753260D01*
X7864023Y2754093D01*
X7867043Y2754614D01*
X7868710Y2754822D01*
X7870376D01*
X7870480D01*
X7870897D01*
X7871626Y2754718D01*
D02*
G37*
G36*
X7871105Y2675780D02*
X7872250D01*
X7873604Y2675676D01*
X7874958Y2675467D01*
X7877978Y2675155D01*
X7881102Y2674634D01*
X7884122Y2673905D01*
X7885476Y2673385D01*
X7886830Y2672864D01*
X7886934D01*
X7887142Y2672760D01*
X7887455Y2672551D01*
X7887871Y2672343D01*
X7889121Y2671614D01*
X7890579Y2670573D01*
X7892141Y2669323D01*
X7893807Y2667761D01*
X7895370Y2665782D01*
X7896827Y2663595D01*
Y2663491D01*
X7896932Y2663283D01*
X7897140Y2662971D01*
X7897348Y2662450D01*
X7897661Y2661929D01*
X7897869Y2661200D01*
X7898181Y2660367D01*
X7898494Y2659430D01*
X7899223Y2657243D01*
X7899743Y2654743D01*
X7900160Y2651932D01*
X7900264Y2648808D01*
Y2647558D01*
X7900160Y2646725D01*
X7900056Y2645683D01*
X7899848Y2644434D01*
X7899639Y2643080D01*
X7899327Y2641622D01*
X7899014Y2640060D01*
X7898494Y2638498D01*
X7897973Y2636831D01*
X7897244Y2635269D01*
X7896411Y2633603D01*
X7895474Y2632145D01*
X7894328Y2630687D01*
X7893078Y2629333D01*
X7892974Y2629229D01*
X7892766Y2629021D01*
X7892349Y2628708D01*
X7891725Y2628292D01*
X7890996Y2627771D01*
X7890058Y2627251D01*
X7888913Y2626626D01*
X7887663Y2626001D01*
X7886205Y2625480D01*
X7884643Y2624855D01*
X7882873Y2624335D01*
X7880894Y2623814D01*
X7878811Y2623501D01*
X7876520Y2623189D01*
X7874125Y2622981D01*
X7871521D01*
X7869855Y2634436D01*
X7869959D01*
X7870376D01*
X7870897Y2634540D01*
X7871626D01*
X7872563Y2634644D01*
X7873604Y2634749D01*
X7875895Y2635061D01*
X7878395Y2635582D01*
X7880894Y2636311D01*
X7882040Y2636727D01*
X7883185Y2637248D01*
X7884122Y2637873D01*
X7884956Y2638498D01*
X7885164Y2638706D01*
X7885580Y2639227D01*
X7886205Y2640060D01*
X7886934Y2641205D01*
X7887663Y2642663D01*
X7888288Y2644434D01*
X7888705Y2646412D01*
X7888913Y2648703D01*
Y2649536D01*
X7888809Y2650370D01*
X7888600Y2651515D01*
X7888392Y2652869D01*
X7887976Y2654223D01*
X7887455Y2655577D01*
X7886726Y2656930D01*
X7886622Y2657139D01*
X7886309Y2657555D01*
X7885789Y2658076D01*
X7885164Y2658909D01*
X7884331Y2659638D01*
X7883289Y2660471D01*
X7882144Y2661200D01*
X7880790Y2661825D01*
X7880582Y2661929D01*
X7880061Y2662033D01*
X7879124Y2662242D01*
X7877874Y2662554D01*
X7876208Y2662762D01*
X7874125Y2662971D01*
X7871730Y2663075D01*
X7870272Y2663179D01*
X7868814D01*
X7802581D01*
Y2675884D01*
X7868085D01*
X7868189D01*
X7868606D01*
X7869230D01*
X7870064D01*
X7871105Y2675780D01*
D02*
G37*
G36*
X4099789Y6710523D02*
X4024704D01*
X4024912Y6710315D01*
X4025433Y6709794D01*
X4026162Y6708857D01*
X4027204Y6707503D01*
X4028453Y6705941D01*
X4029807Y6703962D01*
X4031265Y6701775D01*
X4032827Y6699276D01*
Y6699172D01*
X4033035Y6698963D01*
X4033244Y6698651D01*
X4033452Y6698130D01*
X4033868Y6697506D01*
X4034181Y6696777D01*
X4035118Y6695110D01*
X4036055Y6693236D01*
X4037097Y6691153D01*
X4038034Y6688966D01*
X4038867Y6686883D01*
X4027516D01*
X4027412Y6686987D01*
X4027308Y6687300D01*
X4026995Y6687821D01*
X4026683Y6688549D01*
X4026266Y6689383D01*
X4025641Y6690424D01*
X4025017Y6691570D01*
X4024392Y6692715D01*
X4022726Y6695423D01*
X4020747Y6698339D01*
X4018664Y6701359D01*
X4016269Y6704170D01*
X4016165Y6704275D01*
X4015956Y6704483D01*
X4015644Y6704899D01*
X4015123Y6705420D01*
X4014498Y6705941D01*
X4013874Y6706670D01*
X4012103Y6708232D01*
X4010229Y6710002D01*
X4008042Y6711773D01*
X4005751Y6713335D01*
X4003355Y6714689D01*
Y6722291D01*
X4099789D01*
Y6710523D01*
D02*
G37*
G36*
Y6607424D02*
X4003668D01*
Y6620130D01*
X4088438D01*
Y6667513D01*
X4099789D01*
Y6607424D01*
D02*
G37*
G36*
X4813274Y5959781D02*
X4753206D01*
X4753373Y5959614D01*
X4753789Y5959197D01*
X4754372Y5958448D01*
X4755205Y5957365D01*
X4756205Y5956115D01*
X4757288Y5954532D01*
X4758455Y5952782D01*
X4759704Y5950783D01*
Y5950700D01*
X4759871Y5950533D01*
X4760037Y5950283D01*
X4760204Y5949866D01*
X4760537Y5949367D01*
X4760787Y5948783D01*
X4761537Y5947450D01*
X4762287Y5945951D01*
X4763120Y5944285D01*
X4763870Y5942535D01*
X4764536Y5940869D01*
X4755455D01*
X4755372Y5940952D01*
X4755289Y5941202D01*
X4755039Y5941619D01*
X4754789Y5942202D01*
X4754456Y5942868D01*
X4753956Y5943701D01*
X4753456Y5944618D01*
X4752956Y5945534D01*
X4751623Y5947700D01*
X4750040Y5950033D01*
X4748374Y5952449D01*
X4746458Y5954699D01*
X4746374Y5954782D01*
X4746208Y5954948D01*
X4745958Y5955282D01*
X4745541Y5955698D01*
X4745041Y5956115D01*
X4744541Y5956698D01*
X4743125Y5957948D01*
X4741626Y5959364D01*
X4739876Y5960780D01*
X4738043Y5962030D01*
X4736127Y5963113D01*
Y5969195D01*
X4813274D01*
Y5959781D01*
D02*
G37*
G36*
X4760371Y5924456D02*
X4761204Y5924373D01*
X4762120Y5924206D01*
X4763203Y5924040D01*
X4764453Y5923790D01*
X4765703Y5923457D01*
X4767036Y5923040D01*
X4768369Y5922540D01*
X4769785Y5921874D01*
X4771201Y5921207D01*
X4772618Y5920374D01*
X4773951Y5919374D01*
X4775284Y5918291D01*
X4775367Y5918208D01*
X4775534Y5917958D01*
X4775867Y5917625D01*
X4776367Y5917042D01*
X4776866Y5916375D01*
X4777450Y5915459D01*
X4778033Y5914376D01*
X4778616Y5913126D01*
X4779283Y5911626D01*
X4779866Y5910043D01*
X4780449Y5908127D01*
X4780949Y5906128D01*
X4781365Y5903795D01*
X4781699Y5901296D01*
X4781949Y5898630D01*
X4782032Y5895630D01*
Y5875969D01*
X4813274D01*
Y5865805D01*
X4736377D01*
Y5897463D01*
X4736460Y5899129D01*
X4736543Y5901046D01*
X4736710Y5902962D01*
X4736877Y5904795D01*
X4736960Y5905711D01*
X4737127Y5906461D01*
Y5906544D01*
X4737210Y5906711D01*
Y5907044D01*
X4737293Y5907377D01*
X4737460Y5907877D01*
X4737543Y5908460D01*
X4737960Y5909793D01*
X4738460Y5911293D01*
X4739126Y5912876D01*
X4739876Y5914459D01*
X4740792Y5915958D01*
Y5916042D01*
X4740876Y5916125D01*
X4741292Y5916625D01*
X4741875Y5917291D01*
X4742709Y5918208D01*
X4743708Y5919124D01*
X4745041Y5920207D01*
X4746458Y5921207D01*
X4748207Y5922124D01*
X4748290D01*
X4748457Y5922207D01*
X4748707Y5922373D01*
X4749040Y5922540D01*
X4749457Y5922707D01*
X4750040Y5922873D01*
X4751290Y5923373D01*
X4752873Y5923790D01*
X4754622Y5924206D01*
X4756622Y5924456D01*
X4758704Y5924540D01*
X4758788D01*
X4759121D01*
X4759621D01*
X4760371Y5924456D01*
D02*
G37*
%LPC*%
G36*
X4758954Y5914042D02*
X4758871D01*
X4758704D01*
X4758455D01*
X4758121D01*
X4757205Y5913876D01*
X4756122Y5913709D01*
X4754789Y5913459D01*
X4753456Y5912959D01*
X4752040Y5912376D01*
X4750707Y5911543D01*
X4750540Y5911460D01*
X4750123Y5911126D01*
X4749540Y5910543D01*
X4748874Y5909877D01*
X4748124Y5908877D01*
X4747374Y5907794D01*
X4746708Y5906544D01*
X4746208Y5905128D01*
Y5905045D01*
X4746124Y5904628D01*
X4745958Y5903962D01*
X4745791Y5902962D01*
Y5902379D01*
X4745708Y5901712D01*
X4745624Y5900879D01*
X4745541Y5900046D01*
Y5899046D01*
X4745458Y5898046D01*
Y5875969D01*
X4772951D01*
Y5896713D01*
X4772868Y5897380D01*
Y5898213D01*
X4772784Y5899129D01*
X4772618Y5900212D01*
X4772451Y5901296D01*
X4772034Y5903628D01*
X4771368Y5905961D01*
X4770951Y5907044D01*
X4770451Y5908044D01*
X4769952Y5909044D01*
X4769285Y5909877D01*
X4769202Y5909960D01*
X4769118Y5910043D01*
X4768869Y5910293D01*
X4768619Y5910543D01*
X4767785Y5911210D01*
X4766619Y5911959D01*
X4765120Y5912709D01*
X4763370Y5913376D01*
X4761287Y5913876D01*
X4760204Y5913959D01*
X4758954Y5914042D01*
D02*
G37*
%LPD*%
D64*
X2119728Y7335798D02*
X2454728D01*
X2119728D02*
Y7599798D01*
X2454728D01*
Y7335798D02*
Y7599798D01*
%TF.MD5,ec243f5ee497d68e1f757a5d5a7e1edb*%
M02*
