%TF.GenerationSoftware,Altium Limited,Altium Designer,25.8.1 (18)*%
G04 Layer_Color=16711935*
%FSLAX45Y45*%
%MOMM*%
%TF.SameCoordinates,E40C52F6-B12D-486C-AAC2-1DB2447C0C70*%
%TF.FilePolarity,Positive*%
%TF.FileFunction,Other,Top_3D_Body*%
%TF.Part,Single*%
G01*
G75*
%TA.AperFunction,NonConductor*%
%ADD58C,0.20000*%
%ADD62C,0.15000*%
%ADD63C,0.12700*%
%ADD64C,0.10000*%
D58*
X4330949Y3785800D02*
G03*
X4330949Y3785800I-10000J0D01*
G01*
X1107500Y6215204D02*
G03*
X1107500Y6215204I-10000J0D01*
G01*
X1286901Y5189300D02*
G03*
X1286901Y5189300I-10000J0D01*
G01*
X2234948Y7249357D02*
G03*
X2234948Y7249357I-10000J0D01*
G01*
X2387448Y6975857D02*
G03*
X2387448Y6975857I-10000J0D01*
G01*
X7757901Y8559600D02*
G03*
X7757901Y8559600I-10000J0D01*
G01*
X7568902Y6465900D02*
G03*
X7568902Y6465900I-10000J0D01*
G01*
X7745201Y8013500D02*
G03*
X7745201Y8013500I-10000J0D01*
G01*
D62*
X5121900Y2097800D02*
Y5657800D01*
X7021900Y2097800D02*
Y5657800D01*
X5121900Y2097800D02*
X7021900D01*
D63*
X1834949Y3522800D02*
X2377949D01*
X2577949Y3492800D02*
Y3522800D01*
X2377949Y3492800D02*
X2577949D01*
X2377949D02*
Y3522800D01*
X2577949D02*
X3377949D01*
Y3492800D02*
Y3522800D01*
Y3492800D02*
X3577949D01*
Y3522800D01*
X4120949D01*
X3577949Y5572800D02*
X4120949D01*
X3377949D02*
Y5602800D01*
X3577949D01*
Y5572800D02*
Y5602800D01*
X2577949Y5572800D02*
X3377949D01*
X2377949D02*
Y5602800D01*
X2577949D01*
Y5572800D02*
Y5602800D01*
X1834949Y5572800D02*
X2377949D01*
X4120949Y3522800D02*
Y5572800D01*
X1834949Y3522800D02*
Y5572800D01*
X867500Y6135204D02*
X982500D01*
X867500Y6545204D02*
X982500D01*
Y6135204D02*
Y6545204D01*
X867500Y5580204D02*
Y6135204D01*
X377500Y5580204D02*
X867500D01*
X377500D02*
Y7100204D01*
X867500D01*
Y6545204D02*
Y7100204D01*
X1026901Y5052800D02*
X1326901D01*
X1026901Y4752800D02*
Y5052800D01*
Y4752800D02*
X1326901D01*
Y5052800D01*
X2589948Y6967357D02*
X3029948D01*
X2589948Y6317357D02*
X3029948D01*
X2589948D02*
Y6967357D01*
X3029948Y6317357D02*
Y6967357D01*
X7788902Y5580900D02*
Y6135900D01*
Y5580900D02*
X8278902D01*
Y7100900D01*
X7788902D02*
X8278902D01*
X7788902Y6545900D02*
Y7100900D01*
X7673902Y6135900D02*
Y6545900D01*
Y6135900D02*
X7788902D01*
X7673902Y6545900D02*
X7788902D01*
D64*
X848592Y3820785D02*
G03*
X848592Y3820785I-30000J0D01*
G01*
X4301575Y6884873D02*
G03*
X4301575Y6884873I-30000J0D01*
G01*
X5880979Y7114926D02*
G03*
X5880979Y7114926I-50000J0D01*
G01*
X4976900Y6979148D02*
Y7027926D01*
X5076900Y6979148D02*
Y7027926D01*
X4976900D02*
X5076900D01*
X4976900Y6979148D02*
X5076900D01*
X4843473Y5216101D02*
X4923473D01*
X4843473Y5056101D02*
X4923473D01*
Y5216101D01*
X4843473Y5056101D02*
Y5216101D01*
X4649890Y5056101D02*
X4729890D01*
X4649890Y5216101D02*
X4729890D01*
X4649890Y5056101D02*
Y5216101D01*
X4729890Y5056101D02*
Y5216101D01*
X7143401Y6511926D02*
Y6671926D01*
X7063401Y6511926D02*
Y6671926D01*
X7143401D01*
X7063401Y6511926D02*
X7143401D01*
X738595Y4340800D02*
X1338595D01*
X738595Y3740800D02*
Y4340800D01*
Y3740800D02*
X1338595D01*
Y4340800D01*
X1825000Y708125D02*
Y1053125D01*
Y708125D02*
X2170000D01*
Y1053125D01*
X1825000D02*
X2170000D01*
X7724319Y2434901D02*
X7978319D01*
Y2942901D01*
X7724319D02*
X7978319D01*
X7724319Y2434901D02*
Y2942901D01*
X4844890Y4478112D02*
Y4558112D01*
X4684890Y4478112D02*
Y4558112D01*
Y4478112D02*
X4844890D01*
X4684890Y4558112D02*
X4844890D01*
X5290000Y6591926D02*
X5390000D01*
X5290000Y6651926D02*
X5390000D01*
Y6591926D02*
Y6651926D01*
X5290000Y6591926D02*
Y6651926D01*
Y6464926D02*
X5390000D01*
X5290000Y6524926D02*
X5390000D01*
Y6464926D02*
Y6524926D01*
X5290000Y6464926D02*
Y6524926D01*
X6824879Y6699858D02*
X6959879D01*
X6824879Y6929858D02*
X6959879D01*
X6824879Y6699858D02*
Y6929858D01*
X6959879Y6699858D02*
Y6929858D01*
X6824879Y6482926D02*
X6959879D01*
X6824879Y6252926D02*
X6959879D01*
Y6482926D01*
X6824879Y6252926D02*
Y6482926D01*
X3299948Y7556262D02*
X3474948D01*
X3299948Y7461262D02*
X3474948D01*
X3299948D02*
Y7556262D01*
X3474948Y7461262D02*
Y7556262D01*
X3422448Y7171656D02*
X3502448D01*
X3422448Y7331656D02*
X3502448D01*
X3422448Y7171656D02*
Y7331656D01*
X3502448Y7171656D02*
Y7331656D01*
X3617448Y6652358D02*
Y6732357D01*
X3457448Y6652358D02*
Y6732357D01*
Y6652358D02*
X3617448D01*
X3457448Y6732357D02*
X3617448D01*
X2169948Y6129857D02*
X2249948D01*
X2169948Y6289857D02*
X2249948D01*
X2169948Y6129857D02*
Y6289857D01*
X2249948Y6129857D02*
Y6289857D01*
X2007448Y6279857D02*
X2087448D01*
X2007448Y6439857D02*
X2087448D01*
X2007448Y6279857D02*
Y6439857D01*
X2087448Y6279857D02*
Y6439857D01*
X1844948Y6429857D02*
X1924948D01*
X1844948Y6589857D02*
X1924948D01*
X1844948Y6429857D02*
Y6589857D01*
X1924948Y6429857D02*
Y6589857D01*
X1857578Y6984357D02*
Y7124357D01*
X1557578Y6984357D02*
Y7124357D01*
X1857578D01*
X1557578Y6984357D02*
X1857578D01*
X2943448Y6119858D02*
Y6199858D01*
X3103448Y6119858D02*
Y6199858D01*
X2943448D02*
X3103448D01*
X2943448Y6119858D02*
X3103448D01*
X3491198Y6448608D02*
Y6548607D01*
X3431198Y6448608D02*
Y6548607D01*
X3491198D01*
X3431198Y6448608D02*
X3491198D01*
X3275963Y6179858D02*
X3355963D01*
X3275963Y6339858D02*
X3355963D01*
X3275963Y6179858D02*
Y6339858D01*
X3355963Y6179858D02*
Y6339858D01*
X3422448Y6832357D02*
X3502448D01*
X3422448Y6992357D02*
X3502448D01*
X3422448Y6832357D02*
Y6992357D01*
X3502448Y6832357D02*
Y6992357D01*
X7254190Y3277800D02*
X7334190D01*
X7254190Y3437800D02*
X7334190D01*
X7254190Y3277800D02*
Y3437800D01*
X7334190Y3277800D02*
Y3437800D01*
X7254190Y2832800D02*
X7334190D01*
X7254190Y2992800D02*
X7334190D01*
X7254190Y2832800D02*
Y2992800D01*
X7334190Y2832800D02*
Y2992800D01*
X4264401Y2502800D02*
Y2582800D01*
X4104401Y2502800D02*
Y2582800D01*
Y2502800D02*
X4264401D01*
X4104401Y2582800D02*
X4264401D01*
X3424401Y2502800D02*
Y2582800D01*
X3264401Y2502800D02*
Y2582800D01*
Y2502800D02*
X3424401D01*
X3264401Y2582800D02*
X3424401D01*
X2716901Y2502800D02*
Y2582800D01*
X2556901Y2502800D02*
Y2582800D01*
Y2502800D02*
X2716901D01*
X2556901Y2582800D02*
X2716901D01*
X1965000Y2502800D02*
Y2582800D01*
X1805000Y2502800D02*
Y2582800D01*
Y2502800D02*
X1965000D01*
X1805000Y2582800D02*
X1965000D01*
X1599400Y2052800D02*
X1679400D01*
X1599400Y1892800D02*
X1679400D01*
Y2052800D01*
X1599400Y1892800D02*
Y2052800D01*
Y1220300D02*
X1679400D01*
X1599400Y1060300D02*
X1679400D01*
Y1220300D01*
X1599400Y1060300D02*
Y1220300D01*
X7682901Y8439100D02*
Y8934100D01*
X1027901D02*
X7682901D01*
X1027901Y8439100D02*
Y8934100D01*
Y8439100D02*
X7682901D01*
Y8934100D01*
X1027901D02*
X7682901D01*
X1027901Y8439100D02*
Y8934100D01*
X7670201Y7893000D02*
Y8388000D01*
X1015201D02*
X7670201D01*
X1015201Y7893000D02*
Y8388000D01*
Y7893000D02*
X7670201D01*
Y8388000D01*
X1015201D02*
X7670201D01*
X1015201Y7893000D02*
Y8388000D01*
X3751573Y6364857D02*
X4351572D01*
Y6964857D01*
X3751573D02*
X4351572D01*
X3751573Y6364857D02*
Y6964857D01*
X4674701Y5517500D02*
X4874701D01*
Y6317500D01*
X4674701D02*
X4874701D01*
X4674701Y5517500D02*
Y6317500D01*
X5735979Y5925526D02*
Y7209926D01*
X6494979Y5925526D02*
Y7209926D01*
X5735979D02*
X6494979D01*
X5735979Y5925526D02*
X6494979D01*
%TF.MD5,b128deb4cc260639675d2abed0f4f7de*%
M02*
