%TF.GenerationSoftware,Altium Limited,Altium Designer,25.8.1 (18)*%
G04 Layer_Color=32768*
%FSLAX45Y45*%
%MOMM*%
%TF.SameCoordinates,E40C52F6-B12D-486C-AAC2-1DB2447C0C70*%
%TF.FilePolarity,Positive*%
%TF.FileFunction,Other,Mechanical_15*%
%TF.Part,Single*%
G01*
G75*
%TA.AperFunction,NonConductor*%
%ADD64C,0.10000*%
%ADD109C,0.05000*%
%ADD110C,0.01270*%
D64*
X3387448Y7461262D02*
Y7556262D01*
X3339948Y7508762D02*
X3434948D01*
X5517979Y5899526D02*
Y7235426D01*
X6712979Y5899526D02*
Y7235426D01*
X5517979D02*
X6712979D01*
X5517979Y5899526D02*
X6712979D01*
X6065479Y6558426D02*
X6165479D01*
X6115479Y6508426D02*
Y6608426D01*
D109*
X352500Y5555204D02*
X1172500D01*
X352500Y7125204D02*
X1172500D01*
X352500Y5555204D02*
Y7125204D01*
X1001901Y5114300D02*
X1351901D01*
X1001901Y4691300D02*
Y5114300D01*
Y4691300D02*
X1351901D01*
Y5114300D01*
X3247748Y7583762D02*
X3527148D01*
X3247748Y7433762D02*
X3527148D01*
X3247748D02*
Y7583762D01*
X3527148Y7433762D02*
Y7583762D01*
X2424448Y6992357D02*
X3195448D01*
X2424448Y6292357D02*
X3195448D01*
X2424448D02*
Y6992357D01*
X3195448Y6292357D02*
Y6992357D01*
X8303902Y5555900D02*
Y7125900D01*
X7483902Y5555900D02*
X8303902D01*
X7483902Y7125900D02*
X8303902D01*
D110*
X423501Y207200D02*
G03*
X423501Y207200I-160000J0D01*
G01*
X1037500Y800000D02*
G03*
X1037500Y800000I-160000J0D01*
G01*
X1013595Y5906460D02*
G03*
X911243Y5804110I-21095J-81256D01*
G01*
X867500Y6215204D02*
G03*
X867500Y6215204I-20000J0D01*
G01*
D02*
G03*
X867500Y6215204I-20000J0D01*
G01*
Y6340204D02*
G03*
X867500Y6340204I-20000J0D01*
G01*
D02*
G03*
X867500Y6340204I-20000J0D01*
G01*
Y6465204D02*
G03*
X867500Y6465204I-20000J0D01*
G01*
D02*
G03*
X867500Y6465204I-20000J0D01*
G01*
X1910500Y753625D02*
G03*
X1910500Y753625I-40000J0D01*
G01*
Y1007625D02*
G03*
X1910500Y1007625I-40000J0D01*
G01*
X2037500Y880625D02*
G03*
X2037500Y880625I-40000J0D01*
G01*
X2164500Y753625D02*
G03*
X2164500Y753625I-40000J0D01*
G01*
Y1007625D02*
G03*
X2164500Y1007625I-40000J0D01*
G01*
X7754877Y5155793D02*
G03*
X7754877Y5155793I-90000J0D01*
G01*
X7755645Y4125793D02*
G03*
X7755645Y4125793I-90000J0D01*
G01*
X7756143Y3455793D02*
G03*
X7756143Y3455793I-90000J0D01*
G01*
X7756911Y2425793D02*
G03*
X7756911Y2425793I-90000J0D01*
G01*
X992500Y6215204D02*
G03*
X992500Y6215204I-20000J0D01*
G01*
D02*
G03*
X992500Y6215204I-20000J0D01*
G01*
Y6340204D02*
G03*
X992500Y6340204I-20000J0D01*
G01*
D02*
G03*
X992500Y6340204I-20000J0D01*
G01*
Y6465204D02*
G03*
X992500Y6465204I-20000J0D01*
G01*
D02*
G03*
X992500Y6465204I-20000J0D01*
G01*
X1082500Y5825204D02*
G03*
X1082500Y5825204I-90000J0D01*
G01*
X7754378Y5825792D02*
G03*
X7754378Y5825792I-90000J0D01*
G01*
X1037500Y7499748D02*
G03*
X1037500Y7499748I-160000J0D01*
G01*
X1013595Y6936461D02*
G03*
X911243Y6834110I-21095J-81256D01*
G01*
X1082500Y6855204D02*
G03*
X1082500Y6855204I-90000J0D01*
G01*
X1218701Y8013500D02*
G03*
X1218701Y8013500I-51000J0D01*
G01*
X1472701D02*
G03*
X1472701Y8013500I-51000J0D01*
G01*
Y8267500D02*
G03*
X1472701Y8267500I-51000J0D01*
G01*
X1726701Y8013500D02*
G03*
X1726701Y8013500I-51000J0D01*
G01*
X1980701D02*
G03*
X1980701Y8013500I-51000J0D01*
G01*
X2234701D02*
G03*
X2234701Y8013500I-51000J0D01*
G01*
X2488701D02*
G03*
X2488701Y8013500I-51000J0D01*
G01*
X2742701D02*
G03*
X2742701Y8013500I-51000J0D01*
G01*
X2996701D02*
G03*
X2996701Y8013500I-51000J0D01*
G01*
X3250701D02*
G03*
X3250701Y8013500I-51000J0D01*
G01*
X3504701D02*
G03*
X3504701Y8013500I-51000J0D01*
G01*
X3758701D02*
G03*
X3758701Y8013500I-51000J0D01*
G01*
X804501Y8779700D02*
G03*
X804501Y8779700I-160000J0D01*
G01*
X1218701Y8267500D02*
G03*
X1218701Y8267500I-51000J0D01*
G01*
X1231401Y8559600D02*
G03*
X1231401Y8559600I-51000J0D01*
G01*
Y8813600D02*
G03*
X1231401Y8813600I-51000J0D01*
G01*
X1485401Y8559600D02*
G03*
X1485401Y8559600I-51000J0D01*
G01*
Y8813600D02*
G03*
X1485401Y8813600I-51000J0D01*
G01*
X1726701Y8267500D02*
G03*
X1726701Y8267500I-51000J0D01*
G01*
X1739401Y8813600D02*
G03*
X1739401Y8813600I-51000J0D01*
G01*
Y8559600D02*
G03*
X1739401Y8559600I-51000J0D01*
G01*
X1980701Y8267500D02*
G03*
X1980701Y8267500I-51000J0D01*
G01*
X1993401Y8559600D02*
G03*
X1993401Y8559600I-51000J0D01*
G01*
Y8813600D02*
G03*
X1993401Y8813600I-51000J0D01*
G01*
X2234701Y8267500D02*
G03*
X2234701Y8267500I-51000J0D01*
G01*
X2247401Y8559600D02*
G03*
X2247401Y8559600I-51000J0D01*
G01*
Y8813600D02*
G03*
X2247401Y8813600I-51000J0D01*
G01*
X2488701Y8267500D02*
G03*
X2488701Y8267500I-51000J0D01*
G01*
X2501401Y8813600D02*
G03*
X2501401Y8813600I-51000J0D01*
G01*
Y8559600D02*
G03*
X2501401Y8559600I-51000J0D01*
G01*
X2742701Y8267500D02*
G03*
X2742701Y8267500I-51000J0D01*
G01*
X2755401Y8559600D02*
G03*
X2755401Y8559600I-51000J0D01*
G01*
Y8813600D02*
G03*
X2755401Y8813600I-51000J0D01*
G01*
X2996701Y8267500D02*
G03*
X2996701Y8267500I-51000J0D01*
G01*
X3009401Y8559600D02*
G03*
X3009401Y8559600I-51000J0D01*
G01*
Y8813600D02*
G03*
X3009401Y8813600I-51000J0D01*
G01*
X3250701Y8267500D02*
G03*
X3250701Y8267500I-51000J0D01*
G01*
X3263401Y8559600D02*
G03*
X3263401Y8559600I-51000J0D01*
G01*
Y8813600D02*
G03*
X3263401Y8813600I-51000J0D01*
G01*
X3504701Y8267500D02*
G03*
X3504701Y8267500I-51000J0D01*
G01*
X3517401Y8559600D02*
G03*
X3517401Y8559600I-51000J0D01*
G01*
Y8813600D02*
G03*
X3517401Y8813600I-51000J0D01*
G01*
X3758701Y8267500D02*
G03*
X3758701Y8267500I-51000J0D01*
G01*
X3771401Y8559600D02*
G03*
X3771401Y8559600I-51000J0D01*
G01*
X4012701Y8013500D02*
G03*
X4012701Y8013500I-51000J0D01*
G01*
Y8267500D02*
G03*
X4012701Y8267500I-51000J0D01*
G01*
X4266701Y8013500D02*
G03*
X4266701Y8013500I-51000J0D01*
G01*
Y8267500D02*
G03*
X4266701Y8267500I-51000J0D01*
G01*
X4520701Y8013500D02*
G03*
X4520701Y8013500I-51000J0D01*
G01*
Y8267500D02*
G03*
X4520701Y8267500I-51000J0D01*
G01*
X4774701Y8013500D02*
G03*
X4774701Y8013500I-51000J0D01*
G01*
Y8267500D02*
G03*
X4774701Y8267500I-51000J0D01*
G01*
X5028701Y8013500D02*
G03*
X5028701Y8013500I-51000J0D01*
G01*
Y8267500D02*
G03*
X5028701Y8267500I-51000J0D01*
G01*
X5282701Y8013500D02*
G03*
X5282701Y8013500I-51000J0D01*
G01*
Y8267500D02*
G03*
X5282701Y8267500I-51000J0D01*
G01*
X5536701Y8013500D02*
G03*
X5536701Y8013500I-51000J0D01*
G01*
Y8267500D02*
G03*
X5536701Y8267500I-51000J0D01*
G01*
X5790701Y8013500D02*
G03*
X5790701Y8013500I-51000J0D01*
G01*
Y8267500D02*
G03*
X5790701Y8267500I-51000J0D01*
G01*
X6044701Y8013500D02*
G03*
X6044701Y8013500I-51000J0D01*
G01*
Y8267500D02*
G03*
X6044701Y8267500I-51000J0D01*
G01*
X6298701Y8013500D02*
G03*
X6298701Y8013500I-51000J0D01*
G01*
Y8267500D02*
G03*
X6298701Y8267500I-51000J0D01*
G01*
X6552701Y8013500D02*
G03*
X6552701Y8013500I-51000J0D01*
G01*
Y8267500D02*
G03*
X6552701Y8267500I-51000J0D01*
G01*
X6806701Y8013500D02*
G03*
X6806701Y8013500I-51000J0D01*
G01*
Y8267500D02*
G03*
X6806701Y8267500I-51000J0D01*
G01*
X7060701Y8013500D02*
G03*
X7060701Y8013500I-51000J0D01*
G01*
Y8267500D02*
G03*
X7060701Y8267500I-51000J0D01*
G01*
X7314701Y8013500D02*
G03*
X7314701Y8013500I-51000J0D01*
G01*
Y8267500D02*
G03*
X7314701Y8267500I-51000J0D01*
G01*
X7568701Y8013500D02*
G03*
X7568701Y8013500I-51000J0D01*
G01*
X7753611Y6855792D02*
G03*
X7753611Y6855792I-90000J0D01*
G01*
X3771401Y8813600D02*
G03*
X3771401Y8813600I-51000J0D01*
G01*
X4025401Y8559600D02*
G03*
X4025401Y8559600I-51000J0D01*
G01*
Y8813600D02*
G03*
X4025401Y8813600I-51000J0D01*
G01*
X4279401Y8559600D02*
G03*
X4279401Y8559600I-51000J0D01*
G01*
Y8813600D02*
G03*
X4279401Y8813600I-51000J0D01*
G01*
X4533401Y8559600D02*
G03*
X4533401Y8559600I-51000J0D01*
G01*
Y8813600D02*
G03*
X4533401Y8813600I-51000J0D01*
G01*
X4787401Y8559600D02*
G03*
X4787401Y8559600I-51000J0D01*
G01*
Y8813600D02*
G03*
X4787401Y8813600I-51000J0D01*
G01*
X5041401Y8559600D02*
G03*
X5041401Y8559600I-51000J0D01*
G01*
Y8813600D02*
G03*
X5041401Y8813600I-51000J0D01*
G01*
X5295401Y8559600D02*
G03*
X5295401Y8559600I-51000J0D01*
G01*
Y8813600D02*
G03*
X5295401Y8813600I-51000J0D01*
G01*
X5549401Y8559600D02*
G03*
X5549401Y8559600I-51000J0D01*
G01*
Y8813600D02*
G03*
X5549401Y8813600I-51000J0D01*
G01*
X5803401Y8559600D02*
G03*
X5803401Y8559600I-51000J0D01*
G01*
Y8813600D02*
G03*
X5803401Y8813600I-51000J0D01*
G01*
X6057401Y8559600D02*
G03*
X6057401Y8559600I-51000J0D01*
G01*
Y8813600D02*
G03*
X6057401Y8813600I-51000J0D01*
G01*
X6311401Y8559600D02*
G03*
X6311401Y8559600I-51000J0D01*
G01*
Y8813600D02*
G03*
X6311401Y8813600I-51000J0D01*
G01*
X6565401Y8559600D02*
G03*
X6565401Y8559600I-51000J0D01*
G01*
Y8813600D02*
G03*
X6565401Y8813600I-51000J0D01*
G01*
X6819401Y8559600D02*
G03*
X6819401Y8559600I-51000J0D01*
G01*
Y8813600D02*
G03*
X6819401Y8813600I-51000J0D01*
G01*
X7073401Y8559600D02*
G03*
X7073401Y8559600I-51000J0D01*
G01*
Y8813600D02*
G03*
X7073401Y8813600I-51000J0D01*
G01*
X7327401Y8559600D02*
G03*
X7327401Y8559600I-51000J0D01*
G01*
Y8813600D02*
G03*
X7327401Y8813600I-51000J0D01*
G01*
X7568701Y8267500D02*
G03*
X7568701Y8267500I-51000J0D01*
G01*
X7581401Y8559600D02*
G03*
X7581401Y8559600I-51000J0D01*
G01*
Y8813600D02*
G03*
X7581401Y8813600I-51000J0D01*
G01*
X7706434Y3065808D02*
G03*
X7706434Y3065808I-20000J0D01*
G01*
X7706527Y2940808D02*
G03*
X7706527Y2940808I-20000J0D01*
G01*
D02*
G03*
X7706527Y2940808I-20000J0D01*
G01*
X7706434Y3065808D02*
G03*
X7706434Y3065808I-20000J0D01*
G01*
X7706620Y2815808D02*
G03*
X7706620Y2815808I-20000J0D01*
G01*
D02*
G03*
X7706620Y2815808I-20000J0D01*
G01*
X7645876Y2344521D02*
G03*
X7748152Y2446948I21035J81272D01*
G01*
X7831620Y2815901D02*
G03*
X7831620Y2815901I-20000J0D01*
G01*
D02*
G03*
X7831620Y2815901I-20000J0D01*
G01*
X7831527Y2940901D02*
G03*
X7831527Y2940901I-20000J0D01*
G01*
D02*
G03*
X7831527Y2940901I-20000J0D01*
G01*
X7831434Y3065901D02*
G03*
X7831434Y3065901I-20000J0D01*
G01*
D02*
G03*
X7831434Y3065901I-20000J0D01*
G01*
X7645109Y3374521D02*
G03*
X7747384Y3476948I21035J81272D01*
G01*
X7644610Y4044521D02*
G03*
X7746885Y4146948I21035J81272D01*
G01*
X7705354Y4515808D02*
G03*
X7705354Y4515808I-20000J0D01*
G01*
D02*
G03*
X7705354Y4515808I-20000J0D01*
G01*
X7705261Y4640808D02*
G03*
X7705261Y4640808I-20000J0D01*
G01*
D02*
G03*
X7705261Y4640808I-20000J0D01*
G01*
X7705168Y4765808D02*
G03*
X7705168Y4765808I-20000J0D01*
G01*
D02*
G03*
X7705168Y4765808I-20000J0D01*
G01*
X7643842Y5074520D02*
G03*
X7746118Y5176947I21035J81272D01*
G01*
X7643344Y5744520D02*
G03*
X7745619Y5846947I21035J81272D01*
G01*
X7704088Y6215807D02*
G03*
X7704088Y6215807I-20000J0D01*
G01*
D02*
G03*
X7704088Y6215807I-20000J0D01*
G01*
X7703995Y6340807D02*
G03*
X7703995Y6340807I-20000J0D01*
G01*
D02*
G03*
X7703995Y6340807I-20000J0D01*
G01*
X7830354Y4515901D02*
G03*
X7830354Y4515901I-20000J0D01*
G01*
D02*
G03*
X7830354Y4515901I-20000J0D01*
G01*
X7830261Y4640901D02*
G03*
X7830261Y4640901I-20000J0D01*
G01*
D02*
G03*
X7830261Y4640901I-20000J0D01*
G01*
X7830168Y4765901D02*
G03*
X7830168Y4765901I-20000J0D01*
G01*
D02*
G03*
X7830168Y4765901I-20000J0D01*
G01*
X7829088Y6215900D02*
G03*
X7829088Y6215900I-20000J0D01*
G01*
D02*
G03*
X7829088Y6215900I-20000J0D01*
G01*
X8043065Y1199878D02*
G03*
X8043065Y1199878I-160000J0D01*
G01*
X8424200Y207100D02*
G03*
X8424200Y207100I-160000J0D01*
G01*
X7828995Y6340900D02*
G03*
X7828995Y6340900I-20000J0D01*
G01*
D02*
G03*
X7828995Y6340900I-20000J0D01*
G01*
X7703902Y6465807D02*
G03*
X7703902Y6465807I-20000J0D01*
G01*
D02*
G03*
X7703902Y6465807I-20000J0D01*
G01*
X7828902Y6465900D02*
G03*
X7828902Y6465900I-20000J0D01*
G01*
D02*
G03*
X7828902Y6465900I-20000J0D01*
G01*
X7642576Y6774520D02*
G03*
X7744852Y6876947I21035J81272D01*
G01*
X7938149Y7499748D02*
G03*
X7938149Y7499748I-160000J0D01*
G01*
X8170501Y8779700D02*
G03*
X8170501Y8779700I-160000J0D01*
G01*
X377500Y5825204D02*
Y6004565D01*
Y5590204D02*
Y5825204D01*
Y6004565D02*
Y6037065D01*
Y6098343D01*
Y6130843D01*
Y5590204D02*
X387500Y5580204D01*
X447500Y5694774D02*
Y5955634D01*
Y5694774D02*
X477500Y5677454D01*
X447500Y5955634D02*
X477500Y5972954D01*
Y5677454D02*
X722500D01*
X477500Y5972954D02*
X722500D01*
X387500Y5580204D02*
X867500D01*
X722500Y5677454D02*
X742500Y5671454D01*
X722500Y5972954D02*
X742500Y5978954D01*
Y5671454D02*
Y5677454D01*
Y5972954D02*
Y5978954D01*
Y5677454D02*
X787500D01*
X742500Y5972954D02*
X787500D01*
Y5825204D02*
Y6000204D01*
Y5650204D02*
Y5825204D01*
Y5660204D02*
Y5677454D01*
Y5972954D02*
Y5990204D01*
Y5650204D02*
X867500D01*
X787500Y6000204D02*
X867500D01*
Y5580204D02*
Y5650204D01*
Y6000204D02*
Y6032704D01*
Y6102704D01*
Y6135204D01*
X377500Y6130843D02*
Y6549565D01*
Y6675843D02*
Y6855204D01*
Y6549565D02*
Y6582065D01*
Y6643343D01*
Y6675843D01*
X447500Y6724775D02*
X477500Y6707454D01*
X722500D01*
X742500Y6701454D01*
Y6707454D01*
X787500D01*
Y6680204D02*
Y6855204D01*
Y6690204D02*
Y6707454D01*
Y6680204D02*
X867500D01*
Y6577704D02*
Y6647704D01*
Y6680204D01*
Y6545204D02*
Y6577704D01*
Y6135204D02*
X892500D01*
X867500Y6545204D02*
X892500D01*
Y6135204D02*
X952500D01*
X892500Y6545204D02*
X952500D01*
Y6188704D02*
Y6241704D01*
Y6313704D02*
Y6366704D01*
Y6438704D02*
Y6491704D01*
X982500D01*
X952500Y6545204D02*
X982500D01*
X787500Y5660204D02*
X1147500D01*
X1822500Y708125D02*
Y1053125D01*
Y708125D02*
X2172500D01*
X1822500Y1053125D02*
X2172500D01*
Y893749D02*
Y1053125D01*
Y708125D02*
Y867500D01*
X2477500D01*
X2172500Y893749D02*
X2477500D01*
Y867500D02*
Y893749D01*
X7509754Y5320677D02*
X7509808Y5248548D01*
X7509947Y5062806D01*
X7510000Y4990677D01*
X7510522Y4290677D02*
X7510575Y4218548D01*
X7510714Y4032807D01*
X7510767Y3960677D01*
X7511021Y3620678D02*
X7511074Y3548548D01*
X7511213Y3362807D01*
X7511266Y3290678D01*
X7511788Y2590678D02*
X7511841Y2518549D01*
X7511980Y2332807D01*
X7512033Y2260678D01*
X7675108Y4845800D02*
X7675148Y4792300D01*
X7675188Y4739300D02*
X7675241Y4667300D01*
X952500Y6135204D02*
X982500D01*
X952500Y6188704D02*
X982500D01*
X952500Y6241704D02*
X982500D01*
X952500Y6438704D02*
X982500D01*
X952500Y6313704D02*
X982500D01*
X952500Y6366704D02*
X982500D01*
X787500Y5990204D02*
X1147500D01*
X787500Y6690204D02*
X1147500D01*
X982500Y6135204D02*
Y6188704D01*
Y6241704D02*
Y6313704D01*
Y6366704D02*
Y6438704D01*
Y6491704D02*
Y6545204D01*
X1147500Y5660204D02*
Y5732333D01*
Y5918075D01*
Y5990204D01*
Y6690204D02*
Y6762333D01*
X7508680Y6762806D02*
X7508734Y6690677D01*
X7509255Y5990677D02*
X7509309Y5918548D01*
X7509448Y5732806D01*
X7509501Y5660677D01*
X7673842Y6545800D02*
X7673882Y6492300D01*
X7673921Y6439300D02*
X7673975Y6367300D01*
X7674014Y6314300D02*
X7674068Y6242300D01*
X7674108Y6189300D02*
X7674147Y6135800D01*
X377500Y6855204D02*
Y7090204D01*
X387500Y7100204D01*
X447500Y6724775D02*
Y6985633D01*
X477500Y7002954D01*
X722500D01*
X387500Y7100204D02*
X867500D01*
X722500Y7002954D02*
X742500Y7008954D01*
Y7002954D02*
Y7008954D01*
Y7002954D02*
X787500D01*
Y6855204D02*
Y7030204D01*
Y7002954D02*
Y7020204D01*
Y7030204D02*
X867500D01*
Y7100204D01*
X787500Y7020204D02*
X1147500D01*
Y6762333D02*
Y6948075D01*
Y7020204D01*
X7508488Y7020677D02*
X7508542Y6948547D01*
X7508680Y6762806D01*
X7676547Y2914300D02*
X7676600Y2842301D01*
X7676640Y2789301D02*
X7676680Y2735801D01*
X7511266Y3290678D02*
X7871266Y3290946D01*
X7676374Y3145800D02*
X7676414Y3092301D01*
X7510767Y3960677D02*
X7870767Y3960946D01*
X7676454Y3039300D02*
X7676507Y2967301D01*
X7511021Y3620678D02*
X7871021Y3620946D01*
X7676374Y3145800D02*
X7706374Y3145823D01*
X7676414Y3092301D02*
X7706414Y3092323D01*
X7676454Y3039300D02*
X7706454Y3039323D01*
X7792041Y2250887D02*
X7792093Y2180886D01*
X7512033Y2260678D02*
X7872034Y2260946D01*
X7511788Y2590678D02*
X7871788Y2590946D01*
X7791756Y2633386D02*
X7791780Y2600886D01*
X7791704Y2703386D02*
X7791756Y2633386D01*
X7791680Y2735886D02*
X7791704Y2703386D01*
X7676680Y2735801D02*
X7706680Y2735823D01*
X7766680Y2735868D01*
X7791680Y2735886D01*
X7676640Y2789301D02*
X7706640Y2789323D01*
X7706601Y2842323D02*
X7706640Y2789323D01*
X7676600Y2842301D02*
X7706601Y2842323D01*
X7676547Y2914300D02*
X7706547Y2914323D01*
X7706507Y2967323D02*
X7706547Y2914323D01*
X7676507Y2967301D02*
X7706507Y2967323D01*
X7706414Y3092323D02*
X7706454Y3039323D01*
X7706374Y3145823D02*
X7766374Y3145867D01*
X7791374Y3145886D01*
X7791350Y3178386D02*
X7791374Y3145886D01*
X7791298Y3248386D02*
X7791350Y3178386D01*
X7791274Y3280886D02*
X7791298Y3248386D01*
X7790961Y3700886D02*
X7791013Y3630886D01*
X7790775Y3950886D02*
X7790827Y3880886D01*
X7510522Y4290677D02*
X7870521Y4290945D01*
X7675414Y4435800D02*
X7705414Y4435822D01*
X7675374Y4489300D02*
X7675414Y4435800D01*
X7675374Y4489300D02*
X7705374Y4489322D01*
X7675334Y4542300D02*
X7705334Y4542322D01*
X7675281Y4614300D02*
X7675334Y4542300D01*
X7675281Y4614300D02*
X7705280Y4614322D01*
X7675241Y4667300D02*
X7705241Y4667322D01*
X7675188Y4739300D02*
X7705188Y4739323D01*
X7675148Y4792300D02*
X7705148Y4792322D01*
X7675108Y4845800D02*
X7705108Y4845822D01*
X7510000Y4990677D02*
X7870000Y4990945D01*
X7509754Y5320677D02*
X7869754Y5320945D01*
X7509501Y5660677D02*
X7869501Y5660945D01*
X7509255Y5990677D02*
X7869255Y5990945D01*
X7674147Y6135800D02*
X7704147Y6135822D01*
X7674108Y6189300D02*
X7704108Y6189322D01*
X7674068Y6242300D02*
X7704068Y6242322D01*
X7674014Y6314300D02*
X7704014Y6314322D01*
X7703975Y6367322D02*
X7704014Y6314322D01*
X7790490Y4333386D02*
X7790514Y4300886D01*
X7790438Y4403386D02*
X7790490Y4333386D01*
X7790413Y4435886D02*
X7790438Y4403386D01*
X7705414Y4435822D02*
X7765413Y4435867D01*
X7790413Y4435886D01*
X7705334Y4542322D02*
X7705374Y4489322D01*
X7705241Y4667322D02*
X7705280Y4614322D01*
X7705148Y4792322D02*
X7705188Y4739323D01*
X7705108Y4845822D02*
X7765108Y4845867D01*
X7790108Y4845886D01*
X7790084Y4878386D02*
X7790108Y4845886D01*
X7790032Y4948386D02*
X7790084Y4878386D01*
X7790008Y4980886D02*
X7790032Y4948386D01*
X7789747Y5330885D02*
X7869747Y5330945D01*
X7789695Y5400886D02*
X7789747Y5330885D01*
X7789509Y5650886D02*
X7789561Y5580885D01*
X7789509Y5650886D02*
X7869509Y5650945D01*
X7789248Y6000885D02*
X7869248Y6000945D01*
X7789224Y6033385D02*
X7789248Y6000885D01*
X7789172Y6103385D02*
X7789224Y6033385D01*
X7789147Y6135885D02*
X7789172Y6103385D01*
X7704147Y6135822D02*
X7764147Y6135867D01*
X7789147Y6135885D01*
X7704068Y6242322D02*
X7704108Y6189322D01*
X7792041Y2250887D02*
X7872041Y2250946D01*
X7872021Y2278196D02*
X7872034Y2260946D01*
X7917021Y2278230D02*
X7917025Y2272230D01*
X7937021Y2278244D01*
X7872021Y2278196D02*
X7917021Y2278230D01*
X7871911Y2425946D02*
X7872041Y2250946D01*
X7871780Y2600946D02*
X7871911Y2425946D01*
X7871801Y2573696D02*
X7916801Y2573729D01*
X7916796Y2579729D02*
X7916801Y2573729D01*
X7916796Y2579729D02*
X7936800Y2573744D01*
X7871788Y2590946D02*
X7871801Y2573696D01*
X7791780Y2600886D02*
X7871780Y2600946D01*
X7791274Y3280886D02*
X7871274Y3280946D01*
X7871253Y3308196D02*
X7871266Y3290946D01*
X7916253Y3308229D02*
X7916258Y3302229D01*
X7936253Y3308244D01*
X7871253Y3308196D02*
X7916253Y3308229D01*
X7871144Y3455946D02*
X7871274Y3280946D01*
X7871013Y3630946D02*
X7871144Y3455946D01*
X7871033Y3603696D02*
X7916033Y3603729D01*
X7916029Y3609729D02*
X7916033Y3603729D01*
X7916029Y3609729D02*
X7936033Y3603744D01*
X7871021Y3620946D02*
X7871033Y3603696D01*
X7791013Y3630886D02*
X7871013Y3630946D01*
X7790775Y3950886D02*
X7870775Y3950946D01*
X7870754Y3978195D02*
X7870767Y3960946D01*
X7915755Y3978229D02*
X7915759Y3972229D01*
X7935755Y3978244D01*
X7870754Y3978195D02*
X7915755Y3978229D01*
X7870644Y4125946D02*
X7870775Y3950946D01*
X7870514Y4300945D02*
X7870644Y4125946D01*
X7792093Y2180886D02*
X8272093Y2181244D01*
X8282086Y2191251D01*
X7937021Y2278244D02*
X8182020Y2278427D01*
X8212008Y2295770D01*
X8281911Y2426251D02*
X8282086Y2191251D01*
X8211813Y2556629D02*
X8212008Y2295770D01*
X8281777Y2605612D02*
X8281911Y2426251D01*
X8181801Y2573927D02*
X8211813Y2556629D01*
X7936800Y2573744D02*
X8181801Y2573927D01*
X8281753Y2638112D02*
X8281777Y2605612D01*
X8281707Y2699391D02*
X8281753Y2638112D01*
X8281683Y2731891D02*
X8281707Y2699391D01*
X8281371Y3150612D02*
X8281683Y2731891D01*
X8281347Y3183112D02*
X8281371Y3150612D01*
X8281301Y3244391D02*
X8281347Y3183112D01*
X8281277Y3276890D02*
X8281301Y3244391D01*
X7936253Y3308244D02*
X8181253Y3308427D01*
X8211240Y3325770D01*
X8281143Y3456251D02*
X8281277Y3276890D01*
X8211046Y3586628D02*
X8211240Y3325770D01*
X8280968Y3691251D02*
X8281143Y3456251D01*
X8181033Y3603926D02*
X8211046Y3586628D01*
X7936033Y3603744D02*
X8181033Y3603926D01*
X8270961Y3701244D02*
X8280968Y3691251D01*
X7790961Y3700886D02*
X8270961Y3701244D01*
X7790827Y3880886D02*
X8270827Y3881243D01*
X8280819Y3891251D01*
X7935755Y3978244D02*
X8180754Y3978426D01*
X8210742Y3995769D01*
X8280644Y4126251D02*
X8280819Y3891251D01*
X8210547Y4256628D02*
X8210742Y3995769D01*
X7870534Y4273696D02*
X7915534Y4273729D01*
X7915530Y4279729D02*
X7915534Y4273729D01*
X7915530Y4279729D02*
X7935534Y4273744D01*
X7870521Y4290945D02*
X7870534Y4273696D01*
X7790514Y4300886D02*
X7870514Y4300945D01*
X7790008Y4980886D02*
X7870008Y4980945D01*
X7869987Y5008195D02*
X7870000Y4990945D01*
X7914987Y5008229D02*
X7914992Y5002229D01*
X7934987Y5008244D01*
X7869987Y5008195D02*
X7914987Y5008229D01*
X7869877Y5155945D02*
X7870008Y4980945D01*
X7869747Y5330945D02*
X7869877Y5155945D01*
X7869767Y5303695D02*
X7914767Y5303729D01*
X7934767Y5303744D02*
X8179767Y5303926D01*
X7914763Y5309729D02*
X7914767Y5303729D01*
X7914763Y5309729D02*
X7934767Y5303744D01*
X7869754Y5320945D02*
X7869767Y5303695D01*
X7789695Y5400886D02*
X8269695Y5401243D01*
X7789561Y5580885D02*
X8269561Y5581243D01*
X7869488Y5678195D02*
X7869501Y5660945D01*
X7914488Y5678229D02*
X7914493Y5672229D01*
X7934488Y5678243D01*
X7869488Y5678195D02*
X7914488Y5678229D01*
X7934488Y5678243D02*
X8179488Y5678426D01*
X7869378Y5825945D02*
X7869509Y5650945D01*
X7869248Y6000945D02*
X7869378Y5825945D01*
X7869268Y5973695D02*
X7914268Y5973728D01*
X7934268Y5973743D02*
X8179268Y5973926D01*
X7914264Y5979728D02*
X7914268Y5973728D01*
X7914264Y5979728D02*
X7934268Y5973743D01*
X7869255Y5990945D02*
X7869268Y5973695D01*
X8280511Y4305611D02*
X8280644Y4126251D01*
X8180534Y4273926D02*
X8210547Y4256628D01*
X7935534Y4273744D02*
X8180534Y4273926D01*
X8280486Y4338111D02*
X8280511Y4305611D01*
X8280441Y4399390D02*
X8280486Y4338111D01*
X8280417Y4431890D02*
X8280441Y4399390D01*
X8280105Y4850611D02*
X8280417Y4431890D01*
X8280080Y4883111D02*
X8280105Y4850611D01*
X8280035Y4944390D02*
X8280080Y4883111D01*
X8280011Y4976890D02*
X8280035Y4944390D01*
X7934987Y5008244D02*
X8179987Y5008426D01*
X8209974Y5025769D01*
X8279877Y5156251D02*
X8280011Y4976890D01*
X8209780Y5286628D02*
X8209974Y5025769D01*
X8279702Y5391251D02*
X8279877Y5156251D01*
X8179767Y5303926D02*
X8209780Y5286628D01*
X8269695Y5401243D02*
X8279702Y5391251D01*
X8269561Y5581243D02*
X8279553Y5591250D01*
X8179488Y5678426D02*
X8209475Y5695769D01*
X8279378Y5826250D02*
X8279553Y5591250D01*
X8209281Y5956628D02*
X8209475Y5695769D01*
X8279245Y6005611D02*
X8279378Y5826250D01*
X8179268Y5973926D02*
X8209281Y5956628D01*
X8279220Y6038111D02*
X8279245Y6005611D01*
X8279175Y6099390D02*
X8279220Y6038111D01*
X8279150Y6131890D02*
X8279175Y6099390D01*
X7673975Y6367300D02*
X7703975Y6367322D01*
X7673921Y6439300D02*
X7703921Y6439322D01*
X7703882Y6492322D02*
X7703921Y6439322D01*
X7673882Y6492300D02*
X7703882Y6492322D01*
X7673842Y6545800D02*
X7703842Y6545822D01*
X7763842Y6545867D01*
X7788842Y6545885D01*
X7788818Y6578385D02*
X7788842Y6545885D01*
X7788766Y6648385D02*
X7788818Y6578385D01*
X7788741Y6680885D02*
X7788766Y6648385D01*
X7788741Y6680885D02*
X7868741Y6680945D01*
X7508734Y6690677D02*
X7868734Y6690945D01*
X7868721Y6708195D02*
X7868734Y6690945D01*
X7913721Y6708228D02*
X7913726Y6702228D01*
X7868721Y6708195D02*
X7913721Y6708228D01*
X7868611Y6855945D02*
X7868741Y6680945D01*
X7868481Y7030945D02*
X7868611Y6855945D01*
X7868501Y7003695D02*
X7913501Y7003728D01*
X7913496Y7009728D02*
X7913501Y7003728D01*
X7868488Y7020945D02*
X7868501Y7003695D01*
X7508488Y7020677D02*
X7868488Y7020945D01*
X7788481Y7030885D02*
X7868481Y7030945D01*
X7788429Y7100885D02*
X7788481Y7030885D01*
X8278839Y6550611D02*
X8279150Y6131890D01*
X8278814Y6583111D02*
X8278839Y6550611D01*
X8278769Y6644390D02*
X8278814Y6583111D01*
X8278744Y6676889D02*
X8278769Y6644390D01*
X7913726Y6702228D02*
X7933721Y6708243D01*
X8178721Y6708426D01*
X8208708Y6725769D01*
X8278611Y6856250D02*
X8278744Y6676889D01*
X8208514Y6986627D02*
X8208708Y6725769D01*
X8278436Y7091250D02*
X8278611Y6856250D01*
X8178501Y7003926D02*
X8208514Y6986627D01*
X7933501Y7003743D02*
X8178501Y7003926D01*
X7913496Y7009728D02*
X7933501Y7003743D01*
X8268428Y7101243D02*
X8278436Y7091250D01*
X7788429Y7100885D02*
X8268428Y7101243D01*
%TF.MD5,dcdc9bc4df43e1c23d401d091f74cbf0*%
M02*
