G04*
G04 #@! TF.GenerationSoftware,Altium Limited,Altium Designer,25.5.2 (35)*
G04*
G04 Layer_Color=128*
%FSLAX45Y45*%
%MOMM*%
G71*
G04*
G04 #@! TF.SameCoordinates,4A1FDDFA-50DE-4FE3-89EC-5C8A89288C0E*
G04*
G04*
G04 #@! TF.FilePolarity,Positive*
G04*
G01*
G75*
G04:AMPARAMS|DCode=17|XSize=0.95mm|YSize=0.95mm|CornerRadius=0.2375mm|HoleSize=0mm|Usage=FLASHONLY|Rotation=180.000|XOffset=0mm|YOffset=0mm|HoleType=Round|Shape=RoundedRectangle|*
%AMROUNDEDRECTD17*
21,1,0.95000,0.47500,0,0,180.0*
21,1,0.47500,0.95000,0,0,180.0*
1,1,0.47500,-0.23750,0.23750*
1,1,0.47500,0.23750,0.23750*
1,1,0.47500,0.23750,-0.23750*
1,1,0.47500,-0.23750,-0.23750*
%
%ADD17ROUNDEDRECTD17*%
G04:AMPARAMS|DCode=18|XSize=0.44mm|YSize=0.54mm|CornerRadius=0.11mm|HoleSize=0mm|Usage=FLASHONLY|Rotation=0.000|XOffset=0mm|YOffset=0mm|HoleType=Round|Shape=RoundedRectangle|*
%AMROUNDEDRECTD18*
21,1,0.44000,0.32000,0,0,0.0*
21,1,0.22000,0.54000,0,0,0.0*
1,1,0.22000,0.11000,-0.16000*
1,1,0.22000,-0.11000,-0.16000*
1,1,0.22000,-0.11000,0.16000*
1,1,0.22000,0.11000,0.16000*
%
%ADD18ROUNDEDRECTD18*%
G04:AMPARAMS|DCode=19|XSize=0.95mm|YSize=0.95mm|CornerRadius=0.2375mm|HoleSize=0mm|Usage=FLASHONLY|Rotation=90.000|XOffset=0mm|YOffset=0mm|HoleType=Round|Shape=RoundedRectangle|*
%AMROUNDEDRECTD19*
21,1,0.95000,0.47500,0,0,90.0*
21,1,0.47500,0.95000,0,0,90.0*
1,1,0.47500,0.23750,0.23750*
1,1,0.47500,0.23750,-0.23750*
1,1,0.47500,-0.23750,-0.23750*
1,1,0.47500,-0.23750,0.23750*
%
%ADD19ROUNDEDRECTD19*%
G04:AMPARAMS|DCode=25|XSize=0.44mm|YSize=0.54mm|CornerRadius=0.11mm|HoleSize=0mm|Usage=FLASHONLY|Rotation=90.000|XOffset=0mm|YOffset=0mm|HoleType=Round|Shape=RoundedRectangle|*
%AMROUNDEDRECTD25*
21,1,0.44000,0.32000,0,0,90.0*
21,1,0.22000,0.54000,0,0,90.0*
1,1,0.22000,0.16000,0.11000*
1,1,0.22000,0.16000,-0.11000*
1,1,0.22000,-0.16000,-0.11000*
1,1,0.22000,-0.16000,0.11000*
%
%ADD25ROUNDEDRECTD25*%
G04:AMPARAMS|DCode=28|XSize=1.4mm|YSize=1.15mm|CornerRadius=0.2875mm|HoleSize=0mm|Usage=FLASHONLY|Rotation=180.000|XOffset=0mm|YOffset=0mm|HoleType=Round|Shape=RoundedRectangle|*
%AMROUNDEDRECTD28*
21,1,1.40000,0.57500,0,0,180.0*
21,1,0.82500,1.15000,0,0,180.0*
1,1,0.57500,-0.41250,0.28750*
1,1,0.57500,0.41250,0.28750*
1,1,0.57500,0.41250,-0.28750*
1,1,0.57500,-0.41250,-0.28750*
%
%ADD28ROUNDEDRECTD28*%
G04:AMPARAMS|DCode=31|XSize=0.85mm|YSize=1.1mm|CornerRadius=0.2125mm|HoleSize=0mm|Usage=FLASHONLY|Rotation=180.000|XOffset=0mm|YOffset=0mm|HoleType=Round|Shape=RoundedRectangle|*
%AMROUNDEDRECTD31*
21,1,0.85000,0.67500,0,0,180.0*
21,1,0.42500,1.10000,0,0,180.0*
1,1,0.42500,-0.21250,0.33750*
1,1,0.42500,0.21250,0.33750*
1,1,0.42500,0.21250,-0.33750*
1,1,0.42500,-0.21250,-0.33750*
%
%ADD31ROUNDEDRECTD31*%
G04:AMPARAMS|DCode=96|XSize=0.55001mm|YSize=1.1mm|CornerRadius=0.1375mm|HoleSize=0mm|Usage=FLASHONLY|Rotation=270.000|XOffset=0mm|YOffset=0mm|HoleType=Round|Shape=RoundedRectangle|*
%AMROUNDEDRECTD96*
21,1,0.55001,0.82499,0,0,270.0*
21,1,0.27501,1.10000,0,0,270.0*
1,1,0.27501,-0.41250,-0.13750*
1,1,0.27501,-0.41250,0.13750*
1,1,0.27501,0.41250,0.13750*
1,1,0.27501,0.41250,-0.13750*
%
%ADD96ROUNDEDRECTD96*%
G04:AMPARAMS|DCode=97|XSize=1.6mm|YSize=1.4mm|CornerRadius=0.35mm|HoleSize=0mm|Usage=FLASHONLY|Rotation=270.000|XOffset=0mm|YOffset=0mm|HoleType=Round|Shape=RoundedRectangle|*
%AMROUNDEDRECTD97*
21,1,1.60000,0.70000,0,0,270.0*
21,1,0.90000,1.40000,0,0,270.0*
1,1,0.70000,-0.35000,-0.45000*
1,1,0.70000,-0.35000,0.45000*
1,1,0.70000,0.35000,0.45000*
1,1,0.70000,0.35000,-0.45000*
%
%ADD97ROUNDEDRECTD97*%
%ADD98R,0.24994X0.35001*%
%ADD99O,1.40000X0.30000*%
%ADD100O,0.30000X1.40000*%
G36*
X9508292Y664658D02*
X9510617Y664236D01*
X9512730Y663707D01*
X9514843Y662968D01*
X9516745Y662122D01*
X9518542Y661171D01*
X9520232Y660220D01*
X9521711Y659164D01*
X9523085Y658107D01*
X9524353Y657051D01*
X9525410Y656100D01*
X9526255Y655254D01*
X9526995Y654515D01*
X9527523Y653986D01*
X9527840Y653564D01*
X9527946Y653458D01*
Y663179D01*
X9545169D01*
Y592490D01*
X9526466D01*
Y626831D01*
Y628627D01*
X9526361Y630318D01*
Y631902D01*
X9526255Y633382D01*
X9526149Y634650D01*
X9526044Y635918D01*
X9525832Y636974D01*
X9525727Y637925D01*
X9525621Y638665D01*
X9525410Y639405D01*
X9525304Y640039D01*
X9525198Y640461D01*
X9525093Y640884D01*
Y641095D01*
X9524987Y641307D01*
X9524353Y642892D01*
X9523613Y644265D01*
X9522768Y645427D01*
X9522028Y646378D01*
X9521289Y647118D01*
X9520655Y647646D01*
X9520232Y647963D01*
X9520127Y648069D01*
X9518753Y648914D01*
X9517379Y649443D01*
X9516111Y649865D01*
X9514949Y650182D01*
X9513892Y650394D01*
X9513047Y650499D01*
X9512307D01*
X9511039Y650394D01*
X9509877Y650288D01*
X9508926Y650077D01*
X9508081Y649760D01*
X9507447Y649443D01*
X9507024Y649231D01*
X9506707Y649126D01*
X9506602Y649020D01*
X9505862Y648386D01*
X9505228Y647646D01*
X9504277Y646167D01*
X9503960Y645533D01*
X9503749Y645005D01*
X9503537Y644582D01*
Y644476D01*
X9503326Y643843D01*
X9503220Y643103D01*
X9503009Y642152D01*
X9502903Y641201D01*
X9502692Y638982D01*
X9502586Y636763D01*
X9502481Y634650D01*
Y633699D01*
Y632853D01*
Y632114D01*
Y631585D01*
Y631268D01*
Y631163D01*
Y592490D01*
X9483778D01*
Y626408D01*
Y628204D01*
X9483672Y629895D01*
Y631480D01*
X9483567Y632959D01*
X9483461Y634227D01*
X9483355Y635389D01*
X9483144Y636552D01*
X9483038Y637503D01*
X9482933Y638348D01*
X9482721Y638982D01*
X9482616Y639616D01*
X9482510Y640144D01*
X9482404Y640461D01*
Y640778D01*
X9482299Y640990D01*
X9481665Y642680D01*
X9480925Y644054D01*
X9480080Y645322D01*
X9479235Y646273D01*
X9478495Y647012D01*
X9477861Y647646D01*
X9477438Y647963D01*
X9477333Y648069D01*
X9475959Y648914D01*
X9474691Y649443D01*
X9473423Y649865D01*
X9472366Y650182D01*
X9471310Y650394D01*
X9470570Y650499D01*
X9469936D01*
X9468034Y650288D01*
X9466449Y649865D01*
X9465076Y649231D01*
X9463913Y648492D01*
X9463068Y647752D01*
X9462540Y647118D01*
X9462117Y646695D01*
X9462011Y646484D01*
X9461694Y645850D01*
X9461377Y645005D01*
X9461060Y644054D01*
X9460849Y643103D01*
X9460532Y640778D01*
X9460215Y638559D01*
X9460109Y636340D01*
Y635389D01*
X9460004Y634544D01*
Y633804D01*
Y633276D01*
Y632959D01*
Y632853D01*
Y592490D01*
X9441301D01*
Y637608D01*
Y639405D01*
X9441407Y641201D01*
X9441512Y642786D01*
X9441618Y644159D01*
X9441724Y645533D01*
X9441935Y646695D01*
X9442146Y647752D01*
X9442252Y648809D01*
X9442463Y649654D01*
X9442675Y650288D01*
X9442886Y650922D01*
X9442992Y651450D01*
X9443097Y651767D01*
X9443203Y652084D01*
X9443309Y652296D01*
X9444365Y654409D01*
X9445633Y656311D01*
X9447007Y657896D01*
X9448275Y659269D01*
X9449543Y660220D01*
X9450494Y660960D01*
X9451128Y661488D01*
X9451234Y661594D01*
X9451339D01*
X9453453Y662651D01*
X9455671Y663390D01*
X9457890Y664024D01*
X9459898Y664341D01*
X9461694Y664553D01*
X9462434Y664658D01*
X9463174Y664764D01*
X9464442D01*
X9466661Y664658D01*
X9468774Y664341D01*
X9470781Y663813D01*
X9472472Y663390D01*
X9473951Y662862D01*
X9475008Y662334D01*
X9475431Y662228D01*
X9475748Y662017D01*
X9475853Y661911D01*
X9475959D01*
X9477967Y660749D01*
X9479763Y659481D01*
X9481453Y658001D01*
X9483038Y656628D01*
X9484201Y655360D01*
X9485152Y654409D01*
X9485574Y653986D01*
X9485786Y653669D01*
X9485891Y653564D01*
X9485997Y653458D01*
X9487265Y655466D01*
X9488639Y657156D01*
X9490012Y658635D01*
X9491280Y659798D01*
X9492443Y660749D01*
X9493394Y661383D01*
X9494027Y661805D01*
X9494133Y661911D01*
X9494239D01*
X9496141Y662862D01*
X9498148Y663602D01*
X9500156Y664024D01*
X9501952Y664447D01*
X9503537Y664658D01*
X9504277D01*
X9504805Y664764D01*
X9505968D01*
X9508292Y664658D01*
D02*
G37*
G36*
X9271182Y664553D02*
X9273401Y664341D01*
X9275409Y664024D01*
X9277311Y663602D01*
X9279001Y663179D01*
X9280481Y662756D01*
X9281960Y662334D01*
X9283122Y661805D01*
X9284179Y661383D01*
X9285130Y660960D01*
X9285869Y660537D01*
X9286398Y660220D01*
X9286820Y660009D01*
X9287032Y659903D01*
X9287137Y659798D01*
X9288405Y658847D01*
X9289568Y657684D01*
X9291575Y655360D01*
X9293266Y652824D01*
X9294640Y650288D01*
X9295696Y648069D01*
X9296119Y647118D01*
X9296436Y646273D01*
X9296647Y645533D01*
X9296858Y645005D01*
X9296964Y644688D01*
Y644582D01*
X9280164Y641518D01*
X9279530Y643209D01*
X9278790Y644688D01*
X9278050Y645956D01*
X9277311Y646907D01*
X9276677Y647646D01*
X9276148Y648069D01*
X9275831Y648386D01*
X9275726Y648492D01*
X9274563Y649126D01*
X9273295Y649654D01*
X9271922Y649971D01*
X9270654Y650288D01*
X9269597Y650394D01*
X9268646Y650499D01*
X9266427D01*
X9265159Y650394D01*
X9264103Y650288D01*
X9263046Y650182D01*
X9261250Y649760D01*
X9259876Y649337D01*
X9258925Y648914D01*
X9258185Y648492D01*
X9257763Y648280D01*
X9257657Y648175D01*
X9256706Y647224D01*
X9256072Y645956D01*
X9255544Y644688D01*
X9255227Y643420D01*
X9255016Y642258D01*
X9254910Y641307D01*
Y640567D01*
Y640461D01*
Y640356D01*
Y638559D01*
X9255967Y638137D01*
X9257129Y637714D01*
X9258502Y637291D01*
X9259876Y636869D01*
X9262940Y636129D01*
X9265899Y635389D01*
X9267378Y635072D01*
X9268752Y634755D01*
X9270020Y634544D01*
X9271076Y634333D01*
X9271922Y634121D01*
X9272661Y634016D01*
X9273084Y633910D01*
X9273190D01*
X9274986Y633593D01*
X9276571Y633170D01*
X9278156Y632748D01*
X9279635Y632431D01*
X9280903Y632008D01*
X9282171Y631691D01*
X9283333Y631268D01*
X9284284Y630951D01*
X9285130Y630635D01*
X9285975Y630423D01*
X9286609Y630106D01*
X9287137Y629895D01*
X9287560Y629684D01*
X9287877Y629578D01*
X9287983Y629472D01*
X9288088D01*
X9289885Y628521D01*
X9291470Y627359D01*
X9292843Y626197D01*
X9293900Y625034D01*
X9294851Y623978D01*
X9295485Y623132D01*
X9295907Y622604D01*
X9296013Y622498D01*
Y622393D01*
X9296964Y620596D01*
X9297704Y618800D01*
X9298126Y617004D01*
X9298549Y615313D01*
X9298760Y613834D01*
X9298866Y612777D01*
Y612355D01*
Y612038D01*
Y611826D01*
Y611721D01*
X9298760Y610030D01*
X9298549Y608445D01*
X9298338Y606966D01*
X9297915Y605592D01*
X9296858Y602951D01*
X9296330Y601894D01*
X9295696Y600837D01*
X9295168Y599886D01*
X9294640Y599041D01*
X9294111Y598407D01*
X9293583Y597773D01*
X9293160Y597350D01*
X9292949Y597033D01*
X9292738Y596822D01*
X9292632Y596716D01*
X9291364Y595660D01*
X9290096Y594814D01*
X9288722Y594075D01*
X9287243Y593335D01*
X9284390Y592278D01*
X9281643Y591644D01*
X9280375Y591433D01*
X9279213Y591222D01*
X9278156Y591116D01*
X9277205Y591011D01*
X9276465Y590905D01*
X9275409D01*
X9273084Y591011D01*
X9270971Y591222D01*
X9268963Y591644D01*
X9267273Y592067D01*
X9265793Y592490D01*
X9264737Y592912D01*
X9264314Y593018D01*
X9263997Y593124D01*
X9263891Y593229D01*
X9263786D01*
X9261778Y594180D01*
X9259876Y595343D01*
X9258080Y596505D01*
X9256600Y597562D01*
X9255333Y598618D01*
X9254382Y599464D01*
X9253748Y599992D01*
X9253536Y600203D01*
X9253431Y599992D01*
X9253325Y599675D01*
X9253114Y598935D01*
X9253008Y598301D01*
X9252902Y598090D01*
Y597984D01*
X9252480Y596716D01*
X9252163Y595554D01*
X9251740Y594603D01*
X9251529Y593863D01*
X9251317Y593229D01*
X9251106Y592807D01*
X9251000Y592595D01*
Y592490D01*
X9232509D01*
X9233354Y594286D01*
X9234094Y596082D01*
X9234728Y597667D01*
X9235151Y599041D01*
X9235468Y600203D01*
X9235679Y601154D01*
X9235890Y601683D01*
Y601894D01*
X9235996Y602739D01*
X9236207Y603796D01*
X9236419Y605909D01*
X9236524Y608234D01*
X9236630Y610453D01*
X9236736Y612460D01*
Y613306D01*
Y614151D01*
Y614785D01*
Y615208D01*
Y615525D01*
Y615630D01*
X9236419Y637503D01*
Y639722D01*
X9236524Y641729D01*
X9236630Y643526D01*
X9236841Y645216D01*
X9237053Y646801D01*
X9237264Y648175D01*
X9237475Y649337D01*
X9237687Y650394D01*
X9237898Y651345D01*
X9238109Y652084D01*
X9238321Y652824D01*
X9238532Y653352D01*
X9238743Y653669D01*
X9238849Y653986D01*
X9238955Y654198D01*
X9240011Y655783D01*
X9241385Y657262D01*
X9242759Y658530D01*
X9244238Y659692D01*
X9245506Y660537D01*
X9246668Y661171D01*
X9246985Y661383D01*
X9247302Y661594D01*
X9247513Y661700D01*
X9247619D01*
X9248887Y662228D01*
X9250155Y662756D01*
X9253114Y663496D01*
X9256178Y664024D01*
X9259242Y664341D01*
X9260721Y664553D01*
X9261989Y664658D01*
X9263257D01*
X9264208Y664764D01*
X9268858D01*
X9271182Y664553D01*
D02*
G37*
G36*
X9716662Y677232D02*
Y663179D01*
X9725220D01*
Y648280D01*
X9716662D01*
Y617427D01*
Y615630D01*
Y614045D01*
Y612566D01*
X9716556Y611192D01*
Y609924D01*
X9716450Y608868D01*
Y607917D01*
X9716345Y607071D01*
Y606437D01*
Y605803D01*
X9716239Y605275D01*
Y604852D01*
X9716133Y604430D01*
Y604219D01*
X9715816Y602634D01*
X9715394Y601154D01*
X9714971Y599886D01*
X9714548Y598830D01*
X9714126Y598090D01*
X9713809Y597456D01*
X9713597Y597033D01*
X9713492Y596928D01*
X9712646Y595977D01*
X9711801Y595131D01*
X9710744Y594392D01*
X9709793Y593758D01*
X9708948Y593229D01*
X9708208Y592912D01*
X9707786Y592701D01*
X9707574Y592595D01*
X9705989Y592067D01*
X9704405Y591644D01*
X9702925Y591327D01*
X9701552Y591116D01*
X9700284Y591011D01*
X9699333Y590905D01*
X9698487D01*
X9695529Y591011D01*
X9692676Y591327D01*
X9690140Y591750D01*
X9688027Y592278D01*
X9687076Y592490D01*
X9686230Y592807D01*
X9685491Y593018D01*
X9684857Y593229D01*
X9684328Y593441D01*
X9684011Y593546D01*
X9683800Y593652D01*
X9683694D01*
X9685385Y608128D01*
X9687076Y607600D01*
X9688555Y607177D01*
X9689929Y606860D01*
X9690985Y606649D01*
X9691831Y606543D01*
X9692359Y606437D01*
X9692887D01*
X9694155Y606543D01*
X9695106Y606860D01*
X9695529Y607071D01*
X9695846Y607177D01*
X9695951Y607283D01*
X9696057D01*
X9696797Y608022D01*
X9697325Y608762D01*
X9697536Y609396D01*
X9697642Y609502D01*
Y609607D01*
Y609924D01*
X9697748Y610453D01*
Y611087D01*
X9697853Y611826D01*
Y613517D01*
X9697959Y615208D01*
Y616898D01*
Y617743D01*
Y618377D01*
Y618906D01*
Y619328D01*
Y619645D01*
Y619751D01*
Y648280D01*
X9685174D01*
Y663179D01*
X9697959D01*
Y688221D01*
X9716662Y677232D01*
D02*
G37*
G36*
X9671332D02*
Y663179D01*
X9679890D01*
Y648280D01*
X9671332D01*
Y617427D01*
Y615630D01*
Y614045D01*
Y612566D01*
X9671226Y611192D01*
Y609924D01*
X9671120Y608868D01*
Y607917D01*
X9671015Y607071D01*
Y606437D01*
Y605803D01*
X9670909Y605275D01*
Y604852D01*
X9670803Y604430D01*
Y604219D01*
X9670486Y602634D01*
X9670064Y601154D01*
X9669641Y599886D01*
X9669218Y598830D01*
X9668796Y598090D01*
X9668479Y597456D01*
X9668267Y597033D01*
X9668162Y596928D01*
X9667316Y595977D01*
X9666471Y595131D01*
X9665415Y594392D01*
X9664464Y593758D01*
X9663618Y593229D01*
X9662879Y592912D01*
X9662456Y592701D01*
X9662245Y592595D01*
X9660660Y592067D01*
X9659075Y591644D01*
X9657595Y591327D01*
X9656222Y591116D01*
X9654954Y591011D01*
X9654003Y590905D01*
X9653157D01*
X9650199Y591011D01*
X9647346Y591327D01*
X9644810Y591750D01*
X9642697Y592278D01*
X9641746Y592490D01*
X9640900Y592807D01*
X9640161Y593018D01*
X9639527Y593229D01*
X9638999Y593441D01*
X9638682Y593546D01*
X9638470Y593652D01*
X9638365D01*
X9640055Y608128D01*
X9641746Y607600D01*
X9643225Y607177D01*
X9644599Y606860D01*
X9645655Y606649D01*
X9646501Y606543D01*
X9647029Y606437D01*
X9647557D01*
X9648825Y606543D01*
X9649776Y606860D01*
X9650199Y607071D01*
X9650516Y607177D01*
X9650622Y607283D01*
X9650727D01*
X9651467Y608022D01*
X9651995Y608762D01*
X9652207Y609396D01*
X9652312Y609502D01*
Y609607D01*
Y609924D01*
X9652418Y610453D01*
Y611087D01*
X9652523Y611826D01*
Y613517D01*
X9652629Y615208D01*
Y616898D01*
Y617743D01*
Y618377D01*
Y618906D01*
Y619328D01*
Y619645D01*
Y619751D01*
Y648280D01*
X9639844D01*
Y663179D01*
X9652629D01*
Y688221D01*
X9671332Y677232D01*
D02*
G37*
G36*
X9141532Y677232D02*
Y663179D01*
X9150091D01*
Y648280D01*
X9141532D01*
Y617426D01*
Y615630D01*
Y614045D01*
Y612566D01*
X9141427Y611192D01*
Y609924D01*
X9141321Y608867D01*
Y607916D01*
X9141215Y607071D01*
Y606437D01*
Y605803D01*
X9141110Y605275D01*
Y604852D01*
X9141004Y604430D01*
Y604218D01*
X9140687Y602633D01*
X9140264Y601154D01*
X9139842Y599886D01*
X9139419Y598829D01*
X9138996Y598090D01*
X9138679Y597456D01*
X9138468Y597033D01*
X9138362Y596927D01*
X9137517Y595976D01*
X9136672Y595131D01*
X9135615Y594391D01*
X9134664Y593758D01*
X9133819Y593229D01*
X9133079Y592912D01*
X9132657Y592701D01*
X9132445Y592595D01*
X9130860Y592067D01*
X9129275Y591644D01*
X9127796Y591327D01*
X9126422Y591116D01*
X9125154Y591010D01*
X9124203Y590905D01*
X9123358D01*
X9120400Y591010D01*
X9117547Y591327D01*
X9115011Y591750D01*
X9112897Y592278D01*
X9111946Y592490D01*
X9111101Y592807D01*
X9110362Y593018D01*
X9109728Y593229D01*
X9109199Y593441D01*
X9108882Y593546D01*
X9108671Y593652D01*
X9108565D01*
X9110256Y608128D01*
X9111946Y607599D01*
X9113426Y607177D01*
X9114799Y606860D01*
X9115856Y606649D01*
X9116701Y606543D01*
X9117230Y606437D01*
X9117758D01*
X9119026Y606543D01*
X9119977Y606860D01*
X9120400Y607071D01*
X9120717Y607177D01*
X9120822Y607283D01*
X9120928D01*
X9121668Y608022D01*
X9122196Y608762D01*
X9122407Y609396D01*
X9122513Y609501D01*
Y609607D01*
Y609924D01*
X9122619Y610452D01*
Y611086D01*
X9122724Y611826D01*
Y613517D01*
X9122830Y615207D01*
Y616898D01*
Y617743D01*
Y618377D01*
Y618906D01*
Y619328D01*
Y619645D01*
Y619751D01*
Y648280D01*
X9110045D01*
Y663179D01*
X9122830D01*
Y688221D01*
X9141532Y677232D01*
D02*
G37*
G36*
X9072745Y664658D02*
X9075281Y664341D01*
X9077606Y663813D01*
X9079719Y663179D01*
X9081832Y662439D01*
X9083734Y661594D01*
X9085530Y660643D01*
X9087115Y659798D01*
X9088489Y658847D01*
X9089757Y657896D01*
X9090919Y657050D01*
X9091765Y656311D01*
X9092504Y655677D01*
X9093033Y655148D01*
X9093350Y654831D01*
X9093455Y654726D01*
X9095040Y652824D01*
X9096414Y650710D01*
X9097682Y648491D01*
X9098738Y646273D01*
X9099584Y643948D01*
X9100323Y641623D01*
X9100957Y639404D01*
X9101380Y637291D01*
X9101803Y635178D01*
X9102014Y633382D01*
X9102225Y631585D01*
X9102437Y630106D01*
Y628944D01*
X9102542Y627993D01*
Y627464D01*
Y627253D01*
X9102437Y624611D01*
X9102225Y621970D01*
X9101908Y619540D01*
X9101486Y617215D01*
X9100957Y615102D01*
X9100323Y613094D01*
X9099689Y611192D01*
X9099055Y609501D01*
X9098421Y608022D01*
X9097787Y606649D01*
X9097154Y605592D01*
X9096625Y604641D01*
X9096203Y603796D01*
X9095886Y603267D01*
X9095674Y602950D01*
X9095569Y602845D01*
X9093772Y600731D01*
X9091870Y598935D01*
X9089757Y597350D01*
X9087644Y595976D01*
X9085319Y594814D01*
X9083100Y593863D01*
X9080881Y593018D01*
X9078662Y592384D01*
X9076549Y591856D01*
X9074647Y591539D01*
X9072851Y591222D01*
X9071371Y591116D01*
X9070104Y591010D01*
X9069153Y590905D01*
X9068307D01*
X9066194Y591010D01*
X9064186Y591116D01*
X9062179Y591433D01*
X9060382Y591750D01*
X9058692Y592173D01*
X9057107Y592595D01*
X9055628Y593018D01*
X9054254Y593546D01*
X9053092Y594075D01*
X9052035Y594497D01*
X9051084Y594920D01*
X9050344Y595342D01*
X9049710Y595659D01*
X9049288Y595976D01*
X9049076Y596082D01*
X9048971Y596188D01*
X9047597Y597244D01*
X9046223Y598407D01*
X9043899Y600943D01*
X9041891Y603479D01*
X9040306Y606015D01*
X9039672Y607177D01*
X9039144Y608339D01*
X9038616Y609290D01*
X9038193Y610135D01*
X9037982Y610875D01*
X9037770Y611403D01*
X9037559Y611720D01*
Y611826D01*
X9056156Y614996D01*
X9056790Y613094D01*
X9057530Y611509D01*
X9058269Y610135D01*
X9059114Y609079D01*
X9059748Y608233D01*
X9060277Y607599D01*
X9060699Y607283D01*
X9060805Y607177D01*
X9061967Y606437D01*
X9063235Y605803D01*
X9064398Y605381D01*
X9065560Y605169D01*
X9066617Y604958D01*
X9067356Y604852D01*
X9068096D01*
X9069258Y604958D01*
X9070421Y605064D01*
X9072534Y605592D01*
X9074436Y606332D01*
X9076021Y607177D01*
X9077289Y607916D01*
X9078240Y608656D01*
X9078768Y609184D01*
X9078874Y609396D01*
X9078979D01*
X9080459Y611298D01*
X9081515Y613411D01*
X9082255Y615630D01*
X9082783Y617743D01*
X9083100Y619540D01*
X9083206Y620385D01*
X9083312Y621124D01*
X9083417Y621653D01*
Y622181D01*
Y622392D01*
Y622498D01*
X9036608D01*
Y626408D01*
X9036925Y630000D01*
X9037348Y633382D01*
X9037876Y636551D01*
X9038510Y639404D01*
X9039250Y641940D01*
X9039989Y644371D01*
X9040835Y646484D01*
X9041680Y648280D01*
X9042525Y649865D01*
X9043265Y651239D01*
X9044005Y652401D01*
X9044533Y653246D01*
X9044955Y653775D01*
X9045272Y654197D01*
X9045378Y654303D01*
X9047174Y656099D01*
X9049076Y657790D01*
X9051084Y659164D01*
X9053092Y660326D01*
X9055205Y661382D01*
X9057213Y662228D01*
X9059220Y662862D01*
X9061228Y663496D01*
X9063024Y663918D01*
X9064715Y664235D01*
X9066300Y664447D01*
X9067568Y664552D01*
X9068730Y664658D01*
X9069470Y664764D01*
X9070209D01*
X9072745Y664658D01*
D02*
G37*
G36*
X9898932Y592490D02*
X9862372D01*
X9859308Y592595D01*
X9854130D01*
X9851911Y592701D01*
X9850010D01*
X9848319Y592807D01*
X9846840D01*
X9845677Y592912D01*
X9844621D01*
X9843775Y593018D01*
X9843141D01*
X9842613Y593124D01*
X9842085D01*
X9839232Y593546D01*
X9836696Y594180D01*
X9834371Y594920D01*
X9832469Y595765D01*
X9830990Y596505D01*
X9830356Y596822D01*
X9829828Y597033D01*
X9829405Y597350D01*
X9829088Y597562D01*
X9828982Y597667D01*
X9828877D01*
X9826975Y599147D01*
X9825284Y600837D01*
X9823805Y602528D01*
X9822643Y604113D01*
X9821692Y605486D01*
X9820952Y606649D01*
X9820741Y607071D01*
X9820529Y607388D01*
X9820424Y607600D01*
Y607705D01*
X9819367Y610136D01*
X9818627Y612460D01*
X9817993Y614574D01*
X9817676Y616581D01*
X9817465Y618272D01*
X9817359Y619011D01*
X9817254Y619540D01*
Y620068D01*
Y620385D01*
Y620596D01*
Y620702D01*
Y622287D01*
X9817465Y623766D01*
X9817993Y626619D01*
X9818839Y629050D01*
X9819684Y631268D01*
X9820107Y632114D01*
X9820529Y632959D01*
X9820952Y633699D01*
X9821375Y634333D01*
X9821692Y634755D01*
X9821903Y635072D01*
X9822009Y635284D01*
X9822114Y635389D01*
X9824016Y637608D01*
X9826235Y639405D01*
X9828560Y640990D01*
X9830673Y642152D01*
X9832681Y643103D01*
X9833526Y643420D01*
X9834266Y643737D01*
X9834900Y643948D01*
X9835322Y644159D01*
X9835639Y644265D01*
X9835745D01*
X9833526Y645427D01*
X9831518Y646801D01*
X9829828Y648280D01*
X9828348Y649654D01*
X9827186Y650922D01*
X9826341Y651873D01*
X9826129Y652296D01*
X9825918Y652613D01*
X9825707Y652718D01*
Y652824D01*
X9824439Y655043D01*
X9823594Y657156D01*
X9822960Y659269D01*
X9822431Y661277D01*
X9822220Y662968D01*
X9822114Y663602D01*
Y664236D01*
X9822009Y664764D01*
Y665081D01*
Y665292D01*
Y665398D01*
X9822114Y667723D01*
X9822431Y669836D01*
X9822960Y671843D01*
X9823488Y673534D01*
X9824122Y674908D01*
X9824544Y675964D01*
X9824756Y676281D01*
X9824967Y676598D01*
X9825073Y676704D01*
Y676810D01*
X9826235Y678606D01*
X9827503Y680191D01*
X9828771Y681565D01*
X9829933Y682833D01*
X9830990Y683678D01*
X9831835Y684417D01*
X9832364Y684840D01*
X9832469Y684946D01*
X9832575D01*
X9834266Y686002D01*
X9836062Y686848D01*
X9837752Y687587D01*
X9839337Y688116D01*
X9840711Y688538D01*
X9841768Y688750D01*
X9842190Y688855D01*
X9842507Y688961D01*
X9842719D01*
X9843881Y689172D01*
X9845043Y689278D01*
X9847791Y689595D01*
X9850643Y689806D01*
X9853496Y689912D01*
X9854764D01*
X9856032Y690018D01*
X9898932D01*
Y592490D01*
D02*
G37*
G36*
X9384665D02*
X9365012D01*
Y629261D01*
X9349796D01*
X9347472Y629367D01*
X9345358D01*
X9343351Y629472D01*
X9341554Y629578D01*
X9339864Y629684D01*
X9338279Y629789D01*
X9336905Y630001D01*
X9335743Y630106D01*
X9334686Y630212D01*
X9333735Y630318D01*
X9332996Y630423D01*
X9332467Y630529D01*
X9332045D01*
X9331833Y630635D01*
X9331728D01*
X9329826Y631163D01*
X9327924Y631797D01*
X9326233Y632536D01*
X9324754Y633276D01*
X9323380Y634016D01*
X9322429Y634650D01*
X9321795Y635072D01*
X9321690Y635178D01*
X9321584D01*
X9319788Y636657D01*
X9318097Y638242D01*
X9316723Y639827D01*
X9315455Y641307D01*
X9314504Y642680D01*
X9313870Y643843D01*
X9313553Y644265D01*
X9313342Y644582D01*
X9313236Y644688D01*
Y644793D01*
X9312180Y647224D01*
X9311334Y649760D01*
X9310806Y652296D01*
X9310383Y654620D01*
X9310278Y655783D01*
X9310172Y656734D01*
X9310066Y657684D01*
X9309961Y658424D01*
Y659058D01*
Y659481D01*
Y659798D01*
Y659903D01*
X9310066Y662017D01*
X9310172Y664130D01*
X9310489Y666032D01*
X9310806Y667828D01*
X9311229Y669519D01*
X9311757Y671104D01*
X9312285Y672477D01*
X9312814Y673851D01*
X9313342Y675013D01*
X9313870Y675964D01*
X9314293Y676915D01*
X9314821Y677655D01*
X9315138Y678183D01*
X9315455Y678606D01*
X9315561Y678817D01*
X9315667Y678923D01*
X9316723Y680297D01*
X9317886Y681459D01*
X9319048Y682516D01*
X9320316Y683572D01*
X9322640Y685263D01*
X9324859Y686531D01*
X9326761Y687482D01*
X9327607Y687799D01*
X9328346Y688116D01*
X9328875Y688327D01*
X9329297Y688433D01*
X9329614Y688538D01*
X9329720D01*
X9330882Y688750D01*
X9332256Y689067D01*
X9333841Y689278D01*
X9335637Y689384D01*
X9337539Y689489D01*
X9339441Y689701D01*
X9343456Y689806D01*
X9345358Y689912D01*
X9347049D01*
X9348739Y690018D01*
X9384665D01*
Y592490D01*
D02*
G37*
G36*
X9772558Y664553D02*
X9776045Y664024D01*
X9779215Y663285D01*
X9780694Y662862D01*
X9782068Y662439D01*
X9783230Y662017D01*
X9784287Y661594D01*
X9785237Y661171D01*
X9786083Y660854D01*
X9786717Y660537D01*
X9787139Y660326D01*
X9787456Y660220D01*
X9787562Y660115D01*
X9790521Y658213D01*
X9793057Y656100D01*
X9795276Y653881D01*
X9797178Y651767D01*
X9798551Y649865D01*
X9799185Y649020D01*
X9799608Y648280D01*
X9799925Y647646D01*
X9800242Y647224D01*
X9800347Y646907D01*
X9800453Y646801D01*
X9801298Y645216D01*
X9801932Y643526D01*
X9803095Y640356D01*
X9803834Y637291D01*
X9804468Y634544D01*
X9804574Y633276D01*
X9804785Y632219D01*
X9804891Y631163D01*
Y630318D01*
X9804997Y629684D01*
Y629155D01*
Y628838D01*
Y628733D01*
X9804891Y626514D01*
X9804785Y624400D01*
X9804574Y622287D01*
X9804257Y620385D01*
X9803940Y618589D01*
X9803517Y616898D01*
X9803095Y615313D01*
X9802672Y613834D01*
X9802249Y612566D01*
X9801932Y611404D01*
X9801510Y610453D01*
X9801193Y609607D01*
X9800876Y608973D01*
X9800664Y608551D01*
X9800453Y608234D01*
Y608128D01*
X9798551Y605169D01*
X9796438Y602528D01*
X9794219Y600309D01*
X9792106Y598513D01*
X9790098Y597139D01*
X9789358Y596505D01*
X9788619Y596082D01*
X9787985Y595660D01*
X9787562Y595448D01*
X9787245Y595343D01*
X9787139Y595237D01*
X9783864Y593758D01*
X9780588Y592701D01*
X9777418Y591961D01*
X9774565Y591433D01*
X9773297Y591222D01*
X9772135Y591116D01*
X9771184Y591011D01*
X9770339D01*
X9769599Y590905D01*
X9768648D01*
X9765795Y591011D01*
X9763048Y591327D01*
X9760406Y591856D01*
X9757976Y592595D01*
X9755652Y593335D01*
X9753538Y594180D01*
X9751531Y595131D01*
X9749734Y596188D01*
X9748149Y597139D01*
X9746776Y598090D01*
X9745508Y598935D01*
X9744557Y599781D01*
X9743712Y600415D01*
X9743078Y600943D01*
X9742761Y601260D01*
X9742655Y601366D01*
X9740859Y603373D01*
X9739274Y605592D01*
X9737900Y607705D01*
X9736632Y610030D01*
X9735681Y612249D01*
X9734836Y614468D01*
X9734096Y616581D01*
X9733568Y618694D01*
X9733145Y620596D01*
X9732828Y622393D01*
X9732617Y623978D01*
X9732405Y625351D01*
Y626408D01*
X9732300Y627253D01*
Y627782D01*
Y627993D01*
X9732405Y630951D01*
X9732722Y633699D01*
X9733251Y636340D01*
X9733885Y638771D01*
X9734624Y641095D01*
X9735575Y643314D01*
X9736421Y645322D01*
X9737372Y647118D01*
X9738428Y648703D01*
X9739274Y650182D01*
X9740119Y651345D01*
X9740964Y652401D01*
X9741598Y653247D01*
X9742127Y653775D01*
X9742444Y654198D01*
X9742549Y654303D01*
X9744557Y656100D01*
X9746564Y657790D01*
X9748783Y659164D01*
X9751002Y660326D01*
X9753116Y661383D01*
X9755335Y662228D01*
X9757448Y662862D01*
X9759455Y663496D01*
X9761357Y663919D01*
X9763154Y664236D01*
X9764739Y664447D01*
X9766112Y664553D01*
X9767169Y664658D01*
X9768014Y664764D01*
X9770656D01*
X9772558Y664553D01*
D02*
G37*
G36*
X9598741D02*
X9602227Y664024D01*
X9605397Y663285D01*
X9606877Y662862D01*
X9608250Y662439D01*
X9609413Y662017D01*
X9610469Y661594D01*
X9611420Y661171D01*
X9612266Y660854D01*
X9612899Y660537D01*
X9613322Y660326D01*
X9613639Y660220D01*
X9613745Y660115D01*
X9616703Y658213D01*
X9619239Y656100D01*
X9621458Y653881D01*
X9623360Y651767D01*
X9624734Y649865D01*
X9625368Y649020D01*
X9625791Y648280D01*
X9626107Y647646D01*
X9626424Y647224D01*
X9626530Y646907D01*
X9626636Y646801D01*
X9627481Y645216D01*
X9628115Y643526D01*
X9629277Y640356D01*
X9630017Y637291D01*
X9630651Y634544D01*
X9630757Y633276D01*
X9630968Y632219D01*
X9631074Y631163D01*
Y630318D01*
X9631179Y629684D01*
Y629155D01*
Y628838D01*
Y628733D01*
X9631074Y626514D01*
X9630968Y624400D01*
X9630757Y622287D01*
X9630440Y620385D01*
X9630123Y618589D01*
X9629700Y616898D01*
X9629277Y615313D01*
X9628855Y613834D01*
X9628432Y612566D01*
X9628115Y611404D01*
X9627692Y610453D01*
X9627375Y609607D01*
X9627058Y608973D01*
X9626847Y608551D01*
X9626636Y608234D01*
Y608128D01*
X9624734Y605169D01*
X9622621Y602528D01*
X9620402Y600309D01*
X9618288Y598513D01*
X9616281Y597139D01*
X9615541Y596505D01*
X9614801Y596082D01*
X9614167Y595660D01*
X9613745Y595448D01*
X9613428Y595343D01*
X9613322Y595237D01*
X9610047Y593758D01*
X9606771Y592701D01*
X9603601Y591961D01*
X9600748Y591433D01*
X9599480Y591222D01*
X9598318Y591116D01*
X9597367Y591011D01*
X9596522D01*
X9595782Y590905D01*
X9594831D01*
X9591978Y591011D01*
X9589231Y591327D01*
X9586589Y591856D01*
X9584159Y592595D01*
X9581834Y593335D01*
X9579721Y594180D01*
X9577713Y595131D01*
X9575917Y596188D01*
X9574332Y597139D01*
X9572959Y598090D01*
X9571691Y598935D01*
X9570740Y599781D01*
X9569894Y600415D01*
X9569260Y600943D01*
X9568943Y601260D01*
X9568838Y601366D01*
X9567041Y603373D01*
X9565456Y605592D01*
X9564083Y607705D01*
X9562815Y610030D01*
X9561864Y612249D01*
X9561018Y614468D01*
X9560279Y616581D01*
X9559751Y618694D01*
X9559328Y620596D01*
X9559011Y622393D01*
X9558800Y623978D01*
X9558588Y625351D01*
Y626408D01*
X9558483Y627253D01*
Y627782D01*
Y627993D01*
X9558588Y630951D01*
X9558905Y633699D01*
X9559434Y636340D01*
X9560067Y638771D01*
X9560807Y641095D01*
X9561758Y643314D01*
X9562603Y645322D01*
X9563554Y647118D01*
X9564611Y648703D01*
X9565456Y650182D01*
X9566302Y651345D01*
X9567147Y652401D01*
X9567781Y653247D01*
X9568309Y653775D01*
X9568626Y654198D01*
X9568732Y654303D01*
X9570740Y656100D01*
X9572747Y657790D01*
X9574966Y659164D01*
X9577185Y660326D01*
X9579298Y661383D01*
X9581517Y662228D01*
X9583631Y662862D01*
X9585638Y663496D01*
X9587540Y663919D01*
X9589336Y664236D01*
X9590921Y664447D01*
X9592295Y664553D01*
X9593352Y664658D01*
X9594197Y664764D01*
X9596839D01*
X9598741Y664553D01*
D02*
G37*
G36*
X9195315Y664658D02*
X9197851Y664447D01*
X9200282Y664130D01*
X9202501Y663813D01*
X9204508Y663285D01*
X9206304Y662756D01*
X9207995Y662228D01*
X9209474Y661594D01*
X9210742Y660960D01*
X9211905Y660432D01*
X9212856Y659903D01*
X9213595Y659375D01*
X9214229Y659058D01*
X9214652Y658741D01*
X9214863Y658530D01*
X9214969Y658424D01*
X9216237Y657262D01*
X9217293Y655994D01*
X9218244Y654726D01*
X9219090Y653352D01*
X9219829Y652084D01*
X9220358Y650816D01*
X9221203Y648386D01*
X9221520Y647224D01*
X9221731Y646273D01*
X9221943Y645322D01*
X9222048Y644582D01*
X9222154Y643843D01*
Y643420D01*
Y643103D01*
Y642997D01*
X9222048Y641201D01*
X9221837Y639405D01*
X9221414Y637820D01*
X9220886Y636235D01*
X9220252Y634861D01*
X9219512Y633487D01*
X9218773Y632325D01*
X9217927Y631268D01*
X9217188Y630318D01*
X9216448Y629472D01*
X9215709Y628733D01*
X9215075Y628204D01*
X9214546Y627782D01*
X9214124Y627465D01*
X9213912Y627253D01*
X9213807Y627148D01*
X9212539Y626408D01*
X9210848Y625563D01*
X9208946Y624823D01*
X9206833Y623978D01*
X9204508Y623238D01*
X9202078Y622498D01*
X9197323Y621019D01*
X9194893Y620385D01*
X9192674Y619857D01*
X9190666Y619328D01*
X9188870Y618906D01*
X9187391Y618589D01*
X9186228Y618272D01*
X9185806Y618166D01*
X9185489D01*
X9185383Y618060D01*
X9185277D01*
X9183587Y617638D01*
X9182213Y617215D01*
X9181156Y616793D01*
X9180311Y616370D01*
X9179783Y616053D01*
X9179360Y615736D01*
X9179149Y615630D01*
X9179043Y615525D01*
X9178620Y614996D01*
X9178198Y614362D01*
X9177881Y613306D01*
X9177775Y612777D01*
X9177669Y612355D01*
Y612143D01*
Y612038D01*
X9177775Y610875D01*
X9178092Y609924D01*
X9178515Y609079D01*
X9178937Y608339D01*
X9179360Y607811D01*
X9179783Y607388D01*
X9180100Y607177D01*
X9180205Y607071D01*
X9181685Y606226D01*
X9183375Y605592D01*
X9185172Y605064D01*
X9186968Y604747D01*
X9188553Y604535D01*
X9189293D01*
X9189927Y604430D01*
X9191089D01*
X9193413Y604535D01*
X9195421Y604852D01*
X9197217Y605275D01*
X9198697Y605803D01*
X9199859Y606332D01*
X9200704Y606754D01*
X9201127Y607071D01*
X9201338Y607177D01*
X9202606Y608339D01*
X9203557Y609607D01*
X9204402Y610981D01*
X9205036Y612355D01*
X9205565Y613517D01*
X9205882Y614574D01*
X9205987Y615208D01*
X9206093Y615313D01*
Y615419D01*
X9224796Y612566D01*
X9224267Y610770D01*
X9223633Y608973D01*
X9222894Y607388D01*
X9222048Y605909D01*
X9221097Y604430D01*
X9220252Y603162D01*
X9219301Y602000D01*
X9218350Y600837D01*
X9217505Y599886D01*
X9216659Y599041D01*
X9215920Y598407D01*
X9215286Y597773D01*
X9214652Y597350D01*
X9214229Y597033D01*
X9214018Y596822D01*
X9213912Y596716D01*
X9212222Y595660D01*
X9210531Y594814D01*
X9208629Y594075D01*
X9206727Y593335D01*
X9202923Y592278D01*
X9199225Y591644D01*
X9197534Y591433D01*
X9196055Y591222D01*
X9194576Y591116D01*
X9193413Y591011D01*
X9192357Y590905D01*
X9190983D01*
X9188130Y591011D01*
X9185383Y591222D01*
X9182847Y591539D01*
X9180522Y591961D01*
X9178409Y592490D01*
X9176402Y593124D01*
X9174605Y593758D01*
X9173020Y594392D01*
X9171647Y595025D01*
X9170379Y595659D01*
X9169322Y596293D01*
X9168477Y596822D01*
X9167843Y597244D01*
X9167420Y597561D01*
X9167103Y597773D01*
X9166997Y597878D01*
X9165518Y599252D01*
X9164356Y600626D01*
X9163194Y601999D01*
X9162243Y603479D01*
X9161503Y604852D01*
X9160869Y606226D01*
X9160341Y607599D01*
X9159918Y608867D01*
X9159495Y610030D01*
X9159284Y611086D01*
X9159073Y612143D01*
X9158967Y612988D01*
X9158861Y613622D01*
Y614151D01*
Y614468D01*
Y614573D01*
X9158967Y616158D01*
X9159073Y617743D01*
X9159812Y620491D01*
X9160763Y622815D01*
X9161820Y624823D01*
X9162348Y625668D01*
X9162877Y626408D01*
X9163405Y627042D01*
X9163827Y627464D01*
X9164250Y627887D01*
X9164567Y628204D01*
X9164673Y628310D01*
X9164778Y628415D01*
X9165941Y629366D01*
X9167420Y630212D01*
X9168899Y631057D01*
X9170484Y631797D01*
X9173971Y633276D01*
X9177352Y634438D01*
X9179043Y634967D01*
X9180522Y635389D01*
X9182002Y635812D01*
X9183164Y636129D01*
X9184221Y636446D01*
X9184960Y636657D01*
X9185383Y636763D01*
X9185594D01*
X9188236Y637397D01*
X9190666Y637925D01*
X9192779Y638559D01*
X9194576Y638982D01*
X9196266Y639510D01*
X9197640Y639933D01*
X9198908Y640356D01*
X9199859Y640673D01*
X9200704Y640990D01*
X9201444Y641307D01*
X9201972Y641518D01*
X9202395Y641729D01*
X9202712Y641835D01*
X9202923Y641941D01*
X9203029Y642046D01*
X9203663Y642575D01*
X9204085Y643209D01*
X9204402Y643737D01*
X9204614Y644265D01*
X9204719Y644688D01*
X9204825Y645110D01*
Y645322D01*
Y645427D01*
X9204719Y646273D01*
X9204508Y647012D01*
X9204191Y647646D01*
X9203768Y648175D01*
X9203346Y648597D01*
X9203029Y649020D01*
X9202818Y649126D01*
X9202712Y649231D01*
X9201338Y649971D01*
X9199753Y650499D01*
X9197957Y650816D01*
X9196266Y651133D01*
X9194681Y651239D01*
X9193413Y651345D01*
X9192251D01*
X9190243Y651239D01*
X9188342Y651028D01*
X9186862Y650605D01*
X9185594Y650288D01*
X9184538Y649865D01*
X9183904Y649443D01*
X9183375Y649231D01*
X9183270Y649126D01*
X9182213Y648175D01*
X9181262Y647224D01*
X9180522Y646167D01*
X9179888Y645110D01*
X9179466Y644159D01*
X9179149Y643420D01*
X9178937Y642997D01*
Y642786D01*
X9161292Y646061D01*
X9162454Y649337D01*
X9163194Y650816D01*
X9163933Y652084D01*
X9164778Y653352D01*
X9165624Y654514D01*
X9166469Y655571D01*
X9167209Y656522D01*
X9168054Y657262D01*
X9168688Y658001D01*
X9169428Y658635D01*
X9169956Y659164D01*
X9170484Y659481D01*
X9170801Y659798D01*
X9171013Y660009D01*
X9171118D01*
X9172492Y660854D01*
X9174077Y661594D01*
X9175662Y662228D01*
X9177458Y662756D01*
X9180945Y663602D01*
X9184432Y664130D01*
X9186123Y664341D01*
X9187602Y664553D01*
X9188976Y664658D01*
X9190243D01*
X9191194Y664764D01*
X9192568D01*
X9195315Y664658D01*
D02*
G37*
%LPC*%
G36*
X9254910Y626408D02*
Y622604D01*
Y620279D01*
X9255016Y618377D01*
X9255121Y616793D01*
X9255227Y615525D01*
X9255438Y614679D01*
X9255544Y614045D01*
X9255650Y613623D01*
Y613517D01*
X9256178Y612249D01*
X9256812Y611087D01*
X9257551Y610030D01*
X9258397Y609079D01*
X9259031Y608339D01*
X9259665Y607811D01*
X9260087Y607494D01*
X9260193Y607388D01*
X9261884Y606332D01*
X9263574Y605486D01*
X9265265Y604958D01*
X9266744Y604535D01*
X9268012Y604324D01*
X9268963Y604219D01*
X9269597Y604113D01*
X9269808D01*
X9271393Y604219D01*
X9272873Y604535D01*
X9274141Y605064D01*
X9275303Y605592D01*
X9276148Y606015D01*
X9276782Y606543D01*
X9277205Y606860D01*
X9277311Y606966D01*
X9278262Y608128D01*
X9279001Y609185D01*
X9279424Y610347D01*
X9279847Y611404D01*
X9280058Y612355D01*
X9280164Y613094D01*
Y613517D01*
Y613728D01*
X9280058Y615102D01*
X9279635Y616370D01*
X9279001Y617532D01*
X9278367Y618483D01*
X9277733Y619223D01*
X9277099Y619857D01*
X9276677Y620174D01*
X9276571Y620279D01*
X9276043Y620596D01*
X9275409Y620913D01*
X9273929Y621442D01*
X9272239Y621970D01*
X9270548Y622498D01*
X9268963Y622815D01*
X9267695Y623132D01*
X9267167Y623344D01*
X9266744D01*
X9266533Y623449D01*
X9266427D01*
X9263680Y624083D01*
X9261355Y624612D01*
X9259348Y625140D01*
X9257763Y625563D01*
X9256495Y625880D01*
X9255650Y626197D01*
X9255121Y626302D01*
X9254910Y626408D01*
D02*
G37*
G36*
X9069787Y650499D02*
X9069153D01*
X9067145Y650288D01*
X9065243Y649865D01*
X9063552Y649125D01*
X9062179Y648386D01*
X9061016Y647540D01*
X9060171Y646801D01*
X9059643Y646378D01*
X9059431Y646167D01*
X9058058Y644476D01*
X9057107Y642469D01*
X9056367Y640461D01*
X9055839Y638453D01*
X9055522Y636657D01*
X9055416Y635917D01*
X9055311Y635283D01*
X9055205Y634649D01*
Y634227D01*
Y634015D01*
Y633910D01*
X9083100D01*
X9082995Y636657D01*
X9082572Y638982D01*
X9081938Y641095D01*
X9081198Y642786D01*
X9080459Y644159D01*
X9079825Y645110D01*
X9079402Y645744D01*
X9079191Y645956D01*
X9078451Y646801D01*
X9077606Y647435D01*
X9076021Y648597D01*
X9074330Y649442D01*
X9072745Y649971D01*
X9071266Y650288D01*
X9070209Y650393D01*
X9069787Y650499D01*
D02*
G37*
G36*
X9879278Y673745D02*
X9861210D01*
X9859414Y673640D01*
X9856561D01*
X9855293Y673534D01*
X9853496D01*
X9852757Y673428D01*
X9851806D01*
X9851489Y673323D01*
X9851172D01*
X9849376Y673006D01*
X9847896Y672583D01*
X9846628Y672055D01*
X9845572Y671421D01*
X9844726Y670892D01*
X9844092Y670364D01*
X9843775Y670047D01*
X9843670Y669942D01*
X9842824Y668779D01*
X9842190Y667617D01*
X9841768Y666349D01*
X9841451Y665187D01*
X9841239Y664236D01*
X9841134Y663390D01*
Y662862D01*
Y662651D01*
X9841239Y660960D01*
X9841556Y659481D01*
X9842085Y658107D01*
X9842613Y657051D01*
X9843141Y656100D01*
X9843670Y655466D01*
X9843987Y655043D01*
X9844092Y654937D01*
X9845255Y653986D01*
X9846523Y653247D01*
X9847896Y652613D01*
X9849164Y652190D01*
X9850221Y651873D01*
X9851172Y651662D01*
X9851806Y651556D01*
X9852651D01*
X9853496Y651450D01*
X9854447D01*
X9855504Y651345D01*
X9857829D01*
X9860259Y651239D01*
X9879278D01*
Y673745D01*
D02*
G37*
G36*
Y634967D02*
X9860999D01*
X9858780Y634861D01*
X9856772D01*
X9854976Y634755D01*
X9853391Y634650D01*
X9851911Y634544D01*
X9850643Y634333D01*
X9849587Y634227D01*
X9848636Y634121D01*
X9847896Y633910D01*
X9847262Y633804D01*
X9846734Y633699D01*
X9846311Y633593D01*
X9846100D01*
X9845889Y633487D01*
X9844515Y632853D01*
X9843247Y632219D01*
X9842190Y631480D01*
X9841345Y630740D01*
X9840605Y630106D01*
X9840183Y629578D01*
X9839866Y629155D01*
X9839760Y629050D01*
X9839020Y627887D01*
X9838492Y626619D01*
X9838069Y625351D01*
X9837858Y624189D01*
X9837647Y623238D01*
X9837541Y622393D01*
Y621864D01*
Y621653D01*
X9837647Y619857D01*
X9837964Y618166D01*
X9838492Y616793D01*
X9838915Y615630D01*
X9839443Y614679D01*
X9839971Y613940D01*
X9840288Y613517D01*
X9840394Y613411D01*
X9841451Y612355D01*
X9842719Y611509D01*
X9843881Y610875D01*
X9845043Y610347D01*
X9845994Y609924D01*
X9846840Y609713D01*
X9847368Y609502D01*
X9847579D01*
X9848213Y609396D01*
X9848953Y609290D01*
X9849904D01*
X9850855Y609185D01*
X9853074Y609079D01*
X9855398D01*
X9857617Y608973D01*
X9879278D01*
Y634967D01*
D02*
G37*
G36*
X9365012Y673534D02*
X9351804D01*
X9350219Y673428D01*
X9348845D01*
X9347577Y673323D01*
X9346415D01*
X9345358Y673217D01*
X9344407D01*
X9343668Y673111D01*
X9343034Y673006D01*
X9342505D01*
X9342083Y672900D01*
X9341554Y672794D01*
X9341343D01*
X9339652Y672372D01*
X9338067Y671738D01*
X9336694Y671104D01*
X9335637Y670364D01*
X9334686Y669625D01*
X9333947Y668991D01*
X9333524Y668568D01*
X9333418Y668462D01*
X9332362Y667089D01*
X9331622Y665609D01*
X9330988Y664130D01*
X9330671Y662756D01*
X9330460Y661594D01*
X9330248Y660537D01*
Y659903D01*
Y659798D01*
Y659692D01*
X9330354Y658107D01*
X9330565Y656628D01*
X9330988Y655360D01*
X9331411Y654303D01*
X9331833Y653352D01*
X9332256Y652718D01*
X9332467Y652190D01*
X9332573Y652084D01*
X9333418Y650922D01*
X9334475Y649971D01*
X9335531Y649126D01*
X9336482Y648386D01*
X9337328Y647858D01*
X9338067Y647541D01*
X9338490Y647329D01*
X9338701Y647224D01*
X9339547Y647012D01*
X9340498Y646695D01*
X9341554Y646590D01*
X9342822Y646378D01*
X9345358Y646061D01*
X9347894Y645956D01*
X9350324Y645850D01*
X9351381Y645744D01*
X9365012D01*
Y673534D01*
D02*
G37*
G36*
X9769494Y649548D02*
X9768754D01*
X9767380Y649443D01*
X9766112Y649337D01*
X9763788Y648703D01*
X9761674Y647752D01*
X9759878Y646801D01*
X9758399Y645744D01*
X9757342Y644793D01*
X9757025Y644476D01*
X9756708Y644159D01*
X9756603Y644054D01*
X9756497Y643948D01*
X9755652Y642892D01*
X9754806Y641624D01*
X9753644Y639088D01*
X9752693Y636446D01*
X9752165Y633804D01*
X9751953Y632642D01*
X9751742Y631480D01*
X9751636Y630529D01*
Y629578D01*
X9751531Y628944D01*
Y628310D01*
Y627993D01*
Y627887D01*
Y625985D01*
X9751742Y624083D01*
X9751953Y622393D01*
X9752270Y620808D01*
X9752693Y619434D01*
X9753116Y618060D01*
X9753538Y616793D01*
X9753961Y615736D01*
X9754489Y614785D01*
X9754912Y613940D01*
X9755335Y613200D01*
X9755757Y612672D01*
X9756074Y612249D01*
X9756286Y611932D01*
X9756391Y611721D01*
X9756497Y611615D01*
X9757448Y610664D01*
X9758399Y609819D01*
X9759455Y609079D01*
X9760512Y608445D01*
X9762520Y607494D01*
X9764527Y606860D01*
X9766218Y606437D01*
X9766958Y606332D01*
X9767486Y606226D01*
X9768014Y606120D01*
X9768754D01*
X9770128Y606226D01*
X9771395Y606332D01*
X9773720Y606966D01*
X9775833Y607811D01*
X9777630Y608868D01*
X9779003Y609924D01*
X9780166Y610770D01*
X9780483Y611087D01*
X9780800Y611404D01*
X9780905Y611509D01*
X9781011Y611615D01*
X9781856Y612672D01*
X9782596Y613940D01*
X9783864Y616476D01*
X9784709Y619223D01*
X9785237Y621759D01*
X9785449Y623027D01*
X9785660Y624189D01*
X9785766Y625140D01*
Y626091D01*
X9785871Y626725D01*
Y627359D01*
Y627676D01*
Y627782D01*
X9785766Y629684D01*
X9785660Y631480D01*
X9785449Y633170D01*
X9785132Y634755D01*
X9784709Y636235D01*
X9784287Y637503D01*
X9783864Y638771D01*
X9783441Y639827D01*
X9783019Y640778D01*
X9782596Y641624D01*
X9782173Y642363D01*
X9781751Y642892D01*
X9781434Y643314D01*
X9781222Y643737D01*
X9781011Y643843D01*
Y643948D01*
X9780060Y644899D01*
X9779003Y645850D01*
X9778052Y646590D01*
X9776996Y647224D01*
X9774988Y648175D01*
X9772980Y648809D01*
X9771290Y649231D01*
X9770550Y649337D01*
X9769916Y649443D01*
X9769494Y649548D01*
D02*
G37*
G36*
X9595676D02*
X9594937D01*
X9593563Y649443D01*
X9592295Y649337D01*
X9589970Y648703D01*
X9587857Y647752D01*
X9586061Y646801D01*
X9584582Y645744D01*
X9583525Y644793D01*
X9583208Y644476D01*
X9582891Y644159D01*
X9582785Y644054D01*
X9582680Y643948D01*
X9581834Y642892D01*
X9580989Y641624D01*
X9579827Y639088D01*
X9578876Y636446D01*
X9578347Y633804D01*
X9578136Y632642D01*
X9577925Y631480D01*
X9577819Y630529D01*
Y629578D01*
X9577713Y628944D01*
Y628310D01*
Y627993D01*
Y627887D01*
Y625985D01*
X9577925Y624083D01*
X9578136Y622393D01*
X9578453Y620808D01*
X9578876Y619434D01*
X9579298Y618060D01*
X9579721Y616793D01*
X9580144Y615736D01*
X9580672Y614785D01*
X9581095Y613940D01*
X9581517Y613200D01*
X9581940Y612672D01*
X9582257Y612249D01*
X9582468Y611932D01*
X9582574Y611721D01*
X9582680Y611615D01*
X9583631Y610664D01*
X9584582Y609819D01*
X9585638Y609079D01*
X9586695Y608445D01*
X9588702Y607494D01*
X9590710Y606860D01*
X9592401Y606437D01*
X9593140Y606332D01*
X9593669Y606226D01*
X9594197Y606120D01*
X9594937D01*
X9596310Y606226D01*
X9597578Y606332D01*
X9599903Y606966D01*
X9602016Y607811D01*
X9603812Y608868D01*
X9605186Y609924D01*
X9606348Y610770D01*
X9606665Y611087D01*
X9606982Y611404D01*
X9607088Y611509D01*
X9607194Y611615D01*
X9608039Y612672D01*
X9608779Y613940D01*
X9610047Y616476D01*
X9610892Y619223D01*
X9611420Y621759D01*
X9611632Y623027D01*
X9611843Y624189D01*
X9611949Y625140D01*
Y626091D01*
X9612054Y626725D01*
Y627359D01*
Y627676D01*
Y627782D01*
X9611949Y629684D01*
X9611843Y631480D01*
X9611632Y633170D01*
X9611315Y634755D01*
X9610892Y636235D01*
X9610469Y637503D01*
X9610047Y638771D01*
X9609624Y639827D01*
X9609201Y640778D01*
X9608779Y641624D01*
X9608356Y642363D01*
X9607933Y642892D01*
X9607616Y643314D01*
X9607405Y643737D01*
X9607194Y643843D01*
Y643948D01*
X9606243Y644899D01*
X9605186Y645850D01*
X9604235Y646590D01*
X9603178Y647224D01*
X9601171Y648175D01*
X9599163Y648809D01*
X9597473Y649231D01*
X9596733Y649337D01*
X9596099Y649443D01*
X9595676Y649548D01*
D02*
G37*
%LPD*%
D17*
X5939317Y3486280D02*
D03*
Y3636279D02*
D03*
X7221290Y4350300D02*
D03*
Y4200300D02*
D03*
X7057401Y4350300D02*
D03*
Y4200300D02*
D03*
X7030630Y6633433D02*
D03*
Y6483433D02*
D03*
X6120079Y3436029D02*
D03*
Y3586029D02*
D03*
X6295079Y3436279D02*
D03*
Y3586279D02*
D03*
X6294954Y3249999D02*
D03*
Y3099999D02*
D03*
D18*
X6558079Y5277053D02*
D03*
X6468079D02*
D03*
X6535079Y3636279D02*
D03*
X6445079D02*
D03*
X3804401Y4801800D02*
D03*
X3894401D02*
D03*
D19*
X5150941Y4357802D02*
D03*
X5000941D02*
D03*
X6095079Y5330945D02*
D03*
X6245079D02*
D03*
X7197540Y4990945D02*
D03*
X7047540D02*
D03*
X6618079Y3249999D02*
D03*
X6468079D02*
D03*
X7154414Y4725770D02*
D03*
X7304414D02*
D03*
X7377577Y3775301D02*
D03*
X7527577D02*
D03*
X7301900Y4550612D02*
D03*
X7151900D02*
D03*
D25*
X5360000Y4822801D02*
D03*
Y4912801D02*
D03*
X7527577Y3627111D02*
D03*
Y3537111D02*
D03*
X7114747Y3435000D02*
D03*
Y3345000D02*
D03*
X5795079Y3636279D02*
D03*
Y3546280D02*
D03*
D28*
X901901Y4876301D02*
D03*
Y4701301D02*
D03*
D31*
X5000941Y4186697D02*
D03*
X5190942D02*
D03*
X5095941Y3986697D02*
D03*
D96*
X7527577Y3345000D02*
D03*
Y3155000D02*
D03*
X7287577D02*
D03*
Y3345000D02*
D03*
X7527577Y3249999D02*
D03*
D97*
X7757576Y4823112D02*
D03*
Y4443112D02*
D03*
X7527576D02*
D03*
Y4823112D02*
D03*
D98*
X7672570Y4995464D02*
D03*
X7622583D02*
D03*
X7592576Y4239323D02*
D03*
X7642564D02*
D03*
D99*
X6740079Y4872801D02*
D03*
Y4822801D02*
D03*
Y4772801D02*
D03*
Y4722801D02*
D03*
Y4672801D02*
D03*
Y4622801D02*
D03*
Y4572801D02*
D03*
Y4522801D02*
D03*
Y4472801D02*
D03*
Y4422801D02*
D03*
Y4372802D02*
D03*
Y4322801D02*
D03*
Y4272801D02*
D03*
Y4222801D02*
D03*
Y4172801D02*
D03*
Y4122802D02*
D03*
X5600079D02*
D03*
Y4172801D02*
D03*
Y4222801D02*
D03*
Y4272801D02*
D03*
Y4322801D02*
D03*
Y4372802D02*
D03*
Y4422801D02*
D03*
Y4472801D02*
D03*
Y4522801D02*
D03*
Y4572801D02*
D03*
Y4622801D02*
D03*
Y4672801D02*
D03*
Y4722801D02*
D03*
Y4772801D02*
D03*
Y4822801D02*
D03*
Y4872801D02*
D03*
D100*
X6545079Y3927801D02*
D03*
X6495079D02*
D03*
X6445079D02*
D03*
X6395079D02*
D03*
X6345079D02*
D03*
X6295079D02*
D03*
X6245079D02*
D03*
X6195079D02*
D03*
X6145079D02*
D03*
X6095079D02*
D03*
X6045079D02*
D03*
X5995079D02*
D03*
X5945079D02*
D03*
X5895079D02*
D03*
X5845079D02*
D03*
X5795079D02*
D03*
Y5067801D02*
D03*
X5845079D02*
D03*
X5895079D02*
D03*
X5945079D02*
D03*
X5995079D02*
D03*
X6045079D02*
D03*
X6095079D02*
D03*
X6145079D02*
D03*
X6195079D02*
D03*
X6245079D02*
D03*
X6295079D02*
D03*
X6345079D02*
D03*
X6395079D02*
D03*
X6445079D02*
D03*
X6495079D02*
D03*
X6545079D02*
D03*
M02*
