G04*
G04 #@! TF.GenerationSoftware,Altium Limited,Altium Designer,25.5.2 (35)*
G04*
G04 Layer_Physical_Order=3*
G04 Layer_Color=16440176*
%FSLAX45Y45*%
%MOMM*%
G71*
G04*
G04 #@! TF.SameCoordinates,4A1FDDFA-50DE-4FE3-89EC-5C8A89288C0E*
G04*
G04*
G04 #@! TF.FilePolarity,Positive*
G04*
G01*
G75*
%ADD80C,1.30000*%
%ADD82C,2.00000*%
%ADD86C,1.00000*%
%ADD88C,1.29500*%
%ADD92C,1.37000*%
%ADD95C,0.50800*%
G36*
X8189776Y8975819D02*
X8200416Y8972538D01*
X8210289Y8967390D01*
X8219069Y8960544D01*
X8226470Y8952224D01*
X8232246Y8942706D01*
X8236209Y8932301D01*
X8238227Y8921351D01*
X8238231Y8915785D01*
X8238643Y8363627D01*
X8238477Y8352277D01*
X8233263Y8329583D01*
X8223406Y8308484D01*
X8209348Y8289923D01*
X8191709Y8274720D01*
X8171276Y8263553D01*
X8148956Y8256918D01*
X8125739Y8255108D01*
X8114201Y8256657D01*
X8113362Y8256605D01*
X8112555Y8256843D01*
X8091227Y8258785D01*
X8088737Y8258521D01*
X8086265Y8258918D01*
X8043501Y8257332D01*
X8040262Y8256563D01*
X8036935Y8256525D01*
X7995059Y8247707D01*
X7991999Y8246399D01*
X7988726Y8245797D01*
X7948954Y8230002D01*
X7946160Y8228194D01*
X7943036Y8227046D01*
X7906520Y8204730D01*
X7904074Y8202474D01*
X7901190Y8200813D01*
X7868991Y8172626D01*
X7866962Y8169987D01*
X7864402Y8167860D01*
X7837452Y8134618D01*
X7835901Y8131673D01*
X7833739Y8129143D01*
X7812820Y8091811D01*
X7811791Y8088646D01*
X7810089Y8085786D01*
X7795808Y8045445D01*
X7795331Y8042152D01*
X7794139Y8039044D01*
X7786909Y7996865D01*
X7786998Y7993537D01*
X7786351Y7990273D01*
X7786383Y7947479D01*
X7787035Y7944216D01*
X7786951Y7940888D01*
X7794244Y7898720D01*
X7795440Y7895614D01*
X7795922Y7892322D01*
X7810264Y7852002D01*
X7811969Y7849144D01*
X7813003Y7845981D01*
X7833977Y7808680D01*
X7836144Y7806152D01*
X7837699Y7803210D01*
X7864699Y7770009D01*
X7867262Y7767886D01*
X7869294Y7765250D01*
X7901536Y7737111D01*
X7904422Y7735454D01*
X7906872Y7733201D01*
X7943420Y7710941D01*
X7946545Y7709798D01*
X7949342Y7707993D01*
X7989138Y7692257D01*
X7992413Y7691660D01*
X7995475Y7690357D01*
X8037363Y7681601D01*
X8040691Y7681568D01*
X8043930Y7680803D01*
X8086697Y7679281D01*
X8089168Y7679682D01*
X8091659Y7679422D01*
X8112984Y7681396D01*
X8113790Y7681635D01*
X8114629Y7681584D01*
X8126166Y7683150D01*
X8149384Y7681375D01*
X8171715Y7674773D01*
X8192164Y7663636D01*
X8209826Y7648460D01*
X8223912Y7629919D01*
X8233799Y7608836D01*
X8239047Y7586148D01*
X8239230Y7574809D01*
X8240630Y5695886D01*
X8125644Y5580900D01*
X7500926D01*
X7234879Y5846947D01*
X6469441D01*
X6170079Y6146309D01*
Y7362717D01*
X5940738Y7592059D01*
X4684866D01*
X4401573Y7308766D01*
Y3640919D01*
X4075615Y3314960D01*
X3529333D01*
X3304400Y3539893D01*
Y5809221D01*
X3323870Y5828690D01*
X3162356Y5990204D01*
X447367D01*
X432394Y5993182D01*
X418290Y5999024D01*
X416345Y6000324D01*
Y7569906D01*
X416345Y7581656D01*
X421315Y7604624D01*
X431031Y7626021D01*
X445053Y7644878D01*
X462746Y7660343D01*
X483309Y7671715D01*
X505814Y7678481D01*
X529240Y7680334D01*
X540884Y7678763D01*
X541723Y7678815D01*
X542529Y7678576D01*
X563856Y7676618D01*
X566346Y7676880D01*
X568818Y7676481D01*
X611583Y7678035D01*
X614822Y7678802D01*
X618150Y7678837D01*
X660032Y7687624D01*
X663094Y7688930D01*
X666367Y7689529D01*
X706151Y7705295D01*
X708946Y7707101D01*
X712071Y7708247D01*
X748603Y7730535D01*
X751052Y7732789D01*
X753936Y7734449D01*
X786157Y7762612D01*
X788187Y7765249D01*
X790748Y7767374D01*
X817724Y7800596D01*
X819277Y7803539D01*
X821441Y7806068D01*
X842388Y7843385D01*
X843419Y7846548D01*
X845123Y7849407D01*
X859434Y7889737D01*
X859914Y7893031D01*
X861108Y7896138D01*
X868369Y7938311D01*
X868283Y7941638D01*
X868932Y7944902D01*
Y7987697D01*
X868283Y7990961D01*
X868369Y7994288D01*
X861108Y8036461D01*
X859914Y8039568D01*
X859434Y8042861D01*
X845123Y8083191D01*
X843419Y8086051D01*
X842388Y8089214D01*
X821441Y8126531D01*
X819277Y8129060D01*
X817724Y8132004D01*
X790749Y8165226D01*
X788187Y8167351D01*
X786157Y8169987D01*
X753937Y8198150D01*
X751051Y8199810D01*
X748603Y8202064D01*
X712071Y8224352D01*
X708946Y8225498D01*
X706151Y8227304D01*
X666367Y8243070D01*
X663093Y8243669D01*
X660032Y8244975D01*
X618150Y8253763D01*
X614822Y8253797D01*
X611584Y8254565D01*
X568818Y8256118D01*
X566347Y8255720D01*
X563857Y8255981D01*
X542530Y8254024D01*
X541724Y8253785D01*
X540885Y8253837D01*
X529240Y8252266D01*
X505814Y8254119D01*
X483310Y8260885D01*
X462747Y8272257D01*
X445053Y8287723D01*
X431031Y8306581D01*
X421316Y8327976D01*
X416345Y8350944D01*
Y8362694D01*
X416345Y8921072D01*
X418695Y8932887D01*
X423305Y8944017D01*
X429998Y8954033D01*
X438516Y8962551D01*
X448532Y8969243D01*
X459662Y8973854D01*
X471476Y8976204D01*
X586077D01*
X591997Y8952783D01*
X559239Y8939214D01*
X529758Y8919516D01*
X504686Y8894444D01*
X484987Y8864962D01*
X471418Y8832205D01*
X464501Y8797429D01*
Y8761972D01*
X471418Y8727196D01*
X484987Y8694439D01*
X504686Y8664957D01*
X529758Y8639885D01*
X559239Y8620187D01*
X591997Y8606618D01*
X626772Y8599701D01*
X662229D01*
X697005Y8606618D01*
X729763Y8620187D01*
X759244Y8639885D01*
X784316Y8664957D01*
X804015Y8694439D01*
X817584Y8727196D01*
X824501Y8761972D01*
Y8797429D01*
X817584Y8832205D01*
X804015Y8864962D01*
X784316Y8894444D01*
X759244Y8919516D01*
X729763Y8939214D01*
X697005Y8952783D01*
X702925Y8976204D01*
X7952077D01*
X7957997Y8952783D01*
X7925239Y8939214D01*
X7895758Y8919516D01*
X7870686Y8894444D01*
X7850987Y8864962D01*
X7837418Y8832205D01*
X7830501Y8797429D01*
Y8761972D01*
X7837418Y8727196D01*
X7850987Y8694439D01*
X7870686Y8664957D01*
X7895758Y8639885D01*
X7925239Y8620187D01*
X7957997Y8606618D01*
X7992773Y8599701D01*
X8028230D01*
X8063005Y8606618D01*
X8095763Y8620187D01*
X8125244Y8639885D01*
X8150316Y8664957D01*
X8170015Y8694439D01*
X8183584Y8727196D01*
X8190501Y8761972D01*
Y8797429D01*
X8183584Y8832205D01*
X8170015Y8864962D01*
X8150316Y8894444D01*
X8125244Y8919516D01*
X8095763Y8939214D01*
X8063005Y8952783D01*
X8068925Y8976204D01*
X8186517D01*
X8189776Y8975819D01*
D02*
G37*
G36*
X5932310Y7278861D02*
Y6169795D01*
X6357585Y5744520D01*
X7114747D01*
X7360023Y5499245D01*
X8078812D01*
X8240897Y5337160D01*
X8244340Y714016D01*
X8244491Y713262D01*
X8244371Y712503D01*
X8245144Y693042D01*
X8245680Y690815D01*
X8245589Y688526D01*
X8251659Y650080D01*
X8252712Y647222D01*
X8253064Y644198D01*
X8265028Y607160D01*
X8266512Y604500D01*
X8267330Y601567D01*
X8284897Y566835D01*
X8286775Y564438D01*
X8288039Y561667D01*
X8310785Y530083D01*
X8313013Y528006D01*
X8314691Y525465D01*
X8342063Y497794D01*
X8344586Y496089D01*
X8346638Y493839D01*
X8377974Y470752D01*
X8380732Y469458D01*
X8383108Y467555D01*
X8417648Y449612D01*
X8419847Y448973D01*
X8421790Y447759D01*
X8440002Y440857D01*
X8440759Y440730D01*
X8441426Y440348D01*
X8450544Y437294D01*
X8466023Y425885D01*
X8477254Y410277D01*
X8483155Y391976D01*
X8483154Y382361D01*
X8483155Y184127D01*
X8476962Y152994D01*
X8464813Y123664D01*
X8447177Y97269D01*
X8433508Y83600D01*
X8427575Y83270D01*
X8413924Y107187D01*
X8423714Y121838D01*
X8437283Y154596D01*
X8444200Y189372D01*
Y224829D01*
X8437283Y259604D01*
X8423714Y292362D01*
X8404015Y321843D01*
X8378943Y346915D01*
X8349462Y366614D01*
X8316704Y380183D01*
X8281928Y387100D01*
X8246471D01*
X8211696Y380183D01*
X8178938Y366614D01*
X8149457Y346915D01*
X8124385Y321843D01*
X8104686Y292362D01*
X8091117Y259604D01*
X8084200Y224829D01*
Y189372D01*
X8091117Y154596D01*
X8104686Y121838D01*
X8124385Y92357D01*
X8149457Y67285D01*
X8155147Y63483D01*
X8147673Y38845D01*
X8108627D01*
X8077493Y45038D01*
X8048164Y57187D01*
X8021770Y74823D01*
X7999323Y97269D01*
X7981686Y123664D01*
X7969538Y152994D01*
X7963345Y184127D01*
Y200000D01*
X7963345Y213225D01*
X7963197Y213968D01*
X7963316Y214715D01*
X7962577Y233960D01*
X7962053Y236152D01*
X7962150Y238404D01*
X7956270Y276443D01*
X7955243Y279259D01*
X7954913Y282237D01*
X7943292Y318932D01*
X7941847Y321557D01*
X7941066Y324451D01*
X7923978Y358940D01*
X7922149Y361314D01*
X7920935Y364054D01*
X7898779Y395530D01*
X7896610Y397596D01*
X7894991Y400119D01*
X7868288Y427841D01*
X7865828Y429552D01*
X7863844Y431798D01*
X7833220Y455116D01*
X7830527Y456432D01*
X7828223Y458348D01*
X7794397Y476716D01*
X7792246Y477384D01*
X7790359Y478617D01*
X7772490Y485805D01*
X7771747Y485945D01*
X7771098Y486335D01*
X7763060Y489216D01*
X7748052Y497365D01*
X7734467Y507710D01*
X7722619Y520010D01*
X7712789Y533975D01*
X7705208Y549277D01*
X7700053Y565556D01*
X7697445Y582434D01*
Y814500D01*
X7697318Y815134D01*
X7697424Y815772D01*
X7696728Y837028D01*
X7696290Y838904D01*
X7696416Y840826D01*
X7690867Y882975D01*
X7690044Y885401D01*
X7689876Y887958D01*
X7678873Y929022D01*
X7677739Y931320D01*
X7677239Y933833D01*
X7660971Y973109D01*
X7659547Y975240D01*
X7658724Y977667D01*
X7637468Y1014483D01*
X7635778Y1016410D01*
X7634644Y1018708D01*
X7608765Y1052435D01*
X7606838Y1054124D01*
X7605415Y1056255D01*
X7575354Y1086315D01*
X7573224Y1087739D01*
X7571534Y1089666D01*
X7537807Y1115545D01*
X7535508Y1116679D01*
X7533582Y1118368D01*
X7496766Y1139624D01*
X7494339Y1140448D01*
X7492208Y1141872D01*
X7452932Y1158140D01*
X7450419Y1158640D01*
X7448121Y1159774D01*
X7407058Y1170777D01*
X7404501Y1170944D01*
X7402074Y1171768D01*
X7359926Y1177317D01*
X7358003Y1177191D01*
X7356127Y1177628D01*
X7334871Y1178324D01*
X7334233Y1178219D01*
X7333599Y1178345D01*
X7183600D01*
X7167726Y1178345D01*
X7136592Y1184538D01*
X7107264Y1196686D01*
X7080869Y1214322D01*
X7058423Y1236769D01*
X7040786Y1263164D01*
X7028637Y1292493D01*
X7022444Y1323626D01*
Y1339499D01*
Y1691238D01*
X7022256Y1692187D01*
X7022398Y1693145D01*
X7021916Y1702947D01*
X7021216Y1705740D01*
Y1708618D01*
X7017392Y1727845D01*
X7015928Y1731379D01*
X7015181Y1735132D01*
X7007680Y1753243D01*
X7005554Y1756424D01*
X7004090Y1759959D01*
X6993199Y1776259D01*
X6990493Y1778964D01*
X6988368Y1782145D01*
X6974506Y1796006D01*
X6971325Y1798132D01*
X6968620Y1800837D01*
X6952320Y1811728D01*
X6948786Y1813192D01*
X6945604Y1815318D01*
X6927493Y1822820D01*
X6923740Y1823566D01*
X6920206Y1825030D01*
X6900980Y1828855D01*
X6898101D01*
X6895307Y1829555D01*
X6885506Y1830036D01*
X6884548Y1829894D01*
X6883599Y1830083D01*
X4920937Y1830083D01*
X4918970Y1831131D01*
X4901048Y1849053D01*
X4900000Y1851020D01*
X4900000Y1961238D01*
X4899849Y1961998D01*
X4899970Y1962763D01*
X4899046Y1986301D01*
X4898507Y1988546D01*
X4898597Y1990853D01*
X4891233Y2037348D01*
X4890171Y2040228D01*
X4889810Y2043276D01*
X4875263Y2088047D01*
X4873763Y2090724D01*
X4872930Y2093679D01*
X4851558Y2135623D01*
X4849658Y2138034D01*
X4848373Y2140820D01*
X4820703Y2178905D01*
X4818449Y2180989D01*
X4816744Y2183540D01*
X4783457Y2216827D01*
X4780905Y2218533D01*
X4778822Y2220786D01*
X4740737Y2248457D01*
X4737950Y2249742D01*
X4735539Y2251642D01*
X4693595Y2273013D01*
X4690641Y2273846D01*
X4687964Y2275346D01*
X4643193Y2289893D01*
X4640145Y2290254D01*
X4637265Y2291316D01*
X4590770Y2298680D01*
X4587703Y2298560D01*
X4584693Y2299159D01*
X4537617D01*
X4534607Y2298560D01*
X4531540Y2298680D01*
X4485044Y2291316D01*
X4482165Y2290254D01*
X4479117Y2289893D01*
X4434346Y2275346D01*
X4431669Y2273846D01*
X4428714Y2273013D01*
X4386770Y2251642D01*
X4384359Y2249741D01*
X4381573Y2248457D01*
X4343488Y2220786D01*
X4341404Y2218533D01*
X4338852Y2216827D01*
X4305565Y2183540D01*
X4303860Y2180989D01*
X4301607Y2178905D01*
X4273936Y2140820D01*
X4272651Y2138033D01*
X4270751Y2135623D01*
X4249380Y2093679D01*
X4248546Y2090724D01*
X4247047Y2088047D01*
X4232500Y2043276D01*
X4232139Y2040228D01*
X4231077Y2037348D01*
X4223712Y1990853D01*
X4223803Y1988545D01*
X4223264Y1986300D01*
X4222340Y1962763D01*
X4222461Y1961998D01*
X4222310Y1961238D01*
Y1850101D01*
X4202293Y1830083D01*
X2417500Y1830083D01*
X2416551Y1829895D01*
X2415593Y1830037D01*
X2395990Y1829073D01*
X2393196Y1828374D01*
X2390318D01*
X2351864Y1820725D01*
X2348330Y1819261D01*
X2344577Y1818514D01*
X2308355Y1803510D01*
X2305174Y1801385D01*
X2301639Y1799921D01*
X2269040Y1778138D01*
X2266334Y1775433D01*
X2263153Y1773307D01*
X2235430Y1745584D01*
X2233305Y1742403D01*
X2230599Y1739698D01*
X2208817Y1707099D01*
X2207352Y1703564D01*
X2205227Y1700382D01*
X2190223Y1664160D01*
X2189477Y1660408D01*
X2188013Y1656873D01*
X2180364Y1618420D01*
Y1615540D01*
X2179664Y1612747D01*
X2178701Y1593144D01*
X2178843Y1592187D01*
X2178655Y1591238D01*
Y200001D01*
X2178654Y184128D01*
X2172461Y152993D01*
X2160313Y123665D01*
X2142677Y97271D01*
X2120229Y74822D01*
X2093835Y57187D01*
X2064506Y45038D01*
X2033373Y38845D01*
X1450000D01*
X1434127Y38845D01*
X1402993Y45038D01*
X1373664Y57187D01*
X1347270Y74822D01*
X1324822Y97270D01*
X1307186Y123665D01*
X1295038Y152993D01*
X1288845Y184128D01*
X1288845Y200000D01*
X1288694Y200760D01*
X1288815Y201526D01*
X1287890Y225063D01*
X1287351Y227308D01*
X1287442Y229615D01*
X1280078Y276111D01*
X1279015Y278991D01*
X1278655Y282038D01*
X1264107Y326810D01*
X1262608Y329487D01*
X1261775Y332441D01*
X1240403Y374385D01*
X1238503Y376795D01*
X1237218Y379583D01*
X1209548Y417667D01*
X1207295Y419750D01*
X1205589Y422303D01*
X1172302Y455590D01*
X1169750Y457295D01*
X1167667Y459549D01*
X1129582Y487219D01*
X1126795Y488504D01*
X1124384Y490404D01*
X1082440Y511775D01*
X1079486Y512609D01*
X1076809Y514108D01*
X1032038Y528655D01*
X1028990Y529016D01*
X1026110Y530078D01*
X979614Y537443D01*
X976548Y537322D01*
X973538Y537921D01*
X926462D01*
X923452Y537322D01*
X920385Y537443D01*
X873890Y530078D01*
X871010Y529016D01*
X867962Y528655D01*
X823191Y514108D01*
X820513Y512608D01*
X817559Y511775D01*
X775615Y490404D01*
X773205Y488504D01*
X770417Y487219D01*
X732333Y459549D01*
X730250Y457296D01*
X727698Y455590D01*
X694410Y422303D01*
X692705Y419751D01*
X690452Y417667D01*
X662781Y379583D01*
X661497Y376796D01*
X659596Y374385D01*
X638225Y332441D01*
X637392Y329487D01*
X635892Y326809D01*
X621345Y282038D01*
X620984Y278991D01*
X619922Y276111D01*
X612558Y229615D01*
X612648Y227308D01*
X612109Y225063D01*
X611185Y201525D01*
X611306Y200761D01*
X611155Y200001D01*
X611154Y184128D01*
X604962Y152994D01*
X592813Y123665D01*
X575177Y97270D01*
X552729Y74822D01*
X526336Y57187D01*
X497006Y45038D01*
X465873Y38845D01*
X379879D01*
X372405Y63483D01*
X378244Y67385D01*
X403316Y92457D01*
X423015Y121938D01*
X436584Y154696D01*
X443501Y189472D01*
Y224928D01*
X436584Y259704D01*
X423015Y292462D01*
X403316Y321943D01*
X378244Y347015D01*
X348763Y366714D01*
X316005Y380283D01*
X281230Y387200D01*
X245773D01*
X210997Y380283D01*
X178239Y366714D01*
X148758Y347015D01*
X123686Y321943D01*
X103987Y292462D01*
X90418Y259704D01*
X83501Y224928D01*
Y189472D01*
X90418Y154696D01*
X103987Y121938D01*
X123686Y92457D01*
X138386Y77757D01*
X124430Y56870D01*
X123664Y57187D01*
X97269Y74823D01*
X74823Y97269D01*
X57187Y123664D01*
X45038Y152994D01*
X38845Y184127D01*
Y200000D01*
Y513462D01*
Y529351D01*
X45051Y560517D01*
X57225Y589872D01*
X74896Y616284D01*
X97386Y638736D01*
X123827Y656363D01*
X153202Y668488D01*
X184379Y674642D01*
X200269Y674615D01*
X377434Y674320D01*
X377466Y674327D01*
X377499Y674320D01*
X384904Y675793D01*
X392305Y677253D01*
X392332Y677271D01*
X392364Y677277D01*
X398629Y681463D01*
X404921Y685652D01*
X404940Y685680D01*
X404967Y685698D01*
X409167Y691984D01*
X413363Y698241D01*
X413370Y698273D01*
X413388Y698301D01*
X414862Y705710D01*
X416345Y713102D01*
X416339Y713134D01*
X416345Y713167D01*
Y5378646D01*
X479500Y5441800D01*
X1141800D01*
X1525204Y5825204D01*
X2227987D01*
X2357308Y5695883D01*
Y3255192D01*
X2471957Y3140543D01*
X4159833D01*
X4526651Y3507361D01*
Y7094682D01*
X4832601Y7400632D01*
X5810539D01*
X5932310Y7278861D01*
D02*
G37*
G36*
X9490541Y664341D02*
X9492126Y664236D01*
X9493922Y664024D01*
X9495824Y663813D01*
X9497937Y663496D01*
X9500156Y663073D01*
X9502481Y662545D01*
X9504805Y662017D01*
X9507235Y661277D01*
X9509560Y660326D01*
X9511779Y659375D01*
X9513892Y658213D01*
X9515900Y656839D01*
X9516006Y656734D01*
X9516323Y656522D01*
X9516851Y656100D01*
X9517591Y655466D01*
X9518330Y654620D01*
X9519281Y653775D01*
X9520338Y652613D01*
X9521394Y651345D01*
X9522557Y649971D01*
X9523613Y648386D01*
X9524776Y646590D01*
X9525832Y644793D01*
X9526783Y642786D01*
X9527734Y640567D01*
X9528474Y638242D01*
X9529108Y635812D01*
X9509560Y632114D01*
Y632219D01*
X9509454Y632431D01*
X9509349Y632853D01*
X9509137Y633276D01*
X9508926Y633910D01*
X9508609Y634650D01*
X9507764Y636235D01*
X9506707Y638031D01*
X9505334Y639933D01*
X9503749Y641729D01*
X9501741Y643420D01*
X9501635D01*
X9501530Y643631D01*
X9501213Y643843D01*
X9500684Y644054D01*
X9500156Y644371D01*
X9499522Y644793D01*
X9498677Y645110D01*
X9497831Y645533D01*
X9495824Y646273D01*
X9493394Y647012D01*
X9490646Y647435D01*
X9487582Y647646D01*
X9486314D01*
X9485469Y647541D01*
X9484412Y647435D01*
X9483144Y647224D01*
X9481665Y646907D01*
X9480186Y646590D01*
X9478601Y646167D01*
X9476910Y645639D01*
X9475219Y645005D01*
X9473529Y644159D01*
X9471838Y643209D01*
X9470147Y642152D01*
X9468562Y640884D01*
X9467083Y639405D01*
X9466978Y639299D01*
X9466766Y638982D01*
X9466344Y638559D01*
X9465921Y637820D01*
X9465287Y636974D01*
X9464653Y635918D01*
X9464019Y634755D01*
X9463279Y633276D01*
X9462540Y631691D01*
X9461906Y629895D01*
X9461272Y627887D01*
X9460638Y625668D01*
X9460215Y623344D01*
X9459792Y620808D01*
X9459581Y618060D01*
X9459475Y615102D01*
Y614891D01*
Y614362D01*
X9459581Y613411D01*
Y612249D01*
X9459687Y610770D01*
X9459898Y609185D01*
X9460109Y607283D01*
X9460426Y605275D01*
X9460849Y603268D01*
X9461377Y601049D01*
X9462011Y598935D01*
X9462751Y596716D01*
X9463596Y594603D01*
X9464653Y592595D01*
X9465815Y590694D01*
X9467189Y589003D01*
X9467295Y588897D01*
X9467506Y588686D01*
X9468034Y588158D01*
X9468562Y587629D01*
X9469408Y586995D01*
X9470253Y586256D01*
X9471415Y585516D01*
X9472578Y584671D01*
X9473951Y583825D01*
X9475536Y583086D01*
X9477121Y582346D01*
X9478918Y581712D01*
X9480925Y581184D01*
X9482933Y580761D01*
X9485046Y580444D01*
X9487371Y580338D01*
X9488427D01*
X9488956Y580444D01*
X9489695D01*
X9491280Y580655D01*
X9493182Y580972D01*
X9495190Y581395D01*
X9497409Y581923D01*
X9499733Y582769D01*
X9499839D01*
X9500050Y582874D01*
X9500367Y582980D01*
X9500790Y583191D01*
X9501952Y583720D01*
X9503432Y584459D01*
X9505122Y585305D01*
X9506919Y586256D01*
X9508715Y587312D01*
X9510511Y588580D01*
Y601049D01*
X9488005D01*
Y617532D01*
X9530376D01*
Y578542D01*
X9530270Y578436D01*
X9530059Y578331D01*
X9529742Y578014D01*
X9529214Y577591D01*
X9528580Y577063D01*
X9527840Y576429D01*
X9526889Y575795D01*
X9525832Y575055D01*
X9524564Y574210D01*
X9523296Y573365D01*
X9521817Y572519D01*
X9520127Y571674D01*
X9518436Y570723D01*
X9516534Y569878D01*
X9514526Y568927D01*
X9512413Y568081D01*
X9512307D01*
X9511885Y567870D01*
X9511251Y567659D01*
X9510405Y567342D01*
X9509349Y567025D01*
X9508081Y566602D01*
X9506602Y566285D01*
X9505017Y565862D01*
X9503326Y565440D01*
X9501424Y565017D01*
X9499522Y564595D01*
X9497409Y564278D01*
X9493077Y563749D01*
X9490858Y563644D01*
X9488639Y563538D01*
X9487159D01*
X9486103Y563644D01*
X9484729Y563749D01*
X9483144Y563855D01*
X9481453Y564066D01*
X9479552Y564383D01*
X9477544Y564700D01*
X9475431Y565123D01*
X9473212Y565651D01*
X9470887Y566179D01*
X9468562Y566919D01*
X9466344Y567764D01*
X9464125Y568715D01*
X9461906Y569878D01*
X9461800Y569983D01*
X9461377Y570195D01*
X9460849Y570512D01*
X9460004Y571040D01*
X9459158Y571780D01*
X9457996Y572519D01*
X9456834Y573470D01*
X9455566Y574633D01*
X9454192Y575795D01*
X9452819Y577169D01*
X9451339Y578753D01*
X9449966Y580338D01*
X9448592Y582135D01*
X9447218Y584037D01*
X9446056Y586044D01*
X9444894Y588263D01*
X9444788Y588369D01*
X9444682Y588792D01*
X9444365Y589426D01*
X9444048Y590377D01*
X9443626Y591433D01*
X9443097Y592807D01*
X9442569Y594286D01*
X9442041Y595977D01*
X9441512Y597879D01*
X9440984Y599886D01*
X9440562Y602000D01*
X9440033Y604219D01*
X9439716Y606649D01*
X9439399Y609079D01*
X9439294Y611615D01*
X9439188Y614257D01*
Y614468D01*
Y614891D01*
Y615736D01*
X9439294Y616793D01*
X9439399Y618166D01*
X9439505Y619751D01*
X9439716Y621442D01*
X9440033Y623344D01*
X9440350Y625351D01*
X9440773Y627570D01*
X9441301Y629789D01*
X9441829Y632114D01*
X9442569Y634438D01*
X9443414Y636763D01*
X9444365Y639088D01*
X9445528Y641307D01*
X9445633Y641412D01*
X9445845Y641835D01*
X9446162Y642469D01*
X9446690Y643314D01*
X9447430Y644265D01*
X9448169Y645427D01*
X9449120Y646695D01*
X9450283Y648069D01*
X9451445Y649548D01*
X9452924Y651028D01*
X9454403Y652507D01*
X9456094Y654092D01*
X9457890Y655571D01*
X9459898Y656945D01*
X9462011Y658318D01*
X9464230Y659586D01*
X9464336Y659692D01*
X9464653Y659798D01*
X9465181Y660009D01*
X9465921Y660326D01*
X9466872Y660749D01*
X9467928Y661171D01*
X9469196Y661594D01*
X9470676Y662017D01*
X9472261Y662439D01*
X9474057Y662862D01*
X9475959Y663285D01*
X9478072Y663707D01*
X9480291Y664024D01*
X9482616Y664236D01*
X9485046Y664447D01*
X9489378D01*
X9490541Y664341D01*
D02*
G37*
G36*
X9626107Y565334D02*
X9606454D01*
X9566936Y629367D01*
Y565334D01*
X9548761D01*
Y662862D01*
X9567781D01*
X9607933Y597350D01*
Y662862D01*
X9626107D01*
Y565334D01*
D02*
G37*
G36*
X9775728Y663073D02*
X9776890Y662968D01*
X9778264Y662756D01*
X9779849Y662545D01*
X9781539Y662228D01*
X9783336Y661805D01*
X9785132Y661277D01*
X9787034Y660643D01*
X9788936Y659903D01*
X9790732Y658952D01*
X9792528Y657896D01*
X9794325Y656734D01*
X9795910Y655360D01*
X9796015Y655254D01*
X9796227Y655043D01*
X9796649Y654515D01*
X9797178Y653986D01*
X9797811Y653247D01*
X9798551Y652296D01*
X9799291Y651239D01*
X9800136Y649971D01*
X9800876Y648703D01*
X9801615Y647224D01*
X9802355Y645639D01*
X9802989Y643948D01*
X9803517Y642046D01*
X9803940Y640144D01*
X9804151Y638137D01*
X9804257Y636023D01*
Y635918D01*
Y635706D01*
Y635389D01*
Y634861D01*
X9804151Y634333D01*
Y633593D01*
X9803940Y632008D01*
X9803623Y630001D01*
X9803200Y627887D01*
X9802672Y625668D01*
X9801827Y623449D01*
Y623344D01*
X9801721Y623238D01*
X9801615Y622815D01*
X9801404Y622393D01*
X9801087Y621864D01*
X9800770Y621230D01*
X9800030Y619645D01*
X9798974Y617849D01*
X9797706Y615736D01*
X9796121Y613411D01*
X9794325Y610981D01*
X9794113Y610770D01*
X9793691Y610136D01*
X9792740Y609185D01*
X9791577Y607811D01*
X9790732Y606966D01*
X9789887Y606015D01*
X9788830Y605064D01*
X9787773Y603902D01*
X9786505Y602739D01*
X9785132Y601366D01*
X9783653Y599992D01*
X9782068Y598513D01*
X9781962Y598407D01*
X9781645Y598196D01*
X9781222Y597773D01*
X9780694Y597245D01*
X9779954Y596611D01*
X9779109Y595871D01*
X9777313Y594180D01*
X9775411Y592384D01*
X9773614Y590588D01*
X9772769Y589743D01*
X9772029Y589003D01*
X9771395Y588263D01*
X9770867Y587735D01*
X9770762Y587629D01*
X9770445Y587312D01*
X9770022Y586784D01*
X9769494Y586150D01*
X9768965Y585305D01*
X9768331Y584459D01*
X9767063Y582663D01*
X9804257D01*
Y565334D01*
X9738745D01*
Y565440D01*
X9738851Y565757D01*
Y566285D01*
X9738957Y567025D01*
X9739168Y567870D01*
X9739379Y568927D01*
X9739591Y570089D01*
X9739908Y571357D01*
X9740753Y574210D01*
X9741915Y577380D01*
X9743289Y580655D01*
X9745085Y583931D01*
X9745191Y584037D01*
X9745296Y584354D01*
X9745719Y584882D01*
X9746142Y585516D01*
X9746776Y586361D01*
X9747621Y587524D01*
X9748572Y588686D01*
X9749734Y590165D01*
X9751002Y591750D01*
X9752587Y593441D01*
X9754278Y595448D01*
X9756180Y597456D01*
X9758293Y599675D01*
X9760723Y602105D01*
X9763259Y604641D01*
X9766112Y607283D01*
X9766218Y607388D01*
X9766641Y607811D01*
X9767275Y608445D01*
X9768120Y609185D01*
X9769177Y610136D01*
X9770233Y611192D01*
X9771501Y612460D01*
X9772769Y613728D01*
X9775516Y616370D01*
X9778052Y619011D01*
X9779109Y620174D01*
X9780166Y621336D01*
X9781011Y622393D01*
X9781645Y623238D01*
Y623344D01*
X9781856Y623449D01*
X9781962Y623766D01*
X9782279Y624189D01*
X9782913Y625351D01*
X9783653Y626831D01*
X9784287Y628521D01*
X9784920Y630423D01*
X9785343Y632536D01*
X9785554Y634650D01*
Y634755D01*
Y634967D01*
Y635284D01*
Y635706D01*
X9785343Y636763D01*
X9785132Y638242D01*
X9784709Y639722D01*
X9784181Y641307D01*
X9783336Y642892D01*
X9782173Y644265D01*
X9782068Y644371D01*
X9781539Y644793D01*
X9780800Y645322D01*
X9779743Y645956D01*
X9778369Y646590D01*
X9776784Y647118D01*
X9774988Y647541D01*
X9772875Y647646D01*
X9771924D01*
X9770867Y647435D01*
X9769494Y647224D01*
X9768014Y646801D01*
X9766429Y646167D01*
X9764844Y645216D01*
X9763471Y644054D01*
X9763365Y643843D01*
X9762942Y643420D01*
X9762414Y642575D01*
X9761674Y641307D01*
X9761040Y639722D01*
X9760406Y637714D01*
X9759878Y635284D01*
X9759667Y633910D01*
X9759561Y632431D01*
X9740964Y634227D01*
Y634438D01*
X9741070Y634861D01*
X9741176Y635706D01*
X9741387Y636763D01*
X9741598Y638031D01*
X9741915Y639510D01*
X9742338Y641095D01*
X9742866Y642786D01*
X9743500Y644582D01*
X9744240Y646378D01*
X9745085Y648280D01*
X9746036Y650077D01*
X9747093Y651873D01*
X9748361Y653564D01*
X9749734Y655043D01*
X9751319Y656417D01*
X9751425Y656522D01*
X9751742Y656734D01*
X9752270Y657051D01*
X9752904Y657473D01*
X9753750Y658001D01*
X9754806Y658530D01*
X9755969Y659164D01*
X9757342Y659798D01*
X9758927Y660432D01*
X9760512Y661066D01*
X9762308Y661594D01*
X9764316Y662122D01*
X9766324Y662545D01*
X9768543Y662862D01*
X9770867Y663073D01*
X9773297Y663179D01*
X9774671D01*
X9775728Y663073D01*
D02*
G37*
G36*
X9685913Y662756D02*
X9688344D01*
X9689717Y662651D01*
X9692676Y662439D01*
X9695740Y662017D01*
X9698699Y661594D01*
X9700072Y661277D01*
X9701340Y660960D01*
X9701446D01*
X9701763Y660854D01*
X9702186Y660643D01*
X9702820Y660432D01*
X9703559Y660220D01*
X9704405Y659798D01*
X9706412Y658847D01*
X9708737Y657684D01*
X9711167Y656100D01*
X9713597Y654198D01*
X9716028Y651979D01*
X9716133Y651873D01*
X9716345Y651662D01*
X9716662Y651345D01*
X9717084Y650816D01*
X9717507Y650182D01*
X9718141Y649443D01*
X9718775Y648597D01*
X9719514Y647541D01*
X9720254Y646484D01*
X9720994Y645322D01*
X9722579Y642575D01*
X9724058Y639510D01*
X9725326Y636129D01*
Y636023D01*
X9725432Y635706D01*
X9725643Y635178D01*
X9725854Y634438D01*
X9726066Y633593D01*
X9726383Y632431D01*
X9726700Y631163D01*
X9727017Y629789D01*
X9727228Y628204D01*
X9727545Y626408D01*
X9727862Y624506D01*
X9728073Y622498D01*
X9728285Y620279D01*
X9728496Y618060D01*
X9728602Y615630D01*
Y613094D01*
Y612989D01*
Y612566D01*
Y611932D01*
Y611087D01*
X9728496Y610030D01*
Y608868D01*
X9728390Y607494D01*
X9728179Y606015D01*
X9727862Y602739D01*
X9727334Y599252D01*
X9726594Y595765D01*
X9725537Y592384D01*
Y592278D01*
X9725326Y591961D01*
X9725115Y591327D01*
X9724903Y590588D01*
X9724481Y589743D01*
X9724058Y588686D01*
X9723530Y587524D01*
X9722896Y586256D01*
X9721416Y583508D01*
X9719620Y580655D01*
X9717507Y577803D01*
X9715077Y575161D01*
X9714971Y575055D01*
X9714865Y574950D01*
X9714548Y574633D01*
X9714126Y574316D01*
X9713597Y573893D01*
X9713069Y573365D01*
X9712329Y572836D01*
X9711484Y572308D01*
X9709476Y571040D01*
X9707152Y569772D01*
X9704405Y568504D01*
X9701340Y567342D01*
X9701235D01*
X9701023Y567236D01*
X9700706Y567130D01*
X9700178Y567025D01*
X9699544Y566919D01*
X9698699Y566708D01*
X9697748Y566496D01*
X9696691Y566391D01*
X9695529Y566179D01*
X9694261Y565968D01*
X9692781Y565757D01*
X9691197Y565651D01*
X9689612Y565545D01*
X9687815Y565440D01*
X9685913Y565334D01*
X9646923D01*
Y662862D01*
X9684857D01*
X9685913Y662756D01*
D02*
G37*
%LPC*%
G36*
X6527101Y8907410D02*
Y8826300D01*
X6608210D01*
X6601902Y8849844D01*
X6589540Y8871256D01*
X6572057Y8888739D01*
X6550645Y8901101D01*
X6527101Y8907410D01*
D02*
G37*
G36*
X6501701D02*
X6478157Y8901101D01*
X6456745Y8888739D01*
X6439262Y8871256D01*
X6426900Y8849844D01*
X6420591Y8826300D01*
X6501701D01*
Y8907410D01*
D02*
G37*
G36*
X6273101D02*
Y8826300D01*
X6354210D01*
X6347902Y8849844D01*
X6335540Y8871256D01*
X6318057Y8888739D01*
X6296645Y8901101D01*
X6273101Y8907410D01*
D02*
G37*
G36*
X6247701D02*
X6224157Y8901101D01*
X6202745Y8888739D01*
X6185262Y8871256D01*
X6172900Y8849844D01*
X6166591Y8826300D01*
X6247701D01*
Y8907410D01*
D02*
G37*
G36*
X5003101D02*
Y8826300D01*
X5084210D01*
X5077902Y8849844D01*
X5065540Y8871256D01*
X5048057Y8888739D01*
X5026645Y8901101D01*
X5003101Y8907410D01*
D02*
G37*
G36*
X4977701D02*
X4954157Y8901101D01*
X4932745Y8888739D01*
X4915262Y8871256D01*
X4902900Y8849844D01*
X4896591Y8826300D01*
X4977701D01*
Y8907410D01*
D02*
G37*
G36*
X4749101D02*
Y8826300D01*
X4830210D01*
X4823902Y8849844D01*
X4811540Y8871256D01*
X4794057Y8888739D01*
X4772645Y8901101D01*
X4749101Y8907410D01*
D02*
G37*
G36*
X4723701D02*
X4700157Y8901101D01*
X4678745Y8888739D01*
X4661262Y8871256D01*
X4648900Y8849844D01*
X4642591Y8826300D01*
X4723701D01*
Y8907410D01*
D02*
G37*
G36*
X3479101D02*
Y8826300D01*
X3560210D01*
X3553902Y8849844D01*
X3541540Y8871256D01*
X3524057Y8888739D01*
X3502645Y8901101D01*
X3479101Y8907410D01*
D02*
G37*
G36*
X3453701D02*
X3430157Y8901101D01*
X3408745Y8888739D01*
X3391262Y8871256D01*
X3378900Y8849844D01*
X3372591Y8826300D01*
X3453701D01*
Y8907410D01*
D02*
G37*
G36*
X3225101D02*
Y8826300D01*
X3306210D01*
X3299902Y8849844D01*
X3287540Y8871256D01*
X3270057Y8888739D01*
X3248645Y8901101D01*
X3225101Y8907410D01*
D02*
G37*
G36*
X3199701D02*
X3176157Y8901101D01*
X3154745Y8888739D01*
X3137262Y8871256D01*
X3124900Y8849844D01*
X3118591Y8826300D01*
X3199701D01*
Y8907410D01*
D02*
G37*
G36*
X1955101D02*
Y8826300D01*
X2036210D01*
X2029902Y8849844D01*
X2017540Y8871256D01*
X2000057Y8888739D01*
X1978645Y8901101D01*
X1955101Y8907410D01*
D02*
G37*
G36*
X1929701D02*
X1906157Y8901101D01*
X1884745Y8888739D01*
X1867262Y8871256D01*
X1854900Y8849844D01*
X1848591Y8826300D01*
X1929701D01*
Y8907410D01*
D02*
G37*
G36*
X1701101D02*
Y8826300D01*
X1782210D01*
X1775902Y8849844D01*
X1763540Y8871256D01*
X1746057Y8888739D01*
X1724645Y8901101D01*
X1701101Y8907410D01*
D02*
G37*
G36*
X1675701D02*
X1652157Y8901101D01*
X1630745Y8888739D01*
X1613262Y8871256D01*
X1600900Y8849844D01*
X1594591Y8826300D01*
X1675701D01*
Y8907410D01*
D02*
G37*
G36*
X7542052Y8902100D02*
X7518750D01*
X7496241Y8896069D01*
X7476060Y8884418D01*
X7459583Y8867940D01*
X7447932Y8847760D01*
X7441901Y8825251D01*
Y8801949D01*
X7447932Y8779440D01*
X7459583Y8759260D01*
X7476060Y8742782D01*
X7496241Y8731131D01*
X7518750Y8725100D01*
X7542052D01*
X7564560Y8731131D01*
X7584741Y8742782D01*
X7601218Y8759260D01*
X7612870Y8779440D01*
X7618901Y8801949D01*
Y8825251D01*
X7612870Y8847760D01*
X7601218Y8867940D01*
X7584741Y8884418D01*
X7564560Y8896069D01*
X7542052Y8902100D01*
D02*
G37*
G36*
X7288052D02*
X7264750D01*
X7242241Y8896069D01*
X7222060Y8884418D01*
X7205583Y8867940D01*
X7193932Y8847760D01*
X7187901Y8825251D01*
Y8801949D01*
X7193932Y8779440D01*
X7205583Y8759260D01*
X7222060Y8742782D01*
X7242241Y8731131D01*
X7264750Y8725100D01*
X7288052D01*
X7310560Y8731131D01*
X7330741Y8742782D01*
X7347218Y8759260D01*
X7358870Y8779440D01*
X7364901Y8801949D01*
Y8825251D01*
X7358870Y8847760D01*
X7347218Y8867940D01*
X7330741Y8884418D01*
X7310560Y8896069D01*
X7288052Y8902100D01*
D02*
G37*
G36*
X7034052D02*
X7010750D01*
X6988241Y8896069D01*
X6968060Y8884418D01*
X6951583Y8867940D01*
X6939932Y8847760D01*
X6933901Y8825251D01*
Y8801949D01*
X6939932Y8779440D01*
X6951583Y8759260D01*
X6968060Y8742782D01*
X6988241Y8731131D01*
X7010750Y8725100D01*
X7034052D01*
X7056560Y8731131D01*
X7076741Y8742782D01*
X7093218Y8759260D01*
X7104870Y8779440D01*
X7110901Y8801949D01*
Y8825251D01*
X7104870Y8847760D01*
X7093218Y8867940D01*
X7076741Y8884418D01*
X7056560Y8896069D01*
X7034052Y8902100D01*
D02*
G37*
G36*
X6780052D02*
X6756750D01*
X6734241Y8896069D01*
X6714060Y8884418D01*
X6697583Y8867940D01*
X6685932Y8847760D01*
X6679901Y8825251D01*
Y8801949D01*
X6685932Y8779440D01*
X6697583Y8759260D01*
X6714060Y8742782D01*
X6734241Y8731131D01*
X6756750Y8725100D01*
X6780052D01*
X6802560Y8731131D01*
X6822741Y8742782D01*
X6839218Y8759260D01*
X6850870Y8779440D01*
X6856901Y8801949D01*
Y8825251D01*
X6850870Y8847760D01*
X6839218Y8867940D01*
X6822741Y8884418D01*
X6802560Y8896069D01*
X6780052Y8902100D01*
D02*
G37*
G36*
X6018052D02*
X5994750D01*
X5972241Y8896069D01*
X5952060Y8884418D01*
X5935583Y8867940D01*
X5923932Y8847760D01*
X5917901Y8825251D01*
Y8801949D01*
X5923932Y8779440D01*
X5935583Y8759260D01*
X5952060Y8742782D01*
X5972241Y8731131D01*
X5994750Y8725100D01*
X6018052D01*
X6040560Y8731131D01*
X6060741Y8742782D01*
X6077218Y8759260D01*
X6088870Y8779440D01*
X6094901Y8801949D01*
Y8825251D01*
X6088870Y8847760D01*
X6077218Y8867940D01*
X6060741Y8884418D01*
X6040560Y8896069D01*
X6018052Y8902100D01*
D02*
G37*
G36*
X5764052D02*
X5740750D01*
X5718241Y8896069D01*
X5698060Y8884418D01*
X5681583Y8867940D01*
X5669932Y8847760D01*
X5663901Y8825251D01*
Y8801949D01*
X5669932Y8779440D01*
X5681583Y8759260D01*
X5698060Y8742782D01*
X5718241Y8731131D01*
X5740750Y8725100D01*
X5764052D01*
X5786560Y8731131D01*
X5806741Y8742782D01*
X5823218Y8759260D01*
X5834870Y8779440D01*
X5840901Y8801949D01*
Y8825251D01*
X5834870Y8847760D01*
X5823218Y8867940D01*
X5806741Y8884418D01*
X5786560Y8896069D01*
X5764052Y8902100D01*
D02*
G37*
G36*
X5510052D02*
X5486750D01*
X5464241Y8896069D01*
X5444060Y8884418D01*
X5427583Y8867940D01*
X5415932Y8847760D01*
X5409901Y8825251D01*
Y8801949D01*
X5415932Y8779440D01*
X5427583Y8759260D01*
X5444060Y8742782D01*
X5464241Y8731131D01*
X5486750Y8725100D01*
X5510052D01*
X5532560Y8731131D01*
X5552741Y8742782D01*
X5569218Y8759260D01*
X5580870Y8779440D01*
X5586901Y8801949D01*
Y8825251D01*
X5580870Y8847760D01*
X5569218Y8867940D01*
X5552741Y8884418D01*
X5532560Y8896069D01*
X5510052Y8902100D01*
D02*
G37*
G36*
X5256052D02*
X5232750D01*
X5210241Y8896069D01*
X5190060Y8884418D01*
X5173583Y8867940D01*
X5161932Y8847760D01*
X5155901Y8825251D01*
Y8801949D01*
X5161932Y8779440D01*
X5173583Y8759260D01*
X5190060Y8742782D01*
X5210241Y8731131D01*
X5232750Y8725100D01*
X5256052D01*
X5278560Y8731131D01*
X5298741Y8742782D01*
X5315218Y8759260D01*
X5326870Y8779440D01*
X5332901Y8801949D01*
Y8825251D01*
X5326870Y8847760D01*
X5315218Y8867940D01*
X5298741Y8884418D01*
X5278560Y8896069D01*
X5256052Y8902100D01*
D02*
G37*
G36*
X4494052D02*
X4470750D01*
X4448241Y8896069D01*
X4428060Y8884418D01*
X4411583Y8867940D01*
X4399932Y8847760D01*
X4393901Y8825251D01*
Y8801949D01*
X4399932Y8779440D01*
X4411583Y8759260D01*
X4428060Y8742782D01*
X4448241Y8731131D01*
X4470750Y8725100D01*
X4494052D01*
X4516560Y8731131D01*
X4536741Y8742782D01*
X4553218Y8759260D01*
X4564870Y8779440D01*
X4570901Y8801949D01*
Y8825251D01*
X4564870Y8847760D01*
X4553218Y8867940D01*
X4536741Y8884418D01*
X4516560Y8896069D01*
X4494052Y8902100D01*
D02*
G37*
G36*
X4240052D02*
X4216750D01*
X4194241Y8896069D01*
X4174060Y8884418D01*
X4157583Y8867940D01*
X4145932Y8847760D01*
X4139901Y8825251D01*
Y8801949D01*
X4145932Y8779440D01*
X4157583Y8759260D01*
X4174060Y8742782D01*
X4194241Y8731131D01*
X4216750Y8725100D01*
X4240052D01*
X4262560Y8731131D01*
X4282741Y8742782D01*
X4299218Y8759260D01*
X4310870Y8779440D01*
X4316901Y8801949D01*
Y8825251D01*
X4310870Y8847760D01*
X4299218Y8867940D01*
X4282741Y8884418D01*
X4262560Y8896069D01*
X4240052Y8902100D01*
D02*
G37*
G36*
X3986052D02*
X3962750D01*
X3940241Y8896069D01*
X3920060Y8884418D01*
X3903583Y8867940D01*
X3891932Y8847760D01*
X3885901Y8825251D01*
Y8801949D01*
X3891932Y8779440D01*
X3903583Y8759260D01*
X3920060Y8742782D01*
X3940241Y8731131D01*
X3962750Y8725100D01*
X3986052D01*
X4008560Y8731131D01*
X4028741Y8742782D01*
X4045218Y8759260D01*
X4056870Y8779440D01*
X4062901Y8801949D01*
Y8825251D01*
X4056870Y8847760D01*
X4045218Y8867940D01*
X4028741Y8884418D01*
X4008560Y8896069D01*
X3986052Y8902100D01*
D02*
G37*
G36*
X3732052D02*
X3708750D01*
X3686241Y8896069D01*
X3666060Y8884418D01*
X3649583Y8867940D01*
X3637932Y8847760D01*
X3631901Y8825251D01*
Y8801949D01*
X3637932Y8779440D01*
X3649583Y8759260D01*
X3666060Y8742782D01*
X3686241Y8731131D01*
X3708750Y8725100D01*
X3732052D01*
X3754560Y8731131D01*
X3774741Y8742782D01*
X3791218Y8759260D01*
X3802870Y8779440D01*
X3808901Y8801949D01*
Y8825251D01*
X3802870Y8847760D01*
X3791218Y8867940D01*
X3774741Y8884418D01*
X3754560Y8896069D01*
X3732052Y8902100D01*
D02*
G37*
G36*
X2970052D02*
X2946750D01*
X2924241Y8896069D01*
X2904060Y8884418D01*
X2887583Y8867940D01*
X2875932Y8847760D01*
X2869901Y8825251D01*
Y8801949D01*
X2875932Y8779440D01*
X2887583Y8759260D01*
X2904060Y8742782D01*
X2924241Y8731131D01*
X2946750Y8725100D01*
X2970052D01*
X2992560Y8731131D01*
X3012741Y8742782D01*
X3029218Y8759260D01*
X3040870Y8779440D01*
X3046901Y8801949D01*
Y8825251D01*
X3040870Y8847760D01*
X3029218Y8867940D01*
X3012741Y8884418D01*
X2992560Y8896069D01*
X2970052Y8902100D01*
D02*
G37*
G36*
X2716052D02*
X2692750D01*
X2670241Y8896069D01*
X2650060Y8884418D01*
X2633583Y8867940D01*
X2621932Y8847760D01*
X2615901Y8825251D01*
Y8801949D01*
X2621932Y8779440D01*
X2633583Y8759260D01*
X2650060Y8742782D01*
X2670241Y8731131D01*
X2692750Y8725100D01*
X2716052D01*
X2738560Y8731131D01*
X2758741Y8742782D01*
X2775218Y8759260D01*
X2786870Y8779440D01*
X2792901Y8801949D01*
Y8825251D01*
X2786870Y8847760D01*
X2775218Y8867940D01*
X2758741Y8884418D01*
X2738560Y8896069D01*
X2716052Y8902100D01*
D02*
G37*
G36*
X2462052D02*
X2438750D01*
X2416241Y8896069D01*
X2396060Y8884418D01*
X2379583Y8867940D01*
X2367932Y8847760D01*
X2361901Y8825251D01*
Y8801949D01*
X2367932Y8779440D01*
X2379583Y8759260D01*
X2396060Y8742782D01*
X2416241Y8731131D01*
X2438750Y8725100D01*
X2462052D01*
X2484560Y8731131D01*
X2504741Y8742782D01*
X2521218Y8759260D01*
X2532870Y8779440D01*
X2538901Y8801949D01*
Y8825251D01*
X2532870Y8847760D01*
X2521218Y8867940D01*
X2504741Y8884418D01*
X2484560Y8896069D01*
X2462052Y8902100D01*
D02*
G37*
G36*
X2208052D02*
X2184750D01*
X2162241Y8896069D01*
X2142060Y8884418D01*
X2125583Y8867940D01*
X2113932Y8847760D01*
X2107901Y8825251D01*
Y8801949D01*
X2113932Y8779440D01*
X2125583Y8759260D01*
X2142060Y8742782D01*
X2162241Y8731131D01*
X2184750Y8725100D01*
X2208052D01*
X2230560Y8731131D01*
X2250741Y8742782D01*
X2267218Y8759260D01*
X2278870Y8779440D01*
X2284901Y8801949D01*
Y8825251D01*
X2278870Y8847760D01*
X2267218Y8867940D01*
X2250741Y8884418D01*
X2230560Y8896069D01*
X2208052Y8902100D01*
D02*
G37*
G36*
X1446052D02*
X1422750D01*
X1400241Y8896069D01*
X1380060Y8884418D01*
X1363583Y8867940D01*
X1351932Y8847760D01*
X1345901Y8825251D01*
Y8801949D01*
X1351932Y8779440D01*
X1363583Y8759260D01*
X1380060Y8742782D01*
X1400241Y8731131D01*
X1422750Y8725100D01*
X1446052D01*
X1468560Y8731131D01*
X1488741Y8742782D01*
X1505218Y8759260D01*
X1516870Y8779440D01*
X1522901Y8801949D01*
Y8825251D01*
X1516870Y8847760D01*
X1505218Y8867940D01*
X1488741Y8884418D01*
X1468560Y8896069D01*
X1446052Y8902100D01*
D02*
G37*
G36*
X1192052D02*
X1168750D01*
X1146241Y8896069D01*
X1126060Y8884418D01*
X1109583Y8867940D01*
X1097932Y8847760D01*
X1091901Y8825251D01*
Y8801949D01*
X1097932Y8779440D01*
X1109583Y8759260D01*
X1126060Y8742782D01*
X1146241Y8731131D01*
X1168750Y8725100D01*
X1192052D01*
X1214560Y8731131D01*
X1234741Y8742782D01*
X1251218Y8759260D01*
X1262870Y8779440D01*
X1268901Y8801949D01*
Y8825251D01*
X1262870Y8847760D01*
X1251218Y8867940D01*
X1234741Y8884418D01*
X1214560Y8896069D01*
X1192052Y8902100D01*
D02*
G37*
G36*
X6608210Y8800900D02*
X6527101D01*
Y8719791D01*
X6550645Y8726099D01*
X6572057Y8738461D01*
X6589540Y8755944D01*
X6601902Y8777356D01*
X6608210Y8800900D01*
D02*
G37*
G36*
X6501701D02*
X6420591D01*
X6426900Y8777356D01*
X6439262Y8755944D01*
X6456745Y8738461D01*
X6478157Y8726099D01*
X6501701Y8719791D01*
Y8800900D01*
D02*
G37*
G36*
X6354210D02*
X6273101D01*
Y8719791D01*
X6296645Y8726099D01*
X6318057Y8738461D01*
X6335540Y8755944D01*
X6347902Y8777356D01*
X6354210Y8800900D01*
D02*
G37*
G36*
X6247701D02*
X6166591D01*
X6172900Y8777356D01*
X6185262Y8755944D01*
X6202745Y8738461D01*
X6224157Y8726099D01*
X6247701Y8719791D01*
Y8800900D01*
D02*
G37*
G36*
X5084210D02*
X5003101D01*
Y8719791D01*
X5026645Y8726099D01*
X5048057Y8738461D01*
X5065540Y8755944D01*
X5077902Y8777356D01*
X5084210Y8800900D01*
D02*
G37*
G36*
X4977701D02*
X4896591D01*
X4902900Y8777356D01*
X4915262Y8755944D01*
X4932745Y8738461D01*
X4954157Y8726099D01*
X4977701Y8719791D01*
Y8800900D01*
D02*
G37*
G36*
X4830210D02*
X4749101D01*
Y8719791D01*
X4772645Y8726099D01*
X4794057Y8738461D01*
X4811540Y8755944D01*
X4823902Y8777356D01*
X4830210Y8800900D01*
D02*
G37*
G36*
X4723701D02*
X4642591D01*
X4648900Y8777356D01*
X4661262Y8755944D01*
X4678745Y8738461D01*
X4700157Y8726099D01*
X4723701Y8719791D01*
Y8800900D01*
D02*
G37*
G36*
X3560210D02*
X3479101D01*
Y8719791D01*
X3502645Y8726099D01*
X3524057Y8738461D01*
X3541540Y8755944D01*
X3553902Y8777356D01*
X3560210Y8800900D01*
D02*
G37*
G36*
X3453701D02*
X3372591D01*
X3378900Y8777356D01*
X3391262Y8755944D01*
X3408745Y8738461D01*
X3430157Y8726099D01*
X3453701Y8719791D01*
Y8800900D01*
D02*
G37*
G36*
X3306210D02*
X3225101D01*
Y8719791D01*
X3248645Y8726099D01*
X3270057Y8738461D01*
X3287540Y8755944D01*
X3299902Y8777356D01*
X3306210Y8800900D01*
D02*
G37*
G36*
X3199701D02*
X3118591D01*
X3124900Y8777356D01*
X3137262Y8755944D01*
X3154745Y8738461D01*
X3176157Y8726099D01*
X3199701Y8719791D01*
Y8800900D01*
D02*
G37*
G36*
X2036210D02*
X1955101D01*
Y8719791D01*
X1978645Y8726099D01*
X2000057Y8738461D01*
X2017540Y8755944D01*
X2029902Y8777356D01*
X2036210Y8800900D01*
D02*
G37*
G36*
X1929701D02*
X1848591D01*
X1854900Y8777356D01*
X1867262Y8755944D01*
X1884745Y8738461D01*
X1906157Y8726099D01*
X1929701Y8719791D01*
Y8800900D01*
D02*
G37*
G36*
X1782210D02*
X1701101D01*
Y8719791D01*
X1724645Y8726099D01*
X1746057Y8738461D01*
X1763540Y8755944D01*
X1775902Y8777356D01*
X1782210Y8800900D01*
D02*
G37*
G36*
X1675701D02*
X1594591D01*
X1600900Y8777356D01*
X1613262Y8755944D01*
X1630745Y8738461D01*
X1652157Y8726099D01*
X1675701Y8719791D01*
Y8800900D01*
D02*
G37*
G36*
X6527101Y8653410D02*
Y8572300D01*
X6608210D01*
X6601902Y8595844D01*
X6589540Y8617256D01*
X6572057Y8634739D01*
X6550645Y8647101D01*
X6527101Y8653410D01*
D02*
G37*
G36*
X6501701D02*
X6478157Y8647101D01*
X6456745Y8634739D01*
X6439262Y8617256D01*
X6426900Y8595844D01*
X6420591Y8572300D01*
X6501701D01*
Y8653410D01*
D02*
G37*
G36*
X6273101D02*
Y8572300D01*
X6354210D01*
X6347902Y8595844D01*
X6335540Y8617256D01*
X6318057Y8634739D01*
X6296645Y8647101D01*
X6273101Y8653410D01*
D02*
G37*
G36*
X6247701D02*
X6224157Y8647101D01*
X6202745Y8634739D01*
X6185262Y8617256D01*
X6172900Y8595844D01*
X6166591Y8572300D01*
X6247701D01*
Y8653410D01*
D02*
G37*
G36*
X5003101D02*
Y8572300D01*
X5084210D01*
X5077902Y8595844D01*
X5065540Y8617256D01*
X5048057Y8634739D01*
X5026645Y8647101D01*
X5003101Y8653410D01*
D02*
G37*
G36*
X4977701D02*
X4954157Y8647101D01*
X4932745Y8634739D01*
X4915262Y8617256D01*
X4902900Y8595844D01*
X4896591Y8572300D01*
X4977701D01*
Y8653410D01*
D02*
G37*
G36*
X4749101D02*
Y8572300D01*
X4830210D01*
X4823902Y8595844D01*
X4811540Y8617256D01*
X4794057Y8634739D01*
X4772645Y8647101D01*
X4749101Y8653410D01*
D02*
G37*
G36*
X4723701D02*
X4700157Y8647101D01*
X4678745Y8634739D01*
X4661262Y8617256D01*
X4648900Y8595844D01*
X4642591Y8572300D01*
X4723701D01*
Y8653410D01*
D02*
G37*
G36*
X3479101D02*
Y8572300D01*
X3560210D01*
X3553902Y8595844D01*
X3541540Y8617256D01*
X3524057Y8634739D01*
X3502645Y8647101D01*
X3479101Y8653410D01*
D02*
G37*
G36*
X3453701D02*
X3430157Y8647101D01*
X3408745Y8634739D01*
X3391262Y8617256D01*
X3378900Y8595844D01*
X3372591Y8572300D01*
X3453701D01*
Y8653410D01*
D02*
G37*
G36*
X3225101D02*
Y8572300D01*
X3306210D01*
X3299902Y8595844D01*
X3287540Y8617256D01*
X3270057Y8634739D01*
X3248645Y8647101D01*
X3225101Y8653410D01*
D02*
G37*
G36*
X3199701D02*
X3176157Y8647101D01*
X3154745Y8634739D01*
X3137262Y8617256D01*
X3124900Y8595844D01*
X3118591Y8572300D01*
X3199701D01*
Y8653410D01*
D02*
G37*
G36*
X1955101D02*
Y8572300D01*
X2036210D01*
X2029902Y8595844D01*
X2017540Y8617256D01*
X2000057Y8634739D01*
X1978645Y8647101D01*
X1955101Y8653410D01*
D02*
G37*
G36*
X1929701D02*
X1906157Y8647101D01*
X1884745Y8634739D01*
X1867262Y8617256D01*
X1854900Y8595844D01*
X1848591Y8572300D01*
X1929701D01*
Y8653410D01*
D02*
G37*
G36*
X1701101D02*
Y8572300D01*
X1782210D01*
X1775902Y8595844D01*
X1763540Y8617256D01*
X1746057Y8634739D01*
X1724645Y8647101D01*
X1701101Y8653410D01*
D02*
G37*
G36*
X1675701D02*
X1652157Y8647101D01*
X1630745Y8634739D01*
X1613262Y8617256D01*
X1600900Y8595844D01*
X1594591Y8572300D01*
X1675701D01*
Y8653410D01*
D02*
G37*
G36*
X7618901Y8648100D02*
X7441901D01*
Y8471100D01*
X7618901D01*
Y8648100D01*
D02*
G37*
G36*
X7288052D02*
X7264750D01*
X7242241Y8642069D01*
X7222060Y8630418D01*
X7205583Y8613940D01*
X7193932Y8593760D01*
X7187901Y8571251D01*
Y8547949D01*
X7193932Y8525440D01*
X7205583Y8505260D01*
X7222060Y8488782D01*
X7242241Y8477131D01*
X7264750Y8471100D01*
X7288052D01*
X7310560Y8477131D01*
X7330741Y8488782D01*
X7347218Y8505260D01*
X7358870Y8525440D01*
X7364901Y8547949D01*
Y8571251D01*
X7358870Y8593760D01*
X7347218Y8613940D01*
X7330741Y8630418D01*
X7310560Y8642069D01*
X7288052Y8648100D01*
D02*
G37*
G36*
X7034052D02*
X7010750D01*
X6988241Y8642069D01*
X6968060Y8630418D01*
X6951583Y8613940D01*
X6939932Y8593760D01*
X6933901Y8571251D01*
Y8547949D01*
X6939932Y8525440D01*
X6951583Y8505260D01*
X6968060Y8488782D01*
X6988241Y8477131D01*
X7010750Y8471100D01*
X7034052D01*
X7056560Y8477131D01*
X7076741Y8488782D01*
X7093218Y8505260D01*
X7104870Y8525440D01*
X7110901Y8547949D01*
Y8571251D01*
X7104870Y8593760D01*
X7093218Y8613940D01*
X7076741Y8630418D01*
X7056560Y8642069D01*
X7034052Y8648100D01*
D02*
G37*
G36*
X6780052D02*
X6756750D01*
X6734241Y8642069D01*
X6714060Y8630418D01*
X6697583Y8613940D01*
X6685932Y8593760D01*
X6679901Y8571251D01*
Y8547949D01*
X6685932Y8525440D01*
X6697583Y8505260D01*
X6714060Y8488782D01*
X6734241Y8477131D01*
X6756750Y8471100D01*
X6780052D01*
X6802560Y8477131D01*
X6822741Y8488782D01*
X6839218Y8505260D01*
X6850870Y8525440D01*
X6856901Y8547949D01*
Y8571251D01*
X6850870Y8593760D01*
X6839218Y8613940D01*
X6822741Y8630418D01*
X6802560Y8642069D01*
X6780052Y8648100D01*
D02*
G37*
G36*
X6018052D02*
X5994750D01*
X5972241Y8642069D01*
X5952060Y8630418D01*
X5935583Y8613940D01*
X5923932Y8593760D01*
X5917901Y8571251D01*
Y8547949D01*
X5923932Y8525440D01*
X5935583Y8505260D01*
X5952060Y8488782D01*
X5972241Y8477131D01*
X5994750Y8471100D01*
X6018052D01*
X6040560Y8477131D01*
X6060741Y8488782D01*
X6077218Y8505260D01*
X6088870Y8525440D01*
X6094901Y8547949D01*
Y8571251D01*
X6088870Y8593760D01*
X6077218Y8613940D01*
X6060741Y8630418D01*
X6040560Y8642069D01*
X6018052Y8648100D01*
D02*
G37*
G36*
X5764052D02*
X5740750D01*
X5718241Y8642069D01*
X5698060Y8630418D01*
X5681583Y8613940D01*
X5669932Y8593760D01*
X5663901Y8571251D01*
Y8547949D01*
X5669932Y8525440D01*
X5681583Y8505260D01*
X5698060Y8488782D01*
X5718241Y8477131D01*
X5740750Y8471100D01*
X5764052D01*
X5786560Y8477131D01*
X5806741Y8488782D01*
X5823218Y8505260D01*
X5834870Y8525440D01*
X5840901Y8547949D01*
Y8571251D01*
X5834870Y8593760D01*
X5823218Y8613940D01*
X5806741Y8630418D01*
X5786560Y8642069D01*
X5764052Y8648100D01*
D02*
G37*
G36*
X5510052D02*
X5486750D01*
X5464241Y8642069D01*
X5444060Y8630418D01*
X5427583Y8613940D01*
X5415932Y8593760D01*
X5409901Y8571251D01*
Y8547949D01*
X5415932Y8525440D01*
X5427583Y8505260D01*
X5444060Y8488782D01*
X5464241Y8477131D01*
X5486750Y8471100D01*
X5510052D01*
X5532560Y8477131D01*
X5552741Y8488782D01*
X5569218Y8505260D01*
X5580870Y8525440D01*
X5586901Y8547949D01*
Y8571251D01*
X5580870Y8593760D01*
X5569218Y8613940D01*
X5552741Y8630418D01*
X5532560Y8642069D01*
X5510052Y8648100D01*
D02*
G37*
G36*
X5256052D02*
X5232750D01*
X5210241Y8642069D01*
X5190060Y8630418D01*
X5173583Y8613940D01*
X5161932Y8593760D01*
X5155901Y8571251D01*
Y8547949D01*
X5161932Y8525440D01*
X5173583Y8505260D01*
X5190060Y8488782D01*
X5210241Y8477131D01*
X5232750Y8471100D01*
X5256052D01*
X5278560Y8477131D01*
X5298741Y8488782D01*
X5315218Y8505260D01*
X5326870Y8525440D01*
X5332901Y8547949D01*
Y8571251D01*
X5326870Y8593760D01*
X5315218Y8613940D01*
X5298741Y8630418D01*
X5278560Y8642069D01*
X5256052Y8648100D01*
D02*
G37*
G36*
X4494052D02*
X4470750D01*
X4448241Y8642069D01*
X4428060Y8630418D01*
X4411583Y8613940D01*
X4399932Y8593760D01*
X4393901Y8571251D01*
Y8547949D01*
X4399932Y8525440D01*
X4411583Y8505260D01*
X4428060Y8488782D01*
X4448241Y8477131D01*
X4470750Y8471100D01*
X4494052D01*
X4516560Y8477131D01*
X4536741Y8488782D01*
X4553218Y8505260D01*
X4564870Y8525440D01*
X4570901Y8547949D01*
Y8571251D01*
X4564870Y8593760D01*
X4553218Y8613940D01*
X4536741Y8630418D01*
X4516560Y8642069D01*
X4494052Y8648100D01*
D02*
G37*
G36*
X4240052D02*
X4216750D01*
X4194241Y8642069D01*
X4174060Y8630418D01*
X4157583Y8613940D01*
X4145932Y8593760D01*
X4139901Y8571251D01*
Y8547949D01*
X4145932Y8525440D01*
X4157583Y8505260D01*
X4174060Y8488782D01*
X4194241Y8477131D01*
X4216750Y8471100D01*
X4240052D01*
X4262560Y8477131D01*
X4282741Y8488782D01*
X4299218Y8505260D01*
X4310870Y8525440D01*
X4316901Y8547949D01*
Y8571251D01*
X4310870Y8593760D01*
X4299218Y8613940D01*
X4282741Y8630418D01*
X4262560Y8642069D01*
X4240052Y8648100D01*
D02*
G37*
G36*
X3986052D02*
X3962750D01*
X3940241Y8642069D01*
X3920060Y8630418D01*
X3903583Y8613940D01*
X3891932Y8593760D01*
X3885901Y8571251D01*
Y8547949D01*
X3891932Y8525440D01*
X3903583Y8505260D01*
X3920060Y8488782D01*
X3940241Y8477131D01*
X3962750Y8471100D01*
X3986052D01*
X4008560Y8477131D01*
X4028741Y8488782D01*
X4045218Y8505260D01*
X4056870Y8525440D01*
X4062901Y8547949D01*
Y8571251D01*
X4056870Y8593760D01*
X4045218Y8613940D01*
X4028741Y8630418D01*
X4008560Y8642069D01*
X3986052Y8648100D01*
D02*
G37*
G36*
X3732052D02*
X3708750D01*
X3686241Y8642069D01*
X3666060Y8630418D01*
X3649583Y8613940D01*
X3637932Y8593760D01*
X3631901Y8571251D01*
Y8547949D01*
X3637932Y8525440D01*
X3649583Y8505260D01*
X3666060Y8488782D01*
X3686241Y8477131D01*
X3708750Y8471100D01*
X3732052D01*
X3754560Y8477131D01*
X3774741Y8488782D01*
X3791218Y8505260D01*
X3802870Y8525440D01*
X3808901Y8547949D01*
Y8571251D01*
X3802870Y8593760D01*
X3791218Y8613940D01*
X3774741Y8630418D01*
X3754560Y8642069D01*
X3732052Y8648100D01*
D02*
G37*
G36*
X2970052D02*
X2946750D01*
X2924241Y8642069D01*
X2904060Y8630418D01*
X2887583Y8613940D01*
X2875932Y8593760D01*
X2869901Y8571251D01*
Y8547949D01*
X2875932Y8525440D01*
X2887583Y8505260D01*
X2904060Y8488782D01*
X2924241Y8477131D01*
X2946750Y8471100D01*
X2970052D01*
X2992560Y8477131D01*
X3012741Y8488782D01*
X3029218Y8505260D01*
X3040870Y8525440D01*
X3046901Y8547949D01*
Y8571251D01*
X3040870Y8593760D01*
X3029218Y8613940D01*
X3012741Y8630418D01*
X2992560Y8642069D01*
X2970052Y8648100D01*
D02*
G37*
G36*
X2716052D02*
X2692750D01*
X2670241Y8642069D01*
X2650060Y8630418D01*
X2633583Y8613940D01*
X2621932Y8593760D01*
X2615901Y8571251D01*
Y8547949D01*
X2621932Y8525440D01*
X2633583Y8505260D01*
X2650060Y8488782D01*
X2670241Y8477131D01*
X2692750Y8471100D01*
X2716052D01*
X2738560Y8477131D01*
X2758741Y8488782D01*
X2775218Y8505260D01*
X2786870Y8525440D01*
X2792901Y8547949D01*
Y8571251D01*
X2786870Y8593760D01*
X2775218Y8613940D01*
X2758741Y8630418D01*
X2738560Y8642069D01*
X2716052Y8648100D01*
D02*
G37*
G36*
X2462052D02*
X2438750D01*
X2416241Y8642069D01*
X2396060Y8630418D01*
X2379583Y8613940D01*
X2367932Y8593760D01*
X2361901Y8571251D01*
Y8547949D01*
X2367932Y8525440D01*
X2379583Y8505260D01*
X2396060Y8488782D01*
X2416241Y8477131D01*
X2438750Y8471100D01*
X2462052D01*
X2484560Y8477131D01*
X2504741Y8488782D01*
X2521218Y8505260D01*
X2532870Y8525440D01*
X2538901Y8547949D01*
Y8571251D01*
X2532870Y8593760D01*
X2521218Y8613940D01*
X2504741Y8630418D01*
X2484560Y8642069D01*
X2462052Y8648100D01*
D02*
G37*
G36*
X2208052D02*
X2184750D01*
X2162241Y8642069D01*
X2142060Y8630418D01*
X2125583Y8613940D01*
X2113932Y8593760D01*
X2107901Y8571251D01*
Y8547949D01*
X2113932Y8525440D01*
X2125583Y8505260D01*
X2142060Y8488782D01*
X2162241Y8477131D01*
X2184750Y8471100D01*
X2208052D01*
X2230560Y8477131D01*
X2250741Y8488782D01*
X2267218Y8505260D01*
X2278870Y8525440D01*
X2284901Y8547949D01*
Y8571251D01*
X2278870Y8593760D01*
X2267218Y8613940D01*
X2250741Y8630418D01*
X2230560Y8642069D01*
X2208052Y8648100D01*
D02*
G37*
G36*
X1446052D02*
X1422750D01*
X1400241Y8642069D01*
X1380060Y8630418D01*
X1363583Y8613940D01*
X1351932Y8593760D01*
X1345901Y8571251D01*
Y8547949D01*
X1351932Y8525440D01*
X1363583Y8505260D01*
X1380060Y8488782D01*
X1400241Y8477131D01*
X1422750Y8471100D01*
X1446052D01*
X1468560Y8477131D01*
X1488741Y8488782D01*
X1505218Y8505260D01*
X1516870Y8525440D01*
X1522901Y8547949D01*
Y8571251D01*
X1516870Y8593760D01*
X1505218Y8613940D01*
X1488741Y8630418D01*
X1468560Y8642069D01*
X1446052Y8648100D01*
D02*
G37*
G36*
X1192052D02*
X1168750D01*
X1146241Y8642069D01*
X1126060Y8630418D01*
X1109583Y8613940D01*
X1097932Y8593760D01*
X1091901Y8571251D01*
Y8547949D01*
X1097932Y8525440D01*
X1109583Y8505260D01*
X1126060Y8488782D01*
X1146241Y8477131D01*
X1168750Y8471100D01*
X1192052D01*
X1214560Y8477131D01*
X1234741Y8488782D01*
X1251218Y8505260D01*
X1262870Y8525440D01*
X1268901Y8547949D01*
Y8571251D01*
X1262870Y8593760D01*
X1251218Y8613940D01*
X1234741Y8630418D01*
X1214560Y8642069D01*
X1192052Y8648100D01*
D02*
G37*
G36*
X6608210Y8546900D02*
X6527101D01*
Y8465791D01*
X6550645Y8472099D01*
X6572057Y8484461D01*
X6589540Y8501944D01*
X6601902Y8523356D01*
X6608210Y8546900D01*
D02*
G37*
G36*
X6501701D02*
X6420591D01*
X6426900Y8523356D01*
X6439262Y8501944D01*
X6456745Y8484461D01*
X6478157Y8472099D01*
X6501701Y8465791D01*
Y8546900D01*
D02*
G37*
G36*
X6354210D02*
X6273101D01*
Y8465791D01*
X6296645Y8472099D01*
X6318057Y8484461D01*
X6335540Y8501944D01*
X6347902Y8523356D01*
X6354210Y8546900D01*
D02*
G37*
G36*
X6247701D02*
X6166591D01*
X6172900Y8523356D01*
X6185262Y8501944D01*
X6202745Y8484461D01*
X6224157Y8472099D01*
X6247701Y8465791D01*
Y8546900D01*
D02*
G37*
G36*
X5084210D02*
X5003101D01*
Y8465791D01*
X5026645Y8472099D01*
X5048057Y8484461D01*
X5065540Y8501944D01*
X5077902Y8523356D01*
X5084210Y8546900D01*
D02*
G37*
G36*
X4977701D02*
X4896591D01*
X4902900Y8523356D01*
X4915262Y8501944D01*
X4932745Y8484461D01*
X4954157Y8472099D01*
X4977701Y8465791D01*
Y8546900D01*
D02*
G37*
G36*
X4830210D02*
X4749101D01*
Y8465791D01*
X4772645Y8472099D01*
X4794057Y8484461D01*
X4811540Y8501944D01*
X4823902Y8523356D01*
X4830210Y8546900D01*
D02*
G37*
G36*
X4723701D02*
X4642591D01*
X4648900Y8523356D01*
X4661262Y8501944D01*
X4678745Y8484461D01*
X4700157Y8472099D01*
X4723701Y8465791D01*
Y8546900D01*
D02*
G37*
G36*
X3560210D02*
X3479101D01*
Y8465791D01*
X3502645Y8472099D01*
X3524057Y8484461D01*
X3541540Y8501944D01*
X3553902Y8523356D01*
X3560210Y8546900D01*
D02*
G37*
G36*
X3453701D02*
X3372591D01*
X3378900Y8523356D01*
X3391262Y8501944D01*
X3408745Y8484461D01*
X3430157Y8472099D01*
X3453701Y8465791D01*
Y8546900D01*
D02*
G37*
G36*
X3306210D02*
X3225101D01*
Y8465791D01*
X3248645Y8472099D01*
X3270057Y8484461D01*
X3287540Y8501944D01*
X3299902Y8523356D01*
X3306210Y8546900D01*
D02*
G37*
G36*
X3199701D02*
X3118591D01*
X3124900Y8523356D01*
X3137262Y8501944D01*
X3154745Y8484461D01*
X3176157Y8472099D01*
X3199701Y8465791D01*
Y8546900D01*
D02*
G37*
G36*
X2036210D02*
X1955101D01*
Y8465791D01*
X1978645Y8472099D01*
X2000057Y8484461D01*
X2017540Y8501944D01*
X2029902Y8523356D01*
X2036210Y8546900D01*
D02*
G37*
G36*
X1929701D02*
X1848591D01*
X1854900Y8523356D01*
X1867262Y8501944D01*
X1884745Y8484461D01*
X1906157Y8472099D01*
X1929701Y8465791D01*
Y8546900D01*
D02*
G37*
G36*
X1782210D02*
X1701101D01*
Y8465791D01*
X1724645Y8472099D01*
X1746057Y8484461D01*
X1763540Y8501944D01*
X1775902Y8523356D01*
X1782210Y8546900D01*
D02*
G37*
G36*
X1675701D02*
X1594591D01*
X1600900Y8523356D01*
X1613262Y8501944D01*
X1630745Y8484461D01*
X1652157Y8472099D01*
X1675701Y8465791D01*
Y8546900D01*
D02*
G37*
G36*
X6514401Y8361310D02*
Y8280200D01*
X6595510D01*
X6589202Y8303744D01*
X6576840Y8325156D01*
X6559357Y8342639D01*
X6537945Y8355001D01*
X6514401Y8361310D01*
D02*
G37*
G36*
X6489001D02*
X6465457Y8355001D01*
X6444045Y8342639D01*
X6426562Y8325156D01*
X6414200Y8303744D01*
X6407891Y8280200D01*
X6489001D01*
Y8361310D01*
D02*
G37*
G36*
X6260401D02*
Y8280200D01*
X6341510D01*
X6335202Y8303744D01*
X6322840Y8325156D01*
X6305357Y8342639D01*
X6283945Y8355001D01*
X6260401Y8361310D01*
D02*
G37*
G36*
X6235001D02*
X6211457Y8355001D01*
X6190045Y8342639D01*
X6172562Y8325156D01*
X6160200Y8303744D01*
X6153891Y8280200D01*
X6235001D01*
Y8361310D01*
D02*
G37*
G36*
X4990401D02*
Y8280200D01*
X5071510D01*
X5065202Y8303744D01*
X5052840Y8325156D01*
X5035357Y8342639D01*
X5013945Y8355001D01*
X4990401Y8361310D01*
D02*
G37*
G36*
X4965001D02*
X4941457Y8355001D01*
X4920045Y8342639D01*
X4902562Y8325156D01*
X4890200Y8303744D01*
X4883891Y8280200D01*
X4965001D01*
Y8361310D01*
D02*
G37*
G36*
X4736401D02*
Y8280200D01*
X4817510D01*
X4811202Y8303744D01*
X4798840Y8325156D01*
X4781357Y8342639D01*
X4759945Y8355001D01*
X4736401Y8361310D01*
D02*
G37*
G36*
X4711001D02*
X4687457Y8355001D01*
X4666045Y8342639D01*
X4648562Y8325156D01*
X4636200Y8303744D01*
X4629891Y8280200D01*
X4711001D01*
Y8361310D01*
D02*
G37*
G36*
X3466401D02*
Y8280200D01*
X3547510D01*
X3541202Y8303744D01*
X3528840Y8325156D01*
X3511357Y8342639D01*
X3489945Y8355001D01*
X3466401Y8361310D01*
D02*
G37*
G36*
X3441001D02*
X3417457Y8355001D01*
X3396045Y8342639D01*
X3378562Y8325156D01*
X3366200Y8303744D01*
X3359891Y8280200D01*
X3441001D01*
Y8361310D01*
D02*
G37*
G36*
X3212401D02*
Y8280200D01*
X3293510D01*
X3287202Y8303744D01*
X3274840Y8325156D01*
X3257357Y8342639D01*
X3235945Y8355001D01*
X3212401Y8361310D01*
D02*
G37*
G36*
X3187001D02*
X3163457Y8355001D01*
X3142045Y8342639D01*
X3124562Y8325156D01*
X3112200Y8303744D01*
X3105891Y8280200D01*
X3187001D01*
Y8361310D01*
D02*
G37*
G36*
X1942401D02*
Y8280200D01*
X2023510D01*
X2017202Y8303744D01*
X2004840Y8325156D01*
X1987357Y8342639D01*
X1965945Y8355001D01*
X1942401Y8361310D01*
D02*
G37*
G36*
X1917001D02*
X1893457Y8355001D01*
X1872045Y8342639D01*
X1854562Y8325156D01*
X1842200Y8303744D01*
X1835891Y8280200D01*
X1917001D01*
Y8361310D01*
D02*
G37*
G36*
X1688401D02*
Y8280200D01*
X1769510D01*
X1763202Y8303744D01*
X1750840Y8325156D01*
X1733357Y8342639D01*
X1711945Y8355001D01*
X1688401Y8361310D01*
D02*
G37*
G36*
X1663001D02*
X1639457Y8355001D01*
X1618045Y8342639D01*
X1600562Y8325156D01*
X1588200Y8303744D01*
X1581891Y8280200D01*
X1663001D01*
Y8361310D01*
D02*
G37*
G36*
X7529352Y8356000D02*
X7506050D01*
X7483541Y8349969D01*
X7463360Y8338318D01*
X7446883Y8321840D01*
X7435232Y8301660D01*
X7429201Y8279151D01*
Y8255849D01*
X7435232Y8233340D01*
X7446883Y8213160D01*
X7463360Y8196682D01*
X7483541Y8185031D01*
X7506050Y8179000D01*
X7529352D01*
X7551860Y8185031D01*
X7572041Y8196682D01*
X7588518Y8213160D01*
X7600170Y8233340D01*
X7606201Y8255849D01*
Y8279151D01*
X7600170Y8301660D01*
X7588518Y8321840D01*
X7572041Y8338318D01*
X7551860Y8349969D01*
X7529352Y8356000D01*
D02*
G37*
G36*
X7275352D02*
X7252050D01*
X7229541Y8349969D01*
X7209360Y8338318D01*
X7192883Y8321840D01*
X7181232Y8301660D01*
X7175201Y8279151D01*
Y8255849D01*
X7181232Y8233340D01*
X7192883Y8213160D01*
X7209360Y8196682D01*
X7229541Y8185031D01*
X7252050Y8179000D01*
X7275352D01*
X7297860Y8185031D01*
X7318041Y8196682D01*
X7334518Y8213160D01*
X7346170Y8233340D01*
X7352201Y8255849D01*
Y8279151D01*
X7346170Y8301660D01*
X7334518Y8321840D01*
X7318041Y8338318D01*
X7297860Y8349969D01*
X7275352Y8356000D01*
D02*
G37*
G36*
X7021352D02*
X6998050D01*
X6975541Y8349969D01*
X6955360Y8338318D01*
X6938883Y8321840D01*
X6927232Y8301660D01*
X6921201Y8279151D01*
Y8255849D01*
X6927232Y8233340D01*
X6938883Y8213160D01*
X6955360Y8196682D01*
X6975541Y8185031D01*
X6998050Y8179000D01*
X7021352D01*
X7043860Y8185031D01*
X7064041Y8196682D01*
X7080518Y8213160D01*
X7092170Y8233340D01*
X7098201Y8255849D01*
Y8279151D01*
X7092170Y8301660D01*
X7080518Y8321840D01*
X7064041Y8338318D01*
X7043860Y8349969D01*
X7021352Y8356000D01*
D02*
G37*
G36*
X6767352D02*
X6744050D01*
X6721541Y8349969D01*
X6701360Y8338318D01*
X6684883Y8321840D01*
X6673232Y8301660D01*
X6667201Y8279151D01*
Y8255849D01*
X6673232Y8233340D01*
X6684883Y8213160D01*
X6701360Y8196682D01*
X6721541Y8185031D01*
X6744050Y8179000D01*
X6767352D01*
X6789860Y8185031D01*
X6810041Y8196682D01*
X6826518Y8213160D01*
X6838170Y8233340D01*
X6844201Y8255849D01*
Y8279151D01*
X6838170Y8301660D01*
X6826518Y8321840D01*
X6810041Y8338318D01*
X6789860Y8349969D01*
X6767352Y8356000D01*
D02*
G37*
G36*
X6005352D02*
X5982050D01*
X5959541Y8349969D01*
X5939360Y8338318D01*
X5922883Y8321840D01*
X5911232Y8301660D01*
X5905201Y8279151D01*
Y8255849D01*
X5911232Y8233340D01*
X5922883Y8213160D01*
X5939360Y8196682D01*
X5959541Y8185031D01*
X5982050Y8179000D01*
X6005352D01*
X6027860Y8185031D01*
X6048041Y8196682D01*
X6064518Y8213160D01*
X6076170Y8233340D01*
X6082201Y8255849D01*
Y8279151D01*
X6076170Y8301660D01*
X6064518Y8321840D01*
X6048041Y8338318D01*
X6027860Y8349969D01*
X6005352Y8356000D01*
D02*
G37*
G36*
X5751352D02*
X5728050D01*
X5705541Y8349969D01*
X5685360Y8338318D01*
X5668883Y8321840D01*
X5657232Y8301660D01*
X5651201Y8279151D01*
Y8255849D01*
X5657232Y8233340D01*
X5668883Y8213160D01*
X5685360Y8196682D01*
X5705541Y8185031D01*
X5728050Y8179000D01*
X5751352D01*
X5773860Y8185031D01*
X5794041Y8196682D01*
X5810518Y8213160D01*
X5822170Y8233340D01*
X5828201Y8255849D01*
Y8279151D01*
X5822170Y8301660D01*
X5810518Y8321840D01*
X5794041Y8338318D01*
X5773860Y8349969D01*
X5751352Y8356000D01*
D02*
G37*
G36*
X5497352D02*
X5474050D01*
X5451541Y8349969D01*
X5431360Y8338318D01*
X5414883Y8321840D01*
X5403232Y8301660D01*
X5397201Y8279151D01*
Y8255849D01*
X5403232Y8233340D01*
X5414883Y8213160D01*
X5431360Y8196682D01*
X5451541Y8185031D01*
X5474050Y8179000D01*
X5497352D01*
X5519860Y8185031D01*
X5540041Y8196682D01*
X5556518Y8213160D01*
X5568170Y8233340D01*
X5574201Y8255849D01*
Y8279151D01*
X5568170Y8301660D01*
X5556518Y8321840D01*
X5540041Y8338318D01*
X5519860Y8349969D01*
X5497352Y8356000D01*
D02*
G37*
G36*
X5243352D02*
X5220050D01*
X5197541Y8349969D01*
X5177360Y8338318D01*
X5160883Y8321840D01*
X5149232Y8301660D01*
X5143201Y8279151D01*
Y8255849D01*
X5149232Y8233340D01*
X5160883Y8213160D01*
X5177360Y8196682D01*
X5197541Y8185031D01*
X5220050Y8179000D01*
X5243352D01*
X5265860Y8185031D01*
X5286041Y8196682D01*
X5302518Y8213160D01*
X5314170Y8233340D01*
X5320201Y8255849D01*
Y8279151D01*
X5314170Y8301660D01*
X5302518Y8321840D01*
X5286041Y8338318D01*
X5265860Y8349969D01*
X5243352Y8356000D01*
D02*
G37*
G36*
X4481352D02*
X4458050D01*
X4435541Y8349969D01*
X4415360Y8338318D01*
X4398883Y8321840D01*
X4387232Y8301660D01*
X4381201Y8279151D01*
Y8255849D01*
X4387232Y8233340D01*
X4398883Y8213160D01*
X4415360Y8196682D01*
X4435541Y8185031D01*
X4458050Y8179000D01*
X4481352D01*
X4503860Y8185031D01*
X4524041Y8196682D01*
X4540518Y8213160D01*
X4552170Y8233340D01*
X4558201Y8255849D01*
Y8279151D01*
X4552170Y8301660D01*
X4540518Y8321840D01*
X4524041Y8338318D01*
X4503860Y8349969D01*
X4481352Y8356000D01*
D02*
G37*
G36*
X4227352D02*
X4204050D01*
X4181541Y8349969D01*
X4161360Y8338318D01*
X4144883Y8321840D01*
X4133232Y8301660D01*
X4127201Y8279151D01*
Y8255849D01*
X4133232Y8233340D01*
X4144883Y8213160D01*
X4161360Y8196682D01*
X4181541Y8185031D01*
X4204050Y8179000D01*
X4227352D01*
X4249860Y8185031D01*
X4270041Y8196682D01*
X4286518Y8213160D01*
X4298170Y8233340D01*
X4304201Y8255849D01*
Y8279151D01*
X4298170Y8301660D01*
X4286518Y8321840D01*
X4270041Y8338318D01*
X4249860Y8349969D01*
X4227352Y8356000D01*
D02*
G37*
G36*
X3973352D02*
X3950050D01*
X3927541Y8349969D01*
X3907360Y8338318D01*
X3890883Y8321840D01*
X3879232Y8301660D01*
X3873201Y8279151D01*
Y8255849D01*
X3879232Y8233340D01*
X3890883Y8213160D01*
X3907360Y8196682D01*
X3927541Y8185031D01*
X3950050Y8179000D01*
X3973352D01*
X3995860Y8185031D01*
X4016041Y8196682D01*
X4032518Y8213160D01*
X4044170Y8233340D01*
X4050201Y8255849D01*
Y8279151D01*
X4044170Y8301660D01*
X4032518Y8321840D01*
X4016041Y8338318D01*
X3995860Y8349969D01*
X3973352Y8356000D01*
D02*
G37*
G36*
X3719352D02*
X3696050D01*
X3673541Y8349969D01*
X3653360Y8338318D01*
X3636883Y8321840D01*
X3625232Y8301660D01*
X3619201Y8279151D01*
Y8255849D01*
X3625232Y8233340D01*
X3636883Y8213160D01*
X3653360Y8196682D01*
X3673541Y8185031D01*
X3696050Y8179000D01*
X3719352D01*
X3741860Y8185031D01*
X3762041Y8196682D01*
X3778518Y8213160D01*
X3790170Y8233340D01*
X3796201Y8255849D01*
Y8279151D01*
X3790170Y8301660D01*
X3778518Y8321840D01*
X3762041Y8338318D01*
X3741860Y8349969D01*
X3719352Y8356000D01*
D02*
G37*
G36*
X2957352D02*
X2934050D01*
X2911541Y8349969D01*
X2891360Y8338318D01*
X2874883Y8321840D01*
X2863232Y8301660D01*
X2857201Y8279151D01*
Y8255849D01*
X2863232Y8233340D01*
X2874883Y8213160D01*
X2891360Y8196682D01*
X2911541Y8185031D01*
X2934050Y8179000D01*
X2957352D01*
X2979860Y8185031D01*
X3000041Y8196682D01*
X3016518Y8213160D01*
X3028170Y8233340D01*
X3034201Y8255849D01*
Y8279151D01*
X3028170Y8301660D01*
X3016518Y8321840D01*
X3000041Y8338318D01*
X2979860Y8349969D01*
X2957352Y8356000D01*
D02*
G37*
G36*
X2703352D02*
X2680050D01*
X2657541Y8349969D01*
X2637360Y8338318D01*
X2620883Y8321840D01*
X2609232Y8301660D01*
X2603201Y8279151D01*
Y8255849D01*
X2609232Y8233340D01*
X2620883Y8213160D01*
X2637360Y8196682D01*
X2657541Y8185031D01*
X2680050Y8179000D01*
X2703352D01*
X2725860Y8185031D01*
X2746041Y8196682D01*
X2762518Y8213160D01*
X2774170Y8233340D01*
X2780201Y8255849D01*
Y8279151D01*
X2774170Y8301660D01*
X2762518Y8321840D01*
X2746041Y8338318D01*
X2725860Y8349969D01*
X2703352Y8356000D01*
D02*
G37*
G36*
X2449352D02*
X2426050D01*
X2403541Y8349969D01*
X2383360Y8338318D01*
X2366883Y8321840D01*
X2355232Y8301660D01*
X2349201Y8279151D01*
Y8255849D01*
X2355232Y8233340D01*
X2366883Y8213160D01*
X2383360Y8196682D01*
X2403541Y8185031D01*
X2426050Y8179000D01*
X2449352D01*
X2471860Y8185031D01*
X2492041Y8196682D01*
X2508518Y8213160D01*
X2520170Y8233340D01*
X2526201Y8255849D01*
Y8279151D01*
X2520170Y8301660D01*
X2508518Y8321840D01*
X2492041Y8338318D01*
X2471860Y8349969D01*
X2449352Y8356000D01*
D02*
G37*
G36*
X2195352D02*
X2172050D01*
X2149541Y8349969D01*
X2129360Y8338318D01*
X2112883Y8321840D01*
X2101232Y8301660D01*
X2095201Y8279151D01*
Y8255849D01*
X2101232Y8233340D01*
X2112883Y8213160D01*
X2129360Y8196682D01*
X2149541Y8185031D01*
X2172050Y8179000D01*
X2195352D01*
X2217860Y8185031D01*
X2238041Y8196682D01*
X2254518Y8213160D01*
X2266170Y8233340D01*
X2272201Y8255849D01*
Y8279151D01*
X2266170Y8301660D01*
X2254518Y8321840D01*
X2238041Y8338318D01*
X2217860Y8349969D01*
X2195352Y8356000D01*
D02*
G37*
G36*
X1433352D02*
X1410050D01*
X1387541Y8349969D01*
X1367360Y8338318D01*
X1350883Y8321840D01*
X1339232Y8301660D01*
X1333201Y8279151D01*
Y8255849D01*
X1339232Y8233340D01*
X1350883Y8213160D01*
X1367360Y8196682D01*
X1387541Y8185031D01*
X1410050Y8179000D01*
X1433352D01*
X1455860Y8185031D01*
X1476041Y8196682D01*
X1492518Y8213160D01*
X1504170Y8233340D01*
X1510201Y8255849D01*
Y8279151D01*
X1504170Y8301660D01*
X1492518Y8321840D01*
X1476041Y8338318D01*
X1455860Y8349969D01*
X1433352Y8356000D01*
D02*
G37*
G36*
X1179352D02*
X1156050D01*
X1133541Y8349969D01*
X1113360Y8338318D01*
X1096883Y8321840D01*
X1085232Y8301660D01*
X1079201Y8279151D01*
Y8255849D01*
X1085232Y8233340D01*
X1096883Y8213160D01*
X1113360Y8196682D01*
X1133541Y8185031D01*
X1156050Y8179000D01*
X1179352D01*
X1201860Y8185031D01*
X1222041Y8196682D01*
X1238518Y8213160D01*
X1250170Y8233340D01*
X1256201Y8255849D01*
Y8279151D01*
X1250170Y8301660D01*
X1238518Y8321840D01*
X1222041Y8338318D01*
X1201860Y8349969D01*
X1179352Y8356000D01*
D02*
G37*
G36*
X6595510Y8254800D02*
X6514401D01*
Y8173691D01*
X6537945Y8179999D01*
X6559357Y8192361D01*
X6576840Y8209844D01*
X6589202Y8231256D01*
X6595510Y8254800D01*
D02*
G37*
G36*
X6489001D02*
X6407891D01*
X6414200Y8231256D01*
X6426562Y8209844D01*
X6444045Y8192361D01*
X6465457Y8179999D01*
X6489001Y8173691D01*
Y8254800D01*
D02*
G37*
G36*
X6341510D02*
X6260401D01*
Y8173691D01*
X6283945Y8179999D01*
X6305357Y8192361D01*
X6322840Y8209844D01*
X6335202Y8231256D01*
X6341510Y8254800D01*
D02*
G37*
G36*
X6235001D02*
X6153891D01*
X6160200Y8231256D01*
X6172562Y8209844D01*
X6190045Y8192361D01*
X6211457Y8179999D01*
X6235001Y8173691D01*
Y8254800D01*
D02*
G37*
G36*
X5071510D02*
X4990401D01*
Y8173691D01*
X5013945Y8179999D01*
X5035357Y8192361D01*
X5052840Y8209844D01*
X5065202Y8231256D01*
X5071510Y8254800D01*
D02*
G37*
G36*
X4965001D02*
X4883891D01*
X4890200Y8231256D01*
X4902562Y8209844D01*
X4920045Y8192361D01*
X4941457Y8179999D01*
X4965001Y8173691D01*
Y8254800D01*
D02*
G37*
G36*
X4817510D02*
X4736401D01*
Y8173691D01*
X4759945Y8179999D01*
X4781357Y8192361D01*
X4798840Y8209844D01*
X4811202Y8231256D01*
X4817510Y8254800D01*
D02*
G37*
G36*
X4711001D02*
X4629891D01*
X4636200Y8231256D01*
X4648562Y8209844D01*
X4666045Y8192361D01*
X4687457Y8179999D01*
X4711001Y8173691D01*
Y8254800D01*
D02*
G37*
G36*
X3547510D02*
X3466401D01*
Y8173691D01*
X3489945Y8179999D01*
X3511357Y8192361D01*
X3528840Y8209844D01*
X3541202Y8231256D01*
X3547510Y8254800D01*
D02*
G37*
G36*
X3441001D02*
X3359891D01*
X3366200Y8231256D01*
X3378562Y8209844D01*
X3396045Y8192361D01*
X3417457Y8179999D01*
X3441001Y8173691D01*
Y8254800D01*
D02*
G37*
G36*
X3293510D02*
X3212401D01*
Y8173691D01*
X3235945Y8179999D01*
X3257357Y8192361D01*
X3274840Y8209844D01*
X3287202Y8231256D01*
X3293510Y8254800D01*
D02*
G37*
G36*
X3187001D02*
X3105891D01*
X3112200Y8231256D01*
X3124562Y8209844D01*
X3142045Y8192361D01*
X3163457Y8179999D01*
X3187001Y8173691D01*
Y8254800D01*
D02*
G37*
G36*
X2023510D02*
X1942401D01*
Y8173691D01*
X1965945Y8179999D01*
X1987357Y8192361D01*
X2004840Y8209844D01*
X2017202Y8231256D01*
X2023510Y8254800D01*
D02*
G37*
G36*
X1917001D02*
X1835891D01*
X1842200Y8231256D01*
X1854562Y8209844D01*
X1872045Y8192361D01*
X1893457Y8179999D01*
X1917001Y8173691D01*
Y8254800D01*
D02*
G37*
G36*
X1769510D02*
X1688401D01*
Y8173691D01*
X1711945Y8179999D01*
X1733357Y8192361D01*
X1750840Y8209844D01*
X1763202Y8231256D01*
X1769510Y8254800D01*
D02*
G37*
G36*
X1663001D02*
X1581891D01*
X1588200Y8231256D01*
X1600562Y8209844D01*
X1618045Y8192361D01*
X1639457Y8179999D01*
X1663001Y8173691D01*
Y8254800D01*
D02*
G37*
G36*
X6514401Y8107310D02*
Y8026200D01*
X6595510D01*
X6589202Y8049744D01*
X6576840Y8071156D01*
X6559357Y8088639D01*
X6537945Y8101001D01*
X6514401Y8107310D01*
D02*
G37*
G36*
X6489001D02*
X6465457Y8101001D01*
X6444045Y8088639D01*
X6426562Y8071156D01*
X6414200Y8049744D01*
X6407891Y8026200D01*
X6489001D01*
Y8107310D01*
D02*
G37*
G36*
X6260401D02*
Y8026200D01*
X6341510D01*
X6335202Y8049744D01*
X6322840Y8071156D01*
X6305357Y8088639D01*
X6283945Y8101001D01*
X6260401Y8107310D01*
D02*
G37*
G36*
X6235001D02*
X6211457Y8101001D01*
X6190045Y8088639D01*
X6172562Y8071156D01*
X6160200Y8049744D01*
X6153891Y8026200D01*
X6235001D01*
Y8107310D01*
D02*
G37*
G36*
X4990401D02*
Y8026200D01*
X5071510D01*
X5065202Y8049744D01*
X5052840Y8071156D01*
X5035357Y8088639D01*
X5013945Y8101001D01*
X4990401Y8107310D01*
D02*
G37*
G36*
X4965001D02*
X4941457Y8101001D01*
X4920045Y8088639D01*
X4902562Y8071156D01*
X4890200Y8049744D01*
X4883891Y8026200D01*
X4965001D01*
Y8107310D01*
D02*
G37*
G36*
X4736401D02*
Y8026200D01*
X4817510D01*
X4811202Y8049744D01*
X4798840Y8071156D01*
X4781357Y8088639D01*
X4759945Y8101001D01*
X4736401Y8107310D01*
D02*
G37*
G36*
X4711001D02*
X4687457Y8101001D01*
X4666045Y8088639D01*
X4648562Y8071156D01*
X4636200Y8049744D01*
X4629891Y8026200D01*
X4711001D01*
Y8107310D01*
D02*
G37*
G36*
X3466401D02*
Y8026200D01*
X3547510D01*
X3541202Y8049744D01*
X3528840Y8071156D01*
X3511357Y8088639D01*
X3489945Y8101001D01*
X3466401Y8107310D01*
D02*
G37*
G36*
X3441001D02*
X3417457Y8101001D01*
X3396045Y8088639D01*
X3378562Y8071156D01*
X3366200Y8049744D01*
X3359891Y8026200D01*
X3441001D01*
Y8107310D01*
D02*
G37*
G36*
X3212401D02*
Y8026200D01*
X3293510D01*
X3287202Y8049744D01*
X3274840Y8071156D01*
X3257357Y8088639D01*
X3235945Y8101001D01*
X3212401Y8107310D01*
D02*
G37*
G36*
X3187001D02*
X3163457Y8101001D01*
X3142045Y8088639D01*
X3124562Y8071156D01*
X3112200Y8049744D01*
X3105891Y8026200D01*
X3187001D01*
Y8107310D01*
D02*
G37*
G36*
X1942401D02*
Y8026200D01*
X2023510D01*
X2017202Y8049744D01*
X2004840Y8071156D01*
X1987357Y8088639D01*
X1965945Y8101001D01*
X1942401Y8107310D01*
D02*
G37*
G36*
X1917001D02*
X1893457Y8101001D01*
X1872045Y8088639D01*
X1854562Y8071156D01*
X1842200Y8049744D01*
X1835891Y8026200D01*
X1917001D01*
Y8107310D01*
D02*
G37*
G36*
X1688401D02*
Y8026200D01*
X1769510D01*
X1763202Y8049744D01*
X1750840Y8071156D01*
X1733357Y8088639D01*
X1711945Y8101001D01*
X1688401Y8107310D01*
D02*
G37*
G36*
X1663001D02*
X1639457Y8101001D01*
X1618045Y8088639D01*
X1600562Y8071156D01*
X1588200Y8049744D01*
X1581891Y8026200D01*
X1663001D01*
Y8107310D01*
D02*
G37*
G36*
X7606201Y8102000D02*
X7429201D01*
Y7925000D01*
X7606201D01*
Y8102000D01*
D02*
G37*
G36*
X7275352D02*
X7252050D01*
X7229541Y8095969D01*
X7209360Y8084318D01*
X7192883Y8067840D01*
X7181232Y8047660D01*
X7175201Y8025151D01*
Y8001849D01*
X7181232Y7979340D01*
X7192883Y7959160D01*
X7209360Y7942682D01*
X7229541Y7931031D01*
X7252050Y7925000D01*
X7275352D01*
X7297860Y7931031D01*
X7318041Y7942682D01*
X7334518Y7959160D01*
X7346170Y7979340D01*
X7352201Y8001849D01*
Y8025151D01*
X7346170Y8047660D01*
X7334518Y8067840D01*
X7318041Y8084318D01*
X7297860Y8095969D01*
X7275352Y8102000D01*
D02*
G37*
G36*
X7021352D02*
X6998050D01*
X6975541Y8095969D01*
X6955360Y8084318D01*
X6938883Y8067840D01*
X6927232Y8047660D01*
X6921201Y8025151D01*
Y8001849D01*
X6927232Y7979340D01*
X6938883Y7959160D01*
X6955360Y7942682D01*
X6975541Y7931031D01*
X6998050Y7925000D01*
X7021352D01*
X7043860Y7931031D01*
X7064041Y7942682D01*
X7080518Y7959160D01*
X7092170Y7979340D01*
X7098201Y8001849D01*
Y8025151D01*
X7092170Y8047660D01*
X7080518Y8067840D01*
X7064041Y8084318D01*
X7043860Y8095969D01*
X7021352Y8102000D01*
D02*
G37*
G36*
X6767352D02*
X6744050D01*
X6721541Y8095969D01*
X6701360Y8084318D01*
X6684883Y8067840D01*
X6673232Y8047660D01*
X6667201Y8025151D01*
Y8001849D01*
X6673232Y7979340D01*
X6684883Y7959160D01*
X6701360Y7942682D01*
X6721541Y7931031D01*
X6744050Y7925000D01*
X6767352D01*
X6789860Y7931031D01*
X6810041Y7942682D01*
X6826518Y7959160D01*
X6838170Y7979340D01*
X6844201Y8001849D01*
Y8025151D01*
X6838170Y8047660D01*
X6826518Y8067840D01*
X6810041Y8084318D01*
X6789860Y8095969D01*
X6767352Y8102000D01*
D02*
G37*
G36*
X6005352D02*
X5982050D01*
X5959541Y8095969D01*
X5939360Y8084318D01*
X5922883Y8067840D01*
X5911232Y8047660D01*
X5905201Y8025151D01*
Y8001849D01*
X5911232Y7979340D01*
X5922883Y7959160D01*
X5939360Y7942682D01*
X5959541Y7931031D01*
X5982050Y7925000D01*
X6005352D01*
X6027860Y7931031D01*
X6048041Y7942682D01*
X6064518Y7959160D01*
X6076170Y7979340D01*
X6082201Y8001849D01*
Y8025151D01*
X6076170Y8047660D01*
X6064518Y8067840D01*
X6048041Y8084318D01*
X6027860Y8095969D01*
X6005352Y8102000D01*
D02*
G37*
G36*
X5751352D02*
X5728050D01*
X5705541Y8095969D01*
X5685360Y8084318D01*
X5668883Y8067840D01*
X5657232Y8047660D01*
X5651201Y8025151D01*
Y8001849D01*
X5657232Y7979340D01*
X5668883Y7959160D01*
X5685360Y7942682D01*
X5705541Y7931031D01*
X5728050Y7925000D01*
X5751352D01*
X5773860Y7931031D01*
X5794041Y7942682D01*
X5810518Y7959160D01*
X5822170Y7979340D01*
X5828201Y8001849D01*
Y8025151D01*
X5822170Y8047660D01*
X5810518Y8067840D01*
X5794041Y8084318D01*
X5773860Y8095969D01*
X5751352Y8102000D01*
D02*
G37*
G36*
X5497352D02*
X5474050D01*
X5451541Y8095969D01*
X5431360Y8084318D01*
X5414883Y8067840D01*
X5403232Y8047660D01*
X5397201Y8025151D01*
Y8001849D01*
X5403232Y7979340D01*
X5414883Y7959160D01*
X5431360Y7942682D01*
X5451541Y7931031D01*
X5474050Y7925000D01*
X5497352D01*
X5519860Y7931031D01*
X5540041Y7942682D01*
X5556518Y7959160D01*
X5568170Y7979340D01*
X5574201Y8001849D01*
Y8025151D01*
X5568170Y8047660D01*
X5556518Y8067840D01*
X5540041Y8084318D01*
X5519860Y8095969D01*
X5497352Y8102000D01*
D02*
G37*
G36*
X5243352D02*
X5220050D01*
X5197541Y8095969D01*
X5177360Y8084318D01*
X5160883Y8067840D01*
X5149232Y8047660D01*
X5143201Y8025151D01*
Y8001849D01*
X5149232Y7979340D01*
X5160883Y7959160D01*
X5177360Y7942682D01*
X5197541Y7931031D01*
X5220050Y7925000D01*
X5243352D01*
X5265860Y7931031D01*
X5286041Y7942682D01*
X5302518Y7959160D01*
X5314170Y7979340D01*
X5320201Y8001849D01*
Y8025151D01*
X5314170Y8047660D01*
X5302518Y8067840D01*
X5286041Y8084318D01*
X5265860Y8095969D01*
X5243352Y8102000D01*
D02*
G37*
G36*
X4481352D02*
X4458050D01*
X4435541Y8095969D01*
X4415360Y8084318D01*
X4398883Y8067840D01*
X4387232Y8047660D01*
X4381201Y8025151D01*
Y8001849D01*
X4387232Y7979340D01*
X4398883Y7959160D01*
X4415360Y7942682D01*
X4435541Y7931031D01*
X4458050Y7925000D01*
X4481352D01*
X4503860Y7931031D01*
X4524041Y7942682D01*
X4540518Y7959160D01*
X4552170Y7979340D01*
X4558201Y8001849D01*
Y8025151D01*
X4552170Y8047660D01*
X4540518Y8067840D01*
X4524041Y8084318D01*
X4503860Y8095969D01*
X4481352Y8102000D01*
D02*
G37*
G36*
X4227352D02*
X4204050D01*
X4181541Y8095969D01*
X4161360Y8084318D01*
X4144883Y8067840D01*
X4133232Y8047660D01*
X4127201Y8025151D01*
Y8001849D01*
X4133232Y7979340D01*
X4144883Y7959160D01*
X4161360Y7942682D01*
X4181541Y7931031D01*
X4204050Y7925000D01*
X4227352D01*
X4249860Y7931031D01*
X4270041Y7942682D01*
X4286518Y7959160D01*
X4298170Y7979340D01*
X4304201Y8001849D01*
Y8025151D01*
X4298170Y8047660D01*
X4286518Y8067840D01*
X4270041Y8084318D01*
X4249860Y8095969D01*
X4227352Y8102000D01*
D02*
G37*
G36*
X3973352D02*
X3950050D01*
X3927541Y8095969D01*
X3907360Y8084318D01*
X3890883Y8067840D01*
X3879232Y8047660D01*
X3873201Y8025151D01*
Y8001849D01*
X3879232Y7979340D01*
X3890883Y7959160D01*
X3907360Y7942682D01*
X3927541Y7931031D01*
X3950050Y7925000D01*
X3973352D01*
X3995860Y7931031D01*
X4016041Y7942682D01*
X4032518Y7959160D01*
X4044170Y7979340D01*
X4050201Y8001849D01*
Y8025151D01*
X4044170Y8047660D01*
X4032518Y8067840D01*
X4016041Y8084318D01*
X3995860Y8095969D01*
X3973352Y8102000D01*
D02*
G37*
G36*
X3719352D02*
X3696050D01*
X3673541Y8095969D01*
X3653360Y8084318D01*
X3636883Y8067840D01*
X3625232Y8047660D01*
X3619201Y8025151D01*
Y8001849D01*
X3625232Y7979340D01*
X3636883Y7959160D01*
X3653360Y7942682D01*
X3673541Y7931031D01*
X3696050Y7925000D01*
X3719352D01*
X3741860Y7931031D01*
X3762041Y7942682D01*
X3778518Y7959160D01*
X3790170Y7979340D01*
X3796201Y8001849D01*
Y8025151D01*
X3790170Y8047660D01*
X3778518Y8067840D01*
X3762041Y8084318D01*
X3741860Y8095969D01*
X3719352Y8102000D01*
D02*
G37*
G36*
X2957352D02*
X2934050D01*
X2911541Y8095969D01*
X2891360Y8084318D01*
X2874883Y8067840D01*
X2863232Y8047660D01*
X2857201Y8025151D01*
Y8001849D01*
X2863232Y7979340D01*
X2874883Y7959160D01*
X2891360Y7942682D01*
X2911541Y7931031D01*
X2934050Y7925000D01*
X2957352D01*
X2979860Y7931031D01*
X3000041Y7942682D01*
X3016518Y7959160D01*
X3028170Y7979340D01*
X3034201Y8001849D01*
Y8025151D01*
X3028170Y8047660D01*
X3016518Y8067840D01*
X3000041Y8084318D01*
X2979860Y8095969D01*
X2957352Y8102000D01*
D02*
G37*
G36*
X2703352D02*
X2680050D01*
X2657541Y8095969D01*
X2637360Y8084318D01*
X2620883Y8067840D01*
X2609232Y8047660D01*
X2603201Y8025151D01*
Y8001849D01*
X2609232Y7979340D01*
X2620883Y7959160D01*
X2637360Y7942682D01*
X2657541Y7931031D01*
X2680050Y7925000D01*
X2703352D01*
X2725860Y7931031D01*
X2746041Y7942682D01*
X2762518Y7959160D01*
X2774170Y7979340D01*
X2780201Y8001849D01*
Y8025151D01*
X2774170Y8047660D01*
X2762518Y8067840D01*
X2746041Y8084318D01*
X2725860Y8095969D01*
X2703352Y8102000D01*
D02*
G37*
G36*
X2449352D02*
X2426050D01*
X2403541Y8095969D01*
X2383360Y8084318D01*
X2366883Y8067840D01*
X2355232Y8047660D01*
X2349201Y8025151D01*
Y8001849D01*
X2355232Y7979340D01*
X2366883Y7959160D01*
X2383360Y7942682D01*
X2403541Y7931031D01*
X2426050Y7925000D01*
X2449352D01*
X2471860Y7931031D01*
X2492041Y7942682D01*
X2508518Y7959160D01*
X2520170Y7979340D01*
X2526201Y8001849D01*
Y8025151D01*
X2520170Y8047660D01*
X2508518Y8067840D01*
X2492041Y8084318D01*
X2471860Y8095969D01*
X2449352Y8102000D01*
D02*
G37*
G36*
X2195352D02*
X2172050D01*
X2149541Y8095969D01*
X2129360Y8084318D01*
X2112883Y8067840D01*
X2101232Y8047660D01*
X2095201Y8025151D01*
Y8001849D01*
X2101232Y7979340D01*
X2112883Y7959160D01*
X2129360Y7942682D01*
X2149541Y7931031D01*
X2172050Y7925000D01*
X2195352D01*
X2217860Y7931031D01*
X2238041Y7942682D01*
X2254518Y7959160D01*
X2266170Y7979340D01*
X2272201Y8001849D01*
Y8025151D01*
X2266170Y8047660D01*
X2254518Y8067840D01*
X2238041Y8084318D01*
X2217860Y8095969D01*
X2195352Y8102000D01*
D02*
G37*
G36*
X1433352D02*
X1410050D01*
X1387541Y8095969D01*
X1367360Y8084318D01*
X1350883Y8067840D01*
X1339232Y8047660D01*
X1333201Y8025151D01*
Y8001849D01*
X1339232Y7979340D01*
X1350883Y7959160D01*
X1367360Y7942682D01*
X1387541Y7931031D01*
X1410050Y7925000D01*
X1433352D01*
X1455860Y7931031D01*
X1476041Y7942682D01*
X1492518Y7959160D01*
X1504170Y7979340D01*
X1510201Y8001849D01*
Y8025151D01*
X1504170Y8047660D01*
X1492518Y8067840D01*
X1476041Y8084318D01*
X1455860Y8095969D01*
X1433352Y8102000D01*
D02*
G37*
G36*
X1179352D02*
X1156050D01*
X1133541Y8095969D01*
X1113360Y8084318D01*
X1096883Y8067840D01*
X1085232Y8047660D01*
X1079201Y8025151D01*
Y8001849D01*
X1085232Y7979340D01*
X1096883Y7959160D01*
X1113360Y7942682D01*
X1133541Y7931031D01*
X1156050Y7925000D01*
X1179352D01*
X1201860Y7931031D01*
X1222041Y7942682D01*
X1238518Y7959160D01*
X1250170Y7979340D01*
X1256201Y8001849D01*
Y8025151D01*
X1250170Y8047660D01*
X1238518Y8067840D01*
X1222041Y8084318D01*
X1201860Y8095969D01*
X1179352Y8102000D01*
D02*
G37*
G36*
X6595510Y8000800D02*
X6514401D01*
Y7919691D01*
X6537945Y7925999D01*
X6559357Y7938361D01*
X6576840Y7955844D01*
X6589202Y7977256D01*
X6595510Y8000800D01*
D02*
G37*
G36*
X6489001D02*
X6407891D01*
X6414200Y7977256D01*
X6426562Y7955844D01*
X6444045Y7938361D01*
X6465457Y7925999D01*
X6489001Y7919691D01*
Y8000800D01*
D02*
G37*
G36*
X6341510D02*
X6260401D01*
Y7919691D01*
X6283945Y7925999D01*
X6305357Y7938361D01*
X6322840Y7955844D01*
X6335202Y7977256D01*
X6341510Y8000800D01*
D02*
G37*
G36*
X6235001D02*
X6153891D01*
X6160200Y7977256D01*
X6172562Y7955844D01*
X6190045Y7938361D01*
X6211457Y7925999D01*
X6235001Y7919691D01*
Y8000800D01*
D02*
G37*
G36*
X5071510D02*
X4990401D01*
Y7919691D01*
X5013945Y7925999D01*
X5035357Y7938361D01*
X5052840Y7955844D01*
X5065202Y7977256D01*
X5071510Y8000800D01*
D02*
G37*
G36*
X4965001D02*
X4883891D01*
X4890200Y7977256D01*
X4902562Y7955844D01*
X4920045Y7938361D01*
X4941457Y7925999D01*
X4965001Y7919691D01*
Y8000800D01*
D02*
G37*
G36*
X4817510D02*
X4736401D01*
Y7919691D01*
X4759945Y7925999D01*
X4781357Y7938361D01*
X4798840Y7955844D01*
X4811202Y7977256D01*
X4817510Y8000800D01*
D02*
G37*
G36*
X4711001D02*
X4629891D01*
X4636200Y7977256D01*
X4648562Y7955844D01*
X4666045Y7938361D01*
X4687457Y7925999D01*
X4711001Y7919691D01*
Y8000800D01*
D02*
G37*
G36*
X3547510D02*
X3466401D01*
Y7919691D01*
X3489945Y7925999D01*
X3511357Y7938361D01*
X3528840Y7955844D01*
X3541202Y7977256D01*
X3547510Y8000800D01*
D02*
G37*
G36*
X3441001D02*
X3359891D01*
X3366200Y7977256D01*
X3378562Y7955844D01*
X3396045Y7938361D01*
X3417457Y7925999D01*
X3441001Y7919691D01*
Y8000800D01*
D02*
G37*
G36*
X3293510D02*
X3212401D01*
Y7919691D01*
X3235945Y7925999D01*
X3257357Y7938361D01*
X3274840Y7955844D01*
X3287202Y7977256D01*
X3293510Y8000800D01*
D02*
G37*
G36*
X3187001D02*
X3105891D01*
X3112200Y7977256D01*
X3124562Y7955844D01*
X3142045Y7938361D01*
X3163457Y7925999D01*
X3187001Y7919691D01*
Y8000800D01*
D02*
G37*
G36*
X2023510D02*
X1942401D01*
Y7919691D01*
X1965945Y7925999D01*
X1987357Y7938361D01*
X2004840Y7955844D01*
X2017202Y7977256D01*
X2023510Y8000800D01*
D02*
G37*
G36*
X1917001D02*
X1835891D01*
X1842200Y7977256D01*
X1854562Y7955844D01*
X1872045Y7938361D01*
X1893457Y7925999D01*
X1917001Y7919691D01*
Y8000800D01*
D02*
G37*
G36*
X1769510D02*
X1688401D01*
Y7919691D01*
X1711945Y7925999D01*
X1733357Y7938361D01*
X1750840Y7955844D01*
X1763202Y7977256D01*
X1769510Y8000800D01*
D02*
G37*
G36*
X1663001D02*
X1581891D01*
X1588200Y7977256D01*
X1600562Y7955844D01*
X1618045Y7938361D01*
X1639457Y7925999D01*
X1663001Y7919691D01*
Y8000800D01*
D02*
G37*
G36*
X7795877Y7679748D02*
X7760421D01*
X7725645Y7672830D01*
X7692887Y7659262D01*
X7663406Y7639563D01*
X7638334Y7614491D01*
X7618635Y7585010D01*
X7605066Y7552252D01*
X7598149Y7517476D01*
Y7482019D01*
X7605066Y7447244D01*
X7618635Y7414486D01*
X7638334Y7385005D01*
X7663406Y7359933D01*
X7692887Y7340234D01*
X7725645Y7326665D01*
X7760421Y7319748D01*
X7795877D01*
X7830653Y7326665D01*
X7863411Y7340234D01*
X7892892Y7359933D01*
X7917964Y7385005D01*
X7937663Y7414486D01*
X7951232Y7447244D01*
X7958149Y7482019D01*
Y7517476D01*
X7951232Y7552252D01*
X7937663Y7585010D01*
X7917964Y7614491D01*
X7892892Y7639563D01*
X7863411Y7659262D01*
X7830653Y7672830D01*
X7795877Y7679748D01*
D02*
G37*
G36*
X895228D02*
X859771D01*
X824996Y7672830D01*
X792238Y7659262D01*
X762757Y7639563D01*
X737685Y7614491D01*
X717986Y7585010D01*
X704417Y7552252D01*
X697500Y7517476D01*
Y7482019D01*
X704417Y7447244D01*
X717986Y7414486D01*
X737685Y7385005D01*
X762757Y7359933D01*
X792238Y7340234D01*
X824996Y7326665D01*
X859771Y7319748D01*
X895228D01*
X930004Y7326665D01*
X962762Y7340234D01*
X992243Y7359933D01*
X1017315Y7385005D01*
X1037014Y7414486D01*
X1050583Y7447244D01*
X1057500Y7482019D01*
Y7517476D01*
X1050583Y7552252D01*
X1037014Y7585010D01*
X1017315Y7614491D01*
X992243Y7639563D01*
X962762Y7659262D01*
X930004Y7672830D01*
X895228Y7679748D01*
D02*
G37*
G36*
X6795931Y7093326D02*
X6777870D01*
X6761183Y7086414D01*
X6748412Y7073643D01*
X6741500Y7056957D01*
Y7038895D01*
X6748412Y7022209D01*
X6761183Y7009438D01*
X6777870Y7002526D01*
X6795931D01*
X6812617Y7009438D01*
X6825389Y7022209D01*
X6832300Y7038895D01*
Y7056957D01*
X6825389Y7073643D01*
X6812617Y7086414D01*
X6795931Y7093326D01*
D02*
G37*
G36*
X7039813Y6947758D02*
X7021752D01*
X7005065Y6940846D01*
X6992294Y6928075D01*
X6985383Y6911388D01*
Y6893327D01*
X6992294Y6876641D01*
X7005065Y6863869D01*
X7021752Y6856958D01*
X7039813D01*
X7056499Y6863869D01*
X7069271Y6876641D01*
X7076182Y6893327D01*
Y6911388D01*
X7069271Y6928075D01*
X7056499Y6940846D01*
X7039813Y6947758D01*
D02*
G37*
G36*
X7681346Y6988400D02*
X7646458D01*
X7612759Y6979370D01*
X7582545Y6961926D01*
X7557875Y6937257D01*
X7540431Y6907043D01*
X7531402Y6873344D01*
Y6838456D01*
X7540431Y6804757D01*
X7557875Y6774543D01*
X7582545Y6749874D01*
X7612759Y6732430D01*
X7646458Y6723400D01*
X7681346D01*
X7715045Y6732430D01*
X7745258Y6749874D01*
X7769928Y6774543D01*
X7787372Y6804757D01*
X7796401Y6838456D01*
Y6873344D01*
X7787372Y6907043D01*
X7769928Y6937257D01*
X7745258Y6961926D01*
X7715045Y6979370D01*
X7681346Y6988400D01*
D02*
G37*
G36*
X1009944Y6987704D02*
X975056D01*
X941357Y6978674D01*
X911143Y6961230D01*
X886473Y6936561D01*
X869030Y6906347D01*
X860000Y6872648D01*
Y6837760D01*
X869030Y6804061D01*
X886473Y6773847D01*
X911143Y6749178D01*
X941357Y6731734D01*
X975056Y6722704D01*
X1009944D01*
X1043643Y6731734D01*
X1073856Y6749178D01*
X1098526Y6773847D01*
X1115970Y6804061D01*
X1125000Y6837760D01*
Y6872648D01*
X1115970Y6906347D01*
X1098526Y6936561D01*
X1073856Y6961230D01*
X1043643Y6978674D01*
X1009944Y6987704D01*
D02*
G37*
G36*
X3294509Y6655257D02*
X3276447D01*
X3259761Y6648346D01*
X3246989Y6635574D01*
X3240078Y6618888D01*
Y6600827D01*
X3246989Y6584140D01*
X3259761Y6571369D01*
X3276447Y6564457D01*
X3294509D01*
X3311195Y6571369D01*
X3323966Y6584140D01*
X3330878Y6600827D01*
Y6618888D01*
X3323966Y6635574D01*
X3311195Y6648346D01*
X3294509Y6655257D01*
D02*
G37*
G36*
X834801Y6539861D02*
X818396Y6535466D01*
X801203Y6525539D01*
X787165Y6511501D01*
X777238Y6494307D01*
X772844Y6477906D01*
X834801D01*
Y6539861D01*
D02*
G37*
G36*
X985198D02*
Y6477903D01*
X1047157D01*
X1042761Y6494307D01*
X1032835Y6511501D01*
X1018796Y6525539D01*
X1001603Y6535466D01*
X985198Y6539861D01*
D02*
G37*
G36*
X3294509Y6525257D02*
X3276447D01*
X3259761Y6518346D01*
X3246989Y6505574D01*
X3240078Y6488888D01*
Y6470827D01*
X3246989Y6454140D01*
X3259761Y6441369D01*
X3276447Y6434457D01*
X3294509D01*
X3311195Y6441369D01*
X3323966Y6454140D01*
X3330878Y6470827D01*
Y6488888D01*
X3323966Y6505574D01*
X3311195Y6518346D01*
X3294509Y6525257D01*
D02*
G37*
G36*
X7039813Y6325826D02*
X7021752D01*
X7005065Y6318914D01*
X6992294Y6306143D01*
X6985382Y6289457D01*
Y6271395D01*
X6992294Y6254709D01*
X7005065Y6241938D01*
X7021752Y6235026D01*
X7039813D01*
X7056499Y6241938D01*
X7069271Y6254709D01*
X7076182Y6271395D01*
Y6289457D01*
X7069271Y6306143D01*
X7056499Y6318914D01*
X7039813Y6325826D01*
D02*
G37*
G36*
X7708902Y6536782D02*
X7658902D01*
X7641344Y6533289D01*
X7626458Y6523343D01*
X7616513Y6508458D01*
X7613020Y6490900D01*
Y6440900D01*
X7616513Y6423342D01*
X7626458Y6408457D01*
X7628105Y6391736D01*
X7623566Y6387197D01*
X7613640Y6370004D01*
X7609245Y6353601D01*
X7683902D01*
Y6328201D01*
X7609245D01*
X7613640Y6311797D01*
X7623566Y6294604D01*
X7627003Y6291168D01*
X7636480Y6278058D01*
X7627387Y6258014D01*
X7618672Y6242919D01*
X7613902Y6225116D01*
Y6206685D01*
X7618672Y6188881D01*
X7627888Y6172919D01*
X7640921Y6159886D01*
X7656883Y6150671D01*
X7674686Y6145900D01*
X7693117D01*
X7710921Y6150671D01*
X7726882Y6159886D01*
X7730103Y6163107D01*
X7746402Y6170126D01*
X7762700Y6163107D01*
X7765921Y6159886D01*
X7781883Y6150671D01*
X7799686Y6145900D01*
X7818117D01*
X7835921Y6150671D01*
X7851882Y6159886D01*
X7864915Y6172919D01*
X7874131Y6188881D01*
X7878901Y6206685D01*
Y6225116D01*
X7874131Y6242919D01*
X7865416Y6258014D01*
X7856324Y6278058D01*
X7865801Y6291168D01*
X7869237Y6294604D01*
X7879163Y6311797D01*
X7883558Y6328200D01*
X7808903D01*
Y6353600D01*
X7883558D01*
X7879163Y6370004D01*
X7869237Y6387197D01*
X7865801Y6390633D01*
X7856324Y6403743D01*
X7865416Y6423786D01*
X7874131Y6438881D01*
X7878901Y6456685D01*
Y6475116D01*
X7874131Y6492919D01*
X7864915Y6508881D01*
X7851882Y6521914D01*
X7835921Y6531130D01*
X7818117Y6535900D01*
X7799686D01*
X7781883Y6531130D01*
X7765921Y6521914D01*
X7741344Y6523343D01*
X7726460Y6533289D01*
X7708902Y6536782D01*
D02*
G37*
G36*
X860201Y6539860D02*
Y6465206D01*
X847501D01*
Y6452506D01*
X772842D01*
X777238Y6436101D01*
X787165Y6418907D01*
X790601Y6415471D01*
X800078Y6402361D01*
X790985Y6382318D01*
X782270Y6367223D01*
X777500Y6349420D01*
Y6330988D01*
X782270Y6313185D01*
X791486Y6297223D01*
X794707Y6294002D01*
X801725Y6277704D01*
X794707Y6261406D01*
X791486Y6258185D01*
X782270Y6242223D01*
X777500Y6224420D01*
Y6205988D01*
X782270Y6188185D01*
X791486Y6172223D01*
X804519Y6159190D01*
X820481Y6149974D01*
X838284Y6145204D01*
X856715D01*
X874519Y6149974D01*
X890481Y6159190D01*
X915057Y6157761D01*
X929942Y6147815D01*
X947500Y6144322D01*
X997500D01*
X1015058Y6147815D01*
X1029943Y6157761D01*
X1039889Y6172646D01*
X1043381Y6190204D01*
Y6240204D01*
X1039889Y6257762D01*
X1029943Y6272647D01*
X1028514Y6297223D01*
X1037729Y6313185D01*
X1042500Y6330988D01*
Y6349420D01*
X1037729Y6367223D01*
X1029014Y6382318D01*
X1019922Y6402361D01*
X1029399Y6415471D01*
X1032835Y6418907D01*
X1042761Y6436101D01*
X1047156Y6452503D01*
X972498D01*
Y6465203D01*
X959798D01*
Y6539860D01*
X943396Y6535466D01*
X926203Y6525539D01*
X910000Y6513155D01*
X893796Y6525539D01*
X876603Y6535466D01*
X860201Y6539860D01*
D02*
G37*
G36*
X7168181Y6159326D02*
X7150120D01*
X7133434Y6152414D01*
X7120662Y6139643D01*
X7113751Y6122957D01*
Y6104895D01*
X7120662Y6088209D01*
X7133434Y6075438D01*
X7150120Y6068526D01*
X7168181D01*
X7184868Y6075438D01*
X7197639Y6088209D01*
X7204550Y6104895D01*
Y6122957D01*
X7197639Y6139643D01*
X7184868Y6152414D01*
X7168181Y6159326D01*
D02*
G37*
G36*
X7681346Y5958400D02*
X7646458D01*
X7612759Y5949370D01*
X7582545Y5931926D01*
X7557875Y5907257D01*
X7540431Y5877043D01*
X7531402Y5843344D01*
Y5808456D01*
X7540431Y5774757D01*
X7557875Y5744544D01*
X7582545Y5719874D01*
X7612759Y5702430D01*
X7646458Y5693400D01*
X7681346D01*
X7715045Y5702430D01*
X7745258Y5719874D01*
X7769928Y5744544D01*
X7787372Y5774757D01*
X7796401Y5808456D01*
Y5843344D01*
X7787372Y5877043D01*
X7769928Y5907257D01*
X7745258Y5931926D01*
X7715045Y5949370D01*
X7681346Y5958400D01*
D02*
G37*
G36*
X4137459Y5435200D02*
X4133647D01*
Y5322502D01*
X4246349D01*
Y5326309D01*
X4237804Y5358203D01*
X4221294Y5386797D01*
X4197947Y5410145D01*
X4169352Y5426654D01*
X4137459Y5435200D01*
D02*
G37*
G36*
X4108247D02*
X4104440D01*
X4072547Y5426654D01*
X4043952Y5410145D01*
X4020604Y5386797D01*
X4004095Y5358203D01*
X3995549Y5326309D01*
Y5322502D01*
X4108247D01*
Y5435200D01*
D02*
G37*
G36*
X4246349Y5297102D02*
X4133647D01*
Y5184400D01*
X4137459D01*
X4169352Y5192946D01*
X4197947Y5209455D01*
X4221294Y5232803D01*
X4237804Y5261398D01*
X4246349Y5293291D01*
Y5297102D01*
D02*
G37*
G36*
X4108247D02*
X3995549D01*
Y5293291D01*
X4004095Y5261398D01*
X4020604Y5232803D01*
X4043952Y5209455D01*
X4072547Y5192946D01*
X4104440Y5184400D01*
X4108247D01*
Y5297102D01*
D02*
G37*
G36*
X4136748Y4921800D02*
X4105151D01*
X4074631Y4913622D01*
X4047267Y4897824D01*
X4024925Y4875482D01*
X4009127Y4848119D01*
X4000949Y4817598D01*
Y4786002D01*
X4009127Y4755482D01*
X4024925Y4728118D01*
X4047267Y4705776D01*
X4074631Y4689978D01*
X4105151Y4681800D01*
X4136748D01*
X4167268Y4689978D01*
X4194631Y4705776D01*
X4216973Y4728118D01*
X4232772Y4755482D01*
X4240949Y4786002D01*
Y4817598D01*
X4232772Y4848119D01*
X4216973Y4875482D01*
X4194631Y4897824D01*
X4167268Y4913622D01*
X4136748Y4921800D01*
D02*
G37*
G36*
X4240949Y3905800D02*
X4000949D01*
Y3665800D01*
X4240949D01*
Y3905800D01*
D02*
G37*
G36*
X3886039Y3667800D02*
X3847860D01*
X3810981Y3657919D01*
X3777917Y3638829D01*
X3750920Y3611832D01*
X3731831Y3578768D01*
X3721949Y3541890D01*
Y3503711D01*
X3731831Y3466832D01*
X3750920Y3433768D01*
X3777917Y3406771D01*
X3810981Y3387682D01*
X3847860Y3377800D01*
X3886039D01*
X3922917Y3387682D01*
X3955981Y3406771D01*
X3982978Y3433768D01*
X4002068Y3466832D01*
X4011949Y3503711D01*
Y3541890D01*
X4002068Y3578768D01*
X3982978Y3611832D01*
X3955981Y3638829D01*
X3922917Y3657919D01*
X3886039Y3667800D01*
D02*
G37*
G36*
X5468039Y6794326D02*
X5449977D01*
X5433291Y6787414D01*
X5420520Y6774643D01*
X5413608Y6757957D01*
Y6739895D01*
X5420520Y6723209D01*
X5433291Y6710438D01*
X5449977Y6703526D01*
X5468039D01*
X5484725Y6710438D01*
X5497496Y6723209D01*
X5504408Y6739895D01*
Y6757957D01*
X5497496Y6774643D01*
X5484725Y6787414D01*
X5468039Y6794326D01*
D02*
G37*
G36*
X5475962Y6667326D02*
X5457900D01*
X5441214Y6660414D01*
X5428443Y6647643D01*
X5421531Y6630957D01*
Y6612895D01*
X5428443Y6596209D01*
X5441214Y6583438D01*
X5457900Y6576526D01*
X5475962D01*
X5492648Y6583438D01*
X5505419Y6596209D01*
X5512331Y6612895D01*
Y6630957D01*
X5505419Y6647643D01*
X5492648Y6660414D01*
X5475962Y6667326D01*
D02*
G37*
G36*
Y6540326D02*
X5457900D01*
X5441214Y6533414D01*
X5428443Y6520643D01*
X5421531Y6503957D01*
Y6485895D01*
X5428443Y6469209D01*
X5441214Y6456438D01*
X5457900Y6449526D01*
X5475962D01*
X5492648Y6456438D01*
X5505419Y6469209D01*
X5512331Y6485895D01*
Y6503957D01*
X5505419Y6520643D01*
X5492648Y6533414D01*
X5475962Y6540326D01*
D02*
G37*
G36*
X5468039Y6413326D02*
X5449977D01*
X5433291Y6406414D01*
X5420520Y6393643D01*
X5413608Y6376957D01*
Y6358895D01*
X5420520Y6342209D01*
X5433291Y6329438D01*
X5449977Y6322526D01*
X5468039D01*
X5484725Y6329438D01*
X5497496Y6342209D01*
X5504408Y6358895D01*
Y6376957D01*
X5497496Y6393643D01*
X5484725Y6406414D01*
X5468039Y6413326D01*
D02*
G37*
G36*
X4787399Y6307687D02*
Y6230201D01*
X4864886D01*
X4858940Y6252393D01*
X4847039Y6273007D01*
X4830208Y6289838D01*
X4809594Y6301739D01*
X4787399Y6307687D01*
D02*
G37*
G36*
X4761999Y6307685D02*
X4739808Y6301739D01*
X4719194Y6289838D01*
X4702363Y6273007D01*
X4690461Y6252393D01*
X4684515Y6230201D01*
X4761999D01*
Y6307685D01*
D02*
G37*
G36*
X4864887Y6204801D02*
X4774699D01*
X4684515D01*
X4690461Y6182607D01*
X4702363Y6161993D01*
X4719194Y6145162D01*
X4739808Y6133261D01*
X4761457Y6127460D01*
X4762799Y6127100D01*
X4763419Y6126906D01*
X4763510Y6102500D01*
X4761510Y6101964D01*
X4741892Y6096707D01*
X4722509Y6085517D01*
X4706684Y6069691D01*
X4695493Y6050309D01*
X4689701Y6028691D01*
Y6006310D01*
X4695493Y5984691D01*
X4706684Y5965309D01*
X4722509Y5949483D01*
X4741892Y5938293D01*
X4763510Y5932500D01*
X4785891D01*
X4807509Y5938293D01*
X4826892Y5949483D01*
X4842718Y5965309D01*
X4853908Y5984691D01*
X4859700Y6006310D01*
Y6028691D01*
X4853908Y6050309D01*
X4842718Y6069691D01*
X4826892Y6085517D01*
X4807509Y6096707D01*
X4787891Y6101964D01*
X4785892Y6102500D01*
X4785982Y6126906D01*
X4786602Y6127100D01*
X4787872Y6127441D01*
X4809594Y6133261D01*
X4830208Y6145162D01*
X4847039Y6161993D01*
X4858940Y6182607D01*
X4864887Y6204801D01*
D02*
G37*
G36*
X4785891Y5902500D02*
X4763510D01*
X4741892Y5896707D01*
X4722509Y5885517D01*
X4706684Y5869691D01*
X4695493Y5850309D01*
X4689701Y5828690D01*
Y5806309D01*
X4695493Y5784691D01*
X4706684Y5765309D01*
X4722509Y5749483D01*
X4741892Y5738293D01*
X4763510Y5732500D01*
X4785891D01*
X4807509Y5738293D01*
X4826892Y5749483D01*
X4842718Y5765309D01*
X4853908Y5784691D01*
X4859700Y5806309D01*
Y5828690D01*
X4853908Y5850309D01*
X4842718Y5869691D01*
X4826892Y5885517D01*
X4807509Y5896707D01*
X4785891Y5902500D01*
D02*
G37*
G36*
X4807201Y5703528D02*
X4742201D01*
X4721716Y5699453D01*
X4704351Y5687850D01*
X4692747Y5670484D01*
X4688672Y5650000D01*
Y5585000D01*
X4692747Y5564515D01*
X4704351Y5547150D01*
X4721716Y5535546D01*
X4742201Y5531472D01*
X4807201D01*
X4827685Y5535546D01*
X4845051Y5547150D01*
X4856654Y5564515D01*
X4860729Y5585000D01*
Y5650000D01*
X4856654Y5670484D01*
X4845051Y5687850D01*
X4827685Y5699453D01*
X4807201Y5703528D01*
D02*
G37*
G36*
X2108039Y5717800D02*
X2069860D01*
X2032981Y5707918D01*
X1999917Y5688829D01*
X1972920Y5661832D01*
X1953831Y5628768D01*
X1943949Y5591890D01*
Y5553711D01*
X1953831Y5516832D01*
X1972920Y5483768D01*
X1999917Y5456771D01*
X2032981Y5437682D01*
X2069860Y5427800D01*
X2108039D01*
X2144917Y5437682D01*
X2177981Y5456771D01*
X2204978Y5483768D01*
X2224068Y5516832D01*
X2233949Y5553711D01*
Y5591890D01*
X2224068Y5628768D01*
X2204978Y5661832D01*
X2177981Y5688829D01*
X2144917Y5707918D01*
X2108039Y5717800D01*
D02*
G37*
G36*
X6129031Y5512567D02*
X6110969D01*
X6094283Y5505655D01*
X6081512Y5492884D01*
X6074600Y5476198D01*
Y5458136D01*
X6081512Y5441450D01*
X6094283Y5428679D01*
X6110969Y5421767D01*
X6129031D01*
X6145717Y5428679D01*
X6158488Y5441450D01*
X6165400Y5458136D01*
Y5476198D01*
X6158488Y5492884D01*
X6145717Y5505655D01*
X6129031Y5512567D01*
D02*
G37*
G36*
X1585819Y5450088D02*
X1567757D01*
X1551071Y5443176D01*
X1538299Y5430405D01*
X1531388Y5413718D01*
Y5395657D01*
X1538299Y5378971D01*
X1551071Y5366199D01*
X1567757Y5359288D01*
X1585819D01*
X1602505Y5366199D01*
X1615276Y5378971D01*
X1622188Y5395657D01*
Y5413718D01*
X1615276Y5430405D01*
X1602505Y5443176D01*
X1585819Y5450088D01*
D02*
G37*
G36*
X1443037D02*
X1424976D01*
X1408290Y5443176D01*
X1395518Y5430405D01*
X1388607Y5413718D01*
Y5395657D01*
X1395518Y5378971D01*
X1408290Y5366199D01*
X1424976Y5359288D01*
X1443037D01*
X1459724Y5366199D01*
X1472495Y5378971D01*
X1479406Y5395657D01*
Y5413718D01*
X1472495Y5430405D01*
X1459724Y5443176D01*
X1443037Y5450088D01*
D02*
G37*
G36*
X6567110Y5422261D02*
X6549048D01*
X6532362Y5415349D01*
X6519591Y5402578D01*
X6512679Y5385891D01*
Y5367830D01*
X6519591Y5351144D01*
X6532362Y5338372D01*
X6549048Y5331461D01*
X6567110D01*
X6583796Y5338372D01*
X6596567Y5351144D01*
X6603479Y5367830D01*
Y5385891D01*
X6596567Y5402578D01*
X6583796Y5415349D01*
X6567110Y5422261D01*
D02*
G37*
G36*
X1850748Y5429800D02*
X1819151D01*
X1788631Y5421622D01*
X1761267Y5405824D01*
X1738925Y5383482D01*
X1723127Y5356119D01*
X1714949Y5325598D01*
Y5294002D01*
X1723127Y5263482D01*
X1738925Y5236118D01*
X1761267Y5213776D01*
X1788631Y5197978D01*
X1819151Y5189800D01*
X1850748D01*
X1881268Y5197978D01*
X1908631Y5213776D01*
X1930973Y5236118D01*
X1946772Y5263482D01*
X1954949Y5294002D01*
Y5325598D01*
X1946772Y5356119D01*
X1930973Y5383482D01*
X1908631Y5405824D01*
X1881268Y5421622D01*
X1850748Y5429800D01*
D02*
G37*
G36*
X959031Y5097900D02*
X940969D01*
X924283Y5090988D01*
X911512Y5078217D01*
X904600Y5061531D01*
Y5043469D01*
X911512Y5026783D01*
X924283Y5014012D01*
X940969Y5007100D01*
X959031D01*
X975717Y5014012D01*
X988488Y5026783D01*
X995400Y5043469D01*
Y5061531D01*
X988488Y5078217D01*
X975717Y5090988D01*
X959031Y5097900D01*
D02*
G37*
G36*
X6934337Y5036345D02*
X6916276D01*
X6899590Y5029434D01*
X6886818Y5016662D01*
X6879907Y4999976D01*
Y4981915D01*
X6886818Y4965228D01*
X6899590Y4952457D01*
X6916276Y4945545D01*
X6934337D01*
X6951024Y4952457D01*
X6963795Y4965228D01*
X6970707Y4981915D01*
Y4999976D01*
X6963795Y5016662D01*
X6951024Y5029434D01*
X6934337Y5036345D01*
D02*
G37*
G36*
X5369030Y5031595D02*
X5350969D01*
X5334283Y5024683D01*
X5321511Y5011912D01*
X5314600Y4995225D01*
Y4977164D01*
X5321511Y4960478D01*
X5334283Y4947706D01*
X5350969Y4940795D01*
X5369030D01*
X5385717Y4947706D01*
X5398488Y4960478D01*
X5405400Y4977164D01*
Y4995225D01*
X5398488Y5011912D01*
X5385717Y5024683D01*
X5369030Y5031595D01*
D02*
G37*
G36*
X1851459Y4927200D02*
X1847647D01*
Y4814502D01*
X1960349D01*
Y4818309D01*
X1951804Y4850203D01*
X1935294Y4878797D01*
X1911947Y4902145D01*
X1883352Y4918654D01*
X1851459Y4927200D01*
D02*
G37*
G36*
X1822247D02*
X1818440D01*
X1786547Y4918654D01*
X1757952Y4902145D01*
X1734604Y4878797D01*
X1718095Y4850203D01*
X1709549Y4818309D01*
Y4814502D01*
X1822247D01*
Y4927200D01*
D02*
G37*
G36*
X5769843Y4768201D02*
X5751782D01*
X5735095Y4761290D01*
X5722324Y4748518D01*
X5715412Y4731832D01*
Y4713771D01*
X5722324Y4697084D01*
X5735095Y4684313D01*
X5751782Y4677401D01*
X5769843D01*
X5786529Y4684313D01*
X5799301Y4697084D01*
X5806212Y4713771D01*
Y4731832D01*
X5799301Y4748518D01*
X5786529Y4761290D01*
X5769843Y4768201D01*
D02*
G37*
G36*
X1960349Y4789102D02*
X1847647D01*
Y4676400D01*
X1851459D01*
X1883352Y4684946D01*
X1911947Y4701455D01*
X1935294Y4724803D01*
X1951804Y4753398D01*
X1960349Y4785291D01*
Y4789102D01*
D02*
G37*
G36*
X1822247D02*
X1709549D01*
Y4785291D01*
X1718095Y4753398D01*
X1734604Y4724803D01*
X1757952Y4701455D01*
X1786547Y4684946D01*
X1818440Y4676400D01*
X1822247D01*
Y4789102D01*
D02*
G37*
G36*
X6310931Y4831028D02*
X6292870D01*
X6276183Y4824117D01*
X6263412Y4811345D01*
X6256500Y4794659D01*
Y4776598D01*
X6260390Y4767208D01*
X6269673Y4744385D01*
X6256901Y4731614D01*
X6249990Y4714927D01*
Y4696866D01*
X6256901Y4680180D01*
X6269673Y4667408D01*
X6286359Y4660497D01*
X6304420D01*
X6321107Y4667408D01*
X6333878Y4680180D01*
X6340790Y4696866D01*
Y4714927D01*
X6336900Y4724317D01*
X6327618Y4747140D01*
X6340389Y4759911D01*
X6347300Y4776598D01*
Y4794659D01*
X6340389Y4811345D01*
X6327617Y4824117D01*
X6310931Y4831028D01*
D02*
G37*
G36*
X1285931Y4685110D02*
X1267870D01*
X1251184Y4678198D01*
X1238412Y4665427D01*
X1231501Y4648741D01*
Y4630679D01*
X1238412Y4613993D01*
X1251184Y4601221D01*
X1267870Y4594310D01*
X1285931D01*
X1302618Y4601221D01*
X1315389Y4613993D01*
X1322301Y4630679D01*
Y4648741D01*
X1315389Y4665427D01*
X1302618Y4678198D01*
X1285931Y4685110D01*
D02*
G37*
G36*
X6474739Y4503201D02*
X6456678D01*
X6439991Y4496290D01*
X6427220Y4483518D01*
X6420308Y4466832D01*
Y4448771D01*
X6427220Y4432084D01*
X6439991Y4419313D01*
X6456678Y4412401D01*
X6474739D01*
X6491425Y4419313D01*
X6504197Y4432084D01*
X6511108Y4448771D01*
Y4466832D01*
X6504197Y4483518D01*
X6491425Y4496290D01*
X6474739Y4503201D01*
D02*
G37*
G36*
X5421430Y4498512D02*
X5403369D01*
X5386683Y4491600D01*
X5373911Y4478829D01*
X5367000Y4462142D01*
Y4444081D01*
X5373911Y4427395D01*
X5386683Y4414623D01*
X5403369Y4407712D01*
X5421430D01*
X5438117Y4414623D01*
X5450888Y4427395D01*
X5457800Y4444081D01*
Y4462142D01*
X5450888Y4478829D01*
X5438117Y4491600D01*
X5421430Y4498512D01*
D02*
G37*
G36*
X4848920Y4453493D02*
X4830859D01*
X4814173Y4446581D01*
X4801401Y4433810D01*
X4794490Y4417123D01*
Y4399062D01*
X4801401Y4382376D01*
X4814173Y4369604D01*
X4830859Y4362693D01*
X4848920D01*
X4865607Y4369604D01*
X4878378Y4382376D01*
X4885290Y4399062D01*
Y4417123D01*
X4878378Y4433810D01*
X4865607Y4446581D01*
X4848920Y4453493D01*
D02*
G37*
G36*
X5434594Y4368201D02*
X5416532D01*
X5399846Y4361289D01*
X5387075Y4348518D01*
X5380163Y4331831D01*
Y4313770D01*
X5387075Y4297084D01*
X5399846Y4284312D01*
X5416532Y4277401D01*
X5434594D01*
X5451280Y4284312D01*
X5464052Y4297084D01*
X5470963Y4313770D01*
Y4331831D01*
X5464052Y4348518D01*
X5451280Y4361289D01*
X5434594Y4368201D01*
D02*
G37*
G36*
X1850748Y4413800D02*
X1819151D01*
X1788631Y4405622D01*
X1761267Y4389824D01*
X1738925Y4367482D01*
X1723127Y4340119D01*
X1714949Y4309598D01*
Y4278002D01*
X1723127Y4247482D01*
X1738925Y4220118D01*
X1761267Y4197776D01*
X1788631Y4181978D01*
X1819151Y4173800D01*
X1850748D01*
X1881268Y4181978D01*
X1908631Y4197776D01*
X1930973Y4220118D01*
X1946772Y4247482D01*
X1954949Y4278002D01*
Y4309598D01*
X1946772Y4340119D01*
X1930973Y4367482D01*
X1908631Y4389824D01*
X1881268Y4405622D01*
X1850748Y4413800D01*
D02*
G37*
G36*
X7319221Y4106899D02*
X7301159D01*
X7284473Y4099987D01*
X7271701Y4087216D01*
X7266086Y4073660D01*
X7251376Y4066632D01*
X7240152Y4063371D01*
X7225821Y4069307D01*
X7207759D01*
X7191073Y4062395D01*
X7178302Y4049624D01*
X7171390Y4032938D01*
Y4014876D01*
X7178302Y3998190D01*
X7191073Y3985419D01*
X7207759Y3978507D01*
X7225821D01*
X7242507Y3985419D01*
X7255278Y3998190D01*
X7260894Y4011747D01*
X7275604Y4018774D01*
X7286828Y4022035D01*
X7301159Y4016099D01*
X7319221D01*
X7335907Y4023011D01*
X7348678Y4035782D01*
X7355590Y4052468D01*
Y4070530D01*
X7348678Y4087216D01*
X7335907Y4099987D01*
X7319221Y4106899D01*
D02*
G37*
G36*
X5719110Y4032097D02*
X5701049D01*
X5684362Y4025185D01*
X5671591Y4012414D01*
X5664679Y3995728D01*
Y3977666D01*
X5671591Y3960980D01*
X5684362Y3948209D01*
X5701049Y3941297D01*
X5719110D01*
X5735796Y3948209D01*
X5748568Y3960980D01*
X5755479Y3977666D01*
Y3995728D01*
X5748568Y4012414D01*
X5735796Y4025185D01*
X5719110Y4032097D01*
D02*
G37*
G36*
X7657577Y3937348D02*
X7639515D01*
X7622829Y3930437D01*
X7610058Y3917665D01*
X7603146Y3900979D01*
Y3882918D01*
X7610058Y3866231D01*
X7622829Y3853460D01*
X7639515Y3846548D01*
X7657577D01*
X7674263Y3853460D01*
X7687034Y3866231D01*
X7693946Y3882918D01*
Y3900979D01*
X7687034Y3917665D01*
X7674263Y3930437D01*
X7657577Y3937348D01*
D02*
G37*
G36*
X1850748Y3905800D02*
X1819151D01*
X1788631Y3897622D01*
X1761267Y3881824D01*
X1738925Y3859482D01*
X1723127Y3832119D01*
X1714949Y3801598D01*
Y3770002D01*
X1723127Y3739482D01*
X1738925Y3712118D01*
X1761267Y3689776D01*
X1788631Y3673978D01*
X1819151Y3665800D01*
X1850748D01*
X1881268Y3673978D01*
X1908631Y3689776D01*
X1930973Y3712118D01*
X1946772Y3739482D01*
X1954949Y3770002D01*
Y3801598D01*
X1946772Y3832119D01*
X1930973Y3859482D01*
X1908631Y3881824D01*
X1881268Y3897622D01*
X1850748Y3905800D01*
D02*
G37*
G36*
X7883819Y3791029D02*
X7818819D01*
X7798334Y3786954D01*
X7780968Y3775351D01*
X7769365Y3757985D01*
X7765290Y3737501D01*
Y3672501D01*
X7769365Y3652016D01*
X7780968Y3634651D01*
X7798334Y3623047D01*
X7818819Y3618972D01*
X7883819D01*
X7904303Y3623047D01*
X7921669Y3634651D01*
X7933272Y3652016D01*
X7937347Y3672501D01*
Y3737501D01*
X7933272Y3757985D01*
X7921669Y3775351D01*
X7904303Y3786954D01*
X7883819Y3791029D01*
D02*
G37*
G36*
X5695110Y3681679D02*
X5677049D01*
X5660362Y3674768D01*
X5647591Y3661996D01*
X5640679Y3645310D01*
Y3627249D01*
X5647591Y3610563D01*
X5660362Y3597791D01*
X5677049Y3590880D01*
X5695110D01*
X5711796Y3597791D01*
X5724568Y3610563D01*
X5731479Y3627249D01*
Y3645310D01*
X5724568Y3661996D01*
X5711796Y3674768D01*
X5695110Y3681679D01*
D02*
G37*
G36*
X6454110Y3576678D02*
X6436049D01*
X6419362Y3569767D01*
X6406591Y3556995D01*
X6399679Y3540309D01*
Y3522248D01*
X6406591Y3505561D01*
X6419362Y3492790D01*
X6436049Y3485878D01*
X6454110D01*
X6470796Y3492790D01*
X6483568Y3505561D01*
X6490479Y3522248D01*
Y3540309D01*
X6483568Y3556995D01*
X6470796Y3569767D01*
X6454110Y3576678D01*
D02*
G37*
G36*
X7862509Y3590000D02*
X7840128D01*
X7818510Y3584208D01*
X7799127Y3573017D01*
X7783302Y3557192D01*
X7772111Y3537809D01*
X7766319Y3516191D01*
Y3493810D01*
X7772111Y3472192D01*
X7783302Y3452809D01*
X7799127Y3436984D01*
X7818510Y3425793D01*
X7840128Y3420001D01*
X7862509D01*
X7884127Y3425793D01*
X7903510Y3436984D01*
X7919335Y3452809D01*
X7930526Y3472192D01*
X7936318Y3493810D01*
Y3516191D01*
X7930526Y3537809D01*
X7919335Y3557192D01*
X7903510Y3573017D01*
X7884127Y3584208D01*
X7862509Y3590000D01*
D02*
G37*
G36*
Y3390000D02*
X7840128D01*
X7818510Y3384208D01*
X7799127Y3373017D01*
X7783302Y3357192D01*
X7772111Y3337809D01*
X7766319Y3316191D01*
Y3293810D01*
X7772111Y3272192D01*
X7783302Y3252809D01*
X7799127Y3236984D01*
X7818510Y3225793D01*
X7840128Y3220001D01*
X7862509D01*
X7884127Y3225793D01*
X7903510Y3236984D01*
X7919335Y3252809D01*
X7930526Y3272192D01*
X7936318Y3293810D01*
Y3316191D01*
X7930526Y3337809D01*
X7919335Y3357192D01*
X7903510Y3373017D01*
X7884127Y3384208D01*
X7862509Y3390000D01*
D02*
G37*
G36*
X6749110Y3293037D02*
X6731049D01*
X6714362Y3286126D01*
X6701591Y3273354D01*
X6694679Y3256668D01*
Y3238606D01*
X6701591Y3221920D01*
X6714362Y3209149D01*
X6731049Y3202237D01*
X6749110D01*
X6765796Y3209149D01*
X6778568Y3221920D01*
X6785479Y3238606D01*
Y3256668D01*
X6778568Y3273354D01*
X6765796Y3286126D01*
X6749110Y3293037D01*
D02*
G37*
G36*
X7122901Y3292599D02*
X7104839D01*
X7088153Y3285687D01*
X7075382Y3272916D01*
X7068470Y3256229D01*
Y3238168D01*
X7075382Y3221482D01*
X7088153Y3208710D01*
X7104839Y3201799D01*
X7122901D01*
X7139587Y3208710D01*
X7152359Y3221482D01*
X7159270Y3238168D01*
Y3256229D01*
X7152359Y3272916D01*
X7139587Y3285687D01*
X7122901Y3292599D01*
D02*
G37*
G36*
X6983671Y3215400D02*
X6965609D01*
X6948923Y3208489D01*
X6936151Y3195718D01*
X6929240Y3179031D01*
Y3160970D01*
X6936151Y3144284D01*
X6948923Y3131512D01*
X6965609Y3124601D01*
X6983671D01*
X7000357Y3131512D01*
X7013128Y3144284D01*
X7020040Y3160970D01*
Y3179031D01*
X7013128Y3195718D01*
X7000357Y3208489D01*
X6983671Y3215400D01*
D02*
G37*
G36*
X1324718Y3182900D02*
X1306656D01*
X1289970Y3175988D01*
X1277199Y3163217D01*
X1270287Y3146531D01*
Y3128469D01*
X1277199Y3111783D01*
X1289970Y3099012D01*
X1306656Y3092100D01*
X1324718D01*
X1341404Y3099012D01*
X1354175Y3111783D01*
X1361087Y3128469D01*
Y3146531D01*
X1354175Y3163217D01*
X1341404Y3175988D01*
X1324718Y3182900D01*
D02*
G37*
G36*
X6539110Y3145399D02*
X6521048D01*
X6504362Y3138487D01*
X6491591Y3125716D01*
X6484679Y3109030D01*
Y3090968D01*
X6491591Y3074282D01*
X6504362Y3061511D01*
X6521048Y3054599D01*
X6539110D01*
X6555796Y3061511D01*
X6568568Y3074282D01*
X6575479Y3090968D01*
Y3109030D01*
X6568568Y3125716D01*
X6555796Y3138487D01*
X6539110Y3145399D01*
D02*
G37*
G36*
X7862509Y3190000D02*
X7840128D01*
X7818510Y3184208D01*
X7799127Y3173017D01*
X7783302Y3157192D01*
X7772111Y3137809D01*
X7766319Y3116191D01*
Y3093810D01*
X7772111Y3072192D01*
X7783302Y3052809D01*
X7799127Y3036984D01*
X7818510Y3025793D01*
X7840128Y3020001D01*
X7862509D01*
X7884127Y3025793D01*
X7903510Y3036984D01*
X7919335Y3052809D01*
X7930526Y3072192D01*
X7936318Y3093810D01*
Y3116191D01*
X7930526Y3137809D01*
X7919335Y3157192D01*
X7903510Y3173017D01*
X7884127Y3184208D01*
X7862509Y3190000D01*
D02*
G37*
G36*
X1457218Y3050400D02*
X1439156D01*
X1422470Y3043488D01*
X1409698Y3030717D01*
X1402787Y3014031D01*
Y2995969D01*
X1409698Y2979283D01*
X1422470Y2966512D01*
X1439156Y2959600D01*
X1457218D01*
X1473904Y2966512D01*
X1486675Y2979283D01*
X1493587Y2995969D01*
Y3014031D01*
X1486675Y3030717D01*
X1473904Y3043488D01*
X1457218Y3050400D01*
D02*
G37*
G36*
X6632737Y3033793D02*
X6614676D01*
X6597990Y3026881D01*
X6585218Y3014110D01*
X6578307Y2997424D01*
Y2979362D01*
X6585218Y2962676D01*
X6597990Y2949905D01*
X6614676Y2942993D01*
X6632737D01*
X6649424Y2949905D01*
X6662195Y2962676D01*
X6669107Y2979362D01*
Y2997424D01*
X6662195Y3014110D01*
X6649424Y3026881D01*
X6632737Y3033793D01*
D02*
G37*
G36*
X7423907Y2883200D02*
X7405846D01*
X7389159Y2876289D01*
X7376388Y2863517D01*
X7369476Y2846831D01*
Y2828770D01*
X7376388Y2812083D01*
X7389159Y2799312D01*
X7405846Y2792400D01*
X7423907D01*
X7440593Y2799312D01*
X7453365Y2812083D01*
X7460276Y2828770D01*
Y2846831D01*
X7453365Y2863517D01*
X7440593Y2876289D01*
X7423907Y2883200D01*
D02*
G37*
G36*
X7864484Y2915901D02*
X7838153D01*
X7812720Y2909086D01*
X7789917Y2895921D01*
X7771299Y2877302D01*
X7758134Y2854499D01*
X7751319Y2829066D01*
Y2802736D01*
X7758134Y2777303D01*
X7771299Y2754500D01*
X7789917Y2735881D01*
X7812720Y2722716D01*
X7838153Y2715901D01*
X7864484D01*
X7889917Y2722716D01*
X7912720Y2735881D01*
X7931338Y2754500D01*
X7944504Y2777303D01*
X7951318Y2802736D01*
Y2829066D01*
X7944504Y2854499D01*
X7931338Y2877302D01*
X7912720Y2895921D01*
X7889917Y2909086D01*
X7864484Y2915901D01*
D02*
G37*
G36*
X7891318Y2663076D02*
X7811319D01*
X7787908Y2658420D01*
X7768061Y2645159D01*
X7754800Y2625312D01*
X7750143Y2601901D01*
Y2521901D01*
X7754800Y2498490D01*
X7768061Y2478644D01*
X7787908Y2465382D01*
X7811319Y2460726D01*
X7891318D01*
X7914729Y2465382D01*
X7934576Y2478644D01*
X7947837Y2498490D01*
X7952494Y2521901D01*
Y2601901D01*
X7947837Y2625312D01*
X7934576Y2645159D01*
X7914729Y2658420D01*
X7891318Y2663076D01*
D02*
G37*
G36*
X7303221Y2309700D02*
X7285159D01*
X7268473Y2302788D01*
X7255702Y2290017D01*
X7248790Y2273331D01*
Y2255269D01*
X7255702Y2238583D01*
X7268473Y2225812D01*
X7285159Y2218900D01*
X7303221D01*
X7319907Y2225812D01*
X7332678Y2238583D01*
X7339590Y2255269D01*
Y2273331D01*
X7332678Y2290017D01*
X7319907Y2302788D01*
X7303221Y2309700D01*
D02*
G37*
G36*
X7900793Y1379878D02*
X7865336D01*
X7830561Y1372961D01*
X7797803Y1359392D01*
X7768322Y1339693D01*
X7743250Y1314621D01*
X7723551Y1285140D01*
X7709982Y1252382D01*
X7703065Y1217607D01*
Y1182150D01*
X7709982Y1147374D01*
X7723551Y1114616D01*
X7743250Y1085135D01*
X7768322Y1060063D01*
X7797803Y1040364D01*
X7830561Y1026796D01*
X7865336Y1019878D01*
X7900793D01*
X7935569Y1026796D01*
X7968327Y1040364D01*
X7997808Y1060063D01*
X8022880Y1085135D01*
X8042579Y1114616D01*
X8056147Y1147374D01*
X8063065Y1182150D01*
Y1217607D01*
X8056147Y1252382D01*
X8042579Y1285140D01*
X8022880Y1314621D01*
X7997808Y1339693D01*
X7968327Y1359392D01*
X7935569Y1372961D01*
X7900793Y1379878D01*
D02*
G37*
G36*
X2008408Y963484D02*
X1986591D01*
X1965517Y957838D01*
X1946622Y946929D01*
X1931195Y931502D01*
X1920286Y912607D01*
X1914640Y891533D01*
Y869716D01*
X1920286Y848642D01*
X1931195Y829747D01*
X1946622Y814320D01*
X1965517Y803411D01*
X1986591Y797765D01*
X2008408D01*
X2029482Y803411D01*
X2048377Y814320D01*
X2063804Y829747D01*
X2074713Y848642D01*
X2080360Y869716D01*
Y891533D01*
X2074713Y912607D01*
X2063804Y931502D01*
X2048377Y946929D01*
X2029482Y957838D01*
X2008408Y963484D01*
D02*
G37*
G36*
X895228Y980000D02*
X859771D01*
X824996Y973083D01*
X792238Y959514D01*
X762757Y939815D01*
X737685Y914744D01*
X717986Y885262D01*
X704417Y852505D01*
X697500Y817729D01*
Y782272D01*
X704417Y747496D01*
X717986Y714738D01*
X737685Y685257D01*
X762757Y660185D01*
X792238Y640487D01*
X824996Y626918D01*
X859771Y620001D01*
X895228D01*
X930004Y626918D01*
X962762Y640487D01*
X992243Y660185D01*
X1017315Y685257D01*
X1037014Y714738D01*
X1050583Y747496D01*
X1057500Y782272D01*
Y817729D01*
X1050583Y852505D01*
X1037014Y885262D01*
X1017315Y914744D01*
X992243Y939815D01*
X962762Y959514D01*
X930004Y973083D01*
X895228Y980000D01*
D02*
G37*
G36*
X9679468Y646378D02*
X9666577D01*
Y581818D01*
X9684117D01*
X9685808Y581923D01*
X9687815Y582029D01*
X9689823Y582135D01*
X9691619Y582346D01*
X9692464Y582557D01*
X9693204Y582663D01*
X9693310D01*
X9693415Y582769D01*
X9694049Y582874D01*
X9694895Y583191D01*
X9695951Y583614D01*
X9697219Y584248D01*
X9698593Y584988D01*
X9699861Y585833D01*
X9701129Y586784D01*
X9701235Y586890D01*
X9701657Y587312D01*
X9702291Y588052D01*
X9702925Y589003D01*
X9703771Y590377D01*
X9704616Y591961D01*
X9705461Y593863D01*
X9706306Y596188D01*
Y596294D01*
X9706412Y596505D01*
X9706518Y596822D01*
X9706623Y597350D01*
X9706729Y598090D01*
X9706940Y598830D01*
X9707152Y599781D01*
X9707363Y600837D01*
X9707469Y602105D01*
X9707680Y603479D01*
X9707891Y604852D01*
X9707997Y606437D01*
X9708103Y608234D01*
X9708208Y610030D01*
X9708314Y612038D01*
Y614045D01*
Y614151D01*
Y614574D01*
Y615102D01*
Y615947D01*
X9708208Y616898D01*
Y617955D01*
X9708103Y619117D01*
Y620491D01*
X9707786Y623238D01*
X9707469Y626091D01*
X9706940Y628944D01*
X9706623Y630212D01*
X9706306Y631374D01*
Y631480D01*
X9706201Y631691D01*
X9706095Y632008D01*
X9705989Y632325D01*
X9705461Y633487D01*
X9704827Y634861D01*
X9704088Y636340D01*
X9703137Y637925D01*
X9701974Y639405D01*
X9700706Y640778D01*
X9700495Y640884D01*
X9700072Y641307D01*
X9699227Y641941D01*
X9698170Y642680D01*
X9696902Y643420D01*
X9695317Y644159D01*
X9693521Y644899D01*
X9691514Y645427D01*
X9691302D01*
X9691091Y645533D01*
X9690668D01*
X9690246Y645639D01*
X9689612Y645744D01*
X9688872Y645850D01*
X9687921Y645956D01*
X9686970D01*
X9685808Y646061D01*
X9684434Y646167D01*
X9682955Y646273D01*
X9681264D01*
X9679468Y646378D01*
D02*
G37*
%LPD*%
D80*
X4774701Y6217500D02*
D03*
D82*
X4120949Y5309800D02*
D03*
X1834949Y4801800D02*
D03*
D86*
X847500Y6465204D02*
D03*
X972500D02*
D03*
X7683902Y6340900D02*
D03*
X7808902D02*
D03*
D88*
X1865000Y1013125D02*
D03*
X2130000D02*
D03*
Y748124D02*
D03*
X1865000D02*
D03*
D92*
X1688401Y8813600D02*
D03*
Y8559600D02*
D03*
X1942401Y8813600D02*
D03*
Y8559600D02*
D03*
X3212401Y8813600D02*
D03*
Y8559600D02*
D03*
X3466401Y8813600D02*
D03*
Y8559600D02*
D03*
X4736401Y8813600D02*
D03*
Y8559600D02*
D03*
X4990401Y8813600D02*
D03*
Y8559600D02*
D03*
X6260401Y8813600D02*
D03*
Y8559600D02*
D03*
X6514401Y8813600D02*
D03*
Y8559600D02*
D03*
X1675701Y8267500D02*
D03*
Y8013500D02*
D03*
X1929701Y8267500D02*
D03*
Y8013500D02*
D03*
X3199701Y8267500D02*
D03*
Y8013500D02*
D03*
X3453701Y8267500D02*
D03*
Y8013500D02*
D03*
X4723701Y8267500D02*
D03*
Y8013500D02*
D03*
X4977701Y8267500D02*
D03*
Y8013500D02*
D03*
X6247701Y8267500D02*
D03*
Y8013500D02*
D03*
X6501701Y8267500D02*
D03*
Y8013500D02*
D03*
D95*
X5939317Y3374686D02*
D03*
X7324089Y4307558D02*
D03*
X1086901Y4955300D02*
D03*
X1176901Y4902800D02*
D03*
X1086901Y4850301D02*
D03*
X1266901D02*
D03*
Y4955300D02*
D03*
X2809948Y6642357D02*
D03*
X2869948Y6702357D02*
D03*
X2929948Y6762357D02*
D03*
X2869948Y6822357D02*
D03*
X2809948Y6762357D02*
D03*
X2749948Y6822357D02*
D03*
Y6702357D02*
D03*
X2689948Y6762357D02*
D03*
X2929948Y6642357D02*
D03*
X2869948Y6582357D02*
D03*
X2929948Y6522358D02*
D03*
X2869948Y6462358D02*
D03*
X2809948Y6522358D02*
D03*
X2749948Y6462358D02*
D03*
Y6582357D02*
D03*
X2689948Y6522358D02*
D03*
Y6642357D02*
D03*
X1489400Y2632257D02*
D03*
X1399944Y2542800D02*
D03*
X8195702Y8622301D02*
D03*
X8070702Y8372301D02*
D03*
X8195702Y7622301D02*
D03*
X8070702Y7372301D02*
D03*
X8195702Y7122301D02*
D03*
X8070702Y6872301D02*
D03*
X8195702Y6622301D02*
D03*
X8070702Y6372301D02*
D03*
X8195702Y6122301D02*
D03*
X8070702Y5872301D02*
D03*
X7820702Y8372301D02*
D03*
X7945702Y7622301D02*
D03*
Y7122301D02*
D03*
Y6622301D02*
D03*
Y6122301D02*
D03*
X7820702Y5872301D02*
D03*
X7945702Y5622301D02*
D03*
X7695702Y8622301D02*
D03*
X7570702Y8372301D02*
D03*
X7695702Y8122301D02*
D03*
X7570702Y7872301D02*
D03*
Y7372301D02*
D03*
X7695702Y7122301D02*
D03*
X7570702Y6372301D02*
D03*
X7695702Y5622301D02*
D03*
X7320702Y8372301D02*
D03*
X7445702Y7622301D02*
D03*
X7320702Y7372301D02*
D03*
X7445702Y7122301D02*
D03*
X7320702Y6872301D02*
D03*
Y5872301D02*
D03*
X7070702Y8372301D02*
D03*
X7195702Y7622301D02*
D03*
X7070702Y7372301D02*
D03*
X7195702Y7122301D02*
D03*
X6820702Y8372301D02*
D03*
X6945702Y8122301D02*
D03*
X6820702Y7872301D02*
D03*
X6945702Y7622301D02*
D03*
X6820702Y7372301D02*
D03*
X6945702Y7122301D02*
D03*
X6570702Y8372301D02*
D03*
X6695702Y8122301D02*
D03*
X6570702Y7872301D02*
D03*
X6695702Y7622301D02*
D03*
X6570702Y7372301D02*
D03*
X6320702Y8372301D02*
D03*
X6445702Y8122301D02*
D03*
X6320702Y7872301D02*
D03*
X6445702Y7622301D02*
D03*
X6195702Y8122301D02*
D03*
X5945702D02*
D03*
X5820702Y7872301D02*
D03*
X5945702Y7622301D02*
D03*
X5695702Y8122301D02*
D03*
Y7622301D02*
D03*
X5445702Y8122301D02*
D03*
Y7622301D02*
D03*
X5070702Y8372301D02*
D03*
X5195702Y8122301D02*
D03*
X5070702Y7872301D02*
D03*
X5195702Y7622301D02*
D03*
X4820702Y8372301D02*
D03*
Y7872301D02*
D03*
X4945702Y7622301D02*
D03*
X4570702Y8372301D02*
D03*
Y7872301D02*
D03*
X4695702Y7622301D02*
D03*
X4320702Y8372301D02*
D03*
Y7872301D02*
D03*
Y7372301D02*
D03*
Y5372301D02*
D03*
Y4872301D02*
D03*
Y4372301D02*
D03*
Y3872301D02*
D03*
X4070702Y8372301D02*
D03*
X4195702Y7622301D02*
D03*
Y5622301D02*
D03*
Y5122301D02*
D03*
Y4622301D02*
D03*
X4070702Y4372301D02*
D03*
X4195702Y4122301D02*
D03*
Y3622301D02*
D03*
X4070702Y3372301D02*
D03*
X3820702Y8372301D02*
D03*
X3945702Y7622301D02*
D03*
X3820702Y7372301D02*
D03*
X3570702Y8372301D02*
D03*
Y7372301D02*
D03*
X3695702Y6622301D02*
D03*
X3570702Y6372301D02*
D03*
Y3872301D02*
D03*
X3695702Y3622301D02*
D03*
X3570702Y3372301D02*
D03*
X3320702Y8372301D02*
D03*
Y7372301D02*
D03*
X3445702Y6122301D02*
D03*
X3320702Y5872301D02*
D03*
X3445702Y5622301D02*
D03*
Y5122301D02*
D03*
Y4622301D02*
D03*
Y4122301D02*
D03*
Y3622301D02*
D03*
X3070702Y8372301D02*
D03*
Y7372301D02*
D03*
X3195702Y6122301D02*
D03*
X2820702Y8372301D02*
D03*
Y7372301D02*
D03*
X2945702Y7122301D02*
D03*
X2570702Y8372301D02*
D03*
X2695702Y7122301D02*
D03*
X2320702Y8372301D02*
D03*
X2445702Y7122301D02*
D03*
X2070702Y8372301D02*
D03*
X1820702D02*
D03*
X1945702Y6122301D02*
D03*
X1570702Y8372301D02*
D03*
X1695702Y6622301D02*
D03*
Y6122301D02*
D03*
X1320702Y8372301D02*
D03*
Y7872301D02*
D03*
X1445702Y6122301D02*
D03*
X1070702Y8372301D02*
D03*
Y7872301D02*
D03*
X1195702Y7622301D02*
D03*
X1070702Y7372301D02*
D03*
X945702Y8622301D02*
D03*
X820702Y8372301D02*
D03*
X945702Y8122301D02*
D03*
Y7122301D02*
D03*
X820702Y6872301D02*
D03*
X570702Y8372301D02*
D03*
X695702Y7622301D02*
D03*
X570702Y7372301D02*
D03*
X695702Y7122301D02*
D03*
X570702Y6872301D02*
D03*
X695702Y6622301D02*
D03*
X570702Y6372301D02*
D03*
X695702Y6122301D02*
D03*
X8445702Y372301D02*
D03*
X8070702Y5122301D02*
D03*
X8195702Y4872301D02*
D03*
X8070702Y4622301D02*
D03*
X8195702Y4372301D02*
D03*
X8070702Y4122301D02*
D03*
X8195702Y3872301D02*
D03*
X8070702Y3622301D02*
D03*
X8195702Y3372301D02*
D03*
X8070702Y3122301D02*
D03*
X8195702Y2872301D02*
D03*
X8070702Y2622301D02*
D03*
X8195702Y2372301D02*
D03*
X8070702Y2122301D02*
D03*
X8195702Y1872301D02*
D03*
X8070702Y1622301D02*
D03*
X8195702Y1372301D02*
D03*
Y872301D02*
D03*
X8070702Y622301D02*
D03*
Y122301D02*
D03*
X7945702Y5372301D02*
D03*
X7820702Y5122301D02*
D03*
X7945702Y4872301D02*
D03*
X7820702Y4622301D02*
D03*
X7945702Y4372301D02*
D03*
X7820702Y4122301D02*
D03*
X7945702Y2372301D02*
D03*
X7820702Y2122301D02*
D03*
X7945702Y1872301D02*
D03*
X7820702Y1622301D02*
D03*
X7945702Y872301D02*
D03*
X7820702Y622301D02*
D03*
X7945702Y372301D02*
D03*
X7695702Y5372301D02*
D03*
X7570702Y5122301D02*
D03*
X7695702Y2372301D02*
D03*
Y1872301D02*
D03*
X7570702Y1622301D02*
D03*
X7695702Y1372301D02*
D03*
X7445702Y5372301D02*
D03*
X7320702Y5122301D02*
D03*
X7445702Y1872301D02*
D03*
X7320702Y1622301D02*
D03*
X7445702Y1372301D02*
D03*
X7195702Y5372301D02*
D03*
Y4872301D02*
D03*
X7070702Y3622301D02*
D03*
X7195702Y2872301D02*
D03*
Y2372301D02*
D03*
Y1872301D02*
D03*
X7070702Y1622301D02*
D03*
X7195702Y1372301D02*
D03*
X6945702Y5372301D02*
D03*
Y2372301D02*
D03*
Y1872301D02*
D03*
X6695702Y2872301D02*
D03*
X6570702Y2622301D02*
D03*
X6695702Y2372301D02*
D03*
X6570702Y2122301D02*
D03*
X6695702Y1872301D02*
D03*
X6445702Y4872301D02*
D03*
X6320702Y4622301D02*
D03*
Y4122301D02*
D03*
X6445702Y3372301D02*
D03*
Y1872301D02*
D03*
X6195702Y4872301D02*
D03*
X6070702Y4622301D02*
D03*
X6195702Y4372301D02*
D03*
X6070702Y4122301D02*
D03*
Y2122301D02*
D03*
X6195702Y1872301D02*
D03*
X5820702Y7122301D02*
D03*
Y6122301D02*
D03*
X5945702Y5372301D02*
D03*
Y4872301D02*
D03*
X5820702Y4622301D02*
D03*
X5945702Y4372301D02*
D03*
X5820702Y4122301D02*
D03*
X5945702Y1872301D02*
D03*
X5695702Y5372301D02*
D03*
Y3872301D02*
D03*
Y3372301D02*
D03*
X5570702Y3122301D02*
D03*
Y2622301D02*
D03*
Y2122301D02*
D03*
X5695702Y1872301D02*
D03*
X5320702Y6122301D02*
D03*
X5445702Y5372301D02*
D03*
X5320702Y4122301D02*
D03*
X5445702Y3872301D02*
D03*
Y3372301D02*
D03*
Y2872301D02*
D03*
Y2372301D02*
D03*
Y1872301D02*
D03*
X5070702Y7122301D02*
D03*
X5195702Y6872301D02*
D03*
X5070702Y6622301D02*
D03*
Y6122301D02*
D03*
X5195702Y5372301D02*
D03*
X5070702Y3122301D02*
D03*
Y2122301D02*
D03*
X5195702Y1872301D02*
D03*
X4820702Y7122301D02*
D03*
Y6622301D02*
D03*
X4945702Y5372301D02*
D03*
Y4872301D02*
D03*
Y3372301D02*
D03*
X4820702Y3122301D02*
D03*
X4945702Y2872301D02*
D03*
Y2372301D02*
D03*
Y1872301D02*
D03*
X4695702Y6872301D02*
D03*
X4570702Y4622301D02*
D03*
X4695702Y4372301D02*
D03*
X4570702Y4122301D02*
D03*
Y3622301D02*
D03*
Y3122301D02*
D03*
X4695702Y2872301D02*
D03*
Y2372301D02*
D03*
X4445702Y3372301D02*
D03*
Y2872301D02*
D03*
Y2372301D02*
D03*
X4195702Y2872301D02*
D03*
Y2372301D02*
D03*
X4070702Y2122301D02*
D03*
X4195702Y1872301D02*
D03*
X3945702Y2872301D02*
D03*
X3820702Y2122301D02*
D03*
X3945702Y1872301D02*
D03*
X3695702Y2872301D02*
D03*
Y2372301D02*
D03*
X3570702Y2122301D02*
D03*
X3695702Y1872301D02*
D03*
X3445702Y2872301D02*
D03*
Y2372301D02*
D03*
X3320702Y2122301D02*
D03*
X3445702Y1872301D02*
D03*
X3195702Y2872301D02*
D03*
X3070702Y2122301D02*
D03*
X3195702Y1872301D02*
D03*
X2945702Y2872301D02*
D03*
Y2372301D02*
D03*
X2820702Y2122301D02*
D03*
X2945702Y1872301D02*
D03*
X2695702Y2872301D02*
D03*
Y2372301D02*
D03*
X2570702Y2122301D02*
D03*
X2695702Y1872301D02*
D03*
X2320702Y5622301D02*
D03*
Y5122301D02*
D03*
Y4622301D02*
D03*
Y4122301D02*
D03*
Y3622301D02*
D03*
Y3122301D02*
D03*
X2445702Y2872301D02*
D03*
X2320702Y2122301D02*
D03*
X2445702Y1872301D02*
D03*
X2195702Y5372301D02*
D03*
X2070702Y5122301D02*
D03*
X2195702Y4872301D02*
D03*
X2070702Y4622301D02*
D03*
X2195702Y4372301D02*
D03*
X2070702Y4122301D02*
D03*
X2195702Y3872301D02*
D03*
X2070702Y3622301D02*
D03*
X2195702Y3372301D02*
D03*
X2070702Y3122301D02*
D03*
X2195702Y2872301D02*
D03*
Y2372301D02*
D03*
X2070702Y2122301D02*
D03*
X2195702Y1872301D02*
D03*
X2070702Y1622301D02*
D03*
Y1122301D02*
D03*
Y622301D02*
D03*
Y122301D02*
D03*
X1820702Y5622301D02*
D03*
Y5122301D02*
D03*
Y4622301D02*
D03*
Y4122301D02*
D03*
X1945702Y3372301D02*
D03*
X1820702Y3122301D02*
D03*
X1945702Y2872301D02*
D03*
Y2372301D02*
D03*
X1820702Y2122301D02*
D03*
X1945702Y1872301D02*
D03*
X1820702Y1622301D02*
D03*
X1945702Y1372301D02*
D03*
X1820702Y1122301D02*
D03*
Y622301D02*
D03*
X1945702Y372301D02*
D03*
X1820702Y122301D02*
D03*
X1570702Y5622301D02*
D03*
X1695702Y5372301D02*
D03*
Y4872301D02*
D03*
Y4372301D02*
D03*
X1570702Y4122301D02*
D03*
X1695702Y3372301D02*
D03*
X1570702Y3122301D02*
D03*
X1695702Y2872301D02*
D03*
X1570702Y622301D02*
D03*
X1695702Y372301D02*
D03*
X1570702Y122301D02*
D03*
X1445702Y3372301D02*
D03*
Y2872301D02*
D03*
X1320702Y2622301D02*
D03*
X1445702Y2372301D02*
D03*
X1320702Y2122301D02*
D03*
X1445702Y1872301D02*
D03*
X1320702Y1622301D02*
D03*
X1445702Y1372301D02*
D03*
X1320702Y1122301D02*
D03*
X1445702Y872301D02*
D03*
X1320702Y622301D02*
D03*
X1445702Y372301D02*
D03*
X1195702Y5372301D02*
D03*
X1070702Y4622301D02*
D03*
X1195702Y3372301D02*
D03*
X1070702Y3122301D02*
D03*
X1195702Y2872301D02*
D03*
X1070702Y2622301D02*
D03*
X1195702Y2372301D02*
D03*
X1070702Y2122301D02*
D03*
X1195702Y1872301D02*
D03*
X1070702Y1622301D02*
D03*
X1195702Y1372301D02*
D03*
X1070702Y1122301D02*
D03*
X1195702Y872301D02*
D03*
X1070702Y622301D02*
D03*
X820702Y5122301D02*
D03*
X945702Y3372301D02*
D03*
X820702Y3122301D02*
D03*
X945702Y2872301D02*
D03*
X820702Y2622301D02*
D03*
X945702Y2372301D02*
D03*
X820702Y2122301D02*
D03*
X945702Y1872301D02*
D03*
X820702Y1622301D02*
D03*
X945702Y1372301D02*
D03*
X820702Y1122301D02*
D03*
X695702Y5372301D02*
D03*
X570702Y5122301D02*
D03*
Y4622301D02*
D03*
X695702Y4372301D02*
D03*
X570702Y4122301D02*
D03*
Y3622301D02*
D03*
X695702Y3372301D02*
D03*
X570702Y3122301D02*
D03*
X695702Y2872301D02*
D03*
X570702Y2622301D02*
D03*
X695702Y2372301D02*
D03*
X570702Y2122301D02*
D03*
X695702Y1872301D02*
D03*
X570702Y1622301D02*
D03*
X695702Y1372301D02*
D03*
X570702Y1122301D02*
D03*
Y622301D02*
D03*
X445702Y4872301D02*
D03*
Y4372301D02*
D03*
Y3872301D02*
D03*
Y3372301D02*
D03*
Y2872301D02*
D03*
Y2372301D02*
D03*
Y1872301D02*
D03*
Y1372301D02*
D03*
Y872301D02*
D03*
X320702Y622301D02*
D03*
X445702Y372301D02*
D03*
X5226307Y2690526D02*
D03*
X5150107D02*
D03*
X5074096Y2685154D02*
D03*
X5015906Y2635957D02*
D03*
X4942686Y2614857D02*
D03*
X4724005Y2642488D02*
D03*
X4639120D02*
D03*
X4554235D02*
D03*
X4592223Y2443040D02*
D03*
X4669055D02*
D03*
X4745886D02*
D03*
X4822718D02*
D03*
X4899550D02*
D03*
X4967761Y2478908D02*
D03*
X5027616Y2431751D02*
D03*
X5094946Y2396070D02*
D03*
X5171139Y2395074D02*
D03*
X5247339D02*
D03*
X5323518Y2396868D02*
D03*
X5389042Y2435766D02*
D03*
X5409626Y2509133D02*
D03*
Y2585333D02*
D03*
X5383221Y2656812D02*
D03*
X5314403Y2689531D02*
D03*
X4384466Y2642488D02*
D03*
X4299581D02*
D03*
X4208064Y2443040D02*
D03*
X4284896D02*
D03*
X4361728D02*
D03*
X4438560D02*
D03*
X4515391D02*
D03*
X4469351Y2642488D02*
D03*
X3875157D02*
D03*
X3790273D02*
D03*
X3705388D02*
D03*
X3750290Y2443040D02*
D03*
X3838872D02*
D03*
X4054401D02*
D03*
X4131233D02*
D03*
X4214696Y2642488D02*
D03*
X4129812D02*
D03*
X4044927D02*
D03*
X3960042D02*
D03*
X3535618D02*
D03*
X3450734D02*
D03*
X3395960Y2443040D02*
D03*
X3484542D02*
D03*
X3573125D02*
D03*
X3661707D02*
D03*
X3620503Y2642488D02*
D03*
X3026310D02*
D03*
X2905764Y2450886D02*
D03*
X3001551D02*
D03*
X3218795Y2443040D02*
D03*
X3307377D02*
D03*
X3365849Y2642488D02*
D03*
X3280964D02*
D03*
X3196079D02*
D03*
X3111194D02*
D03*
X2714189Y2450886D02*
D03*
X2809976D02*
D03*
X2941425Y2642488D02*
D03*
X2856540D02*
D03*
X2771655D02*
D03*
X2347232D02*
D03*
X2262347D02*
D03*
X2219278Y2450613D02*
D03*
X2299588D02*
D03*
X2522614Y2450886D02*
D03*
X2618401D02*
D03*
X2686771Y2642488D02*
D03*
X2601886D02*
D03*
X2517001D02*
D03*
X2432116D02*
D03*
X1898036Y2450613D02*
D03*
X1978346D02*
D03*
X2058657D02*
D03*
X2138967D02*
D03*
X2177462Y2642488D02*
D03*
X2092577D02*
D03*
X2007692D02*
D03*
X1539640Y2450914D02*
D03*
Y2361790D02*
D03*
X1737415Y2388480D02*
D03*
Y2450613D02*
D03*
X1817725D02*
D03*
X1922808Y2642488D02*
D03*
X1837923D02*
D03*
X1753038D02*
D03*
X1668153D02*
D03*
X1539640Y2272665D02*
D03*
Y2183540D02*
D03*
Y2094415D02*
D03*
X1737415Y2073590D02*
D03*
Y2152312D02*
D03*
Y2231035D02*
D03*
Y2309757D02*
D03*
X1539640Y2005290D02*
D03*
Y1916166D02*
D03*
Y1827041D02*
D03*
Y1609417D02*
D03*
Y1522659D02*
D03*
X1737415Y1522532D02*
D03*
Y1601255D02*
D03*
Y1679977D02*
D03*
Y1758700D02*
D03*
Y1837422D02*
D03*
Y1916145D02*
D03*
Y1994867D02*
D03*
X1539640Y1435902D02*
D03*
Y1349145D02*
D03*
Y1262388D02*
D03*
X1737415Y1207642D02*
D03*
Y1286365D02*
D03*
Y1365087D02*
D03*
Y1443810D02*
D03*
X1539640Y1175630D02*
D03*
Y1088873D02*
D03*
Y1002116D02*
D03*
Y915359D02*
D03*
Y828601D02*
D03*
X1751190Y816732D02*
D03*
X1771214Y944516D02*
D03*
X1703292Y979056D02*
D03*
X1737415Y1050198D02*
D03*
Y1128920D02*
D03*
X7151900Y3545735D02*
D03*
X6585479Y7222625D02*
D03*
X6397834Y6621926D02*
D03*
Y6367926D02*
D03*
X7159652Y6023926D02*
D03*
X6985224Y5963926D02*
D03*
X6770057Y5986926D02*
D03*
X4025296Y7492156D02*
D03*
X2943448Y6247987D02*
D03*
X3404093Y6179858D02*
D03*
X3315963Y6091728D02*
D03*
X3227834Y6179858D02*
D03*
X3526636Y6133781D02*
D03*
X3614766Y6226911D02*
D03*
X3609766Y6050652D02*
D03*
X3461198Y6365478D02*
D03*
X3612448Y6604228D02*
D03*
X3224319Y7508762D02*
D03*
X2542858Y7399556D02*
D03*
Y7467798D02*
D03*
Y7548762D02*
D03*
X2948448Y6071728D02*
D03*
X2860319Y6159858D02*
D03*
X2780978Y6134857D02*
D03*
X2209948Y6041728D02*
D03*
X7897330Y4061499D02*
D03*
Y4648068D02*
D03*
X5987679Y2177800D02*
D03*
X5696121D02*
D03*
X6156121D02*
D03*
X6447679D02*
D03*
X7294190Y1998343D02*
D03*
X856651Y5054301D02*
D03*
X746639Y4899900D02*
D03*
X887444Y5277800D02*
D03*
X976901Y5367257D02*
D03*
Y5188344D02*
D03*
X1474550Y5000844D02*
D03*
X1385093Y4902400D02*
D03*
X1581900Y4619757D02*
D03*
X1666357Y4530300D02*
D03*
X1576900Y4440844D02*
D03*
X1549400Y3466344D02*
D03*
X1459943Y3555800D02*
D03*
X1638857Y3560800D02*
D03*
X1639400Y636167D02*
D03*
X1399944Y1727800D02*
D03*
X2377929Y2298343D02*
D03*
X3099400Y2303343D02*
D03*
X3944401Y2298343D02*
D03*
X4861155Y2782257D02*
D03*
X5459901Y6875926D02*
D03*
X5231701Y7247383D02*
D03*
X5390000Y7182383D02*
D03*
X5205543Y6621926D02*
D03*
Y6494926D02*
D03*
X5444000Y6113926D02*
D03*
Y5986926D02*
D03*
X7885236Y4443112D02*
D03*
X4990213Y5061101D02*
D03*
X4583150Y4693494D02*
D03*
X4578150Y4518112D02*
D03*
X7266606Y3775301D02*
D03*
X7712330Y4239323D02*
D03*
X7548338Y4995464D02*
D03*
X7420619Y4940069D02*
D03*
X6534473Y3534500D02*
D03*
X5212203Y4964387D02*
D03*
X6468079Y5380511D02*
D03*
M02*
