G04*
G04 #@! TF.GenerationSoftware,Altium Limited,Altium Designer,25.5.2 (35)*
G04*
G04 Layer_Color=8388736*
%FSLAX45Y45*%
%MOMM*%
G71*
G04*
G04 #@! TF.SameCoordinates,4A1FDDFA-50DE-4FE3-89EC-5C8A89288C0E*
G04*
G04*
G04 #@! TF.FilePolarity,Negative*
G04*
G01*
G75*
G04:AMPARAMS|DCode=39|XSize=1.1532mm|YSize=1.1532mm|CornerRadius=0.3391mm|HoleSize=0mm|Usage=FLASHONLY|Rotation=180.000|XOffset=0mm|YOffset=0mm|HoleType=Round|Shape=RoundedRectangle|*
%AMROUNDEDRECTD39*
21,1,1.15320,0.47500,0,0,180.0*
21,1,0.47500,1.15320,0,0,180.0*
1,1,0.67820,-0.23750,0.23750*
1,1,0.67820,0.23750,0.23750*
1,1,0.67820,0.23750,-0.23750*
1,1,0.67820,-0.23750,-0.23750*
%
%ADD39ROUNDEDRECTD39*%
G04:AMPARAMS|DCode=40|XSize=0.6432mm|YSize=0.7432mm|CornerRadius=0.2116mm|HoleSize=0mm|Usage=FLASHONLY|Rotation=0.000|XOffset=0mm|YOffset=0mm|HoleType=Round|Shape=RoundedRectangle|*
%AMROUNDEDRECTD40*
21,1,0.64320,0.32000,0,0,0.0*
21,1,0.22000,0.74320,0,0,0.0*
1,1,0.42320,0.11000,-0.16000*
1,1,0.42320,-0.11000,-0.16000*
1,1,0.42320,-0.11000,0.16000*
1,1,0.42320,0.11000,0.16000*
%
%ADD40ROUNDEDRECTD40*%
G04:AMPARAMS|DCode=41|XSize=1.1532mm|YSize=1.1532mm|CornerRadius=0.3391mm|HoleSize=0mm|Usage=FLASHONLY|Rotation=90.000|XOffset=0mm|YOffset=0mm|HoleType=Round|Shape=RoundedRectangle|*
%AMROUNDEDRECTD41*
21,1,1.15320,0.47500,0,0,90.0*
21,1,0.47500,1.15320,0,0,90.0*
1,1,0.67820,0.23750,0.23750*
1,1,0.67820,0.23750,-0.23750*
1,1,0.67820,-0.23750,-0.23750*
1,1,0.67820,-0.23750,0.23750*
%
%ADD41ROUNDEDRECTD41*%
G04:AMPARAMS|DCode=42|XSize=0.9108mm|YSize=0.3208mm|CornerRadius=0.0929mm|HoleSize=0mm|Usage=FLASHONLY|Rotation=270.000|XOffset=0mm|YOffset=0mm|HoleType=Round|Shape=RoundedRectangle|*
%AMROUNDEDRECTD42*
21,1,0.91080,0.13500,0,0,270.0*
21,1,0.72500,0.32080,0,0,270.0*
1,1,0.18580,-0.06750,-0.36250*
1,1,0.18580,-0.06750,0.36250*
1,1,0.18580,0.06750,0.36250*
1,1,0.18580,0.06750,-0.36250*
%
%ADD42ROUNDEDRECTD42*%
G04:AMPARAMS|DCode=43|XSize=1.6908mm|YSize=2.4308mm|CornerRadius=0.1074mm|HoleSize=0mm|Usage=FLASHONLY|Rotation=270.000|XOffset=0mm|YOffset=0mm|HoleType=Round|Shape=RoundedRectangle|*
%AMROUNDEDRECTD43*
21,1,1.69080,2.21600,0,0,270.0*
21,1,1.47600,2.43080,0,0,270.0*
1,1,0.21480,-1.10800,-0.73800*
1,1,0.21480,-1.10800,0.73800*
1,1,0.21480,1.10800,0.73800*
1,1,0.21480,1.10800,-0.73800*
%
%ADD43ROUNDEDRECTD43*%
G04:AMPARAMS|DCode=44|XSize=2.0032mm|YSize=5.9032mm|CornerRadius=0.3716mm|HoleSize=0mm|Usage=FLASHONLY|Rotation=90.000|XOffset=0mm|YOffset=0mm|HoleType=Round|Shape=RoundedRectangle|*
%AMROUNDEDRECTD44*
21,1,2.00320,5.16000,0,0,90.0*
21,1,1.26000,5.90320,0,0,90.0*
1,1,0.74320,2.58000,0.63000*
1,1,0.74320,2.58000,-0.63000*
1,1,0.74320,-2.58000,-0.63000*
1,1,0.74320,-2.58000,0.63000*
%
%ADD44ROUNDEDRECTD44*%
G04:AMPARAMS|DCode=45|XSize=0.9032mm|YSize=1.2032mm|CornerRadius=0.2766mm|HoleSize=0mm|Usage=FLASHONLY|Rotation=0.000|XOffset=0mm|YOffset=0mm|HoleType=Round|Shape=RoundedRectangle|*
%AMROUNDEDRECTD45*
21,1,0.90320,0.65000,0,0,0.0*
21,1,0.35000,1.20320,0,0,0.0*
1,1,0.55320,0.17500,-0.32500*
1,1,0.55320,-0.17500,-0.32500*
1,1,0.55320,-0.17500,0.32500*
1,1,0.55320,0.17500,0.32500*
%
%ADD45ROUNDEDRECTD45*%
G04:AMPARAMS|DCode=46|XSize=2.1032mm|YSize=3.2032mm|CornerRadius=0.5766mm|HoleSize=0mm|Usage=FLASHONLY|Rotation=0.000|XOffset=0mm|YOffset=0mm|HoleType=Round|Shape=RoundedRectangle|*
%AMROUNDEDRECTD46*
21,1,2.10320,2.05000,0,0,0.0*
21,1,0.95000,3.20320,0,0,0.0*
1,1,1.15320,0.47500,-1.02500*
1,1,1.15320,-0.47500,-1.02500*
1,1,1.15320,-0.47500,1.02500*
1,1,1.15320,0.47500,1.02500*
%
%ADD46ROUNDEDRECTD46*%
G04:AMPARAMS|DCode=47|XSize=0.6432mm|YSize=0.7432mm|CornerRadius=0.2116mm|HoleSize=0mm|Usage=FLASHONLY|Rotation=90.000|XOffset=0mm|YOffset=0mm|HoleType=Round|Shape=RoundedRectangle|*
%AMROUNDEDRECTD47*
21,1,0.64320,0.32000,0,0,90.0*
21,1,0.22000,0.74320,0,0,90.0*
1,1,0.42320,0.16000,0.11000*
1,1,0.42320,0.16000,-0.11000*
1,1,0.42320,-0.16000,-0.11000*
1,1,0.42320,-0.16000,0.11000*
%
%ADD47ROUNDEDRECTD47*%
G04:AMPARAMS|DCode=48|XSize=2.1032mm|YSize=3.2032mm|CornerRadius=0.5766mm|HoleSize=0mm|Usage=FLASHONLY|Rotation=90.000|XOffset=0mm|YOffset=0mm|HoleType=Round|Shape=RoundedRectangle|*
%AMROUNDEDRECTD48*
21,1,2.10320,2.05000,0,0,90.0*
21,1,0.95000,3.20320,0,0,90.0*
1,1,1.15320,1.02500,0.47500*
1,1,1.15320,1.02500,-0.47500*
1,1,1.15320,-1.02500,-0.47500*
1,1,1.15320,-1.02500,0.47500*
%
%ADD48ROUNDEDRECTD48*%
%ADD49R,2.50320X0.80320*%
G04:AMPARAMS|DCode=50|XSize=1.6032mm|YSize=1.3532mm|CornerRadius=0.3891mm|HoleSize=0mm|Usage=FLASHONLY|Rotation=180.000|XOffset=0mm|YOffset=0mm|HoleType=Round|Shape=RoundedRectangle|*
%AMROUNDEDRECTD50*
21,1,1.60320,0.57500,0,0,180.0*
21,1,0.82500,1.35320,0,0,180.0*
1,1,0.77820,-0.41250,0.28750*
1,1,0.77820,0.41250,0.28750*
1,1,0.77820,0.41250,-0.28750*
1,1,0.77820,-0.41250,-0.28750*
%
%ADD50ROUNDEDRECTD50*%
G04:AMPARAMS|DCode=51|XSize=1.0032mm|YSize=1.0032mm|CornerRadius=0.3016mm|HoleSize=0mm|Usage=FLASHONLY|Rotation=270.000|XOffset=0mm|YOffset=0mm|HoleType=Round|Shape=RoundedRectangle|*
%AMROUNDEDRECTD51*
21,1,1.00320,0.40000,0,0,270.0*
21,1,0.40000,1.00320,0,0,270.0*
1,1,0.60320,-0.20000,-0.20000*
1,1,0.60320,-0.20000,0.20000*
1,1,0.60320,0.20000,0.20000*
1,1,0.60320,0.20000,-0.20000*
%
%ADD51ROUNDEDRECTD51*%
G04:AMPARAMS|DCode=52|XSize=1.6032mm|YSize=1.3532mm|CornerRadius=0.3891mm|HoleSize=0mm|Usage=FLASHONLY|Rotation=270.000|XOffset=0mm|YOffset=0mm|HoleType=Round|Shape=RoundedRectangle|*
%AMROUNDEDRECTD52*
21,1,1.60320,0.57500,0,0,270.0*
21,1,0.82500,1.35320,0,0,270.0*
1,1,0.77820,-0.28750,-0.41250*
1,1,0.77820,-0.28750,0.41250*
1,1,0.77820,0.28750,0.41250*
1,1,0.77820,0.28750,-0.41250*
%
%ADD52ROUNDEDRECTD52*%
G04:AMPARAMS|DCode=53|XSize=1.0532mm|YSize=1.3032mm|CornerRadius=0.3141mm|HoleSize=0mm|Usage=FLASHONLY|Rotation=180.000|XOffset=0mm|YOffset=0mm|HoleType=Round|Shape=RoundedRectangle|*
%AMROUNDEDRECTD53*
21,1,1.05320,0.67500,0,0,180.0*
21,1,0.42500,1.30320,0,0,180.0*
1,1,0.62820,-0.21250,0.33750*
1,1,0.62820,0.21250,0.33750*
1,1,0.62820,0.21250,-0.33750*
1,1,0.62820,-0.21250,-0.33750*
%
%ADD53ROUNDEDRECTD53*%
G04:AMPARAMS|DCode=54|XSize=0.7508mm|YSize=0.4508mm|CornerRadius=0.1254mm|HoleSize=0mm|Usage=FLASHONLY|Rotation=270.000|XOffset=0mm|YOffset=0mm|HoleType=Round|Shape=RoundedRectangle|*
%AMROUNDEDRECTD54*
21,1,0.75080,0.20000,0,0,270.0*
21,1,0.50000,0.45080,0,0,270.0*
1,1,0.25080,-0.10000,-0.25000*
1,1,0.25080,-0.10000,0.25000*
1,1,0.25080,0.10000,0.25000*
1,1,0.25080,0.10000,-0.25000*
%
%ADD54ROUNDEDRECTD54*%
G04:AMPARAMS|DCode=55|XSize=2.5608mm|YSize=2.6008mm|CornerRadius=0.08815mm|HoleSize=0mm|Usage=FLASHONLY|Rotation=270.000|XOffset=0mm|YOffset=0mm|HoleType=Round|Shape=RoundedRectangle|*
%AMROUNDEDRECTD55*
21,1,2.56080,2.42450,0,0,270.0*
21,1,2.38450,2.60080,0,0,270.0*
1,1,0.17630,-1.21225,-1.19225*
1,1,0.17630,-1.21225,1.19225*
1,1,0.17630,1.21225,1.19225*
1,1,0.17630,1.21225,-1.19225*
%
%ADD55ROUNDEDRECTD55*%
G04:AMPARAMS|DCode=56|XSize=1.4908mm|YSize=0.4608mm|CornerRadius=0.07665mm|HoleSize=0mm|Usage=FLASHONLY|Rotation=0.000|XOffset=0mm|YOffset=0mm|HoleType=Round|Shape=RoundedRectangle|*
%AMROUNDEDRECTD56*
21,1,1.49080,0.30750,0,0,0.0*
21,1,1.33750,0.46080,0,0,0.0*
1,1,0.15330,0.66875,-0.15375*
1,1,0.15330,-0.66875,-0.15375*
1,1,0.15330,-0.66875,0.15375*
1,1,0.15330,0.66875,0.15375*
%
%ADD56ROUNDEDRECTD56*%
%ADD57R,3.05080X4.25080*%
G04:AMPARAMS|DCode=58|XSize=2.9032mm|YSize=1.5032mm|CornerRadius=0.4266mm|HoleSize=0mm|Usage=FLASHONLY|Rotation=270.000|XOffset=0mm|YOffset=0mm|HoleType=Round|Shape=RoundedRectangle|*
%AMROUNDEDRECTD58*
21,1,2.90320,0.65000,0,0,270.0*
21,1,2.05000,1.50320,0,0,270.0*
1,1,0.85320,-0.32500,-1.02500*
1,1,0.85320,-0.32500,1.02500*
1,1,0.85320,0.32500,1.02500*
1,1,0.85320,0.32500,-1.02500*
%
%ADD58ROUNDEDRECTD58*%
G04:AMPARAMS|DCode=59|XSize=1.0032mm|YSize=1.0032mm|CornerRadius=0.3016mm|HoleSize=0mm|Usage=FLASHONLY|Rotation=0.000|XOffset=0mm|YOffset=0mm|HoleType=Round|Shape=RoundedRectangle|*
%AMROUNDEDRECTD59*
21,1,1.00320,0.40000,0,0,0.0*
21,1,0.40000,1.00320,0,0,0.0*
1,1,0.60320,0.20000,-0.20000*
1,1,0.60320,-0.20000,-0.20000*
1,1,0.60320,-0.20000,0.20000*
1,1,0.60320,0.20000,0.20000*
%
%ADD59ROUNDEDRECTD59*%
%ADD60O,2.50320X0.80320*%
%ADD61C,1.50320*%
G04:AMPARAMS|DCode=62|XSize=1.5032mm|YSize=1.5032mm|CornerRadius=0.4266mm|HoleSize=0mm|Usage=FLASHONLY|Rotation=270.000|XOffset=0mm|YOffset=0mm|HoleType=Round|Shape=RoundedRectangle|*
%AMROUNDEDRECTD62*
21,1,1.50320,0.65000,0,0,270.0*
21,1,0.65000,1.50320,0,0,270.0*
1,1,0.85320,-0.32500,-0.32500*
1,1,0.85320,-0.32500,0.32500*
1,1,0.85320,0.32500,0.32500*
1,1,0.85320,0.32500,-0.32500*
%
%ADD62ROUNDEDRECTD62*%
%ADD63C,2.20320*%
%ADD64R,2.20320X2.20320*%
%ADD65C,2.70320*%
%ADD66C,2.30080*%
%ADD67C,1.05080*%
G04:AMPARAMS|DCode=68|XSize=1.0508mm|YSize=1.0508mm|CornerRadius=0.2754mm|HoleSize=0mm|Usage=FLASHONLY|Rotation=270.000|XOffset=0mm|YOffset=0mm|HoleType=Round|Shape=RoundedRectangle|*
%AMROUNDEDRECTD68*
21,1,1.05080,0.50000,0,0,270.0*
21,1,0.50000,1.05080,0,0,270.0*
1,1,0.55080,-0.25000,-0.25000*
1,1,0.55080,-0.25000,0.25000*
1,1,0.55080,0.25000,0.25000*
1,1,0.55080,0.25000,-0.25000*
%
%ADD68ROUNDEDRECTD68*%
%ADD69C,1.49820*%
%ADD70C,1.40320*%
G04:AMPARAMS|DCode=71|XSize=1.8032mm|YSize=1.8032mm|CornerRadius=0.5016mm|HoleSize=0mm|Usage=FLASHONLY|Rotation=90.000|XOffset=0mm|YOffset=0mm|HoleType=Round|Shape=RoundedRectangle|*
%AMROUNDEDRECTD71*
21,1,1.80320,0.80000,0,0,90.0*
21,1,0.80000,1.80320,0,0,90.0*
1,1,1.00320,0.40000,0.40000*
1,1,1.00320,0.40000,-0.40000*
1,1,1.00320,-0.40000,-0.40000*
1,1,1.00320,-0.40000,0.40000*
%
%ADD71ROUNDEDRECTD71*%
%ADD72C,1.80320*%
%ADD73C,1.57320*%
%ADD74R,1.57320X1.57320*%
%ADD75C,3.40320*%
G36*
X8189776Y8975819D02*
X8200416Y8972538D01*
X8210289Y8967390D01*
X8219069Y8960544D01*
X8226470Y8952224D01*
X8232246Y8942706D01*
X8236209Y8932301D01*
X8238227Y8921351D01*
X8238231Y8915785D01*
X8238643Y8363627D01*
X8238477Y8352277D01*
X8233263Y8329583D01*
X8223406Y8308484D01*
X8209348Y8289923D01*
X8191709Y8274720D01*
X8171276Y8263553D01*
X8148956Y8256918D01*
X8125739Y8255108D01*
X8114201Y8256657D01*
X8113362Y8256605D01*
X8112555Y8256843D01*
X8091227Y8258785D01*
X8088737Y8258521D01*
X8086265Y8258918D01*
X8043501Y8257332D01*
X8040262Y8256563D01*
X8036935Y8256525D01*
X7995059Y8247707D01*
X7991999Y8246399D01*
X7988726Y8245797D01*
X7948954Y8230002D01*
X7946160Y8228194D01*
X7943036Y8227046D01*
X7906520Y8204730D01*
X7904074Y8202474D01*
X7901190Y8200813D01*
X7868991Y8172626D01*
X7866962Y8169987D01*
X7864402Y8167860D01*
X7837452Y8134618D01*
X7835901Y8131673D01*
X7833739Y8129143D01*
X7812820Y8091811D01*
X7811791Y8088646D01*
X7810089Y8085786D01*
X7795808Y8045445D01*
X7795331Y8042152D01*
X7794139Y8039044D01*
X7786909Y7996865D01*
X7786998Y7993537D01*
X7786351Y7990273D01*
X7786383Y7947479D01*
X7787035Y7944216D01*
X7786951Y7940888D01*
X7794244Y7898720D01*
X7795440Y7895614D01*
X7795922Y7892322D01*
X7810264Y7852002D01*
X7811969Y7849144D01*
X7813003Y7845981D01*
X7833977Y7808680D01*
X7836144Y7806152D01*
X7837699Y7803210D01*
X7864699Y7770009D01*
X7867262Y7767886D01*
X7869294Y7765250D01*
X7901536Y7737111D01*
X7904422Y7735454D01*
X7906872Y7733201D01*
X7943420Y7710941D01*
X7946545Y7709798D01*
X7949342Y7707993D01*
X7989138Y7692257D01*
X7992413Y7691660D01*
X7995475Y7690357D01*
X8037363Y7681601D01*
X8040691Y7681568D01*
X8043930Y7680803D01*
X8086697Y7679281D01*
X8089168Y7679682D01*
X8091659Y7679422D01*
X8112984Y7681396D01*
X8113790Y7681635D01*
X8114629Y7681584D01*
X8126166Y7683150D01*
X8149384Y7681375D01*
X8171715Y7674773D01*
X8192164Y7663636D01*
X8209826Y7648460D01*
X8223912Y7629919D01*
X8233799Y7608836D01*
X8239047Y7586148D01*
X8239230Y7574809D01*
X8244340Y714016D01*
X8244491Y713262D01*
X8244371Y712503D01*
X8245144Y693042D01*
X8245680Y690815D01*
X8245589Y688526D01*
X8251659Y650080D01*
X8252712Y647222D01*
X8253064Y644198D01*
X8265028Y607160D01*
X8266512Y604500D01*
X8267330Y601567D01*
X8284897Y566835D01*
X8286775Y564438D01*
X8288039Y561667D01*
X8310785Y530083D01*
X8313013Y528006D01*
X8314691Y525465D01*
X8342063Y497794D01*
X8344586Y496089D01*
X8346638Y493839D01*
X8377974Y470752D01*
X8380732Y469458D01*
X8383108Y467555D01*
X8417648Y449612D01*
X8419847Y448973D01*
X8421790Y447759D01*
X8440002Y440857D01*
X8440759Y440730D01*
X8441426Y440348D01*
X8450544Y437294D01*
X8466023Y425885D01*
X8477254Y410277D01*
X8483155Y391976D01*
X8483154Y382361D01*
X8483155Y184127D01*
X8476962Y152994D01*
X8464813Y123664D01*
X8447177Y97269D01*
X8424731Y74823D01*
X8398336Y57187D01*
X8369006Y45038D01*
X8337873Y38845D01*
X8108627D01*
X8077493Y45038D01*
X8048164Y57187D01*
X8021770Y74823D01*
X7999323Y97269D01*
X7981686Y123664D01*
X7969538Y152994D01*
X7963345Y184127D01*
Y200000D01*
X7963345Y213225D01*
X7963197Y213968D01*
X7963316Y214715D01*
X7962577Y233960D01*
X7962053Y236152D01*
X7962150Y238404D01*
X7956270Y276443D01*
X7955243Y279259D01*
X7954913Y282237D01*
X7943292Y318932D01*
X7941847Y321557D01*
X7941066Y324451D01*
X7923978Y358940D01*
X7922149Y361314D01*
X7920935Y364054D01*
X7898779Y395530D01*
X7896610Y397596D01*
X7894991Y400119D01*
X7868288Y427841D01*
X7865828Y429552D01*
X7863844Y431798D01*
X7833220Y455116D01*
X7830527Y456432D01*
X7828223Y458348D01*
X7794397Y476716D01*
X7792246Y477384D01*
X7790359Y478617D01*
X7772490Y485805D01*
X7771747Y485945D01*
X7771098Y486335D01*
X7763060Y489216D01*
X7748052Y497365D01*
X7734467Y507710D01*
X7722619Y520010D01*
X7712789Y533975D01*
X7705208Y549277D01*
X7700053Y565556D01*
X7697445Y582434D01*
Y814500D01*
X7697318Y815134D01*
X7697424Y815772D01*
X7696728Y837028D01*
X7696290Y838904D01*
X7696416Y840826D01*
X7690867Y882975D01*
X7690044Y885401D01*
X7689876Y887958D01*
X7678873Y929022D01*
X7677739Y931320D01*
X7677239Y933833D01*
X7660971Y973109D01*
X7659547Y975240D01*
X7658724Y977667D01*
X7637468Y1014483D01*
X7635778Y1016410D01*
X7634644Y1018708D01*
X7608765Y1052435D01*
X7606838Y1054124D01*
X7605415Y1056255D01*
X7575354Y1086315D01*
X7573224Y1087739D01*
X7571534Y1089666D01*
X7537807Y1115545D01*
X7535508Y1116679D01*
X7533582Y1118368D01*
X7496766Y1139624D01*
X7494339Y1140448D01*
X7492208Y1141872D01*
X7452932Y1158140D01*
X7450419Y1158640D01*
X7448121Y1159774D01*
X7407058Y1170777D01*
X7404501Y1170944D01*
X7402074Y1171768D01*
X7359926Y1177317D01*
X7358003Y1177191D01*
X7356127Y1177628D01*
X7334871Y1178324D01*
X7334233Y1178219D01*
X7333599Y1178345D01*
X7183600D01*
X7167726Y1178345D01*
X7136592Y1184538D01*
X7107264Y1196686D01*
X7080869Y1214322D01*
X7058423Y1236769D01*
X7040786Y1263164D01*
X7028637Y1292493D01*
X7022444Y1323626D01*
Y1339499D01*
Y1691238D01*
X7022256Y1692187D01*
X7022398Y1693145D01*
X7021916Y1702947D01*
X7021216Y1705740D01*
Y1708618D01*
X7017392Y1727845D01*
X7015928Y1731379D01*
X7015181Y1735132D01*
X7007680Y1753243D01*
X7005554Y1756424D01*
X7004090Y1759959D01*
X6993199Y1776259D01*
X6991290Y1778168D01*
X6990493Y1778964D01*
X6988368Y1782145D01*
X6974506Y1796006D01*
X6971325Y1798132D01*
X6968620Y1800837D01*
X6952320Y1811728D01*
X6948786Y1813192D01*
X6945604Y1815318D01*
X6927493Y1822820D01*
X6923740Y1823566D01*
X6920206Y1825030D01*
X6900980Y1828855D01*
X6898101D01*
X6895307Y1829555D01*
X6885506Y1830036D01*
X6884548Y1829894D01*
X6883599Y1830083D01*
X6868361D01*
D01*
X4920937Y1830083D01*
X4918970Y1831131D01*
X4901048Y1849053D01*
X4900000Y1851020D01*
X4900000Y1961238D01*
X4899849Y1961998D01*
X4899970Y1962763D01*
X4899046Y1986301D01*
X4898507Y1988546D01*
X4898597Y1990853D01*
X4891233Y2037348D01*
X4890171Y2040228D01*
X4889810Y2043276D01*
X4875263Y2088047D01*
X4873763Y2090724D01*
X4872930Y2093679D01*
X4851558Y2135623D01*
X4849658Y2138034D01*
X4848373Y2140820D01*
X4820703Y2178905D01*
X4818449Y2180989D01*
X4816744Y2183540D01*
X4783457Y2216827D01*
X4780905Y2218533D01*
X4778822Y2220786D01*
X4740737Y2248457D01*
X4737950Y2249742D01*
X4735539Y2251642D01*
X4693595Y2273013D01*
X4690641Y2273846D01*
X4687964Y2275346D01*
X4643193Y2289893D01*
X4640145Y2290254D01*
X4637265Y2291316D01*
X4590770Y2298680D01*
X4587703Y2298560D01*
X4584693Y2299159D01*
X4537617D01*
X4534607Y2298560D01*
X4531540Y2298680D01*
X4485044Y2291316D01*
X4482165Y2290254D01*
X4479117Y2289893D01*
X4434346Y2275346D01*
X4431669Y2273846D01*
X4428714Y2273013D01*
X4386770Y2251642D01*
X4384359Y2249741D01*
X4381573Y2248457D01*
X4343488Y2220786D01*
X4341404Y2218533D01*
X4338852Y2216827D01*
X4305565Y2183540D01*
X4303860Y2180989D01*
X4301607Y2178905D01*
X4273936Y2140820D01*
X4272651Y2138033D01*
X4270751Y2135623D01*
X4249380Y2093679D01*
X4248546Y2090724D01*
X4247047Y2088047D01*
X4232500Y2043276D01*
X4232139Y2040228D01*
X4231077Y2037348D01*
X4223712Y1990853D01*
X4223803Y1988545D01*
X4223264Y1986300D01*
X4222340Y1962763D01*
X4222461Y1961998D01*
X4222310Y1961238D01*
Y1850101D01*
X4202293Y1830083D01*
X2417500Y1830083D01*
X2416551Y1829895D01*
X2415593Y1830037D01*
X2395990Y1829073D01*
X2393196Y1828374D01*
X2390318D01*
X2351864Y1820725D01*
X2348330Y1819261D01*
X2344577Y1818514D01*
X2308355Y1803510D01*
X2305174Y1801385D01*
X2301639Y1799921D01*
X2269040Y1778138D01*
X2266334Y1775433D01*
X2263153Y1773307D01*
X2235430Y1745584D01*
X2233305Y1742403D01*
X2230599Y1739698D01*
X2208817Y1707099D01*
X2207352Y1703564D01*
X2205227Y1700382D01*
X2190223Y1664160D01*
X2189477Y1660408D01*
X2188013Y1656873D01*
X2180364Y1618420D01*
Y1615540D01*
X2179664Y1612747D01*
X2178701Y1593144D01*
X2178843Y1592187D01*
X2178655Y1591238D01*
Y200001D01*
X2178654Y184128D01*
X2172461Y152993D01*
X2160313Y123665D01*
X2142677Y97271D01*
X2120229Y74822D01*
X2093835Y57187D01*
X2064506Y45038D01*
X2033373Y38845D01*
X1450000D01*
X1434127Y38845D01*
X1402993Y45038D01*
X1373664Y57187D01*
X1347270Y74822D01*
X1324822Y97270D01*
X1307186Y123665D01*
X1295038Y152993D01*
X1288845Y184128D01*
X1288845Y200000D01*
X1288694Y200760D01*
X1288815Y201526D01*
X1287890Y225063D01*
X1287351Y227308D01*
X1287442Y229615D01*
X1280078Y276111D01*
X1279015Y278991D01*
X1278655Y282038D01*
X1264107Y326810D01*
X1262608Y329487D01*
X1261775Y332441D01*
X1240403Y374385D01*
X1238503Y376795D01*
X1237218Y379583D01*
X1209548Y417667D01*
X1207295Y419750D01*
X1205589Y422303D01*
X1172302Y455590D01*
X1169750Y457295D01*
X1167667Y459549D01*
X1129582Y487219D01*
X1126795Y488504D01*
X1124384Y490404D01*
X1082440Y511775D01*
X1079486Y512609D01*
X1076809Y514108D01*
X1032038Y528655D01*
X1028990Y529016D01*
X1026110Y530078D01*
X979614Y537443D01*
X976548Y537322D01*
X973538Y537921D01*
X926462D01*
X923452Y537322D01*
X920385Y537443D01*
X873890Y530078D01*
X871010Y529016D01*
X867962Y528655D01*
X823191Y514108D01*
X820513Y512608D01*
X817559Y511775D01*
X775615Y490404D01*
X773205Y488504D01*
X770417Y487219D01*
X732333Y459549D01*
X730250Y457296D01*
X727698Y455590D01*
X694410Y422303D01*
X692705Y419751D01*
X690452Y417667D01*
X662781Y379583D01*
X661497Y376796D01*
X659596Y374385D01*
X638225Y332441D01*
X637392Y329487D01*
X635892Y326809D01*
X621345Y282038D01*
X620984Y278991D01*
X619922Y276111D01*
X612558Y229615D01*
X612648Y227308D01*
X612109Y225063D01*
X611185Y201525D01*
X611306Y200761D01*
X611155Y200001D01*
X611154Y184128D01*
X604962Y152994D01*
X592813Y123665D01*
X575177Y97270D01*
X552729Y74822D01*
X526336Y57187D01*
X497006Y45038D01*
X465873Y38845D01*
X184127D01*
X152994Y45038D01*
X123664Y57187D01*
X97269Y74823D01*
X74823Y97269D01*
X57187Y123664D01*
X45038Y152994D01*
X38845Y184127D01*
Y200000D01*
Y513462D01*
Y529351D01*
X45051Y560517D01*
X57225Y589872D01*
X74896Y616284D01*
X97386Y638736D01*
X123827Y656363D01*
X153202Y668488D01*
X184379Y674642D01*
X200269Y674615D01*
X377434Y674320D01*
X377466Y674327D01*
X377499Y674320D01*
X384904Y675793D01*
X392305Y677253D01*
X392332Y677271D01*
X392364Y677277D01*
X398629Y681463D01*
X404921Y685652D01*
X404940Y685680D01*
X404967Y685698D01*
X409167Y691984D01*
X413363Y698241D01*
X413370Y698273D01*
X413388Y698301D01*
X414862Y705710D01*
X416345Y713102D01*
X416339Y713134D01*
X416345Y713167D01*
Y7569906D01*
X416345Y7581656D01*
X421315Y7604624D01*
X431031Y7626021D01*
X445053Y7644878D01*
X462746Y7660343D01*
X483309Y7671715D01*
X505814Y7678481D01*
X529240Y7680334D01*
X540884Y7678763D01*
X541723Y7678815D01*
X542529Y7678576D01*
X563856Y7676618D01*
X566346Y7676880D01*
X568818Y7676481D01*
X611583Y7678035D01*
X614822Y7678802D01*
X618150Y7678837D01*
X660032Y7687624D01*
X663094Y7688930D01*
X666367Y7689529D01*
X706151Y7705295D01*
X708946Y7707101D01*
X712071Y7708247D01*
X748603Y7730535D01*
X751052Y7732789D01*
X753936Y7734449D01*
X786157Y7762612D01*
X788187Y7765249D01*
X790748Y7767374D01*
X817724Y7800596D01*
X819277Y7803539D01*
X821441Y7806068D01*
X842388Y7843385D01*
X843419Y7846548D01*
X845123Y7849407D01*
X859434Y7889737D01*
X859914Y7893031D01*
X861108Y7896138D01*
X868369Y7938311D01*
X868283Y7941638D01*
X868932Y7944902D01*
Y7987697D01*
X868283Y7990961D01*
X868369Y7994288D01*
X861108Y8036461D01*
X859914Y8039568D01*
X859434Y8042861D01*
X845123Y8083191D01*
X843419Y8086051D01*
X842388Y8089214D01*
X821441Y8126531D01*
X819277Y8129060D01*
X817724Y8132004D01*
X790749Y8165226D01*
X788187Y8167351D01*
X786157Y8169987D01*
X753937Y8198150D01*
X751051Y8199810D01*
X748603Y8202064D01*
X712071Y8224352D01*
X708946Y8225498D01*
X706151Y8227304D01*
X666367Y8243070D01*
X663093Y8243669D01*
X660032Y8244975D01*
X618150Y8253763D01*
X614822Y8253797D01*
X611584Y8254565D01*
X568818Y8256118D01*
X566347Y8255720D01*
X563857Y8255981D01*
X542530Y8254024D01*
X541724Y8253785D01*
X540885Y8253837D01*
X529240Y8252266D01*
X505814Y8254119D01*
X483310Y8260885D01*
X462747Y8272257D01*
X445053Y8287723D01*
X431031Y8306581D01*
X421316Y8327976D01*
X416345Y8350944D01*
Y8362694D01*
X416345Y8921072D01*
X418695Y8932887D01*
X423305Y8944017D01*
X429998Y8954033D01*
X438516Y8962551D01*
X448532Y8969243D01*
X459662Y8973854D01*
X471476Y8976204D01*
X8186517D01*
X8189776Y8975819D01*
D02*
G37*
G36*
X9520443Y689912D02*
X9522028Y689806D01*
X9523719Y689595D01*
X9525727Y689384D01*
X9527840Y688961D01*
X9529953Y688538D01*
X9532278Y688010D01*
X9534602Y687376D01*
X9536821Y686636D01*
X9539040Y685685D01*
X9541259Y684523D01*
X9543267Y683361D01*
X9545063Y681882D01*
X9545169Y681776D01*
X9545486Y681565D01*
X9545909Y681036D01*
X9546543Y680402D01*
X9547282Y679663D01*
X9548022Y678606D01*
X9548867Y677444D01*
X9549818Y676176D01*
X9550663Y674696D01*
X9551509Y673111D01*
X9552354Y671315D01*
X9553094Y669413D01*
X9553833Y667406D01*
X9554362Y665187D01*
X9554679Y662862D01*
X9554890Y660432D01*
X9535236Y659692D01*
Y659798D01*
X9535131Y660009D01*
Y660432D01*
X9535025Y660854D01*
X9534814Y661488D01*
X9534602Y662228D01*
X9534074Y663813D01*
X9533335Y665504D01*
X9532384Y667300D01*
X9531221Y668991D01*
X9529742Y670364D01*
X9529531Y670470D01*
X9529002Y670892D01*
X9528051Y671421D01*
X9526678Y672055D01*
X9524881Y672689D01*
X9522768Y673217D01*
X9520232Y673640D01*
X9517274Y673745D01*
X9515900D01*
X9515160Y673640D01*
X9514315Y673534D01*
X9512307Y673323D01*
X9510194Y672900D01*
X9507869Y672266D01*
X9505756Y671315D01*
X9503749Y670153D01*
X9503643Y670047D01*
X9503326Y669730D01*
X9502798Y669202D01*
X9502269Y668568D01*
X9501635Y667723D01*
X9501213Y666666D01*
X9500790Y665504D01*
X9500684Y664130D01*
Y664024D01*
Y663602D01*
X9500790Y662862D01*
X9501001Y662122D01*
X9501424Y661171D01*
X9501847Y660115D01*
X9502586Y659164D01*
X9503537Y658213D01*
X9503749Y658107D01*
X9503960Y657896D01*
X9504383Y657684D01*
X9504805Y657367D01*
X9505439Y657051D01*
X9506285Y656628D01*
X9507235Y656205D01*
X9508292Y655783D01*
X9509560Y655254D01*
X9511039Y654726D01*
X9512730Y654198D01*
X9514632Y653564D01*
X9516745Y652930D01*
X9519070Y652296D01*
X9521606Y651662D01*
X9521817D01*
X9522240Y651556D01*
X9522979Y651345D01*
X9523930Y651133D01*
X9525198Y650816D01*
X9526466Y650394D01*
X9528051Y649971D01*
X9529636Y649548D01*
X9533123Y648492D01*
X9536610Y647329D01*
X9538301Y646695D01*
X9539991Y646061D01*
X9541471Y645322D01*
X9542844Y644688D01*
X9542950D01*
X9543161Y644476D01*
X9543478Y644265D01*
X9544007Y644054D01*
X9545275Y643209D01*
X9546859Y642152D01*
X9548550Y640673D01*
X9550346Y638982D01*
X9552143Y636974D01*
X9553728Y634755D01*
Y634650D01*
X9553939Y634438D01*
X9554045Y634121D01*
X9554362Y633593D01*
X9554679Y632959D01*
X9554996Y632219D01*
X9555313Y631374D01*
X9555735Y630423D01*
X9556052Y629367D01*
X9556369Y628204D01*
X9557003Y625563D01*
X9557426Y622498D01*
X9557637Y619223D01*
Y619117D01*
Y618906D01*
Y618377D01*
X9557532Y617849D01*
Y617110D01*
X9557426Y616159D01*
X9557215Y615208D01*
X9557003Y614151D01*
X9556475Y611721D01*
X9555630Y609079D01*
X9554467Y606332D01*
X9553728Y604852D01*
X9552882Y603479D01*
Y603373D01*
X9552671Y603162D01*
X9552354Y602739D01*
X9552037Y602317D01*
X9551509Y601683D01*
X9550980Y600943D01*
X9549501Y599358D01*
X9547599Y597667D01*
X9545380Y595765D01*
X9542739Y594075D01*
X9539674Y592595D01*
X9539569D01*
X9539252Y592490D01*
X9538829Y592278D01*
X9538195Y592067D01*
X9537350Y591750D01*
X9536293Y591539D01*
X9535131Y591222D01*
X9533863Y590905D01*
X9532384Y590482D01*
X9530799Y590165D01*
X9529002Y589954D01*
X9527100Y589637D01*
X9525198Y589426D01*
X9522979Y589214D01*
X9520760Y589109D01*
X9517591D01*
X9516640Y589214D01*
X9515372D01*
X9513892Y589320D01*
X9512096Y589531D01*
X9510088Y589848D01*
X9507975Y590165D01*
X9505651Y590588D01*
X9503326Y591222D01*
X9501001Y591856D01*
X9498677Y592701D01*
X9496352Y593652D01*
X9494133Y594814D01*
X9492020Y596082D01*
X9490012Y597562D01*
X9489907Y597667D01*
X9489590Y597984D01*
X9489061Y598513D01*
X9488427Y599147D01*
X9487688Y600098D01*
X9486737Y601154D01*
X9485786Y602422D01*
X9484835Y603902D01*
X9483778Y605592D01*
X9482721Y607388D01*
X9481770Y609502D01*
X9480819Y611721D01*
X9479974Y614151D01*
X9479235Y616687D01*
X9478601Y619540D01*
X9478178Y622498D01*
X9497303Y624400D01*
Y624295D01*
X9497409Y623978D01*
X9497514Y623449D01*
X9497620Y622815D01*
X9497831Y621970D01*
X9498148Y621125D01*
X9498782Y619011D01*
X9499733Y616687D01*
X9501001Y614257D01*
X9502481Y612038D01*
X9503326Y611087D01*
X9504277Y610136D01*
X9504383D01*
X9504488Y609924D01*
X9504805Y609713D01*
X9505228Y609396D01*
X9505756Y609079D01*
X9506496Y608762D01*
X9507235Y608339D01*
X9508081Y607917D01*
X9510194Y607071D01*
X9512624Y606437D01*
X9515477Y605909D01*
X9518647Y605698D01*
X9519598D01*
X9520232Y605803D01*
X9521077D01*
X9521923Y605909D01*
X9524036Y606226D01*
X9526361Y606649D01*
X9528791Y607388D01*
X9531116Y608339D01*
X9532172Y608973D01*
X9533123Y609713D01*
X9533229D01*
X9533335Y609924D01*
X9533863Y610453D01*
X9534708Y611298D01*
X9535553Y612355D01*
X9536399Y613728D01*
X9537244Y615419D01*
X9537772Y617215D01*
X9537984Y618166D01*
Y619117D01*
Y619223D01*
Y619751D01*
X9537878Y620385D01*
X9537772Y621125D01*
X9537455Y622076D01*
X9537138Y623132D01*
X9536610Y624083D01*
X9535870Y625034D01*
X9535765Y625140D01*
X9535448Y625457D01*
X9534919Y625880D01*
X9534285Y626514D01*
X9533229Y627148D01*
X9532067Y627887D01*
X9530587Y628521D01*
X9528791Y629261D01*
X9528580Y629367D01*
X9528368D01*
X9528051Y629472D01*
X9527629Y629578D01*
X9526995Y629789D01*
X9526361Y630001D01*
X9525515Y630212D01*
X9524564Y630529D01*
X9523402Y630846D01*
X9522134Y631163D01*
X9520655Y631585D01*
X9519070Y632008D01*
X9517274Y632431D01*
X9515266Y632959D01*
X9513047Y633487D01*
X9512836D01*
X9512307Y633699D01*
X9511568Y633910D01*
X9510511Y634227D01*
X9509137Y634544D01*
X9507658Y635072D01*
X9506073Y635601D01*
X9504383Y636129D01*
X9500684Y637608D01*
X9496986Y639193D01*
X9495295Y640144D01*
X9493605Y641095D01*
X9492126Y642046D01*
X9490858Y643103D01*
X9490752Y643209D01*
X9490435Y643526D01*
X9490012Y643948D01*
X9489484Y644582D01*
X9488744Y645322D01*
X9488005Y646273D01*
X9487159Y647329D01*
X9486420Y648597D01*
X9485574Y649971D01*
X9484729Y651450D01*
X9483989Y653141D01*
X9483250Y654832D01*
X9482721Y656628D01*
X9482299Y658635D01*
X9481982Y660643D01*
X9481876Y662756D01*
Y662862D01*
Y663073D01*
Y663496D01*
X9481982Y664024D01*
Y664658D01*
X9482087Y665504D01*
X9482404Y667300D01*
X9482933Y669413D01*
X9483672Y671843D01*
X9484729Y674274D01*
X9486103Y676704D01*
Y676810D01*
X9486314Y677021D01*
X9486525Y677338D01*
X9486842Y677761D01*
X9487899Y678923D01*
X9489167Y680402D01*
X9490963Y681987D01*
X9492971Y683572D01*
X9495507Y685157D01*
X9498254Y686531D01*
X9498360D01*
X9498571Y686636D01*
X9499099Y686848D01*
X9499628Y687059D01*
X9500473Y687376D01*
X9501318Y687587D01*
X9502375Y687904D01*
X9503643Y688327D01*
X9505017Y688644D01*
X9506390Y688961D01*
X9507975Y689172D01*
X9509666Y689489D01*
X9511568Y689701D01*
X9513364Y689912D01*
X9517485Y690018D01*
X9519281D01*
X9520443Y689912D01*
D02*
G37*
G36*
X9759772Y590905D02*
X9742444D01*
Y601154D01*
X9742232Y600943D01*
X9742021Y600626D01*
X9741704Y600309D01*
X9740753Y599147D01*
X9739591Y597879D01*
X9738006Y596399D01*
X9736315Y594814D01*
X9734307Y593441D01*
X9732194Y592173D01*
X9732088D01*
X9731983Y592067D01*
X9731560Y591961D01*
X9731138Y591750D01*
X9729975Y591222D01*
X9728496Y590799D01*
X9726700Y590271D01*
X9724692Y589743D01*
X9722579Y589426D01*
X9720360Y589320D01*
X9719831D01*
X9719197Y589426D01*
X9718352D01*
X9717296Y589637D01*
X9716028Y589848D01*
X9714654Y590165D01*
X9713175Y590588D01*
X9711590Y591011D01*
X9709899Y591644D01*
X9708208Y592490D01*
X9706412Y593441D01*
X9704722Y594497D01*
X9702925Y595871D01*
X9701235Y597350D01*
X9699544Y599041D01*
X9699438Y599147D01*
X9699227Y599464D01*
X9698699Y600098D01*
X9698170Y600837D01*
X9697536Y601894D01*
X9696797Y603056D01*
X9696057Y604535D01*
X9695212Y606120D01*
X9694366Y608022D01*
X9693627Y610030D01*
X9692887Y612355D01*
X9692253Y614785D01*
X9691725Y617427D01*
X9691302Y620279D01*
X9690985Y623344D01*
X9690880Y626514D01*
Y626725D01*
Y627359D01*
X9690985Y628204D01*
Y629472D01*
X9691091Y630951D01*
X9691302Y632642D01*
X9691619Y634650D01*
X9691936Y636657D01*
X9692359Y638876D01*
X9692887Y641095D01*
X9693627Y643314D01*
X9694366Y645639D01*
X9695317Y647858D01*
X9696480Y649971D01*
X9697748Y651979D01*
X9699227Y653775D01*
X9699333Y653881D01*
X9699650Y654198D01*
X9700072Y654620D01*
X9700706Y655254D01*
X9701552Y655994D01*
X9702608Y656734D01*
X9703771Y657579D01*
X9705039Y658530D01*
X9706518Y659375D01*
X9708208Y660220D01*
X9709899Y660960D01*
X9711801Y661700D01*
X9713809Y662334D01*
X9715922Y662756D01*
X9718247Y663073D01*
X9720571Y663179D01*
X9721099D01*
X9721733Y663073D01*
X9722579D01*
X9723635Y662862D01*
X9724798Y662651D01*
X9726066Y662334D01*
X9727545Y661911D01*
X9729130Y661383D01*
X9730821Y660749D01*
X9732511Y659903D01*
X9734202Y658952D01*
X9735998Y657896D01*
X9737689Y656522D01*
X9739379Y655043D01*
X9741070Y653247D01*
Y688433D01*
X9759772D01*
Y590905D01*
D02*
G37*
G36*
X9888260Y663073D02*
X9888894Y662968D01*
X9890479Y662756D01*
X9892381Y662334D01*
X9894494Y661700D01*
X9896713Y660749D01*
X9898932Y659586D01*
X9893120Y643314D01*
X9892909Y643420D01*
X9892275Y643843D01*
X9891430Y644265D01*
X9890267Y644899D01*
X9888894Y645427D01*
X9887415Y645956D01*
X9885935Y646273D01*
X9884350Y646378D01*
X9883716D01*
X9882977Y646273D01*
X9882026Y646061D01*
X9880969Y645850D01*
X9879912Y645427D01*
X9878750Y644899D01*
X9877693Y644159D01*
X9877588Y644054D01*
X9877271Y643737D01*
X9876743Y643209D01*
X9876109Y642363D01*
X9875475Y641307D01*
X9874735Y639933D01*
X9873995Y638348D01*
X9873361Y636340D01*
Y636235D01*
X9873256Y636023D01*
Y635706D01*
X9873150Y635178D01*
X9873044Y634544D01*
X9872939Y633593D01*
X9872727Y632536D01*
X9872622Y631268D01*
X9872516Y629789D01*
X9872305Y628099D01*
X9872199Y626197D01*
X9872093Y623978D01*
X9871988Y621547D01*
Y618906D01*
X9871882Y615947D01*
Y612672D01*
Y590905D01*
X9853179D01*
Y661594D01*
X9870508D01*
Y651450D01*
X9870614Y651556D01*
X9870720Y651767D01*
X9870931Y652084D01*
X9871248Y652613D01*
X9872093Y653881D01*
X9873150Y655360D01*
X9874418Y656945D01*
X9875686Y658424D01*
X9877059Y659798D01*
X9877799Y660432D01*
X9878433Y660854D01*
X9878644Y660960D01*
X9879067Y661171D01*
X9879807Y661594D01*
X9880758Y662017D01*
X9882026Y662439D01*
X9883399Y662862D01*
X9884879Y663073D01*
X9886569Y663179D01*
X9887626D01*
X9888260Y663073D01*
D02*
G37*
G36*
X9402205D02*
X9403156D01*
X9404213Y662862D01*
X9405375Y662651D01*
X9406749Y662334D01*
X9408334Y662017D01*
X9409919Y661488D01*
X9411610Y660854D01*
X9413300Y660009D01*
X9415096Y659058D01*
X9416893Y658001D01*
X9418583Y656628D01*
X9420274Y655149D01*
X9421965Y653458D01*
X9422070Y653352D01*
X9422387Y653035D01*
X9422810Y652507D01*
X9423338Y651662D01*
X9423972Y650711D01*
X9424712Y649548D01*
X9425452Y648069D01*
X9426297Y646484D01*
X9427142Y644688D01*
X9427882Y642680D01*
X9428621Y640461D01*
X9429255Y638031D01*
X9429784Y635495D01*
X9430312Y632748D01*
X9430523Y629789D01*
X9430629Y626619D01*
Y626408D01*
Y625880D01*
X9430523Y624929D01*
Y623661D01*
X9430418Y622181D01*
X9430206Y620491D01*
X9429889Y618589D01*
X9429572Y616476D01*
X9429044Y614362D01*
X9428516Y612038D01*
X9427776Y609819D01*
X9426931Y607494D01*
X9425980Y605275D01*
X9424818Y603056D01*
X9423444Y600943D01*
X9421965Y599041D01*
X9421859Y598935D01*
X9421542Y598618D01*
X9421119Y598196D01*
X9420380Y597562D01*
X9419534Y596822D01*
X9418583Y595977D01*
X9417421Y595131D01*
X9416047Y594180D01*
X9414674Y593229D01*
X9412983Y592384D01*
X9411293Y591539D01*
X9409391Y590799D01*
X9407489Y590271D01*
X9405375Y589743D01*
X9403262Y589426D01*
X9400938Y589320D01*
X9399987D01*
X9398824Y589426D01*
X9397345Y589637D01*
X9395760Y589848D01*
X9393964Y590271D01*
X9392062Y590905D01*
X9390265Y591644D01*
X9390054Y591750D01*
X9389420Y592067D01*
X9388469Y592701D01*
X9387201Y593546D01*
X9385722Y594603D01*
X9384031Y595977D01*
X9382235Y597667D01*
X9380333Y599569D01*
Y564066D01*
X9361631D01*
Y661594D01*
X9379065D01*
Y651239D01*
X9379276Y651345D01*
X9379699Y651979D01*
X9380439Y653035D01*
X9381495Y654198D01*
X9382763Y655571D01*
X9384348Y657051D01*
X9386145Y658530D01*
X9388152Y659798D01*
X9388258D01*
X9388469Y659903D01*
X9388786Y660115D01*
X9389209Y660326D01*
X9389737Y660537D01*
X9390371Y660854D01*
X9391956Y661488D01*
X9393858Y662122D01*
X9396077Y662651D01*
X9398507Y663073D01*
X9401043Y663179D01*
X9401571D01*
X9402205Y663073D01*
D02*
G37*
G36*
X9675981Y590905D02*
X9657278D01*
Y688433D01*
X9675981D01*
Y590905D01*
D02*
G37*
G36*
X9266533Y671949D02*
X9237792D01*
Y590905D01*
X9218139D01*
Y671949D01*
X9189187D01*
Y688433D01*
X9266533D01*
Y671949D01*
D02*
G37*
G36*
X9806582Y663073D02*
X9807744Y662968D01*
X9809012Y662862D01*
X9810597Y662651D01*
X9812287Y662334D01*
X9814084Y661911D01*
X9816091Y661277D01*
X9818099Y660643D01*
X9820107Y659798D01*
X9822220Y658741D01*
X9824227Y657579D01*
X9826235Y656205D01*
X9828137Y654515D01*
X9829933Y652718D01*
X9830039Y652613D01*
X9830356Y652190D01*
X9830779Y651662D01*
X9831307Y650816D01*
X9832047Y649654D01*
X9832786Y648280D01*
X9833632Y646695D01*
X9834477Y644899D01*
X9835322Y642786D01*
X9836062Y640356D01*
X9836802Y637820D01*
X9837435Y634967D01*
X9837964Y631797D01*
X9838386Y628416D01*
X9838703Y624823D01*
Y620913D01*
X9791894D01*
Y620808D01*
Y620596D01*
Y620068D01*
X9792000Y619540D01*
X9792106Y618800D01*
X9792211Y617955D01*
X9792528Y616159D01*
X9793057Y614045D01*
X9793796Y611826D01*
X9794853Y609713D01*
X9796332Y607811D01*
X9796438D01*
X9796544Y607600D01*
X9797072Y607071D01*
X9798023Y606332D01*
X9799291Y605592D01*
X9800876Y604747D01*
X9802778Y604007D01*
X9804891Y603479D01*
X9806053Y603373D01*
X9807216Y603268D01*
X9807955D01*
X9808695Y603373D01*
X9809752Y603585D01*
X9810914Y603796D01*
X9812076Y604219D01*
X9813344Y604852D01*
X9814506Y605592D01*
X9814612Y605698D01*
X9815035Y606015D01*
X9815563Y606649D01*
X9816197Y607494D01*
X9817042Y608551D01*
X9817782Y609924D01*
X9818522Y611509D01*
X9819156Y613411D01*
X9837752Y610241D01*
Y610136D01*
X9837541Y609819D01*
X9837330Y609290D01*
X9837119Y608551D01*
X9836696Y607705D01*
X9836168Y606754D01*
X9835639Y605592D01*
X9835005Y604430D01*
X9833420Y601894D01*
X9831413Y599358D01*
X9829088Y596822D01*
X9827714Y595660D01*
X9826341Y594603D01*
X9826235Y594497D01*
X9826024Y594392D01*
X9825601Y594075D01*
X9824967Y593758D01*
X9824227Y593335D01*
X9823277Y592912D01*
X9822220Y592490D01*
X9821058Y591961D01*
X9819684Y591433D01*
X9818205Y591011D01*
X9816620Y590588D01*
X9814929Y590165D01*
X9813133Y589848D01*
X9811125Y589531D01*
X9809118Y589426D01*
X9807004Y589320D01*
X9806159D01*
X9805208Y589426D01*
X9803940Y589531D01*
X9802461Y589637D01*
X9800664Y589954D01*
X9798762Y590271D01*
X9796649Y590799D01*
X9794430Y591433D01*
X9792211Y592278D01*
X9789992Y593229D01*
X9787668Y594392D01*
X9785554Y595765D01*
X9783441Y597350D01*
X9781539Y599147D01*
X9779743Y601260D01*
X9779637Y601366D01*
X9779426Y601683D01*
X9779109Y602211D01*
X9778686Y603056D01*
X9778158Y604007D01*
X9777524Y605064D01*
X9776890Y606437D01*
X9776256Y607917D01*
X9775622Y609607D01*
X9774988Y611509D01*
X9774354Y613517D01*
X9773826Y615630D01*
X9773403Y617955D01*
X9773086Y620385D01*
X9772875Y623027D01*
X9772769Y625668D01*
Y625880D01*
Y626408D01*
X9772875Y627359D01*
Y628521D01*
X9773086Y630001D01*
X9773297Y631797D01*
X9773509Y633593D01*
X9773931Y635706D01*
X9774354Y637820D01*
X9774988Y640039D01*
X9775728Y642363D01*
X9776573Y644688D01*
X9777630Y646907D01*
X9778898Y649126D01*
X9780271Y651239D01*
X9781856Y653141D01*
X9781962Y653247D01*
X9782279Y653564D01*
X9782807Y654092D01*
X9783547Y654726D01*
X9784392Y655466D01*
X9785554Y656311D01*
X9786822Y657262D01*
X9788196Y658213D01*
X9789781Y659058D01*
X9791577Y660009D01*
X9793479Y660854D01*
X9795593Y661594D01*
X9797706Y662228D01*
X9800030Y662756D01*
X9802566Y663073D01*
X9805102Y663179D01*
X9805842D01*
X9806582Y663073D01*
D02*
G37*
G36*
X9607616D02*
X9608673Y662968D01*
X9610047Y662862D01*
X9611632Y662651D01*
X9613428Y662334D01*
X9615330Y661911D01*
X9617337Y661277D01*
X9619451Y660643D01*
X9621670Y659798D01*
X9623783Y658741D01*
X9626002Y657579D01*
X9628221Y656205D01*
X9630228Y654515D01*
X9632236Y652718D01*
X9632342Y652613D01*
X9632659Y652190D01*
X9633187Y651662D01*
X9633821Y650816D01*
X9634666Y649760D01*
X9635512Y648597D01*
X9636357Y647118D01*
X9637414Y645533D01*
X9638365Y643737D01*
X9639210Y641729D01*
X9640161Y639510D01*
X9640900Y637186D01*
X9641534Y634755D01*
X9642063Y632114D01*
X9642380Y629367D01*
X9642485Y626408D01*
Y626197D01*
Y625668D01*
X9642380Y624823D01*
Y623766D01*
X9642168Y622393D01*
X9641957Y620808D01*
X9641640Y619011D01*
X9641217Y617110D01*
X9640689Y614996D01*
X9639949Y612883D01*
X9639104Y610664D01*
X9638153Y608445D01*
X9636885Y606120D01*
X9635512Y604007D01*
X9633927Y601788D01*
X9632130Y599781D01*
X9632025Y599675D01*
X9631708Y599358D01*
X9631074Y598830D01*
X9630228Y598196D01*
X9629277Y597350D01*
X9628009Y596505D01*
X9626636Y595554D01*
X9625051Y594603D01*
X9623255Y593546D01*
X9621247Y592595D01*
X9619134Y591750D01*
X9616809Y591011D01*
X9614379Y590271D01*
X9611737Y589743D01*
X9608990Y589426D01*
X9606137Y589320D01*
X9605186D01*
X9604446Y589426D01*
X9603601D01*
X9602650Y589531D01*
X9601488Y589637D01*
X9600220Y589848D01*
X9597367Y590377D01*
X9594197Y591116D01*
X9590921Y592173D01*
X9587646Y593652D01*
X9587540Y593758D01*
X9587223Y593863D01*
X9586800Y594075D01*
X9586167Y594497D01*
X9585427Y594920D01*
X9584687Y595554D01*
X9582680Y596928D01*
X9580566Y598724D01*
X9578347Y600943D01*
X9576234Y603585D01*
X9574332Y606543D01*
Y606649D01*
X9574121Y606966D01*
X9573909Y607388D01*
X9573592Y608022D01*
X9573275Y608868D01*
X9572853Y609819D01*
X9572536Y610981D01*
X9572113Y612249D01*
X9571691Y613728D01*
X9571268Y615313D01*
X9570845Y617004D01*
X9570528Y618800D01*
X9570211Y620702D01*
X9570000Y622815D01*
X9569894Y624929D01*
X9569789Y627148D01*
Y627253D01*
Y627570D01*
Y628099D01*
X9569894Y628733D01*
Y629578D01*
X9570000Y630635D01*
X9570211Y631691D01*
X9570317Y632959D01*
X9570951Y635706D01*
X9571691Y638771D01*
X9572853Y641941D01*
X9573487Y643631D01*
X9574332Y645216D01*
X9574438Y645322D01*
X9574543Y645639D01*
X9574860Y646061D01*
X9575177Y646695D01*
X9575600Y647435D01*
X9576234Y648280D01*
X9577608Y650182D01*
X9579510Y652296D01*
X9581729Y654515D01*
X9584265Y656628D01*
X9587223Y658530D01*
X9587329Y658635D01*
X9587646Y658741D01*
X9588068Y658952D01*
X9588702Y659269D01*
X9589548Y659586D01*
X9590499Y660009D01*
X9591555Y660432D01*
X9592718Y660854D01*
X9594091Y661277D01*
X9595571Y661700D01*
X9598741Y662439D01*
X9602227Y662968D01*
X9604129Y663179D01*
X9606771D01*
X9607616Y663073D01*
D02*
G37*
G36*
X9312602D02*
X9313659Y662968D01*
X9315033Y662862D01*
X9316618Y662651D01*
X9318414Y662334D01*
X9320316Y661911D01*
X9322323Y661277D01*
X9324437Y660643D01*
X9326656Y659798D01*
X9328769Y658741D01*
X9330988Y657579D01*
X9333207Y656205D01*
X9335215Y654515D01*
X9337222Y652718D01*
X9337328Y652613D01*
X9337645Y652190D01*
X9338173Y651662D01*
X9338807Y650816D01*
X9339652Y649760D01*
X9340498Y648597D01*
X9341343Y647118D01*
X9342400Y645533D01*
X9343351Y643737D01*
X9344196Y641729D01*
X9345147Y639510D01*
X9345887Y637186D01*
X9346521Y634755D01*
X9347049Y632114D01*
X9347366Y629367D01*
X9347472Y626408D01*
Y626197D01*
Y625668D01*
X9347366Y624823D01*
Y623766D01*
X9347155Y622393D01*
X9346943Y620808D01*
X9346626Y619011D01*
X9346204Y617110D01*
X9345675Y614996D01*
X9344936Y612883D01*
X9344090Y610664D01*
X9343139Y608445D01*
X9341871Y606120D01*
X9340498Y604007D01*
X9338913Y601788D01*
X9337116Y599781D01*
X9337011Y599675D01*
X9336694Y599358D01*
X9336060Y598830D01*
X9335215Y598196D01*
X9334264Y597350D01*
X9332996Y596505D01*
X9331622Y595554D01*
X9330037Y594603D01*
X9328241Y593546D01*
X9326233Y592595D01*
X9324120Y591750D01*
X9321795Y591011D01*
X9319365Y590271D01*
X9316723Y589743D01*
X9313976Y589426D01*
X9311123Y589320D01*
X9310172D01*
X9309432Y589426D01*
X9308587D01*
X9307636Y589531D01*
X9306474Y589637D01*
X9305206Y589848D01*
X9302353Y590377D01*
X9299183Y591116D01*
X9295907Y592173D01*
X9292632Y593652D01*
X9292526Y593758D01*
X9292209Y593863D01*
X9291787Y594075D01*
X9291153Y594497D01*
X9290413Y594920D01*
X9289673Y595554D01*
X9287666Y596928D01*
X9285552Y598724D01*
X9283333Y600943D01*
X9281220Y603585D01*
X9279318Y606543D01*
Y606649D01*
X9279107Y606966D01*
X9278896Y607388D01*
X9278579Y608022D01*
X9278262Y608868D01*
X9277839Y609819D01*
X9277522Y610981D01*
X9277099Y612249D01*
X9276677Y613728D01*
X9276254Y615313D01*
X9275831Y617004D01*
X9275514Y618800D01*
X9275197Y620702D01*
X9274986Y622815D01*
X9274880Y624929D01*
X9274775Y627148D01*
Y627253D01*
Y627570D01*
Y628099D01*
X9274880Y628733D01*
Y629578D01*
X9274986Y630635D01*
X9275197Y631691D01*
X9275303Y632959D01*
X9275937Y635706D01*
X9276677Y638771D01*
X9277839Y641941D01*
X9278473Y643631D01*
X9279318Y645216D01*
X9279424Y645322D01*
X9279530Y645639D01*
X9279847Y646061D01*
X9280164Y646695D01*
X9280586Y647435D01*
X9281220Y648280D01*
X9282594Y650182D01*
X9284496Y652296D01*
X9286715Y654515D01*
X9289251Y656628D01*
X9292209Y658530D01*
X9292315Y658635D01*
X9292632Y658741D01*
X9293055Y658952D01*
X9293689Y659269D01*
X9294534Y659586D01*
X9295485Y660009D01*
X9296541Y660432D01*
X9297704Y660854D01*
X9299077Y661277D01*
X9300557Y661700D01*
X9303727Y662439D01*
X9307214Y662968D01*
X9309115Y663179D01*
X9311757D01*
X9312602Y663073D01*
D02*
G37*
%LPC*%
G36*
X7649155Y8915813D02*
X1045959D01*
X988095Y8857949D01*
Y7933915D01*
X1122440Y7799569D01*
X1122440Y7393264D01*
X1122441Y7377144D01*
X1116154Y7345523D01*
X1103817Y7315736D01*
X1085906Y7288929D01*
X1063108Y7266131D01*
X1036301Y7248220D01*
X1006514Y7235883D01*
X982764Y7231161D01*
X958773Y7229597D01*
X958773Y7229597D01*
X764340Y7229596D01*
X755849Y7229181D01*
X739193Y7225869D01*
X723503Y7219372D01*
X709382Y7209938D01*
X697374Y7197929D01*
X687940Y7183809D01*
X681442Y7168119D01*
X678131Y7151463D01*
X677715Y7142972D01*
Y1211251D01*
X701432Y1187534D01*
X1027891D01*
X1117268Y1098157D01*
Y918092D01*
X1558343Y477017D01*
X2037551D01*
X2100393Y539858D01*
Y1683533D01*
X2100392Y1708550D01*
X2110153Y1757621D01*
X2129300Y1803844D01*
X2157096Y1845445D01*
X2192474Y1880823D01*
X2234075Y1908620D01*
X2280298Y1927766D01*
X2329369Y1937526D01*
X2354386Y1937526D01*
X2354393Y1937534D01*
X4058809D01*
X4068460Y1938008D01*
X4087391Y1941773D01*
X4105224Y1949160D01*
X4121274Y1959884D01*
X4134923Y1973533D01*
X4145647Y1989582D01*
X4153033Y2007415D01*
X4156799Y2026347D01*
X4157273Y2035998D01*
Y2110649D01*
X4157273Y2135665D01*
X4167034Y2184736D01*
X4186180Y2230960D01*
X4213977Y2272560D01*
X4249355Y2307938D01*
X4290955Y2335735D01*
X4337179Y2354881D01*
X4386250Y2364642D01*
X4411267Y2364641D01*
X4411273Y2364649D01*
X4719077Y2364648D01*
X4744094Y2364649D01*
X4793167Y2354887D01*
X4839392Y2335740D01*
X4880993Y2307942D01*
X4916371Y2272562D01*
X4944167Y2230959D01*
X4963313Y2184734D01*
X4973072Y2135661D01*
X4973070Y2110644D01*
X4973070Y2110644D01*
X4973078Y2110640D01*
Y1966075D01*
X4973625Y1960507D01*
X4977884Y1950219D01*
X4985757Y1942344D01*
X4996045Y1938082D01*
X5001613Y1937534D01*
X5001620Y1937534D01*
X7935462D01*
X8073211Y2075283D01*
Y6869781D01*
X7548211Y7394780D01*
Y7679254D01*
X7694074Y7825117D01*
Y8870894D01*
X7649155Y8915813D01*
D02*
G37*
G36*
X9725537Y648914D02*
X9724903D01*
X9724481Y648809D01*
X9723213Y648597D01*
X9721628Y648280D01*
X9719937Y647646D01*
X9718035Y646695D01*
X9717084Y646061D01*
X9716239Y645322D01*
X9715288Y644476D01*
X9714443Y643526D01*
Y643420D01*
X9714231Y643314D01*
X9714020Y642997D01*
X9713703Y642575D01*
X9713386Y641941D01*
X9713069Y641307D01*
X9712646Y640461D01*
X9712224Y639616D01*
X9711801Y638559D01*
X9711378Y637397D01*
X9711061Y636023D01*
X9710744Y634650D01*
X9710427Y633170D01*
X9710216Y631480D01*
X9710110Y629684D01*
X9710005Y627782D01*
Y627676D01*
Y627253D01*
Y626725D01*
Y625985D01*
X9710110Y625034D01*
X9710216Y623978D01*
Y622710D01*
X9710427Y621547D01*
X9710744Y618800D01*
X9711273Y616159D01*
X9712012Y613517D01*
X9712541Y612460D01*
X9713069Y611404D01*
X9713175Y611298D01*
X9713280Y611087D01*
X9713597Y610770D01*
X9713914Y610241D01*
X9714971Y609079D01*
X9716345Y607811D01*
X9718141Y606437D01*
X9720254Y605275D01*
X9721522Y604747D01*
X9722790Y604430D01*
X9724164Y604219D01*
X9725643Y604113D01*
X9726277D01*
X9726700Y604219D01*
X9727968Y604430D01*
X9729447Y604747D01*
X9731138Y605381D01*
X9733039Y606437D01*
X9733885Y606966D01*
X9734836Y607705D01*
X9735787Y608551D01*
X9736632Y609502D01*
X9736738Y609607D01*
X9736843Y609713D01*
X9737055Y610136D01*
X9737372Y610558D01*
X9737689Y611087D01*
X9738111Y611826D01*
X9738534Y612672D01*
X9738957Y613623D01*
X9739379Y614679D01*
X9739696Y615947D01*
X9740119Y617321D01*
X9740436Y618800D01*
X9740753Y620385D01*
X9740964Y622076D01*
X9741176Y623978D01*
Y625985D01*
Y626091D01*
Y626514D01*
Y627148D01*
X9741070Y627993D01*
Y628944D01*
X9740964Y630106D01*
X9740859Y631374D01*
X9740647Y632748D01*
X9740119Y635601D01*
X9739274Y638559D01*
X9738217Y641201D01*
X9737477Y642469D01*
X9736738Y643526D01*
Y643631D01*
X9736526Y643737D01*
X9735998Y644371D01*
X9735047Y645216D01*
X9733673Y646273D01*
X9732088Y647224D01*
X9730187Y648069D01*
X9727968Y648703D01*
X9726805Y648809D01*
X9725537Y648914D01*
D02*
G37*
G36*
X9395866Y648386D02*
X9395232D01*
X9394703Y648280D01*
X9394175Y648175D01*
X9393435Y648069D01*
X9391850Y647752D01*
X9390054Y647118D01*
X9388152Y646167D01*
X9387201Y645533D01*
X9386250Y644793D01*
X9385299Y643948D01*
X9384454Y642997D01*
Y642892D01*
X9384243Y642786D01*
X9384031Y642469D01*
X9383714Y642046D01*
X9383397Y641412D01*
X9383080Y640778D01*
X9382658Y639933D01*
X9382235Y639088D01*
X9381812Y638031D01*
X9381390Y636869D01*
X9381073Y635601D01*
X9380756Y634227D01*
X9380439Y632642D01*
X9380227Y631057D01*
X9380122Y629261D01*
X9380016Y627359D01*
Y627253D01*
Y626831D01*
Y626197D01*
X9380122Y625457D01*
Y624400D01*
X9380227Y623238D01*
X9380439Y622076D01*
X9380650Y620702D01*
X9381178Y617849D01*
X9382024Y614891D01*
X9383186Y612143D01*
X9383820Y610875D01*
X9384665Y609713D01*
X9384771Y609607D01*
X9384877Y609502D01*
X9385511Y608868D01*
X9386567Y607917D01*
X9387941Y606966D01*
X9389631Y605909D01*
X9391533Y604958D01*
X9393858Y604324D01*
X9395020Y604219D01*
X9396288Y604113D01*
X9396922D01*
X9397345Y604219D01*
X9398507Y604430D01*
X9400092Y604747D01*
X9401783Y605381D01*
X9403579Y606332D01*
X9404424Y606860D01*
X9405375Y607600D01*
X9406221Y608339D01*
X9407066Y609290D01*
X9407172Y609396D01*
X9407277Y609502D01*
X9407489Y609819D01*
X9407806Y610241D01*
X9408123Y610875D01*
X9408440Y611509D01*
X9408862Y612355D01*
X9409285Y613411D01*
X9409708Y614468D01*
X9410130Y615736D01*
X9410447Y617110D01*
X9410764Y618694D01*
X9411081Y620385D01*
X9411293Y622287D01*
X9411504Y624295D01*
Y626408D01*
Y626514D01*
Y626936D01*
Y627465D01*
X9411398Y628204D01*
Y629155D01*
X9411293Y630212D01*
X9411081Y631374D01*
X9410976Y632642D01*
X9410447Y635284D01*
X9409602Y638031D01*
X9408440Y640673D01*
X9407806Y641835D01*
X9406960Y642892D01*
Y642997D01*
X9406749Y643103D01*
X9406115Y643737D01*
X9405164Y644582D01*
X9403896Y645639D01*
X9402311Y646695D01*
X9400409Y647541D01*
X9398296Y648175D01*
X9397134Y648280D01*
X9395866Y648386D01*
D02*
G37*
G36*
X9806159Y648914D02*
X9805525D01*
X9805102Y648809D01*
X9804046Y648703D01*
X9802566Y648386D01*
X9800981Y647858D01*
X9799291Y647012D01*
X9797706Y645850D01*
X9796861Y645216D01*
X9796121Y644371D01*
X9795910Y644159D01*
X9795487Y643526D01*
X9794853Y642575D01*
X9794113Y641201D01*
X9793374Y639510D01*
X9792740Y637397D01*
X9792317Y635072D01*
X9792211Y632325D01*
X9820107D01*
Y632431D01*
Y632642D01*
Y633065D01*
X9820001Y633699D01*
X9819895Y634333D01*
X9819790Y635072D01*
X9819473Y636869D01*
X9818944Y638876D01*
X9818205Y640884D01*
X9817254Y642892D01*
X9815880Y644582D01*
X9815669Y644793D01*
X9815140Y645216D01*
X9814295Y645956D01*
X9813133Y646801D01*
X9811759Y647541D01*
X9810069Y648280D01*
X9808167Y648703D01*
X9806159Y648914D01*
D02*
G37*
G36*
X9606031Y647963D02*
X9605292D01*
X9604869Y647858D01*
X9604235Y647752D01*
X9603495Y647646D01*
X9601805Y647224D01*
X9599797Y646590D01*
X9597790Y645639D01*
X9596733Y645005D01*
X9595782Y644265D01*
X9594725Y643314D01*
X9593774Y642363D01*
Y642258D01*
X9593563Y642152D01*
X9593352Y641729D01*
X9593035Y641307D01*
X9592612Y640778D01*
X9592189Y640039D01*
X9591767Y639193D01*
X9591344Y638242D01*
X9590921Y637186D01*
X9590499Y635918D01*
X9590076Y634650D01*
X9589653Y633170D01*
X9589336Y631585D01*
X9589125Y629895D01*
X9589019Y628099D01*
X9588914Y626197D01*
Y626091D01*
Y625774D01*
Y625140D01*
X9589019Y624506D01*
Y623555D01*
X9589125Y622604D01*
X9589336Y621442D01*
X9589548Y620174D01*
X9590076Y617638D01*
X9590921Y614891D01*
X9592189Y612355D01*
X9592929Y611087D01*
X9593774Y610030D01*
X9593880Y609924D01*
X9593986Y609819D01*
X9594303Y609502D01*
X9594620Y609185D01*
X9595782Y608339D01*
X9597156Y607283D01*
X9598952Y606226D01*
X9601065Y605381D01*
X9603390Y604747D01*
X9604658Y604641D01*
X9606031Y604535D01*
X9606771D01*
X9607299Y604641D01*
X9607828Y604747D01*
X9608567Y604852D01*
X9610258Y605275D01*
X9612266Y605909D01*
X9614273Y606860D01*
X9615330Y607494D01*
X9616386Y608234D01*
X9617337Y609079D01*
X9618288Y610030D01*
X9618394Y610136D01*
X9618500Y610347D01*
X9618711Y610664D01*
X9619028Y611087D01*
X9619451Y611615D01*
X9619873Y612355D01*
X9620296Y613200D01*
X9620824Y614151D01*
X9621247Y615208D01*
X9621670Y616476D01*
X9622092Y617849D01*
X9622515Y619223D01*
X9622832Y620808D01*
X9623043Y622498D01*
X9623255Y624400D01*
Y626302D01*
Y626408D01*
Y626725D01*
Y627359D01*
X9623149Y627993D01*
Y628944D01*
X9623043Y629895D01*
X9622832Y631057D01*
X9622621Y632219D01*
X9622092Y634861D01*
X9621141Y637503D01*
X9619979Y640039D01*
X9619134Y641307D01*
X9618288Y642363D01*
X9618183Y642469D01*
X9618077Y642575D01*
X9617760Y642892D01*
X9617443Y643209D01*
X9616386Y644159D01*
X9614907Y645216D01*
X9613111Y646167D01*
X9610998Y647118D01*
X9608673Y647752D01*
X9607405Y647858D01*
X9606031Y647963D01*
D02*
G37*
G36*
X9311017D02*
X9310278D01*
X9309855Y647858D01*
X9309221Y647752D01*
X9308482Y647646D01*
X9306791Y647224D01*
X9304783Y646590D01*
X9302776Y645639D01*
X9301719Y645005D01*
X9300768Y644265D01*
X9299711Y643314D01*
X9298760Y642363D01*
Y642258D01*
X9298549Y642152D01*
X9298338Y641729D01*
X9298021Y641307D01*
X9297598Y640778D01*
X9297175Y640039D01*
X9296753Y639193D01*
X9296330Y638242D01*
X9295907Y637186D01*
X9295485Y635918D01*
X9295062Y634650D01*
X9294640Y633170D01*
X9294323Y631585D01*
X9294111Y629895D01*
X9294006Y628099D01*
X9293900Y626197D01*
Y626091D01*
Y625774D01*
Y625140D01*
X9294006Y624506D01*
Y623555D01*
X9294111Y622604D01*
X9294323Y621442D01*
X9294534Y620174D01*
X9295062Y617638D01*
X9295907Y614891D01*
X9297175Y612355D01*
X9297915Y611087D01*
X9298760Y610030D01*
X9298866Y609924D01*
X9298972Y609819D01*
X9299289Y609502D01*
X9299606Y609185D01*
X9300768Y608339D01*
X9302142Y607283D01*
X9303938Y606226D01*
X9306051Y605381D01*
X9308376Y604747D01*
X9309644Y604641D01*
X9311017Y604535D01*
X9311757D01*
X9312285Y604641D01*
X9312814Y604747D01*
X9313553Y604852D01*
X9315244Y605275D01*
X9317252Y605909D01*
X9319259Y606860D01*
X9320316Y607494D01*
X9321373Y608234D01*
X9322323Y609079D01*
X9323274Y610030D01*
X9323380Y610136D01*
X9323486Y610347D01*
X9323697Y610664D01*
X9324014Y611087D01*
X9324437Y611615D01*
X9324859Y612355D01*
X9325282Y613200D01*
X9325810Y614151D01*
X9326233Y615208D01*
X9326656Y616476D01*
X9327078Y617849D01*
X9327501Y619223D01*
X9327818Y620808D01*
X9328029Y622498D01*
X9328241Y624400D01*
Y626302D01*
Y626408D01*
Y626725D01*
Y627359D01*
X9328135Y627993D01*
Y628944D01*
X9328029Y629895D01*
X9327818Y631057D01*
X9327607Y632219D01*
X9327078Y634861D01*
X9326127Y637503D01*
X9324965Y640039D01*
X9324120Y641307D01*
X9323274Y642363D01*
X9323169Y642469D01*
X9323063Y642575D01*
X9322746Y642892D01*
X9322429Y643209D01*
X9321373Y644159D01*
X9319893Y645216D01*
X9318097Y646167D01*
X9315984Y647118D01*
X9313659Y647752D01*
X9312391Y647858D01*
X9311017Y647963D01*
D02*
G37*
%LPD*%
D39*
X5231701Y7152926D02*
D03*
Y7002926D02*
D03*
X4883473Y5061101D02*
D03*
Y5211101D02*
D03*
X4689890D02*
D03*
Y5061101D02*
D03*
X3099400Y2542800D02*
D03*
Y2392800D02*
D03*
X4051573Y7177732D02*
D03*
Y7327732D02*
D03*
X7103401Y6516926D02*
D03*
Y6666926D02*
D03*
X856651Y4749900D02*
D03*
Y4899900D02*
D03*
X1474550Y4752400D02*
D03*
Y4902400D02*
D03*
Y5095300D02*
D03*
Y5245300D02*
D03*
X1549400Y3560800D02*
D03*
Y3710800D02*
D03*
X7294190Y2837800D02*
D03*
Y3282800D02*
D03*
Y3432800D02*
D03*
Y2987800D02*
D03*
X6891887Y5963926D02*
D03*
Y6113926D02*
D03*
X3462448Y7326656D02*
D03*
Y7176656D02*
D03*
X2209948Y6284857D02*
D03*
Y6134857D02*
D03*
X2047448Y6434857D02*
D03*
Y6284857D02*
D03*
X1884948Y6584857D02*
D03*
Y6434857D02*
D03*
X3315963Y6334858D02*
D03*
Y6184858D02*
D03*
X3462448Y6987357D02*
D03*
Y6837357D02*
D03*
X4861155Y2542800D02*
D03*
Y2692800D02*
D03*
X3944401Y2542800D02*
D03*
Y2392800D02*
D03*
X2377929Y2542800D02*
D03*
Y2392800D02*
D03*
X1639400Y2210300D02*
D03*
Y2360300D02*
D03*
Y1382800D02*
D03*
Y1532800D02*
D03*
Y880623D02*
D03*
Y730623D02*
D03*
D40*
X5071900Y7002926D02*
D03*
X4981900D02*
D03*
X2124500Y2542800D02*
D03*
X2214500D02*
D03*
X5385000Y6494926D02*
D03*
Y6621926D02*
D03*
X5295000D02*
D03*
Y6494926D02*
D03*
X2836900Y2542800D02*
D03*
X2926900D02*
D03*
D41*
X1639400D02*
D03*
X1489400D02*
D03*
X4451900D02*
D03*
X4601900D02*
D03*
X1126901Y5277800D02*
D03*
X976901D02*
D03*
X1426900Y4530300D02*
D03*
X1576900D02*
D03*
X4689890Y4518112D02*
D03*
X4839890D02*
D03*
X4689890Y4693494D02*
D03*
X4839890D02*
D03*
X4689890Y4871823D02*
D03*
X4839890D02*
D03*
X3614766Y6138781D02*
D03*
X3764766D02*
D03*
X3462448Y6692357D02*
D03*
X3612448D02*
D03*
X3098448Y6159858D02*
D03*
X2948448D02*
D03*
X3594381Y2542800D02*
D03*
X3744381D02*
D03*
X1639400Y1727800D02*
D03*
X1489400D02*
D03*
D42*
X1126901Y5051301D02*
D03*
X1076901D02*
D03*
X1276901Y4754300D02*
D03*
X1226901D02*
D03*
X1176901D02*
D03*
X1126901D02*
D03*
X1076901D02*
D03*
X1276901Y5051301D02*
D03*
X1226901D02*
D03*
X1176901D02*
D03*
D43*
Y4902800D02*
D03*
D44*
X1038595Y3810800D02*
D03*
Y4270800D02*
D03*
X4051573Y6894857D02*
D03*
Y6434857D02*
D03*
D45*
X7527330Y4536823D02*
D03*
Y3936823D02*
D03*
X7897330Y4541823D02*
D03*
Y3941823D02*
D03*
D46*
X6761900Y2177800D02*
D03*
X5381900D02*
D03*
X5841900D02*
D03*
X6301900D02*
D03*
D47*
X7294190D02*
D03*
X7073401Y6023926D02*
D03*
Y6113926D02*
D03*
X5390000Y7092926D02*
D03*
Y7002926D02*
D03*
X3461198Y6453608D02*
D03*
Y6543607D02*
D03*
X7294190Y2087800D02*
D03*
D48*
X6936900Y3432800D02*
D03*
X5206900Y4322801D02*
D03*
X6936900Y2987800D02*
D03*
X5206900Y4767801D02*
D03*
X6936900Y2542800D02*
D03*
Y3877800D02*
D03*
Y4322801D02*
D03*
Y4767801D02*
D03*
Y5212801D02*
D03*
X5206900Y2542800D02*
D03*
Y2987800D02*
D03*
Y3432800D02*
D03*
Y3877800D02*
D03*
Y5212801D02*
D03*
D49*
X5645479Y6494926D02*
D03*
Y6621926D02*
D03*
X6585479Y7129926D02*
D03*
Y5986926D02*
D03*
Y6367926D02*
D03*
Y6621926D02*
D03*
X5645479Y7002926D02*
D03*
Y6875926D02*
D03*
Y6748926D02*
D03*
Y6367926D02*
D03*
Y6240926D02*
D03*
X6585479Y6494926D02*
D03*
Y6240926D02*
D03*
Y6113926D02*
D03*
X5645479D02*
D03*
X6585479Y6748926D02*
D03*
Y6875926D02*
D03*
X5645479Y5986926D02*
D03*
X6585479Y7002926D02*
D03*
D50*
X6892379Y6727358D02*
D03*
Y6902358D02*
D03*
X6892379Y6455426D02*
D03*
Y6280426D02*
D03*
D51*
X3312448Y7508762D02*
D03*
X3462448D02*
D03*
X4124400Y2542800D02*
D03*
X4244401D02*
D03*
X3284400D02*
D03*
X3404401D02*
D03*
X2576901D02*
D03*
X2696901D02*
D03*
X1825000D02*
D03*
X1945000D02*
D03*
D52*
X2517848Y6134857D02*
D03*
X2692848D02*
D03*
D53*
X1612578Y6954357D02*
D03*
X1802578D02*
D03*
X1707577Y7154357D02*
D03*
D54*
X2027448D02*
D03*
X2092448D02*
D03*
X2157448D02*
D03*
X2222448D02*
D03*
D55*
X2124948Y6934857D02*
D03*
D56*
X2521448D02*
D03*
Y6869857D02*
D03*
Y6804857D02*
D03*
Y6739857D02*
D03*
Y6674857D02*
D03*
Y6609857D02*
D03*
Y6544857D02*
D03*
Y6479857D02*
D03*
Y6414857D02*
D03*
Y6349857D02*
D03*
X3098448D02*
D03*
Y6414857D02*
D03*
Y6479857D02*
D03*
Y6544857D02*
D03*
Y6609857D02*
D03*
Y6674857D02*
D03*
Y6739857D02*
D03*
Y6804857D02*
D03*
Y6869857D02*
D03*
Y6934857D02*
D03*
D57*
X2809948Y6642357D02*
D03*
D58*
X2427448Y7466578D02*
D03*
X2157448D02*
D03*
D59*
X1639400Y1912800D02*
D03*
Y2032800D02*
D03*
Y1080300D02*
D03*
Y1200300D02*
D03*
D60*
X5645479Y7129926D02*
D03*
D61*
X7851319Y3505001D02*
D03*
Y3305001D02*
D03*
Y3105000D02*
D03*
X4774701Y5817500D02*
D03*
Y6017500D02*
D03*
Y6217500D02*
D03*
D62*
X7851319Y3705001D02*
D03*
X4774701Y5617500D02*
D03*
D63*
X4120949Y5309800D02*
D03*
Y4801800D02*
D03*
X1834949Y5309800D02*
D03*
Y4801800D02*
D03*
Y4293800D02*
D03*
Y3785800D02*
D03*
D64*
X4120949D02*
D03*
D65*
X3866949Y3522800D02*
D03*
X2088949Y5572800D02*
D03*
D66*
X992500Y5825204D02*
D03*
Y6855204D02*
D03*
X7663902Y5825900D02*
D03*
Y6855900D02*
D03*
D67*
X972500Y6340204D02*
D03*
X847500Y6465204D02*
D03*
X972500D02*
D03*
X847500Y6215204D02*
D03*
Y6340204D02*
D03*
X7683902Y6340900D02*
D03*
X7808902D02*
D03*
X7683902Y6215900D02*
D03*
X7808902Y6465900D02*
D03*
Y6215900D02*
D03*
D68*
X972500Y6215204D02*
D03*
X7683902Y6465900D02*
D03*
D69*
X1865000Y1013125D02*
D03*
X2130000D02*
D03*
Y748124D02*
D03*
X1865000D02*
D03*
D70*
X1997500Y880625D02*
D03*
D71*
X7851319Y2561901D02*
D03*
D72*
Y2815901D02*
D03*
D73*
X7276401Y8813600D02*
D03*
X3707701Y8013500D02*
D03*
X3961701D02*
D03*
X1688401Y8813600D02*
D03*
Y8559600D02*
D03*
X1942401Y8813600D02*
D03*
Y8559600D02*
D03*
X3212401Y8813600D02*
D03*
Y8559600D02*
D03*
X3466401Y8813600D02*
D03*
Y8559600D02*
D03*
X4736401Y8813600D02*
D03*
Y8559600D02*
D03*
X4990401Y8813600D02*
D03*
Y8559600D02*
D03*
X6260401Y8813600D02*
D03*
Y8559600D02*
D03*
X6514401Y8813600D02*
D03*
Y8559600D02*
D03*
X1675701Y8267500D02*
D03*
Y8013500D02*
D03*
X1929701Y8267500D02*
D03*
Y8013500D02*
D03*
X3199701Y8267500D02*
D03*
Y8013500D02*
D03*
X3453701Y8267500D02*
D03*
Y8013500D02*
D03*
X4723701Y8267500D02*
D03*
Y8013500D02*
D03*
X4977701Y8267500D02*
D03*
Y8013500D02*
D03*
X6247701Y8267500D02*
D03*
Y8013500D02*
D03*
X6501701Y8267500D02*
D03*
Y8013500D02*
D03*
X1180401Y8813600D02*
D03*
Y8559600D02*
D03*
X1434401Y8813600D02*
D03*
Y8559600D02*
D03*
X2196401Y8813600D02*
D03*
Y8559600D02*
D03*
X2450401Y8813600D02*
D03*
Y8559600D02*
D03*
X2704401Y8813600D02*
D03*
Y8559600D02*
D03*
X2958401Y8813600D02*
D03*
Y8559600D02*
D03*
X3720401Y8813600D02*
D03*
Y8559600D02*
D03*
X3974401Y8813600D02*
D03*
Y8559600D02*
D03*
X4228401Y8813600D02*
D03*
Y8559600D02*
D03*
X4482401Y8813600D02*
D03*
Y8559600D02*
D03*
X5244401Y8813600D02*
D03*
Y8559600D02*
D03*
X5498401Y8813600D02*
D03*
Y8559600D02*
D03*
X5752401Y8813600D02*
D03*
Y8559600D02*
D03*
X6006401Y8813600D02*
D03*
Y8559600D02*
D03*
X6768401Y8813600D02*
D03*
Y8559600D02*
D03*
X7022401Y8813600D02*
D03*
Y8559600D02*
D03*
X7276401D02*
D03*
X7530401Y8813600D02*
D03*
X1167701Y8267500D02*
D03*
Y8013500D02*
D03*
X1421701Y8267500D02*
D03*
Y8013500D02*
D03*
X2183701Y8267500D02*
D03*
Y8013500D02*
D03*
X2437701Y8267500D02*
D03*
Y8013500D02*
D03*
X2691701Y8267500D02*
D03*
Y8013500D02*
D03*
X2945701Y8267500D02*
D03*
Y8013500D02*
D03*
X3707701Y8267500D02*
D03*
X3961701D02*
D03*
X4215701D02*
D03*
Y8013500D02*
D03*
X4469701Y8267500D02*
D03*
Y8013500D02*
D03*
X5231701Y8267500D02*
D03*
Y8013500D02*
D03*
X5485701Y8267500D02*
D03*
Y8013500D02*
D03*
X5739701Y8267500D02*
D03*
Y8013500D02*
D03*
X5993701Y8267500D02*
D03*
Y8013500D02*
D03*
X6755701Y8267500D02*
D03*
Y8013500D02*
D03*
X7009701Y8267500D02*
D03*
Y8013500D02*
D03*
X7263701Y8267500D02*
D03*
Y8013500D02*
D03*
X7517701Y8267500D02*
D03*
D74*
X7530401Y8559600D02*
D03*
X7517701Y8013500D02*
D03*
D75*
X263501Y207200D02*
D03*
X877500Y7499748D02*
D03*
Y800000D02*
D03*
X644501Y8779700D02*
D03*
X7778149Y7499748D02*
D03*
X7883065Y1199878D02*
D03*
X8264200Y207100D02*
D03*
X8010501Y8779700D02*
D03*
M02*
