G04*
G04 #@! TF.GenerationSoftware,Altium Limited,Altium Designer,25.5.2 (35)*
G04*
G04 Layer_Color=16711935*
%FSLAX45Y45*%
%MOMM*%
G71*
G04*
G04 #@! TF.SameCoordinates,4A1FDDFA-50DE-4FE3-89EC-5C8A89288C0E*
G04*
G04*
G04 #@! TF.FilePolarity,Positive*
G04*
G01*
G75*
%ADD101C,0.50000*%
G36*
X9457890Y592173D02*
X9440562D01*
Y602422D01*
X9440350Y602211D01*
X9440139Y601894D01*
X9439822Y601577D01*
X9438871Y600415D01*
X9437709Y599147D01*
X9436124Y597667D01*
X9434433Y596082D01*
X9432425Y594709D01*
X9430312Y593441D01*
X9430206D01*
X9430101Y593335D01*
X9429678Y593229D01*
X9429255Y593018D01*
X9428093Y592490D01*
X9426614Y592067D01*
X9424818Y591539D01*
X9422810Y591011D01*
X9420697Y590694D01*
X9418478Y590588D01*
X9417949D01*
X9417315Y590694D01*
X9416470D01*
X9415413Y590905D01*
X9414146Y591116D01*
X9412772Y591433D01*
X9411293Y591856D01*
X9409708Y592278D01*
X9408017Y592912D01*
X9406326Y593758D01*
X9404530Y594709D01*
X9402839Y595765D01*
X9401043Y597139D01*
X9399353Y598618D01*
X9397662Y600309D01*
X9397556Y600415D01*
X9397345Y600732D01*
X9396817Y601366D01*
X9396288Y602105D01*
X9395654Y603162D01*
X9394915Y604324D01*
X9394175Y605803D01*
X9393330Y607388D01*
X9392484Y609290D01*
X9391745Y611298D01*
X9391005Y613623D01*
X9390371Y616053D01*
X9389843Y618694D01*
X9389420Y621547D01*
X9389103Y624612D01*
X9388997Y627782D01*
Y627993D01*
Y628627D01*
X9389103Y629472D01*
Y630740D01*
X9389209Y632219D01*
X9389420Y633910D01*
X9389737Y635918D01*
X9390054Y637925D01*
X9390477Y640144D01*
X9391005Y642363D01*
X9391745Y644582D01*
X9392484Y646907D01*
X9393435Y649126D01*
X9394598Y651239D01*
X9395866Y653247D01*
X9397345Y655043D01*
X9397451Y655149D01*
X9397768Y655466D01*
X9398190Y655888D01*
X9398824Y656522D01*
X9399670Y657262D01*
X9400726Y658001D01*
X9401888Y658847D01*
X9403156Y659798D01*
X9404636Y660643D01*
X9406326Y661488D01*
X9408017Y662228D01*
X9409919Y662968D01*
X9411927Y663602D01*
X9414040Y664024D01*
X9416364Y664341D01*
X9418689Y664447D01*
X9419217D01*
X9419851Y664341D01*
X9420697D01*
X9421753Y664130D01*
X9422916Y663919D01*
X9424184Y663602D01*
X9425663Y663179D01*
X9427248Y662651D01*
X9428938Y662017D01*
X9430629Y661171D01*
X9432320Y660220D01*
X9434116Y659164D01*
X9435807Y657790D01*
X9437497Y656311D01*
X9439188Y654515D01*
Y689701D01*
X9457890D01*
Y592173D01*
D02*
G37*
G36*
X9374416Y664341D02*
X9375050Y664236D01*
X9376635Y664024D01*
X9378537Y663602D01*
X9380650Y662968D01*
X9382869Y662017D01*
X9385088Y660854D01*
X9379276Y644582D01*
X9379065Y644688D01*
X9378431Y645110D01*
X9377586Y645533D01*
X9376423Y646167D01*
X9375050Y646695D01*
X9373571Y647224D01*
X9372091Y647541D01*
X9370506Y647646D01*
X9369872D01*
X9369133Y647541D01*
X9368182Y647329D01*
X9367125Y647118D01*
X9366068Y646695D01*
X9364906Y646167D01*
X9363849Y645427D01*
X9363744Y645322D01*
X9363427Y645005D01*
X9362898Y644476D01*
X9362264Y643631D01*
X9361631Y642575D01*
X9360891Y641201D01*
X9360151Y639616D01*
X9359517Y637608D01*
Y637503D01*
X9359412Y637291D01*
Y636974D01*
X9359306Y636446D01*
X9359200Y635812D01*
X9359095Y634861D01*
X9358883Y633804D01*
X9358778Y632536D01*
X9358672Y631057D01*
X9358461Y629367D01*
X9358355Y627465D01*
X9358249Y625246D01*
X9358144Y622815D01*
Y620174D01*
X9358038Y617215D01*
Y613940D01*
Y592173D01*
X9339335D01*
Y662862D01*
X9356664D01*
Y652718D01*
X9356770Y652824D01*
X9356876Y653035D01*
X9357087Y653352D01*
X9357404Y653881D01*
X9358249Y655149D01*
X9359306Y656628D01*
X9360574Y658213D01*
X9361842Y659692D01*
X9363215Y661066D01*
X9363955Y661700D01*
X9364589Y662122D01*
X9364800Y662228D01*
X9365223Y662439D01*
X9365963Y662862D01*
X9366914Y663285D01*
X9368182Y663707D01*
X9369555Y664130D01*
X9371035Y664341D01*
X9372725Y664447D01*
X9373782D01*
X9374416Y664341D01*
D02*
G37*
G36*
X9295062D02*
X9296330D01*
X9297598Y664236D01*
X9299077Y664024D01*
X9302142Y663707D01*
X9305206Y663179D01*
X9308165Y662439D01*
X9309432Y661911D01*
X9310700Y661383D01*
X9310806D01*
X9311017Y661277D01*
X9311334Y661066D01*
X9311651Y660854D01*
X9312814Y660220D01*
X9314082Y659375D01*
X9315561Y658213D01*
X9316935Y656945D01*
X9318308Y655466D01*
X9319365Y653881D01*
X9319471Y653669D01*
X9319576Y653352D01*
X9319788Y653035D01*
X9319999Y652507D01*
X9320210Y651767D01*
X9320422Y651028D01*
X9320633Y650077D01*
X9320844Y649020D01*
X9321056Y647858D01*
X9321267Y646484D01*
X9321478Y644899D01*
X9321690Y643209D01*
X9321795Y641412D01*
X9321901Y639405D01*
Y637186D01*
X9321584Y615313D01*
Y615208D01*
Y614891D01*
Y614468D01*
Y613834D01*
Y612989D01*
Y612143D01*
X9321690Y610136D01*
X9321795Y607917D01*
X9321901Y605592D01*
X9322112Y603479D01*
X9322323Y602422D01*
X9322429Y601577D01*
Y601366D01*
X9322640Y600837D01*
X9322852Y599886D01*
X9323169Y598724D01*
X9323591Y597350D01*
X9324225Y595765D01*
X9324965Y593969D01*
X9325810Y592173D01*
X9307319D01*
Y592278D01*
X9307214Y592490D01*
X9307002Y592912D01*
X9306791Y593546D01*
X9306580Y594286D01*
X9306157Y595237D01*
X9305840Y596399D01*
X9305417Y597667D01*
Y597773D01*
X9305312Y597984D01*
X9305206Y598618D01*
X9304995Y599358D01*
X9304889Y599675D01*
X9304783Y599886D01*
X9304572Y599675D01*
X9303938Y599147D01*
X9302987Y598301D01*
X9301719Y597245D01*
X9300240Y596188D01*
X9298443Y595026D01*
X9296541Y593863D01*
X9294534Y592912D01*
X9294428D01*
X9294323Y592807D01*
X9294006Y592701D01*
X9293583Y592595D01*
X9292526Y592173D01*
X9291047Y591750D01*
X9289356Y591327D01*
X9287349Y590905D01*
X9285235Y590694D01*
X9282911Y590588D01*
X9281854D01*
X9281115Y590694D01*
X9280164Y590799D01*
X9279107Y590905D01*
X9277945Y591116D01*
X9276677Y591327D01*
X9273929Y591961D01*
X9271076Y593018D01*
X9269597Y593758D01*
X9268224Y594497D01*
X9266956Y595343D01*
X9265688Y596399D01*
X9265582Y596505D01*
X9265371Y596716D01*
X9265159Y597033D01*
X9264737Y597456D01*
X9264208Y598090D01*
X9263680Y598724D01*
X9263152Y599569D01*
X9262623Y600520D01*
X9261989Y601577D01*
X9261461Y602634D01*
X9260404Y605275D01*
X9259982Y606649D01*
X9259770Y608128D01*
X9259559Y609713D01*
X9259453Y611404D01*
Y611509D01*
Y611721D01*
Y612038D01*
Y612460D01*
X9259559Y613517D01*
X9259770Y614996D01*
X9260193Y616687D01*
X9260616Y618483D01*
X9261355Y620279D01*
X9262306Y622076D01*
Y622181D01*
X9262412Y622287D01*
X9262835Y622815D01*
X9263469Y623661D01*
X9264420Y624717D01*
X9265476Y625880D01*
X9266850Y627042D01*
X9268435Y628204D01*
X9270231Y629155D01*
X9270337D01*
X9270442Y629261D01*
X9270759Y629367D01*
X9271182Y629578D01*
X9271710Y629789D01*
X9272344Y630106D01*
X9273190Y630318D01*
X9274035Y630635D01*
X9274986Y630951D01*
X9276148Y631374D01*
X9277416Y631691D01*
X9278684Y632114D01*
X9280164Y632431D01*
X9281749Y632853D01*
X9283333Y633276D01*
X9285130Y633593D01*
X9285235D01*
X9285658Y633699D01*
X9286398Y633804D01*
X9287243Y634016D01*
X9288300Y634227D01*
X9289568Y634438D01*
X9290941Y634755D01*
X9292421Y635072D01*
X9295379Y635812D01*
X9298443Y636552D01*
X9299817Y636974D01*
X9301191Y637397D01*
X9302353Y637820D01*
X9303410Y638242D01*
Y640039D01*
Y640144D01*
Y640250D01*
Y640990D01*
X9303304Y641941D01*
X9303093Y643103D01*
X9302776Y644371D01*
X9302247Y645639D01*
X9301613Y646907D01*
X9300662Y647858D01*
X9300557Y647963D01*
X9300134Y648175D01*
X9299394Y648597D01*
X9298443Y649020D01*
X9297070Y649443D01*
X9295274Y649865D01*
X9294217Y649971D01*
X9293160Y650077D01*
X9291892Y650182D01*
X9289673D01*
X9288722Y650077D01*
X9287666Y649971D01*
X9286398Y649654D01*
X9285024Y649337D01*
X9283756Y648809D01*
X9282594Y648175D01*
X9282488Y648069D01*
X9282171Y647752D01*
X9281643Y647329D01*
X9281009Y646590D01*
X9280269Y645639D01*
X9279530Y644371D01*
X9278790Y642892D01*
X9278156Y641201D01*
X9261355Y644265D01*
Y644371D01*
X9261461Y644688D01*
X9261672Y645216D01*
X9261884Y645956D01*
X9262201Y646801D01*
X9262623Y647752D01*
X9263680Y649971D01*
X9265054Y652507D01*
X9266744Y655043D01*
X9268752Y657367D01*
X9269914Y658530D01*
X9271182Y659481D01*
X9271288Y659586D01*
X9271499Y659692D01*
X9271922Y659903D01*
X9272450Y660220D01*
X9273190Y660643D01*
X9274141Y661066D01*
X9275197Y661488D01*
X9276360Y662017D01*
X9277839Y662439D01*
X9279318Y662862D01*
X9281009Y663285D01*
X9282911Y663707D01*
X9284918Y664024D01*
X9287137Y664236D01*
X9289462Y664447D01*
X9294111D01*
X9295062Y664341D01*
D02*
G37*
G36*
X9127162Y689595D02*
X9128430D01*
X9131283Y689489D01*
X9134136Y689278D01*
X9136883Y688961D01*
X9138045Y688855D01*
X9139208Y688644D01*
X9139419D01*
X9139736Y688538D01*
X9140159Y688433D01*
X9141215Y688221D01*
X9142589Y687799D01*
X9144174Y687270D01*
X9145865Y686531D01*
X9147661Y685685D01*
X9149352Y684629D01*
X9149457D01*
X9149563Y684523D01*
X9150091Y684100D01*
X9150936Y683361D01*
X9151993Y682516D01*
X9153155Y681248D01*
X9154423Y679874D01*
X9155691Y678289D01*
X9156854Y676493D01*
Y676387D01*
X9156959Y676281D01*
X9157171Y675964D01*
X9157382Y675647D01*
X9157805Y674591D01*
X9158439Y673217D01*
X9158967Y671526D01*
X9159495Y669519D01*
X9159812Y667406D01*
X9159918Y665081D01*
Y664975D01*
Y664764D01*
Y664447D01*
X9159812Y663919D01*
Y663285D01*
X9159707Y662651D01*
X9159495Y660960D01*
X9158967Y658952D01*
X9158333Y656839D01*
X9157488Y654726D01*
X9156220Y652507D01*
Y652401D01*
X9156008Y652296D01*
X9155797Y651979D01*
X9155586Y651556D01*
X9154740Y650605D01*
X9153578Y649337D01*
X9152099Y647963D01*
X9150408Y646484D01*
X9148401Y645110D01*
X9146182Y643948D01*
X9146287D01*
X9146604Y643843D01*
X9147027Y643631D01*
X9147661Y643420D01*
X9148401Y643103D01*
X9149246Y642786D01*
X9151253Y641835D01*
X9153367Y640673D01*
X9155691Y639088D01*
X9157910Y637291D01*
X9159812Y635072D01*
X9159918Y634967D01*
X9160024Y634755D01*
X9160235Y634438D01*
X9160552Y634016D01*
X9160975Y633382D01*
X9161397Y632642D01*
X9161820Y631797D01*
X9162243Y630951D01*
X9163088Y628733D01*
X9163933Y626302D01*
X9164461Y623449D01*
X9164673Y621970D01*
Y620385D01*
Y620279D01*
Y620068D01*
Y619751D01*
Y619223D01*
X9164567Y618694D01*
X9164461Y617955D01*
X9164250Y616264D01*
X9163933Y614257D01*
X9163299Y612143D01*
X9162560Y609819D01*
X9161503Y607388D01*
Y607283D01*
X9161397Y607071D01*
X9161186Y606754D01*
X9160975Y606332D01*
X9160235Y605169D01*
X9159284Y603796D01*
X9158122Y602211D01*
X9156642Y600520D01*
X9154952Y598830D01*
X9153050Y597350D01*
X9152944D01*
X9152838Y597245D01*
X9152521Y597033D01*
X9152099Y596716D01*
X9151570Y596505D01*
X9150936Y596188D01*
X9149457Y595448D01*
X9147555Y594603D01*
X9145231Y593863D01*
X9142695Y593229D01*
X9139842Y592807D01*
X9139313D01*
X9138785Y592701D01*
X9138151D01*
X9137306Y592595D01*
X9136249D01*
X9135087Y592490D01*
X9133608D01*
X9131917Y592384D01*
X9130015D01*
X9127796Y592278D01*
X9122619D01*
X9119554Y592173D01*
X9082995D01*
Y689701D01*
X9125894D01*
X9127162Y689595D01*
D02*
G37*
G36*
X9214758Y664341D02*
X9215814Y664236D01*
X9217188Y664130D01*
X9218773Y663919D01*
X9220569Y663602D01*
X9222471Y663179D01*
X9224479Y662545D01*
X9226592Y661911D01*
X9228811Y661066D01*
X9230924Y660009D01*
X9233143Y658847D01*
X9235362Y657473D01*
X9237370Y655783D01*
X9239377Y653986D01*
X9239483Y653881D01*
X9239800Y653458D01*
X9240328Y652930D01*
X9240962Y652084D01*
X9241808Y651028D01*
X9242653Y649865D01*
X9243498Y648386D01*
X9244555Y646801D01*
X9245506Y645005D01*
X9246351Y642997D01*
X9247302Y640778D01*
X9248042Y638454D01*
X9248676Y636023D01*
X9249204Y633382D01*
X9249521Y630635D01*
X9249627Y627676D01*
Y627465D01*
Y626936D01*
X9249521Y626091D01*
Y625034D01*
X9249310Y623661D01*
X9249098Y622076D01*
X9248781Y620279D01*
X9248359Y618377D01*
X9247830Y616264D01*
X9247091Y614151D01*
X9246245Y611932D01*
X9245294Y609713D01*
X9244026Y607388D01*
X9242653Y605275D01*
X9241068Y603056D01*
X9239272Y601049D01*
X9239166Y600943D01*
X9238849Y600626D01*
X9238215Y600098D01*
X9237370Y599464D01*
X9236419Y598618D01*
X9235151Y597773D01*
X9233777Y596822D01*
X9232192Y595871D01*
X9230396Y594814D01*
X9228388Y593863D01*
X9226275Y593018D01*
X9223950Y592278D01*
X9221520Y591539D01*
X9218878Y591011D01*
X9216131Y590694D01*
X9213278Y590588D01*
X9212327D01*
X9211588Y590694D01*
X9210742D01*
X9209791Y590799D01*
X9208629Y590905D01*
X9207361Y591116D01*
X9204508Y591644D01*
X9201338Y592384D01*
X9198063Y593441D01*
X9194787Y594920D01*
X9194681Y595026D01*
X9194364Y595131D01*
X9193942Y595343D01*
X9193308Y595765D01*
X9192568Y596188D01*
X9191828Y596822D01*
X9189821Y598196D01*
X9187708Y599992D01*
X9185489Y602211D01*
X9183375Y604852D01*
X9181473Y607811D01*
Y607917D01*
X9181262Y608234D01*
X9181051Y608656D01*
X9180734Y609290D01*
X9180417Y610136D01*
X9179994Y611087D01*
X9179677Y612249D01*
X9179254Y613517D01*
X9178832Y614996D01*
X9178409Y616581D01*
X9177986Y618272D01*
X9177669Y620068D01*
X9177352Y621970D01*
X9177141Y624083D01*
X9177035Y626197D01*
X9176930Y628416D01*
Y628521D01*
Y628838D01*
Y629367D01*
X9177035Y630001D01*
Y630846D01*
X9177141Y631902D01*
X9177352Y632959D01*
X9177458Y634227D01*
X9178092Y636974D01*
X9178832Y640039D01*
X9179994Y643209D01*
X9180628Y644899D01*
X9181473Y646484D01*
X9181579Y646590D01*
X9181685Y646907D01*
X9182002Y647329D01*
X9182319Y647963D01*
X9182741Y648703D01*
X9183375Y649548D01*
X9184749Y651450D01*
X9186651Y653564D01*
X9188870Y655783D01*
X9191406Y657896D01*
X9194364Y659798D01*
X9194470Y659903D01*
X9194787Y660009D01*
X9195210Y660220D01*
X9195844Y660537D01*
X9196689Y660854D01*
X9197640Y661277D01*
X9198697Y661700D01*
X9199859Y662122D01*
X9201233Y662545D01*
X9202712Y662968D01*
X9205882Y663707D01*
X9209369Y664236D01*
X9211271Y664447D01*
X9213912D01*
X9214758Y664341D01*
D02*
G37*
%LPC*%
G36*
X9423655Y650182D02*
X9423021D01*
X9422599Y650077D01*
X9421331Y649865D01*
X9419746Y649548D01*
X9418055Y648914D01*
X9416153Y647963D01*
X9415202Y647329D01*
X9414357Y646590D01*
X9413406Y645744D01*
X9412561Y644793D01*
Y644688D01*
X9412349Y644582D01*
X9412138Y644265D01*
X9411821Y643843D01*
X9411504Y643209D01*
X9411187Y642575D01*
X9410764Y641729D01*
X9410342Y640884D01*
X9409919Y639827D01*
X9409496Y638665D01*
X9409179Y637291D01*
X9408862Y635918D01*
X9408545Y634438D01*
X9408334Y632748D01*
X9408228Y630951D01*
X9408123Y629050D01*
Y628944D01*
Y628521D01*
Y627993D01*
Y627253D01*
X9408228Y626302D01*
X9408334Y625246D01*
Y623978D01*
X9408545Y622815D01*
X9408862Y620068D01*
X9409391Y617427D01*
X9410130Y614785D01*
X9410659Y613728D01*
X9411187Y612672D01*
X9411293Y612566D01*
X9411398Y612355D01*
X9411715Y612038D01*
X9412032Y611509D01*
X9413089Y610347D01*
X9414463Y609079D01*
X9416259Y607705D01*
X9418372Y606543D01*
X9419640Y606015D01*
X9420908Y605698D01*
X9422282Y605486D01*
X9423761Y605381D01*
X9424395D01*
X9424818Y605486D01*
X9426086Y605698D01*
X9427565Y606015D01*
X9429255Y606649D01*
X9431157Y607705D01*
X9432003Y608234D01*
X9432954Y608973D01*
X9433905Y609819D01*
X9434750Y610770D01*
X9434856Y610875D01*
X9434961Y610981D01*
X9435173Y611404D01*
X9435490Y611826D01*
X9435807Y612355D01*
X9436229Y613094D01*
X9436652Y613940D01*
X9437075Y614891D01*
X9437497Y615947D01*
X9437814Y617215D01*
X9438237Y618589D01*
X9438554Y620068D01*
X9438871Y621653D01*
X9439082Y623344D01*
X9439294Y625246D01*
Y627253D01*
Y627359D01*
Y627782D01*
Y628416D01*
X9439188Y629261D01*
Y630212D01*
X9439082Y631374D01*
X9438977Y632642D01*
X9438765Y634016D01*
X9438237Y636869D01*
X9437392Y639827D01*
X9436335Y642469D01*
X9435595Y643737D01*
X9434856Y644793D01*
Y644899D01*
X9434644Y645005D01*
X9434116Y645639D01*
X9433165Y646484D01*
X9431791Y647541D01*
X9430206Y648492D01*
X9428304Y649337D01*
X9426086Y649971D01*
X9424923Y650077D01*
X9423655Y650182D01*
D02*
G37*
G36*
X9303410Y626091D02*
X9303198Y625985D01*
X9302670Y625880D01*
X9301825Y625563D01*
X9300557Y625246D01*
X9298972Y624823D01*
X9296964Y624295D01*
X9294640Y623766D01*
X9291892Y623132D01*
X9291787D01*
X9291575Y623027D01*
X9291153D01*
X9290624Y622815D01*
X9289356Y622498D01*
X9287771Y622181D01*
X9286081Y621653D01*
X9284390Y621125D01*
X9282911Y620596D01*
X9282277Y620279D01*
X9281749Y619962D01*
X9281643Y619857D01*
X9281220Y619540D01*
X9280586Y618906D01*
X9279952Y618166D01*
X9279318Y617215D01*
X9278684Y616053D01*
X9278262Y614785D01*
X9278156Y613411D01*
Y613200D01*
Y612777D01*
X9278262Y612038D01*
X9278473Y611087D01*
X9278896Y610030D01*
X9279318Y608868D01*
X9280058Y607811D01*
X9281009Y606649D01*
X9281115Y606543D01*
X9281537Y606226D01*
X9282171Y605698D01*
X9283016Y605275D01*
X9284179Y604747D01*
X9285447Y604219D01*
X9286926Y603902D01*
X9288511Y603796D01*
X9288722D01*
X9289356Y603902D01*
X9290307Y604007D01*
X9291575Y604219D01*
X9293055Y604641D01*
X9294745Y605169D01*
X9296436Y606015D01*
X9298126Y607071D01*
X9298232Y607177D01*
X9298655Y607494D01*
X9299289Y608022D01*
X9299923Y608762D01*
X9300768Y609713D01*
X9301508Y610770D01*
X9302142Y611932D01*
X9302670Y613200D01*
Y613306D01*
X9302776Y613728D01*
X9302881Y614362D01*
X9303093Y615208D01*
X9303198Y616476D01*
X9303304Y618060D01*
X9303410Y619962D01*
Y622287D01*
Y626091D01*
D02*
G37*
G36*
X9120717Y673428D02*
X9102648D01*
Y650922D01*
X9121668D01*
X9124098Y651028D01*
X9126422D01*
X9127479Y651133D01*
X9128430D01*
X9129275Y651239D01*
X9130121D01*
X9130755Y651345D01*
X9131706Y651556D01*
X9132762Y651873D01*
X9134030Y652296D01*
X9135404Y652930D01*
X9136672Y653669D01*
X9137834Y654620D01*
X9137940Y654726D01*
X9138257Y655149D01*
X9138785Y655783D01*
X9139313Y656734D01*
X9139842Y657790D01*
X9140370Y659164D01*
X9140687Y660643D01*
X9140793Y662334D01*
Y662545D01*
Y663073D01*
X9140687Y663919D01*
X9140476Y664870D01*
X9140159Y666032D01*
X9139736Y667300D01*
X9139102Y668462D01*
X9138257Y669625D01*
X9138151Y669730D01*
X9137834Y670047D01*
X9137200Y670575D01*
X9136355Y671104D01*
X9135298Y671738D01*
X9134030Y672266D01*
X9132551Y672689D01*
X9130755Y673006D01*
X9130438D01*
X9130121Y673111D01*
X9129170D01*
X9128430Y673217D01*
X9126634D01*
X9125366Y673323D01*
X9122513D01*
X9120717Y673428D01*
D02*
G37*
G36*
X9120928Y634650D02*
X9102648D01*
Y608656D01*
X9124309D01*
X9126528Y608762D01*
X9128853D01*
X9131072Y608868D01*
X9132023Y608973D01*
X9132974D01*
X9133713Y609079D01*
X9134347Y609185D01*
X9134559D01*
X9135087Y609396D01*
X9135932Y609607D01*
X9136883Y610030D01*
X9138045Y610558D01*
X9139208Y611192D01*
X9140476Y612038D01*
X9141532Y613094D01*
X9141638Y613200D01*
X9141955Y613623D01*
X9142483Y614362D01*
X9143012Y615313D01*
X9143434Y616476D01*
X9143963Y617849D01*
X9144280Y619540D01*
X9144385Y621336D01*
Y621547D01*
Y622076D01*
X9144280Y622921D01*
X9144068Y623872D01*
X9143857Y625034D01*
X9143434Y626302D01*
X9142906Y627570D01*
X9142166Y628733D01*
X9142061Y628838D01*
X9141744Y629261D01*
X9141321Y629789D01*
X9140581Y630423D01*
X9139736Y631163D01*
X9138679Y631902D01*
X9137411Y632536D01*
X9136038Y633170D01*
X9135827Y633276D01*
X9135615D01*
X9135193Y633382D01*
X9134664Y633487D01*
X9134030Y633593D01*
X9133291Y633804D01*
X9132340Y633910D01*
X9131283Y634016D01*
X9130015Y634227D01*
X9128536Y634333D01*
X9126951Y634438D01*
X9125154Y634544D01*
X9123147D01*
X9120928Y634650D01*
D02*
G37*
G36*
X9213173Y649231D02*
X9212433D01*
X9212010Y649126D01*
X9211376Y649020D01*
X9210637Y648914D01*
X9208946Y648492D01*
X9206938Y647858D01*
X9204931Y646907D01*
X9203874Y646273D01*
X9202923Y645533D01*
X9201867Y644582D01*
X9200916Y643631D01*
Y643526D01*
X9200704Y643420D01*
X9200493Y642997D01*
X9200176Y642575D01*
X9199753Y642046D01*
X9199331Y641307D01*
X9198908Y640461D01*
X9198485Y639510D01*
X9198063Y638454D01*
X9197640Y637186D01*
X9197217Y635918D01*
X9196795Y634438D01*
X9196478Y632853D01*
X9196266Y631163D01*
X9196161Y629367D01*
X9196055Y627465D01*
Y627359D01*
Y627042D01*
Y626408D01*
X9196161Y625774D01*
Y624823D01*
X9196266Y623872D01*
X9196478Y622710D01*
X9196689Y621442D01*
X9197217Y618906D01*
X9198063Y616159D01*
X9199331Y613623D01*
X9200070Y612355D01*
X9200916Y611298D01*
X9201021Y611192D01*
X9201127Y611087D01*
X9201444Y610770D01*
X9201761Y610453D01*
X9202923Y609607D01*
X9204297Y608551D01*
X9206093Y607494D01*
X9208206Y606649D01*
X9210531Y606015D01*
X9211799Y605909D01*
X9213173Y605803D01*
X9213912D01*
X9214441Y605909D01*
X9214969Y606015D01*
X9215709Y606120D01*
X9217399Y606543D01*
X9219407Y607177D01*
X9221414Y608128D01*
X9222471Y608762D01*
X9223528Y609502D01*
X9224479Y610347D01*
X9225430Y611298D01*
X9225535Y611404D01*
X9225641Y611615D01*
X9225852Y611932D01*
X9226169Y612355D01*
X9226592Y612883D01*
X9227015Y613623D01*
X9227437Y614468D01*
X9227966Y615419D01*
X9228388Y616476D01*
X9228811Y617743D01*
X9229234Y619117D01*
X9229656Y620491D01*
X9229973Y622076D01*
X9230184Y623766D01*
X9230396Y625668D01*
Y627570D01*
Y627676D01*
Y627993D01*
Y628627D01*
X9230290Y629261D01*
Y630212D01*
X9230184Y631163D01*
X9229973Y632325D01*
X9229762Y633487D01*
X9229234Y636129D01*
X9228283Y638771D01*
X9227120Y641307D01*
X9226275Y642575D01*
X9225430Y643631D01*
X9225324Y643737D01*
X9225218Y643843D01*
X9224901Y644159D01*
X9224584Y644476D01*
X9223528Y645427D01*
X9222048Y646484D01*
X9220252Y647435D01*
X9218139Y648386D01*
X9215814Y649020D01*
X9214546Y649126D01*
X9213173Y649231D01*
D02*
G37*
%LPD*%
D101*
X0Y200000D02*
G03*
X200000Y0I200000J0D01*
G01*
X8322000D02*
G03*
X8522000Y200000I0J200000D01*
G01*
X7924500D02*
G03*
X8124500Y0I200000J0D01*
G01*
X2017500D02*
G03*
X2217500Y200000I-0J200000D01*
G01*
X1250000Y200001D02*
G03*
X1450000Y0I200000J-1D01*
G01*
X450000D02*
G03*
X650000Y200001I-0J200000D01*
G01*
X7924500Y213224D02*
G03*
X7757993Y449767I-251285J-9D01*
G01*
X1250000Y200001D02*
G03*
X650000Y200001I-300000J0D01*
G01*
X8522000Y382361D02*
G03*
X8453767Y477181I-100000J0D01*
G01*
X7658599Y590972D02*
G03*
X7757993Y449767I150000J0D01*
G01*
X200334Y713461D02*
G03*
X0Y513462I-334J-200000D01*
G01*
X477500Y9015049D02*
G03*
X377500Y8915049I0J-100000D01*
G01*
X546081Y7717259D02*
G03*
X377500Y7569906I-19892J-147353D01*
G01*
Y8362694D02*
G03*
X546081Y8215341I148690J0D01*
G01*
X546081Y7717259D02*
G03*
X546081Y8215341I33619J249041D01*
G01*
X2417500Y1791238D02*
G03*
X2217500Y1591238I-0J-200000D01*
G01*
X4211155Y1791238D02*
G03*
X4261155Y1841238I-0J50000D01*
G01*
X4861155Y1961238D02*
G03*
X4261155Y1961238I-300000J0D01*
G01*
X4861155Y1841238D02*
G03*
X4911155Y1791238I50000J-0D01*
G01*
X6983599Y1691238D02*
G03*
X6883599Y1791238I-100000J0D01*
G01*
X6983599Y1339500D02*
G03*
X7183600Y1139500I200000J0D01*
G01*
X7658599Y814500D02*
G03*
X7333599Y1139500I-325000J0D01*
G01*
X8109033Y8218158D02*
G03*
X8109404Y7720076I-33433J-249066D01*
G01*
X8109033Y8218158D02*
G03*
X8277488Y8363351I19782J147367D01*
G01*
X8278075Y7575134D02*
G03*
X8109404Y7720076I-148670J-2396D01*
G01*
X8277077Y8915813D02*
G03*
X8188803Y9015049I-100000J-74D01*
G01*
X8283186Y714045D02*
G03*
X8453767Y477181I250000J186D01*
G01*
X0Y200000D02*
Y513462D01*
X200000Y0D02*
X450000D01*
X1450000D02*
X2017500D01*
X8124500D02*
X8322000D01*
X7924500Y200000D02*
Y213224D01*
X8522000Y200000D02*
Y382361D01*
X200334Y713461D02*
X377500Y713165D01*
Y8362694D02*
Y8915049D01*
Y713165D02*
Y7569906D01*
X2217500Y200000D02*
Y1591238D01*
X2417500Y1791238D02*
X4211155D01*
X4261155Y1841238D02*
Y1961238D01*
X477500Y9015049D02*
X8188803D01*
X4861155Y1841238D02*
Y1961238D01*
X4911155Y1791238D02*
X6883599D01*
X6983599Y1339500D02*
Y1691238D01*
X7183599Y1139500D02*
X7333599D01*
X7658599Y590972D02*
Y814500D01*
X8277077Y8915813D02*
X8277488Y8363351D01*
X8278075Y7575134D02*
X8283186Y714045D01*
M02*
